<mxfile host="app.diagrams.net" agent="Mozilla/5.0 (X11; Linux x86_64) AppleWebKit/537.36 (KHTML, like Gecko) Chrome/124.0.0.0 Safari/537.36" version="27.0.9">
  <diagram name="Page-1" id="fUC6dL2m5zsGTrD6ofMB">
    <mxGraphModel dx="3634" dy="1189" grid="1" gridSize="10" guides="1" tooltips="1" connect="1" arrows="1" fold="1" page="1" pageScale="1" pageWidth="850" pageHeight="1100" math="0" shadow="0">
      <root>
        <mxCell id="0" />
        <mxCell id="1" parent="0" />
        <mxCell id="BVL4bL25nlAPJT_1eoTr-1" value="" style="shape=image;verticalLabelPosition=bottom;labelBackgroundColor=default;verticalAlign=top;aspect=fixed;imageAspect=0;image=data:image/png,iVBORw0KGgoAAAANSUhEUgAAAeMAAAIECAYAAAAq3kafAAAABHNCSVQICAgIfAhkiAAAIABJREFUeF7snQdck1f3x39JCCB7bxEEFRURB7jqqFpf+1pw4Kirtq7WUau1Wq1Qa121C1/r2751dFhnRamzjurf0VYraN1WHCAoCmGDIISQ/30SEgMkgTACgXM/n6i585zvfcx57jqXJ2UBFIgAESACRIAIEIF6I8Cvt5apYSJABIgAESACREBGgIwxPQhEgAgQASJABOqZABnjeu4Aap4IEAEiQASIABljegaIABEgAkSACNQzATLG9dwB1DwRIAJEgAgQATLG9AwQASJABIgAEahnAmSM67kDqHkiQASIABEgAmSM6RkgAkSACBABIlDPBMgY13MHUPNEgAgQASJABMgY0zNABIgAESACRKCeCZAxrucOoOaJABEgAkSACBjVBQLe2st1US3VSQRqnYB0bmCt10kVEgEiQAR0JUAjY12JUX4iQASIABEgArVMoE5GxkoZ53WqZXGpOiJQSwQi/66liqgaIkAEiEDNCdDIuOYMqQYiQASIABEgAjUiQMa4RvioMBEgAkSACBCBmhMgY1xzhlQDESACRIAIEIEaESBjXCN8VJgIEAEiQASIQM0J1O0GLnXyfXoeEJqoS1Efx20Cs3cH0h+pT6dYgyJg5DsRm6I+xVAvI8SE98HGXn/i7fOd0O8/CSjRpomwOz69+h2kkwLw/oXicjmF6PHZNWwqnoiOi2NQPlVbtZRGBIgAEWgIBPQ7MtbVEHOEuF2vtWWIhb3wZdxNrAnW/ztIQ+hspQz1xkGIXnOWoevxEXCzccSg9XG4tGUxvjqdAWmDAkTCEAEiQAT0S0C/VkmXEbF+OdR9awIBBBIJJHXfUgNuwRiu7nZ4+OtdPJNJKcG9X/+Hew1YYhKNCBABIqAPAvodGTONpnb3UPvhlFWXpgmCsVcoVu67jEdZuchJS8CFTePgxWnDc8CgZQdwMV6E7LwcpFw/iOWD3cCHCYas24YpXr5485e7SEiIw47XXMBjRYSeQ7B831UkZ+Uh58lV7FncF45cAku1CpqDnVeeICvjEa7vW4qF393GjdVBULzFmPu/jv+duY/03Fykx5/Fhjc6wJwrKuyLdfeuYfOSz7D//GX8c/ELjH//D6REjYWdrG4umKDPf+7izto+7F+ag0ZdTYZje8b/YXZzRTcK8ULkHVxZ3lkuH98d/159BLdSMpGVmY7Hcf+HJd0sNHLQrssV/Pedj3Dglgi5OYk489kQNPceji//7y4y8rIRfzQcvW2UilVUhmeL0T9cxrrBluiz+iLiExJYHyQgNe8ZzrzjxfpHHjT3hWqVPFh2mY0dl58gOzMZ1/d/gN72Km2r1VtYUSaKIQJEgAg0EAJ6N8ba9H5aXMVxo3EXLIn+Di/dDUcvNyvYeARjynfXkCeb6+Qh/8ZmTO3RAnZWbuj7WQ7Gf8/WKK0LcWjOeGxOuItvh/nCy6s1xm55AqmwI97fsxn9r89DV2crOPeIQMrYn/DVKEfwzPpg+fZFsNj4Epo7eKLfZwKEDPdUGg40ewEfR32GNkfHo7WtLVqN/RW+a6KwonczuZpGbfBy55uY1zcQfoHzsHXHNlzrPRYhcksPNOuDcUOLsGf7ORRqAqNVV02F5PHCHvOxduh9zOvgCBtbZ7T51/s4kJSvnkOlurTC8JdysKynKxw6fojUcZvwfz+G4OrMTnB07oX1RnPx6fRWEGgSSZqJn1/vhLnHcnF6URd4e3mxPmiDtw4UPC+hrS9U623WG8t3hMPux8Fobu+J/mvNEDbyeb+o17uKz5Ym+SmeCBABIlCHBBqUMTY30vhTXgaBMHgCxjtG48OIg0jIl6LkWSqu/XkNaZwxlorw+8+/4O8n+ZCU5OGfbZHYlR6EF9qrHxkJu07Ea6778fHyE0guLEFB/H4s/+8/GDCiD6yDwhDK341PN1xDbokEab9/jnXH8pWyCINHY4RZFFZ+cQ7pxcXIOP8FVuw2xYgx3SFrreQJfvnvNtyTWVomZ9JebIsJxqtDXWUjcosB4/BK1m7suCQuo5/qF626aiwlT5AWFaHY0hMBHVrCTliMnPgLuJqsfptU5bqIEP3lesRmFqMwfg/2XrDA05NrsfVWLiRPbyJq/w207thOOWNQiWhqk7X1hZlKCWHwSAw13oNPvr6MnJJipJ5cjf/8Jp/45rLpordaQSiSCBABIqBnAvpdM2bKbTr/UKOK2tJUCwmc2ejs8RU8UDec5Fmhy9RPsHLGILRzFKJEYgQrZx5+Nlc/hSpw9YCbXX98c7kPihSNGFui6LIlrBydYZsai8fKQVUBHidnKHf9ChycYJdyBY+UtrQYDxOfwLarIzNKKcwYZ0CUrmL8pCnYv/UsVk4bjubfbUXQuMF4tKs/rmvZ/qtVV40k5QnFsZ/gtY+XY+ma3/CBrxT//Potlrz7CU6kVSxYFV3SlLoU4dmzYqSLFCykKHxWBIGx8fNZg4pNVBqjrS8sVLqPk9X28UU8VHJ7isQHacp+0aj3Y/UvIpUKRhmIABEgAnVMQO/GGJr8VXO7ptWlqfEhLElJRpqLNzyNgVsqs5wcK6MO87DpI3ds+FdXvHI9C8VGnbHi7/1wLAUp5cakKj/sktTHePJoG94ImIezSmsszyzs2xmZTh5wZQP2OzKD3Ayubnbg35enS9JSkeHcHG6M4i1ZuhE8PF2QmSIqPV5Tfo+wFOmHt+K3z9/DqC7Z6DngDnaG39a6qUubrmCvD0VFRhAqB/18WFpbgJ+nUDYLsRvfRgj7CB06Yfqmg/g+/Dx85xaycXo5DpXqUlpnHf6lrS/AjjYpgoy7rSPs2byOvF+EcHC0AT+pEr1nnXz+wlWHelDVRIAIEAFdCTSoaWpY2FRJfvGF7dieNhzLPnoZns144Jk4wr+HPxw4+2JhCbP8h4hLYIaYjdMcB0zFyNal098lmUjPtoO3l5XSHosv/ISfssdgRfhL8DRjFQiawandAPw7yBHFMdE4KB2FBdP8YcETwOGF9zBn0PMJU/GF3filYCQWzw2CLdstbRs0Fx+MKkT07r+gceI55zi2HmrODONi9L22A1EJ2kdr2nSF+BauxLVC/35usrVaY++xmPaynVI3YdvBGN3TC5bsZUGck4qU7EI2dS+BVC2HauhSpd6qeiZtfaE6ryGO2YMD/OGY+i9H2Uhc6DMB0wZbV6531UWhnESACBABvRLQrzGWlh8pltM1L6tqyhfFYsWIaTjV/jNcSMlB1qMYbJ7cgRlMZnT+WofFv3bA15f+xu8nj2HjKyKc+6d0PlNyGzsjD8Hny3vIykrFgalu4BVdwsrhU3Cy3Wr88TCH7cyOxx/fzUSQHUOTfwrh4z9DwVsn8Sg9EacWSnBo30OI2RElWSg4i4hRixEfshv3srJwb3coEj4YhfDTz9eVKyqUj9Nbf4FRW0/8tT0aD7XbYjb41awrSuKxeeEXKHn3DK7H/onjn7fG9VMPldO1PKsOeG39KcSnZyPryQVEWP+IaSvPMvnVcKiWLhW1q1GMtr5QrTj/DCImrIflsrP4+89TOPZFW1z97YFyhkGj3jUSjgoTASJABOqOAE/KQm1Xz1t7WV5lFaedtbavrg6tBeoy0RqvRt3Dm6c7YcBXSdo9RmkRg+8zH2fO9cTXbUdie3qt49fSMiUpCZQuf0jnBhIUIkAEiEC9E2g4a8b1jkKdAHx49BwEl3sncZHtx3IZuATv9otDVHhytQ0xYIkeM15H8wOLcIAMsTroFEcEiAARaHIE9G+MDQoxD+btJ+OHqG1wM+WjOP1v7JrzBtb9U70zqzzbcdgV9z+8+HgP5oQeQW4pC77XdEQd/wCdy5++El/CqpdGYkMl68oNCWlj0qUhcSVZiAARaNwE9D9N3bh5knaGQoCmqQ2lp0hOItAkCOh3A1eTQEpKEgEiQASIABHQjQAZY914UW4iQASIABEgArVOgIxxrSOlCokAESACRIAI6EagbjdwqfGepZt4lJsIEAEiQASIQOMnUKfGmM5wNv4HyFA1VJ6FN1QFSG4iQAQaFQGapm5U3UnKEAEiQASIgCESIGNsiL1GMhMBIkAEiECjIkDGuFF1JylDBIgAESAChkiAjLEh9hrJTASIABEgAo2KQJ1u4FIldTerEG1+vIUSHe9FMBbwEDepLVpYscuLKRABIkAEiAARaIQE9DYyro4h5ngXSaTw+u5mWfSF0RhnyWf3GPfG2nh1dxAWI2axH4Q8I3i+fUrz3cKNsENJJSJABIgAETA8AnobGZcfETe3FOKDIGeYGvHxxcVUXE9/JqOXOyuAjZ6lMiPMDaLjs4vQbWdcWbJ8O/gGdUM3cTu4mBoedJKYCBABIkAEiIAqAb0ZY9VG+TzgRJgvWtmYyKKH+ljDh41+MwslsPzv1cp7SNgXH588h48rz0k5iAARIAJEgAg0eAJ6m6ZWJeFjbaI0xFy8rYkAwS5msiwWQj6s2XfuwxlttaHCNLUU6WdWY3h7B5iZOaFD2Kf4ne4KVouOIokAESACRKDhEaiXkfGD3CI8yhPD3UJ+ge9TcQkuiwpkdK5O9IN36WatQjZVbfrVlUqpSdOjMWdMOH5JEcCt2zB0fLYdK76/h+rdOlxpc5SBCBABIkAEiECtEqgXY8ytBw+OvoePerjAjK0ZfxKTipT8YpliLctv1qqCurm/7cCBlBIIvN/Gjv9biz4mKfjuFV9MPSw38FWogrIQASJABIgAEag3AvVijDltuQ1bIw8m1ILiJch8koJCttvLyLc9/LhlaJ4d2rVzAf9wfC3UT1UQASJABIgAEahbAvVijNvamSKkpRXasb+N2MLw7cxCLP/riVJTxQUTVXPmz4etizNM2PpyweOHSGZz005Gz/DoUTrUHXqqW5xUOxEgAkSACBAB3Qno1Rhzx5i2DvZEmK9NBUkVxpgzxAojrPrvCgVUIiwHjMEQp73YeWMdpk0TYKRTDDbszWJHo+plf5o2USmNCBABIkAEiEAFAnq1VhP8bNUa4gpS6RjBcwjDVzuXIaQ1H9d2RGLTJV+MHdESAh3roexEgAgQASJABOqDgF5HxieTcmUbtSTMqYeAx4M5O8YkYd5AilQ8gnCj4kqnqU2GY3tuCbarEHPoF479t8JVYiKxQjVDfdClNokAESACRIAIVIGAXo3xfeZNy2XD9UrFUjXIlWamDESACBABIkAEDJyA3qapM2d0qDIqxci4ygUoIxEgAkSACBABAyagt5GxDfOopc3IerPzxQk5RTKU5XdRe9GNTQb8iJHoRIAIEAEiUBkBvRnjygSJn9yusiyUTgSIABEgAkSgURLQ2zR1o6RHShEBIkAEiAARqAUCZIxrASJVQQSIABEgAkSgJgTqdJq6/NpvTQSlskSACBABIkAEGiuBOjXG2jZsNVagpJdhEKAXRcPoJ5KSCDQVAjRN3VR6mvQkAkSACBCBBkuAjHGD7RoSjAgQASJABJoKATLGTaWnSU8iQASIABFosATIGDfYriHBiAARIAJEoKkQqNMNXKoQ72YVos2Pt6ByJ0SVGBsLeIib1BYtyAtXlXhRJiJABIgAETA8AnobGVfHEHM4iyRSeDFXmU02iM9jYdt2eP9CsRoEYpxb4If2i2OgLlVNAYoiAkSACBCBBkhAbyPj8iPi5pZCfBDkDFMjPr64mIrr6c9keHJnBbDRM7tWkRlhKfsez2566rYzrnbQif/Au+2nQbj1KtYE6031msku8MawiHDwvPT23lQzeak0ESACRIAI6EygXiwSnwecCPNFKxsTmcBDfazhw0a/mYUSWP73qs5KGEQBiQQSgQACXYXlO6PnuHG6lqL8RIAIEAEiYEAE6mW45WNtojTEHCtbdqNTsIuZDJuFkA9r9p37cEZbUyhK2I8lQwPhbmMJKwcvBE/djoQSlluahmNLQ9DF2xHWFlZw9n8FEUeSUYJCHJozHpsT7uLbYb7w8mqNsVueyEbf4sRDiBgaADcbC1i5BCBs9WmIuASWmhOzDq92dIGNnTv8hy7Dp5PblJkWfnr9B7zVpyXsLS1h790b07+/hqdcUfFpzPHpgCkrFyC0eyD8uszHtjW94DxyBzJkdXOhEGfeYS8lc8+wf2kIZaappci9uB5jA11gbesG/9BVOJuurExDBRRNBIgAESACDZ1AvRjjB7lFeJQnVrJ5Ki7BZVGB7PvViX7IYncfc5/82R3V8yu6iJXDJ+O47wr8kZyDrIcXsHlyB1jIjLcUZu2nYNO5B8jIScbpBVbY9sZC7Ms2wZB12zDFyxdv/nIXCQlx2PGaC3jiK1gTNgUn/SMRm5KDlHPL4bxjIt7eLYI0/wwixn2CvGnHkZSWiFMLJDgQncgMe2ko+B0fjlyA2//ahrjMTNzZ8TLuvj8S4WfluqD4Nn691A6Rpy/jn8uRmDB2PDqc3YEDcksPFJzB9n3GCBvXA/I5AvXqKmMLziJi7ApkTDqCpPREnJybjz1RKvJUUpySiQARIAJEoGESqBdjzK0HD46+hz13s/BrQg7+/ct9pOTLtyC1ZNPVnKtC7mP61RW11MQXtmKbaDg+Xv4KvMx44Js6oUPPDnDgjDHPES+MHoZObKQt4FvAb/w8jLGPwe83nht/1UrFsT9hy+NQfBgxAG4mfDTzDkXELD+c2HsG2TF7sL9kFBZO7wBLvgAOL7yHOYPkI3iuDvGFn7E3fySWzO8BeyMj2HWfj/BRz7B313nIWuO7YNis8fCRWVomZ/MRGB90ATv3PZaNyPNObMdBm1EY21moKpLGf4svRGFfURgWzQyEFd8ITv0X452BphrzUwIRIAJEgAgYBoF6WTPm0HAbtkYeTKgWJUnKY6S5dkQLdcNJaQ4ublqEJd8cw02RGHxBMXJSpBj9VP10ruTxQyRnnMSMwDMwVkhTlAvjwFzkiFKQ6dQVrsqF3mZwdbOD4g1GkpaKDOeOcFfaUiN4eLogM1bEdjc7M2NsB0d7lfcdnjNCJ/TGko3RSJo8ATHbj8B9zEn4V7EXuPYyXbvAQ5nfHJ4tHJTyVAsmFSICRIAIEIF6J1BFM1C7cra1M0VISyu0Y38bsYXh25mFshFybEp+lRoSOLvB4Uk8EouAts3KFim+FompHz3C9KOxOOhvA6PiSwjvFApRaTYeNyZVscsCJ1e4uI/H91cj0VtpjeWZxacvwTb1IR5LgFYyg1yAx8kZKGkpTxc4OMEuJQnJbFDfVpZejIeJT2Dr7Ag52PKL3jzY/3sCBr73OXZftMafJ1rh1RVtqrypS9ZepgjpbJ5cLo8YaaIslDQvy4C+EQEiQASIgGER0Os0NXeMKeoVL9x8zQ9rXnDDpHZ2GO9ni497uCBmbGucHuULh2aVvx8Ig8dhnEM0ln70KxIL2BGoQhGun7uONM7O5uUi38wDrb2YIWaru6ITmxAVx6wpF/i2sLfOQDwz/Ap7LAyeiInWuxC+4jgS81mspACpN0/gcIwIRkHD8QpvNz7beB15UgnSfv8c6449f2EQBo/CsGZRWL02Bplst3RmzFqs2m2C4aO6QePEs9VLmDAkCRumrsbpDmMxUocjS8KgMISURGPTUZFs3Vp8bys2HslWfbcwrKePpCUCRIAIEAEZAb0a4wnM8Ib52mhE38fdAnM7OWpMVyYYd0X43o3od2MBgp2tYOMehCnfXWMGExB2m4PVL1/DzM6d8EL/QZh20BE9/EoNvKANXp03BPfe9YGNjRNCNiVDatwZS6I3o//NxejlYcV2Znuj1+SvEZPBzJ1ZP6zYtgDN/tcf7vae6PepAEOGekDIjijJQrPeWL57NbwPjIKPjQ18Ru2H16rdWNH3+bpyRWXM0HfCMBTfSkS3ccPhoUsPmPXB8q2zkbu0Nzr17IdB828hYGCLKo+sK8pCMUSACBABItAQCPCkLNS2IIq7YlXvM+biWlob488xrSFhTQp4PJizY0wS5g2kiH3E3N9sY9foQwmIUTNd3TDuRs7GzpE++Lbv3zjxdvNqv8mU3PsCfXr8iZm3ojDOvvxUdm33BtWnjoC6Z1RdPoojAkSACOiDQOVzwrUoxX3mTctlw/VarLGuqyrBwz+P4YlPf3Rh+7Ge/LYSX55qjZEr3KptiJmPMZz75gckhXyCEDLEdd2BVD8RIAJEwCAI6DJJWiOFMtm54eqGp7MDqlu0huWkeHrjO7zeyRX2ds7oOCMW3dZ9jzl+OvvRkskhzdyO0Y7uGHasKz6JGAzLUulKEjZgRCsv5oik3KfVCGyQeTKhQASIABEgAo2ZgN6mqRszRNLN8AjQNLXh9RlJTAQaMwG9jYwbM0TSjQgQASJABIhATQiQMa4JPSpLBIgAESACRKAWCJAxrgWIVAURIAJEgAgQgZoQIGNcE3pUlggQASJABIhALRAgY1wLEKkKIkAEiAARIAI1IaC3c8Z3swrR5sdbYL49dArGAh7iJrVFC6tyjqN1qoUyEwEiQASIABFouAT0NjKujiHmsHFeubzYtYqNORTf/QmvB7rC1sYRg9bfwu6xtujzn4Tn9yZrUl58HgvbtsP7F+TXT5bNJsa5BX5ovziGXV+hJdRGHVqqpyQiQASIABGonIDeRsblR8TNLYX4IMgZ3OURX1xMlV2pyIXcWQFs9Cx3jckNouOZ165uO+Mq16SmOcR/4N320yDcehVrgvWGhUktxh/rliL2pb1I/qwHmkGCez6r8barHbsBWQ9B4I1hEeHg6XBhhR6koiaIABEgAk2KgD6tjhIsuzURJ8J80cpGfiHxUB9r+LDRb2ahBJb/vdqkOoCN/fH4UQY8XvaFqUxzAXxefgs++qLAd0bPceP01Rq1QwSIABEgAmoI6G2aWrVtH2sTpSHm4m1NBAh2kd90ZMEuj7Bm37kPZ7Q1haKE/VgyNBDuNpbspiUvBE/dDpnnyMJojLN7EeuTFG4kxfh9Xit0jLgkn64teYTDiwejrbMtbGzt4dr6Raz8Kw+H5ozH5oS7+HaYL3NL2RpjtzyRXU349PoPeKtPS9hbWsLeuzemf38NTzmhxKcxx6cjZv3nI4S0dYSllSf6LDiEpPhovPuiL+wsrOH9rxU4m6VlkVyaiZ9fD8ScI7k4s7gLvEvdYTpZmJaZphYnHkLE0AC42VjAyiUAYatPQ1ShWilyL67H2EAXWNu6wT90Fc6mV8hUEWeZaepq1lGxVoohAkSACBABHQjUizF+kFuER3lipZhPxSW4LCqQfb860Q9ZzI8198mf3VG9KkUXsXL4ZBz3XYE/knOQ9fACNk/uAAstxltRkfjcF5i7ryUir4mQlZmC20fXIKS5GYas24YpXr5485e7SEiIw47XXMAr+B0fjlyA2//ahrjMTNzZ8TLuvj8S4WflsqL4DqKPW2Hpn4+RduVjOG2fihcnHUDA139DlPIHZhevxcINd9jEs4bAs8XoH/7G2kGW6PvJRXbPcgJr+zb+F9LseQHxFawJm4KT/pGITclByrnlcN4xEW/vFpW9x7jgLCLGrkDGpCNISk/Eybn52BOVWPm6s6potVGHBlUpmggQASJABDQTqBdjzG3KGhx9D3vuZuHXhBz8+5f7SMmXbzNqyaarOb/B3Mf0qytqJRdf2IptouH4ePkr8DLjgW/qhA49O8ChCsaYZ2wMo9xEXL12HxliI1h5ByPATT0G8YWfsTd/JJbM7wF7IyPYdZ+P8FHPsHfXebbSywLfEcPfnY2utkYw8Q7DiOA8mPefiwltLSEwb4eRoe0Rd+Wm9g1UajV8HimO/QlbHofiw4gBcDPho5l3KCJm+eHE3jPIVykrvhCFfUVhWDQzEFZ8Izj1X4x3BsonvitpQplcG3VUtS3KRwSIABEgAs8J1MuaMdc8t2Fr5MGEavWFJIWNRF07ooV8yVmnOoy6LsKWDyOw7P2BWHWXB7+X38TKLxdhgEPFaiRpqchw7gh3oSLNCB6eLsiMFTEDy+5U5NvBwV5hyI1hamoEe0e70usVeTAxNYakqEi30Wk5MSSPHyI54yRmBJ6B8nBXUS6MA3ORpzILzcma6doFHsoeNYdnCwedrnqsjToqUqQYIkAEiAARqIxAvRjjtnamCGlphXbsbyO2MHw7s1A2Qo5NUR3raRZd4OwGhyfxSCwC2qrM6MpLGMPYuBhi5Sx4CXKz81BiUVofzwZdp32FA+wjTvsbG6a+gjdWdMfdtSZs9zKzbioGTuDgBLuUJCSzQXtb2a2JxXiY+AS2zo7QFziBkytc3Mfj+6uR6F3+qDVb71UEmayZIqSzpfJWMlnFSBNloaS5Mkul/6iNOipthDIQASJABIhABQLq52crZKudCO4YU9QrXrj5mh/WvOCGSe3sMN7PFh/3cEHM2NY4PcoXDs0qN3PC4HEY5xCNpR/9isQCKaSFIlw/dx1pnCEVtkXH1ndw8lSybK22KH4HNv6aobSx4ltH8POfCchlBlZo5QRntplMwBeAx7eFvXUGW7fNUeYVBo/CsGZRWL02BpkSCTJj1mLVbhMMH9UNysFy7aDRWIsweCImWu9C+IrjSMxnCkoKkHrzBA7HlF0zFgaFIaQkGpuOimQjcfG9rdh4JLvsurLGVuQJtVFHJU1QMhEgAkSACKghoFdjPIEZ3jBfGzViyKP6uFtgbidHjenKBOOuCN+7Ef1uLECwsxVs3IMw5btr8mlbvjemfDof/C/7wL9rT7z0Xhz8+3kop2ulOdewZXY/eNtbw8YlGMuzJ2Hjkt4QCtrg1XlDcO9dH9jYOCFkUzKkzXpj+e7V8D4wCj42NvAZtR9eq3ZjRV/5zu/KBa2FHMadsSR6M/rfXIxeHlZs57g3ek3+GjEZit3ipW2Y9cHyrbORu7Q3OvXsh0HzbyFgYAt2UEqHUBt16NAcZSUCRIAIEAE5AZ6UhdqGoe7idi6upbUx/hzTGhLWpIDHgzk7xiRh3kCK2EfM/c02do0+lIAYNdPV0rmBtS0m1deECah7Rpt/6iGrAAAgAElEQVQwDlKdCBCBeiZQ+ZxwLQp4n3nTctlwvRZrpKqIABEgAkSACBg+Ab1NU2eyc8PVDU9nB1S3aIMoV5KwASNaeTFnIuU+rUZgg8xTSd2G+m6/brWj2okAESAChk9Ab9PUho+KNGhMBGiaujH1JulCBAyfgN5GxoaPijQgAkSACBABIlA3BMgY1w1XqpUIEAEiQASIQJUJkDGuMirKSASIABEgAkSgbgiQMa4brlQrESACRIAIEIEqEyBjXGVUlJEIEAEiQASIQN0Q0Os5Y1UV8tm1iT/FpuDM/SwkZRXKkprbmKBPSxtM7OoMM+YQhAIRIAJEgAgQgaZAoF6McWxSLpYde4DHOXIjrAB9OzUf3OfgzXQsHdQCXZtbGngfiHFuQQdMNfoJV1YH6e1yCQOHRuITASJABJocAb0PPzlDPGPPnTKG2MlcCDfL51cvcEaay8Plrdcg/gPvtm6H9y/I71quF1kaggz1ojg1SgSIABFoOgT0aoy5qWluRFzeHfbdHGD/1LJetrg8XF6uTI0Cu22Ju72JAhEgAkSACBCBhkpAr8aYWyMuPzWtDQyXlyujLhQl7MeSoYFwt7FkNxl5IXjqdsg8S4pPY45PB0xZuQCh3QPh1+U9nGL3HosTDyFiaADcbCxg5RKAsNWnIeKuyJCm4djSEHTxdoS1hRWc/V9BxJFkdg1hIQ7NGY/NCXfx7TBf5sqyNcZueSK7klBjXSw19+J6jA10gbWtG/xDV+FsehXu4aiGDOqYUBwRIAJEgAgYJgG9GuPT97J0psRt8KoQii5i5fDJOO67An8k5yDr4QVsntwBFrzSnMW38euldog8fRn/XP4SA3hXsCZsCk76RyI2JQcp55bDecdEvL2buxNYCrP2U7Dp3ANk5CTj9AIrbHtjIfZlm2DIum2Y4uWLN3+5i4SEOOx4zQU8sZa6Cs4iYuwKZEw6gqT0RJycm489UYmy+4W1Bx1l0F4ZpRIBIkAEiICBEdCrMX6YXXbDVlVYKXZaq+YVX9iKbaLh+Hj5K/Ay44Fv6oQOPTvAQWGM+S4YNms8fEy4UjyIY3/Clseh+DBiANxM+GjmHYqIWX44sfcM8nmOeGH0MHRyMYOAbwG/8fMwxj4Gv98QqxVPW13ZF6KwrygMi2YGwopvBKf+i/HOQFO19ZSJ1FGGyiukHESACBABImBIBOplN7UCkKkRH6mFAlx5p71OzCQpj5Hm2hEtZMZWTeDbwdH++XuG5PFDJGecxIzAMzBWZC/KhXFgLvJKcvDP5kVY8s0x3BSJwRcUIyeF3av8VP30sra6ckSpyHTtAg8lVXN4tnBApW880hxc3FR1GdRoTFFEgAgQASJgwAT0aoy5c8Tc0SUTAQ+iIiPEzpNv2mr9+VX4WqmnyJUpHwTObnB4Eo9Ethbctln5VO67YogsTxM4ucLFfTy+vxqJ3kprLE8rvroMgz96hOlHY3HQ3wZGxZcQ3ikUotJqedwqsYpd1laX+PQl2GWKkM7mpVsJuArESBNloaS5OhmfxxVfi8RUHWTQXhulEgEiQASIgKERqHTQVpsKcQ49unlaYh9b3417LwCjfryBrpEXYSUQI/Wp+mlhrkz5IAweh3EO0Vj60a9ILGCrvoUiXD93HWnqB7MQBk/EROtdCF9xHIn5LJOkAKk3T+BwjAglebnIN/NAay9miNnqrujEJkTFle6/5tvC3joD8Qk5SnusrS6joDCElERj01FWLxNafG8rNh7JVrXl5VWRfZfqKIPaSiiSCBABIkAEDJaAXo0x51krXyzF7Og7MiMcn/FMKzhXKxOZN64KwbgrwvduRL8bCxDsbAUb9yBM+e4a8jQYYxh3xpLozeh/czF6eVix3dfe6DX5a8RklEDYbQ5Wv3wNMzt3wgv9B2HaQUf08CudMBC0wavzhuDeuz6wsXFCyKZkSLXUBbM+WL51NnKX9kannv0waP4tBAxsAdkgWUvQWQYtdVESESACRIAIGB4BHjvPq8mEVVsbbRe3K5x+VNYsj8fDN2GtGoEXrmpjpIJ1SEDbM1qHzVLVRIAIEAG1BPQ6MuYk4FxcckaWG/VqClwaGWJNdCieCBABIkAEGhsBvW7gUsDjDPKu19rJHHpwZ48VR54a80URJQkbMPKlVbhUfmlc2BkfHI/CdC+9vxc1tmeZ9CECRIAIGCwBvU9TGywpErxREaBp6kbVnaQMETB4AjQcM/guJAWIABEgAkTA0AmQMTb0HiT5iQARIAJEwOAJkDE2+C4kBYgAESACRMDQCZAxNvQeJPmJABEgAkTA4AmQMTb4LiQFiAARIAJEwNAJ1MvRJg5avrhEdrSJuyJRcTNTYz7aZOgPCslPBIgAESACdUegXkbGnBeuMVtuYuP5ZNnFEflFEtmH+zcXx6VxefQXxDi3wA/tF8eguM4b1Wdbda4MNUAEiAARIAK1QEDvxljhDvNxzvO7jZ3MhXCzFCrV4dJm7LmjZ4NcRZriP/Bu63Z4/0Ldm22NEjUEGTQKRwlEgAgQASKgKwG9GmNuanrZsQco75f6bg6wf6r8OkWFAlweLi9XhgIRIAJEgAgQgcZMQK/GmFsjVh0RVwaWy8uVqRAKozHO7kWsT1IYajF+n9cKHSMuyaeZxacxp6U/Jn04ByF9eyGonR+6v74J1/IVNUmRe3E9xga6wNrWDf6hq3A2XeW+DGkaji0NQRdvR1hbWMHZ/xVEHElm1yIW4tCc8diccBffDvOFl1drjN3yRHZFojjxECKGBsDNxgJWLgEIW30aIlmVlbRVQbnSiGrIoKkqiicCRIAIEIGGTUCvxpjzQ61r4DZ4VStIbuPo9S5Y/9sfiLl6DLOfLsf4lTEo4iorOIuIsSuQMekIktITcXJuPvZEJcruIJYHKczaT8Gmcw+QkZOM0wussO2NhdiXbYIh67Zhipcv3vzlLhIS4rDjNRfwxFewJmwKTvpHIjYlBynnlsN5x0S8vVsEaaVtadJORxk0VUPxRIAIEAEi0OAJ6NUYKy6E0IWKYqe1LmVkeXlOCH3rVbTglqKNPDH6rSHI/mUvrrClXvGFKOwrCsOimYGw4hvBqf9ivDPQ9HkTPEe8MHoYOrmYQcC3gN/4eRhjH4Pfb5S/5UFeRBz7E7Y8DsWHEQPgZsJHM+9QRMzyw4m9Z5BdWVuaFNNRBk3VUDwRIAJEgAg0fAL1drSJQ2NqxEdqoQBX3mlf+6T49nByECjr5Ts4wZaNgtPY8FeSlopM1y7wUGpvDs8WDlC+mUhzcHHTIiz55hhuisTgC4qRkyLF6Kfqr36WPH6I5IyTmBF4BsaKFotyYRyYixxRJW1p0lxHGTRVQ/FEgAgQASLQ8Ano1Rhz54i540smAh5ERUaInSfftNX686vwtVIPiytTMRjD2LgYYuVAtQS52XkosVDJWfIED5LYju3OchWLkh4gxc4FDsziCphhtssUIZ0Z5lYyey1GmigLJc3l5YuvRWLqR48w/WgsDvrbwKj4EsI7hUJUWj2PWyVWscsCJ1e4uI/H91cj0VtpjeWZxacvaW2rom7Vk0FTPRRPBIgAESACDZ+AXqep+7S0QTdPS+yb3AFx7wVg1I830DXyIqwEYqQ+VT8FzJWpEIRt0bH1HZw8lQwJSyyK34GNv2ao2kdmLHNwKPJznMuQoCTzL3z56QHYDx2Ojsw2C4PCEFISjU1HRbJ1YvG9rdh4JFtZXpqXi3wzD7T2YoaY5RCd2ISoOK4lFvi2sLfOQHxCjjK/MHgiJlrvQviK40jMZ1ZaUoDUmydwOEYEo0raqqBbaYSuMmiqh+KJABEgAkSg4RPQqzGe2NWZHVWSYnb0HZkRjs94ppWQq5UJuDIVAt8bUz6dD/6XfeDftSdeei8O/v08nk8zcwWM2mBMSCE+7uUBe+9hiPZaiW3hwfJpZLM+WL51NnKX9kannv0waP4tBAxsAcWktrDbHKx++Rpmdu6EF/oPwrSDjujhVzqJIGiDV+cNwb13fWBj44SQTcmQGnfGkujN6H9zMXp5WMHKwRu9Jn+NmAxm6itpq4JupRE6y6CpIoonAkSACBCBBk+Ax87zql8IrYHo2i5uVzj9qKxZHo+Hb8JaoWtzS90l4Y42+c2F7d4YLOOGwhSIQDkC2p5RgkUEiAAR0DcBvY6MOeU448oZWW7UqylwadU2xJoqpXgiQASIABEgAg2UQL0MGzmDvOu1djKHHtzZY8WRp6Z2UURJwgaMfGkVLpVfLhd2xgfHozDdS+/vSg30MSWxiAARIAKNm4Dep6kbN07SzlAI0DS1ofQUyUkEmgYBGno1jX4mLYkAESACRKABEyBj3IA7h0QjAkSACBCBpkGgXtaMmwZa0pIIEAGOgGJJgGg0HQLSuYFNR9la0pRGxrUEkqohAkSACBABIlBdAjQyri45KkcEiIBOBKTZ83TKT5kNjwDPOtLwhG4gEtebMc4Xl8iONnFXJCpuZmpqR5sayDNAYhABIkAEiEA9E6iXaWrOC9eYLTex8Xyy7OKI/CKJ7MP9m4vj0rg8VQ9inFvgh/aLY8BuSNQexOexsG07vH+h0pza66k0VQeZKq2LMhABIkAEiEBjJqB3Y6xwh/k4h92oVBqczIVws+QuHpYHLm3Gnjs6GuRa7ibxH3i3tT6Mtha5G4IMWsSjJCJABIgAEagdAno1xtzU9LJjD1DeL/XdHGD/VPl1igq1uDxcXq4MBSJABIgAESACjZmAXo0xt0asOiKuDCyXlytTMUiRe3E9xga6wNrWDf6hq3A2vex9F+LEQ4gYGgA3GwtYuQQgbPVpiNRciaE+XyEOzRmPzQl38e0wX3h5tcbYLU9kVyaqz89JWLlMFfXgiqXh2NIQdPF2hLWFFZz9X0HEkWR2caNmGdTWQ5FEoBERMLP+FNxmoKp+ONXj+faNiEBFVYozUvD6//6E7Sd/YNCFfOyO+h19zj+TXQOrNUhysHD9Bbz/SM0PIPvdOnfsAtr/llv5Ep/WRiixpgT0aow5P9S6Bm6DV4VQcBYRY1cgY9IRJKUn4uTcfOyJSnz+UIqvYE3YFJz0j0RsSg5Szi2H846JeHu3qOydxxrz5eDf67Zhipcv3vzlLhIS4rDjNRfwNOZn9VYmUwUlFBFSmLWfgk3nHiAjJxmnF1hh2xsLsS/bBEPUyaCxHkogAo2DAGeIC/B82aoqWnFG27skvSpZa5ZHko13v9Jk2GpWtfbSUvzxVzxiW/ojeVEvHAtuhs4dW+JtLyPwtBekVAMhoFdjrLgQQhc2ip3WqmXEF6KwrygMi2YGwopvBKf+i/HOQFNlFnHsT9jyOBQfRgyAmwkfzbxDETHLDyf2nkG+SkVVzacooi1/diUyadSZ54gXRg9DJxczCPgW8Bs/D2PsY/D7jfK3R2isgRKIQKMioKshblTKa1SmhM0qFsPDoRnkv3Q8+LRywygXMsYakRlYQr0dbeI4mRrxkVoowJV32uuETZKWikzXLvBQSm8OzxYOULxZSB4/RHLGScwIPANjRc1FuTAOzEWeykyN9nwuFWTSlj9HpF2mCpUpIqQ5uLhpEZZ8cww3RWLwBcXISZFi9FN1U0oaa6EEItCoCEzt7qFWn03nH0JdGhevLhRlpWHZrwn44UEBcvlC+Pl54+cQZ3hJ0jDui4fo+VYgZltzJaX4/cgFzDJuh4v9LWEkLcThE7cx/+8cPJbw0MzcHLOHd0Dg5VvYnFUI3s6/sEvAQ48XO2F7R2Pkpz7B/EMJ2P2YvUSbWSCsb2tEdjKHuSQLc9bfhaSbAxJjH+FULh+durTGtiApIvfdww/JYlg3b44to1qg9/PxRDlVivHzLxcx564EeQ9i4X1GPhbOzy+CX/9gnOpuKvvtE2en4+PD97H5wTPkGZnipW6t8L/eNnAsV1tu8iNM3/8Ah9mkY/MWbnjNjGUwL82kVu+OWOJB4291z1dtxunVGHPniLnjSybsIRYVGSF2nnzTVuvPr8LXSr1aXJnyQeDgBLtMEdLZYkkrAZcqRpooCyXN5TkFTq5wcR+P769GorfSGpfWwo42KYL2fH+w6R9mEFVsorb84tOXtMpUXgfF9+JrkZj6EfvPcTQWB/1tYFR8CeGdQiEqzVBeBk31UDwRaCoEnhZLYG4k+4+vPUhysXLnbRz39sMfI+3hySvCDWYsLapgV8RJSZh72xTrZnbAYGaocjJzkcDaDHi5LabE34ZwRBDWuJdWJM7Ghz/fw+2ADoibZAleciJG7riBcLuuiOTeKUryEX1fgP1TeiLqWQrGf3cbLz6yQ/grXSGyfoa1Oy5j4UVH/N6LzY6p1cgIo4d1RfGzc/ipdVcc7ixkv00l2Bv1J9Yq8kvysGbXbZz0aYvYUbawzU3D/J238DaTYYefSqXiLETsYUtiXQOQ1N0czxLiEbKTrTsHyfOo17sKwNTKTZG6ENDrNHWfljbo5mmJfZPZQ/teAEb9eANdIy/CSiBG6lP107JcmfJBGBSGkJJobDoqkq0Ti+9txcYj2Uq7KQyeiInWuxC+4jgS85k1lRQg9eYJHI4pu2asNR/fFvbWGYhPyKlSvUaVyFReB8V3aV4u8s080NqLGWKmjejEJkTFSeTJamTQVA/FE4GmQqBKhpj7XXiUgm35Dvi4vz282BI038gYHZqbw6EKoHgCPowKC3E1pQAZbGRsZWuFAEv1BcWPUrFX7IglPa1gz+fBzqM5wtsxY3kjhw0TWOAZY3gPd3RtxoOJrSNGuLOXCW8PTHAUQGBsjpFtzBH3JL9GG6jEySnYkmePD/vawo0NsZrZOiAiyAwnbmWVXZp7JMI+iSMWBbGNrTwenLw98U7L52ZAF73V06DY6hLQ68h4YldnzNqTg9nRd3A3raBSmV2tTMCVqRDM+mD51tmYNqM3Oq1ygZ1TJ3Qf2AIJiozGnbEkejMwbzF6eYxAttQczm16YcKyr/GyamXa8gna4NV5Q7DnXR/YvClEn88vs+NXWuqtTKYKSsgjhN3mYPXLEzCzcyc4etjDoX0v9PAr7Ra1MrjRhg0NLCm68RDQNO3MaagtTZWAJK8IaRYWaKF+uKkVlpG7J7b0jcey365gVQYPfr6uWPmvFhjATemWC5J8MTLMLeCutGk8eFgbIzO5iBlYNjXHM4IDM8TywGPLczzYmwmVy2om7LtEUlL5rujyDat8l+QVIrkgEzP+l/18aU4igbELm9pWzcdkzbSwhIdSVgE8rZ/LolFvDS8iWkSiJB0J6NUYmwn5mNXLTebQo7LAY29tSwe1AFemYmBvqsHvYNfFd1SSIrFa5ZtR85exNIp9KhR2xqe3bipjNecDWo77DhfZRzVoy1+ZTBVE4SIEnhix7gxGlElcpvymTga19VAkEWhEBDT5seZ2TatLU+cTWWBhDIe8AiSyiaa2FX5GeDAWSPHcjQE7mlgoQYlyWcsIXbu0wgH2EefnYcP+a3jjjBXuDubLX4ZVl6+YYbV7+gzJbJpO3o4UD7OLYMva19cPrMDcGC6Wzvh+hi96l3/5YEebFEHAyfqsCNxJ0FayyBKk5RejRLlMqEHvIbbPjXwjes4akioVHtG6Fq5rc0t8E9YK3KhXU+DSuDxcXgpEgAgQAVUCaXzFbiPtXITuzhhnloalpzKQyOaLpcViXE96ijSumMAMHe0LcDKhENyiUFFmKjbeKVYuSYlFGfg56RlymYEVmgjhbMKDgA0QeGyUa29SjPis53mF7k4YZiTC6vO5yCyRIvPRQ6y6ycPwdpY6HtDSro+2VE7XiaapCD+TKdMVJSVIFWXi8COx6rYXCN0dEcJ8G2y6J5Yv8bGzyxvvVkFvbY1TWq0Q0NeLWxlhOSO767V2Moce3NljxZGnxnpRREnCBox8aRUulV8WF3bGB8ejMN1L7+9EtfLwNJZK8vPz8dGeU9idYowkgS2kPD7amjzD0n4+GNXWqbGoaTB6VPa/waHkadV0EVgifEwbFP16D8Gf30CBgNtN3RK7PNi6Ma8ZprzUHKf2/w3/GGM4Wdugr5cJ7pbWLC18ii2H4zAzoxjFfAFatHDFxpdsIORL8WoPO+w5+hdsDvLQZ1BX7O9sjeWjW2LeoRvwOSPfTT1iQHus8GJD1NLtH1UTuAa5mK5LxrCdWkfvo9eX+WxpTgBnB2tM6Neq7NKc0AbLR7hj2sG/0emsMezY9Hr3lqbKJT6NetdANCpaNQI85nay1s/QKC4Tpwumq9YJlEv/BBTP6KquNth7+jzijN0QlPoXmj9NYkMoKZIsPHHRtSemdW6OT/t56l/ARtSi8vdAhysU1U07a0OibupaW35KqxsCin6j337d+dbLyFh3MakEEagbAo9uX0Oc0A3D4vfAVPJM2YhPzl24P32E74Xj0aeFDV7x1nD2rm7EavK1knFt8o9AkwNAxrjJdTkprErgQLoJgkR/lTHEinRTdiSuV0YsvrxkS8aYHps6J1CSlYyRWxJxqbyzaeaZ74PX/DG94inPOpeJGtAfATLG+mNNLTVAAonGTniRm5rWEBzT4nD0cS8NqRRNBGqPAN/GDXvnuNVehVSTQRGobK+EQSlDwhIBXQkIpCVgGyc0FhOaW+JZcfmhisbslEAEiAARqBYBMsbVwkaFGgsBP7ZrmtuspSlIWneDs5kRMp7pa1usJkkonggQgcZMQG/T1EUSKSZsu4X76ZV73lIAPzS1A5wtyzuXbszdQbrpm8DSF30xne3b4jZrcWvEqsHCuTn2Sr3wdqADM8bFWPLnY3zTX/0FBvqWm9ojAkSgcRHQmzHOZT9mnCE+O7tTGYKyCUKVaULFhCGfHbBvxrxvxT7MRVePcs4/2GUPCwMmg/fjVawJ1psK1ev5WpVVjHMLOmCq0U+4sjpIb959qqe4YZTizhHHpD7DD8IJ6Jt7GbYpt2Bnb49nXp2xu8gDE9vaYUmwM/LZVPWrrW2w43Ym2HslJvjZGoaCDUhKXY8rNSDRSRQiUOcE9GbJFKtupszAVvUOkIM32ZVgxx5gWndX2UcZBN4YFhEOniE4yzAkWev8cWuYDXza1xN9PG2wlu2a3mcRxO6V5qEXuzLvm96OGFJ6pMmMXffZ18MCiblFeMp8KC48m4xJ7ezQ3l7jvXcNU9l6lIrOntYjfD01rThTrqfmGlUzejPGulJTGOISzgEDuz+0TOA7o+e4cbpWqT4/c6YuEbDbU9Sn1jxWm6x13XbNpW8yNXDniKtyltizdNnklZZWcDUX4vVjifh2QHPZtaAUiAARIALVJaC/DVyaN6xWkF3VEA/2s8OywV5l83BTv23b4f0LxcwH6yMcXjwYbZ1tYWNrD9fWL2LlX+X9TqoUF5/GHJ8OmLJyAUK7B8Kvy3s4VcSuW0s8hIihAXCzYVeLuQQgbPVpiORz6Mi9uB5jA11gY+cO/6HLsGZyG7RfHCO/8qwwGuPsXsT6JMXYX4zf57VCx4hL8nRVWWvQtrWtG/xDV+Es5+GdQr0T6OPOnhNjPsawqetbGc+w7PyTepeJBCACRMBwCejPGKswelpUIlsLVhfKG+LZL2jfMCM+9wXm7muJyGsiZGWm4PbRNQhpXsk4t/g2fr3UDpGnL+Ofy19iAO8K1oRNwUn/SMSm5CDl3HI475iIt3ez+48LziJi7EpkTz6GpLQH+L95z/ALu5y72odddG57BTImHUFSeiJOzs3HnqjE6retDjjFVZuAEZvOftnLCh4WQgxg93RvuJaOow/UP9fVboQKEgEi0CQI6N0Yc3u15rD7jN/eexdn72eXgaxqiF9mI+LF7I7i/CIJ0p5qHunyjNk1ZbmJuHrtPjLERrDyDkaAWyVq8V0wbNZ4+MgujuJBHPsTtjwOxYcRA+Bmwkcz71BEzPLDib1nkH0hCvuKR2PRWwGw5BvBsd8izB2k5lLTqj4uurZdFIZFMwNhxdp26r8Y7wykNcqqotZXPodmRnjBzRxBzmZoZWOCd888kq0tUyACRIAIVJVAvawZmxsLIGaXaS88eB+fhbTEC97WKD8iXjbYG8XsOrLRW27gIDvipCkYdV2ELR9GYNn7A7HqLrsE/OU3sfLLRRjgqsUg8+3gaP88XfL4IZIzTmJG4Jnnd3YW5cI4MBc5olRkOneBq3KwbQZ3D3vlxeCa5NIYr2vbrl3goewlc3i2cKh+2xqFooTaINDJqZmsmhfcLNCMbfiacfIhvmZHoWg1uSLdu2wfSJsfb4H9F9cpGLO1+bhJbdHCio486gSOMjd4AlosVt3Izk4s4fNQH/TwspYZ5AUH7uPzU0myXdPcZi1ujfhjZojZDCA78iSXQeuPGc8GXad9hQOxiRDd/QUTC/6LN1acgvZxSdkaBU6ucHEfjx+v/oN//in93H+ER3tfh6ujEzvu8hCPlT4fCpD8KF1lqtgYxsbFECsH7yXIzc7TMpWsW9t2mSKkK+fExUgTZWmpu276jGrVjcAIX2twu68Ht7DE6YfsYno2fU2hLIHqGGKuBs5fgdd3N8tWxu3bsGSnNEx6Y228ugWkYsQs9oOQ3UXs+fYpaJ5no14iAvVHQG/GWPUFmHu7/ULFIO/8O7WiIWZMpGWuxVYPSXzrCH7+MwG5bC+X0MoJztYm7GiKQKfRiDB4IiZa70L4iuNIzGeSMucPqTdP4HCMCEZBYQgV7ManG64jT8qmzM+swdqj+c+FEbZFx9Z3cPJUsvyS8vgd2PhrRhUkl1dRWdshJdHYdFQkvwj83lZsPJJd5brVE6NYfRAwZ0f4hvpYo7mlEB0cTPHVZREuPFF5bvQhRANuo/yImOPEOVT5fpAn/FWOi+XOCkD2zA4QvemPVPb569XWFbVis02+Qd3QLbgdXGgVpyIfijEIAnozxuVpqBpkLq3MiLg0s8KAc6NpTUGacw1bZveDt701bFyCsTx7EjYu6Q2hpgLq4o07Y0n0ZvS/uRi9PKxg5eCNXpO/RkwGe8s261xQuP4AACAASURBVIPl296H+YYBcLf3RL/PjTE0rMXzqWK+N6Z8Oh/8L/vAv2tPvPReHPz7eVR9KrmytrfORu7S3ujUsx8Gzb+FALaOXsn2NHUaUlw9EfBhL4c9XM3RxtYUbmyj13y2npxZSK41VbuDmwU7EeaLtwIc8Do7u31mdCvYmsifcsv/XoX119fg+O11OLFPt51xFXtS2BcfnzyH82e/xavalqcqlqQYItBgCDAf+Vq85FdTTOVl4nMDlTWk5onx741XcWFuF/kUdGkKN+308+VUjOvsXCaeSy5gzhV6r/8bh6cFwIn9kDWMQF6wGkY/1EwKdc9ozWqsvLSE/VfbeitTtvN6I5u6XtbDpfJCjSCHOtaqziG4TW9xr7cto+ng6HuynekWbIaBc8LChVy2mVMxoi7jQISbpnYIw46iXoj85zTmevOQfuYTTJ3xBY7G8+Hz8lxMtv8RCzfeg+vs33Dvq366vaw3gj7Qlwrq+lpfbRt6O3rbwKUY3BaxdWLu36rT1mEBjihk7gaVcexHi8eGwwns/CYXtI2MDb0DSP6mQ0DAHmTOa1c6cw3LbfY6FJ8j26TITWc35fCA7Tx/xF7W3UtfuDkPZ5dFcj/hVyf6wbt0s1Yhe3E3/epKpaik6dGYMyYcv6QI4NZtGDo+244V39+TLSNRIAINlYDejLGlqQAWbOqp91d/lxpXnuxvzjDL/mZ/yP5d+p0Dxo2MbdixEWsT3cQsSdiAkS+twqXyOzWEnfHB8ShMNwQ3mg31iSG5akzA3tQIw5gB5gwOZ2AiL4kQwjx6+bIRYlMM3OwYNxL+iM0UcBvfPolJRUo+2wTCQsvym7WqACj3tx04kFICgffb2PF/a9HHJAXfveKLqYerfklNFZqhLESgVgnoZuVq0LQp+092ckZHNgJWf5ZB0+jXWMCvMH1dmRh8r+nYe2d6ZdmqmS5Ej8/+wY1qlqZiREBBINBRfhTqfnYhe+EUYPEfj7Gsuwu4/RRNLVxPf4aRBxNqQe0SZD5JQSH7mTHybQ8/7v2GZ4d27VzAPxxfC/VTFUSgbgjozRhz4stvYmp6PzR103VUa2MhMLaNLQrYMo2vjTG4KVturXR2R4fGol6lerS1M5XNDLRjf3NezW5nFmL5X8/diyrWh6t2CQEfti7OMGE/MwWc/wA2N+1k9AyPyhxHrFQkykAE9E5Ar8ZY79pRg0TAQAhwTkKmtLfHg5wieLJjPlF3smQXUfRinr0aa+Bmy7YO9kSYr00FFRXGmDPEqpuCqmKQLQeMwRCnvdh5Yx2mTRNgpFMMNuzNYntS6u3wSAX9KIIIlCdAT2d5IvSdCNQjAc6zVGhLa9iyPRZWzFPdmtjn66f1KFadNM3dCa3OENe0MR7bWf3VzmUIac3HtR2R2HTJF2NHtKQjgTUFS+XrlACNjOsUL1VOBKpHYEBzS1nBM4/y2NQtZLdCRXRj656NaJXnZFKubKMWd+SL22nOOUqRsN3lRSoeQbiRcKXT1CbDsT23BNtVUDv0C8f+W+EqMZFYoZqhet1CpYhAnREgY1xnaKliIlBzArPY2nHGM4lsyprbfc35dB7Nrm1sDOF+dhFcmGe7yoKqQa4sL6UTAUMlQNPUhtpzJHeTIWDHpqynd2CXk7BRsQW7Q3nbP5m4wXYfG3LInKH58pfyepVx8FE+kb4TgUZCoJEYY84rlh/aL46B7HSi+DwWtm2H9y/IzypWq69qo45qNVyVQuX0rUoRymPwBLijUP9m9ydzwdSI+Xe/mIoc5pXKEIMNO8rFGVlNHy+VW5m4kbHqxi3VNEPUnWQmAuoI6HWauryrNG7ardO220q5/h7fBtwPjiIft47UjP3o5DHnHzq9HQu8MSwiHDxy7qGuzynOwAmMZxufxGxdlfsUsHP7W26lNbqjUPGT2xl4L5H4REA3AnozxpyB5VwB/ngzQykhZ4i56SruLVlhmBVvylwmzlUg5xrP5ptrumnFd0bPceN0K9NQc0skkAgEtbcTtLbra6jcGrlcQjZnvSjIGQ+ZG0kT5iTk7KOnspvP+npYNHLNST0i0DgJ6G2amnvT/YFdj6YaOMPLGWIuqJt64nx1cYa44qhYityL6zE20AXWtm7wD12Fs+kqnr1Up5hLHuHw4sFo62wLG1t7uLZ+ESv/Yn4yxacxp6U/Jn04ByF9eyGonR+6v74J19TdcidNw7GlIeji7QhrCys4+7+CiCPJ7FpDCe583gvOI3cgQ9l8Ic6844tWc8+gUMsz8/T6D3irT0vYW1rC3rs3pn9/DU+5/JxcPh0wZeUChHYPhF+X93CqqBJ9uWKJhxAxNABuNhawcglA2OrTEHEyqa1Pi2CUZFAEPJg/52n+9rIdycXsw60nJ+WW9wNrUCqRsESgSRLQ28hYnbFVJW7LjO5S5gpQEbiRNOfDN7Kve8WOKTiLiLErkDHjCJLe8cezU0sQMiwRJbMqZhWf+wJz97XEumsHMdgJyIm/hITSFwBIbuPo9QX467d1aMFLxNaxvTF+ZUfErgyCcZmqpDBrPwWbzu1CgFMJ7vw0Hf9+YyE6/7MVQ0ePR4fPmC9c0auY5MS5/TmD7fuMEfZzD2j0NFzwOz4cuQC3J+5H3Mkg8GI/xcjQkQj3vYzI7qzh4tv49dK7OHv6M/iYMIvK9J2rTV/xFawJm4KTg7Yh9ucXYZt8APOHTsTbPhexY7ia+ipiohgDJ9CvdES8jt2bzDzIgvt7BruSkBtBN5Sguu7bUGQiOYhAQyGgN2OsSeEsdrcrZ4jf6eSIj1SMserZwgTmlWitilEWX4jCvqIwfDczEFbsh8eq/2K8M3ADlqtphGdsDKPcOFy9dh/BfVrDzjsYAVw+bvDAc0LoW6+ihex2Rk+MfmsIlszZiyvLghCkWhfPES+MHqaM8Rs/D2M+m4Dfb4gxvMcIjA/6GDv3PcZr09zw9MR2HLQZhUOdNV/5KL7wM/bmj8TG+T1gz/VA9/kIH/Ut3th1Hp92ZwrxXTBs1nhmiLkmeahMX3HsT9jyOBRfRQyAG1fGOxQRs/6LgL1nkD+cuVUsV5+qavTvxkVgTqCjbI9FXlEJktkU9vkn+RjTQI5CVZzhalzsSRv2a8UGURSqR0Bv09TqxOPWiTlDHB3iXcbYqubl/gP/529RmeKStFRkunrBQ/kqYQ7PFg5qnd0ZdV2ELR964+z7A9HSsQW6j12FE49L5PXx7eHkIJ8m5yL4Dk6wTU9BWmmyslFpDi5unInBnX3h2bwFvHyH4dt7uXj6lI1aec4IndAbV3ZGI0mSjaPbj8B9zKvw1/Kaw8mf4ewJd6W9NoKHpwsyU0Ty3eB8OzjaP++ayvSVcD54M37BjEA/+Plxn7Z4cc0NGBflIo+bqi5Xn7q+oLjGQ4C7A/iDYGc8Zf6uC9mVpSeYcw3uIgYKRIAINFwC9WqMuQ1c3A5q7jo5ReBGyqpvV4p7TVURCpjRtMsUIV1pNMVIE2WxNVw1gWeDrtO+woHYRIju/oKJBf/FGytOoYjLWvIED5Ker+wWJT1Aip0zHMpRKb4WiakfPcLQLbG4z/Ik3D2Amb780vuXebD/9wQMvL0Tuy8ewPYTrfDqmDZaN1zJ5E9JQrLy5FUxHiY+ga2zI+Q2vOzUYmX6Cpxc4eI+Hj9e/Qf//FP6uf8Ij/a+DmdZVQ1nqlJND1FUHRHgLl54ra0dMpnTEO4IFLd5MpP9/6JABIhAwyOgN2M89/QjpZHljK3CyHIGmfuu+HAburhd14rvCoOtik4YFIaQkmhsOiqSGWDxva3YeCS71DiWhSy+dQQ//5mAXGb4hFZOcLY2YWtqArl5YiPeQ5Gf41yGBCWZf+HLTw/AfuhwdCw3qpXm5SLfzAOtvWyYsSyB6MQmRMWp/KhZvYQJQ5KwYepqnO4wFiMrOVIlDB6FYc2isHptDDLZ7ubMmLVYtdsEw0d1g7rJ7cr0FQZPxETrXQhfcRyJ+WwoLClA6s0TOBwjUsuk4T2GJFFdEhjZygY9XM3BebziTij872oaPRd1CZzqJgLVIKBlMrUatWkpwq35qq77clk1rSFxu6659eNfE3Jkm1AqBLM+WL51NqbN6I1Oq1xg59QJ3Qe2QEKFjKyNnGvYMvstzLyXiWKBBVr0mY6Na3ozo3eWXXjaBmNCCvFxLw+cf8wuMg9diW3hweU2bzEj3m0OVr88ATM7d4Kjhz0c2vdCDz9VdGboO2EYir/bjG5zh8OjslecZr2xfPdqzJs5Cj4r0gH7AIxYtRsr+prJ17LL61GZvsadsSR6MzBvMXp5jEC21BzObXphwrKv8XL5uuh7kyTAzY0s6+Ei8wWdWlCMOHZNYRK7rnGgp9wHdpOEQkoTgQZEgCdlobblUUwzazK2td1eterjjvz4zYXt3hgsKz8UrkaFJfe+QJ8ef2LmrSiMs6dp4Wog1GsRg3hG65DI78lPZdc12jNXm23YdLa3iser2m62qbOubZ4NuT7q6+r3TmVjuOrX3KRK5uLcNz8gKWQyQsgQN6meN1RlX2D3JHOevO6wiyc4xzo/3cpg3rzU7rowVBVJbiJgUATIGNewu6SZ2zHa0R3DjnXFJxGDoZj0K0nYgBGtvODlVe7TagQ2JNCPXg2xU/FaIvA2OwrVxtYEMSkFyGfGePedrFqqmaohAkRAFwJ6WzPWRSi95BX2xbp7f9e4KZ7tOPwsquh6k+81HXvvTK9x/VQBEahrApxjkHX93GUbvG6zteQr7MghFzoyP/F1GczWX5WNxu2bGSHtTX9ZU4ppTh7zS1/yTkdl83b/u852hRczX/V85M+WeQqgQAQaFQEaGTeq7iRliED1CbS0NkY4O5/MOdm5xwwzt4EynRnAuggKQ8zVnc42lCmMsKItbiuL0jCz0xacIeYCZ7zL533u8nUhhvcORkfflug0fgOuK45Wa3RnyyqUuYvtiFn/+QghbR1haeWJPgsOISk+Gu++6As7C2t4/2sFzmY931qj0fVsXYCiOpsMATLGTaarSVEiUDUCQ9m5/xG+1uA2eXGevKLY1DXn+7o2g2J9Wt0mTy5OW7y6NM6F7PGbnfGfkxdw5eavmJAUjkXbU0qPcCnc2T5ARk4yTi+wwjbmznZfdqlGxXcQfdwKS/98jLQrH8Np+1S8OOkAAr7+G6KUPzC7eC0WbrjDPNGzoHA96x+J2JQcpJxbDucdzPXsbjpGWJvPR1Osi4xxU+x10pkIVIHAyp6usGW7rU89zIOIHYni/q7NoDCq5Y2r9/e3wH10CvzmGPFWGDy5g/rGPhj4ojv+uXJb7tGu1J1tJxcz5mPAAjJ3tvYxMne2ssB3xPB3Z6OrrRFMvMMwIjgP5v3nYkJbSwjM2zG/8e0Rd+WmrC6F69kPZa5n+Wgmcz3rhxOc61mdBKbMRKAsgTpdM64wnUT0iQARMCgCVsYCrH/RAxdT89lIMF+2ZutiZoQWtXAUStPvQ/wbbWWMyqf/xfxsc4HP1pODnMutZ/OtYG2lOFLIg9DYCEVFRfKRMefOdtMiLPnmGG6KxOALipGTIsVozp2trEI7OCjdzxrDlF1QY+9oV+pelwcTU2NIWF3ctkupzPXsSeZ69sxzfwTM7axxoNz1rDmdapQzpT91JlCnxlhnaagAESACDZJAFyczcJ9N19ORwwzxzYxn4G6K4oxzTQI3Ki5vdBXfjcrdONV9Z5yyqfKjaW0yKNzZTj8ai4P+zIte8SWEdwpFWY/32mp4nqZwPfv91Uj0Lnu1W9UqoFxEQAOBOjHGuvxH0SAXRRMBItAACUxldydz4a0TSejEdlv/lpiHkJZW1ZJU8TuxL7Qlhu6/X6GOy+P9ZHHF7wTC6P/ZOxO4KKv1j/9mhgFF9h1EBUFERcSNNAPNzL9eAxdccstyrTS3rqkJmrllt8LMWzeXuplmpmJuuaVXMbNETdE0FRNRURj2UZAZlv95Z5hhgFmRZZbnfD6vMuc95znP+Z535nnP+nxa6Q1IPN2w1dSajrPtXaNE3RHyo2dfYkfP/gPfLuiHljZPkHn9V5x7HIqB3d3pFHjdCCmFBgL1Yow1lEXRRIAImAmB/7zQAveZi8bDdwrYFqgmbEV0KTp76L8VSvWFPZoZc03zxxwuARv6fZoXfN3H2RrQKHT0rAGwKKkhBOrlOExDFKC0RIAImDaBI3fEuMaGrXswZxQBbHuUG9s3rBoUw85PY1BNm5DlaE9tXfu2froJn9qXSzmJABEwEwL9W9ljVmd3HGL7klPY8Zo/p4ll3qEoEAEioD8BMsb6s6KURIAIaCGwhHla61KxyIvzS554v263Qmkpmm4RAZMnQMbY5JuQKkAEjIeANZvg/f4ffjI3jT/cyGMneRUbj3KkCREwYgJkjI24cUg1ImCqBNozt4zc/uTfHtBRGKbahqR3wxIgY9ywvKk0ImBRBDg3jRSIABHQTYCMsW5GlIIIEAEiQASIQL0SIGNcr3hJOBEgAkSACBAB3QTIGOtmRCmIABEgAkSACNQrATLG9YqXhBMBIkAEiAAR0E2AjLFuRpSCCBABIydQkvItXg1jLh+d3NF/3TXsGO2MyE9TZZ6WtAbpb3inXXvMP8s5SKwepDgzLxgdFibJXTFWv02fiUAdEiBjXIcwSRQRIAKNQUCK02uX4NyLCUjPE+HIjCB0eWUV3urt0jCOG6SnMTdIk0FvDB5UpikSIEcRpthqpDMRMAMCtuuSUVRSBld2lnXWtBBZjRRnG/OYz+KyWZ2UtXT5zxXkPimRuWwsnFHda5MED+7nwHdgIJrIcggQMPB1BJgBI6qC5RCgnrHltDXVlAgYDQGFIeYUymandVX3aVxeXl5pmNdclBliLnDGu0ra8lz88GoYZh4SI3FhV/j7+cGPXR52TaoMU0vTDiBucCh8nOzg4BWKmFUnIapxfHY5xOfXYXSYFxydfRASvRKnsmskqsawGAdmjsWm1BR8OSSQlR2E0Zvv48ZHveA5fBtylNmLkTgrEG1mJ6JYehIzW4dgwuKZiOrdC93bB6PHqxtxWeV8FP30NZrmJEXqgAAZ4zqASCKIABEwjABnVLmgzpMTF6ctvso9njNG/vcPrOlvj94fnMft1FSkpl7Hf6JU3DlKL2F1zCQcD4nHuYwCZJxZBs9t4/HWDhGqmNqiU4gbvRw5Ew7hbnYajs8uxK6daTrmnW0waO1WTPILxLQfU1jZN7DtleYIHDkWHU9twz6FxS9KxHd7rBEzpidsuIqXXsfhK12x7ufTSEo+ghmPl2HsiiRIuHv66msYckpt5ATIGBt5A5F6RMBcCWjyYez/9TVwV10F6blvsflBNBbHvQAfGz6a+kcjbnowjiUkQvWwTunZndgjicGCN8PgwLeCR9+FmNVPPvBtqC78FsMwtvtZfL/ngczgPzr2HfY7jcDoLkK5KJ4Hol9/Ga24j1YtMfL1Qcj/MQGX2ACAvvoaqhOlN24CNGds3O1D2hEBsyVQfWhaUdHbr7WT/Vn9/u8P5aaTz+aTu3uq9Hx1ECp9cA/pOcfxRlgirBVpJWJYh4nxSKVrXJqViVzvrvBV/io2Q8tWbqhVj4XniehxEVi0YTfuThyHpO8Oofmo4wjhZEvZxXeFh5tAqTnfzQPOrDeexQYMdOnbjKejwnTbJAmQMTbJZiOliYB5EOB6x9WNruKzFb+q1enx/Q1lpdUNY2siIvDwhlfzsfg6OR4RSmtckZptbVIEATOILrkiZDOD2EZmJ6XIEuWhrIUmyZXxPK7/W2XMmwfXf4xDv39+hB3nHfHrsTZ4eXlbtrSsIpQ9xJ27zKNVF/lPsOTuHWS4eMGNWX6t+upWhVKYKIFavfSZaF1JbSJABIyIgMKg7olurVari2ODZfEls8Kq3BdPr76aWm12ZaQwfDzGO25H7PKjSCtkFrO0CJlXj+GnpKpzxsLuMYgq242Nh0WyeWLprS3YcCi/qo1VVxTfGa6OOWy+uqBqWocXMW7QXayfvAonO47GcD+Vn9vyAhyI/whnckpRlvs7PvlwH1wHD0UnZpv11VedKhRnugTIGJtu25HmRMBkCaj2bKNbOygXbCkWb3H/d3CVLXUCc5Esu6+47IQG/mxZd8Gi3ZvQ9+pC9PJ1gIObP3pN/BxJOdWOBLGNxLItMyBeEoHOz/ZB/7evIbRfq8rerCbagrZ4ec4g3JobACcnD0RtTK8wyrboPW4ISq6l4ZkxQ+GrqrZVW4yKKsb7vXzh6j8Eu/1WYGtsuHwYXV99NelD8SZJgMe2EOhau2+SFSOliQARMA4CimFnQ4aWjUPzp9ei7NbHiOz5K968thNjXCuG3bmtTcGz4ZyQhKVcV9iMgiW39dM2o4GvmE9bHOUnAkSACFgKATHOfPFf3I2aiCiFIbaUqlM9DSZgXq9lBlefMhABIkAEdBMoS12P4S+uxAVuJbRqEHbBu0d3YqrqfDC7X577HUYFvY7/ecdg7d4BsNddBKWwcAI0TG3hDwBVnwjUNwEauqxvwsYjn9q69m1Bw9S1Z0c5iQARIAJEgAjUCQEyxnWCkYQQASJABIgAEag9ATLGtWdHOYkAESACRIAI1AkBMsZ1gpGEEAEiQASIABGoPQEyxrVnRzmJABEgAkSACNQJATLGdYKRhBABIkAEiAARqD0BMsa1Z0c5iQARMEoCUpyZF4wOC5PAPBI2TGAOJ95p1x7zz9ayxKfN3zC1pFLqkQAZ43qES6KJABGwEAICfwyJi8WQaod/qK299DTmBlUz3IbkVyuUIk2dAJ3AZeotSPoTARMlYLsuGUUlZXBtaoWsaSGyWigOjeAxn8Vlszopa+bynyvIfVKCplZ8FM4wzGtTveMpLUWpwBPPjhlT+6L4T5m/9iVTTiMhQD1jI2kIUoMIWBIBhSHm6pxdVFLDpzHnv0ZpmNdclBliLnDGu7r/Y86RsPj8OowO84Kjsw9ColfiVHZV/zfStAOIGxwKHyc7OHiFImbVSYi4JGX38dPCAWjn6QwnZ1d4Bz2PFb/Lz7yUpO7FosFhaO5kzzw9+SF88ndIlflWZI4eAjpi0op5iO4RhuCu/8SJxyrD1Nz91iGYsHgmonr3Qvf2wejx6kZcLuRqUIwDM8diU2oKvhwSCD+/IIze/BDl1YapH1/5L16PbA1Xe3vm1SkCU7++jMdcdmXZ72BoRDg6BbZG57HrceUJd5OCKRMgY2zKrUe6EwETJcAZVS6o8+SkcJVYvWqqbhSr3Cs6hbjRy5Ez4RDuZqfh+OxC7NqZJvNJLAvSS1gdMwnHQ+JxLqMAGWeWwXPbeLy1QwTJmY8xe09rxF8WIS83A9cPr0ZUCwEgOY8VQyfiaOBynE4vQN69s9g0sSPsKhwvoeQ6Dl5oj/iTF/HXxU/wgnU1bUuv4/CVrlj382kkJR/BjMfLMHZFEiSwwaC1WzHJLxDTfkxBauoNbHvFCwqxMilFv2Dx8Hm4/n9bcSM3Fze3DUTK/OGIPVUkL4SVffRqF3x6/CwuXT2IcXdjseC7DN1+l6upSB+NiwAZY+NqD9KGCFgMAYUhrm6Q/b++Bu7SN0jP7sQeSQwWvBkGB74VPPouxKx+TZTZpee+xeYH0Vgc9wJ8bPho6h+NuOnBOJaQiCJra1iJ05B8+W/kSK3g4B+OUB8+pGe3YKtoKN5f9hL8bHngN/FAx2c7wk1hNfleGDJ9LAJkLpermFJ5uTwPRL/+MloJ2Uerlhj5+iDk/5iAS3qs75Ke/QEJhcOx6O2ecLWygkuPtxE74gkStv8GWZ+d3wLDXo9BS062dQD6Pd8cf1263nCL1ZRk6Y+6JEBzxnVJk2QRASKgN4Gaw83yrLdfayf7o/r93x/KxnnBZ/PJ3T2bKsspzcpErndX+Cp/zZqhZSs3KHoapQ/uIT3nON4IS4SyAysRwzpMjCddF2Dz4jgsnd8PK1N4CB44DSs+WYBeGQ+Q5d0JrWTGVk3gu8DdVUtfhu8KDzfWw64IfDcPOLNeexbXXVdju1VL4OqT49kJzTljKwtW8G3phdxzImZwPRkABzg6KITwILS2gkQioZ6xKkQT/JuMsQk2GqlMBMyFANcrrm50FZ+t+FWtVo/vbyirrdqbFjBD55IrQjYzdG1k9k+KLFEeylrIkws8vOHVfCy+To5HRPXhZJbEc8pn2McuadYfWD/5Jby2vAeujfaB28PbSJMA7Srtvgp2HRa17CHu3C0Gush/YiV37yDDxQtunP1mc9U87p+q09pK2bL6ZNxFOutFt5PVpwT30h7C2dOdmWUK5kpAy6uduVaZ6kUEiIAxEFAY1D3RrdWqc3FssCy+ZFZYlfvi6VVXUwu7xyCqbDc2HhbJ5omlt7Zgw6F8pa0Tho/HeMftiF1+FGmFzAKWFiHz6jH8lMTmjK8dwg+/pkLMDJ/QwQOejjYQ8AWwDh+DMW67seS9g0grKkd5sQhXzlxBlgYDWqMC5QU4EP8RzuSUoiz3d3zy4T64Dh6KTpw15TvD1TEHt1ML1NpjYfgIDGm6E6vWJCGXrdTOTVqDlTtsMHTEM1B2lmsUSBGmToCMsam3IOlPBEyQgGrPNrq1g3Ihl+oirQ6u8jFiAeuEqsbbCav9bNlGYtmWGRAviUDnZ/ug/9vXENqvFZSDxNZdsGj3JvS9uhC9fB3Yymh/9Jr4OZJyylBecBmbZ/SBv6sjnLzCsSx/AjYsimBDv90Qm7ABff6ch3BPBzg1745JX13GI32NsVVbjIoqxvu9fNlq6CHY7bcCW2PD5cPkgrZ4ec4g3JobACcnD0RtTK9qlJtGYNmOVfDfNwIBTk4IGLEXfit3YHlvWxNsaVJZXwI8toVA38dLX5mUjggQASKgJGBxDue57UfBs+GckISlsq6w5QSLa+s6bFrqGdchTBJFBIgAESACRKA2BMgY14Ya5SECRIAIEAEiUIcELGsMpQ7BkSgiQASIgFoCwt5Ye+sPtbcokgholUEM8QAAIABJREFUIkA9Y01kKJ4IEAEiQASIQAMRIGPcQKCpGCJABIgAESACmgiQMdZEhuKJABEgAkSACDQQATLGDQSaiiECRIAIEAEioIkAGWNNZCieCBABIkAEiEADESBj3ECgqRgiQASIABEgApoI0NYmTWQonggQgXonUMj8Gjdbl6y1HO4ozOLScthw52I2RJD+hndCJ4L3TTJWh9NPZEMgpzI431wUiAARIAKNRKCU8+zAQnWfxlxc+mMpmm/4U+bVSd39OlFZehpzO0yBcIuK4RX4Y0hcLHh+NHBYJ4xJiF4E6GnTCxMlIgJEoDEJVHezWK+68D3x7Jgx6OlBP4/1ypmEVyFATxs9EESACBglAa9mQtyf0kF26QqPr/wXr0e2hqu9PfOSFIGpX1/GYy4T57ShdQgmLJ6JqN690L19MHq8uhGXC7mbxTgwcyw2pabgyyGB8PMLwujND1HODVO3a4/5Z5lfRRa0yg7oiEkr3sHQiHB0CmyNzmPX48qTCm3L7uOnhQPQztMZTs6u8A56Hit+l1bcpP+IQFUCZIzpiSACRMAoCXA/Tj7MIHOX1lD0CxYPn4fr/7cVN3JzcXPbQKTMH47YU0XybKXXcfhKV6z7+TSSko9gxuNlGLsiCRLYYNDarZjkF4hpP6YgNfUGtr3ihSoz07pkl1zH0atd8Onxs7h09SDG3Y3Fgu8yZC4RpWc+xuw9rRF/WYS83AxcP7waUS2Ujh21VoluWh4BMsaW1+ZUYyJgNATsrfkQvR4i0yenuBQlKg5dxdIyVEwpI/eNjpCUqff2Kj37AxIKh2PR2z3hamUFlx5vI3bEEyRs/w2yfijPA9Gvv4xWnE23aomRrw9C/o8JuCTv+GploVM2vwWGvR6Dlpxs6wD0e745/rp0HZxonrU1rMRpSL78N3KkVnDwD0eoD/3kagVuwTfpybDgxqeqE4HGJsDNBbs1ka8jdf3iMoSfXkT2k1KZWg7/TobiB8qZ3bPm8/B3vkS2oEs1lGZlIsezJZorO9BW8G3phdwMkcwogu8KD7fKHinfzQPO2RnIUlh6LRB0y3aAo4OiL82D0NoKEolE1jO26rYAmxf749T8fmjt3go9Rq/EsQd6FKpFH7plvgTIGJtv21LNiIDJEFCsmOZWTbs2EShXUKsaXu5vUVHN7qyAGVeXjLtIV94qwb20h3D2dJdvFyl7iDt3i5UsJHfvIMPFE24Vv348znSq73RDp2xthHlO6DblM+w7lwZRyo8YX/RvvLb8BBsep0AEahIgY1yTCcUQASLQAASynlQa1pTX2skMcPVer6oanKHu8f2NGpoJw0dgSNOdWLUmCbmlpchNWoOVO2wwdMQzkHWWywtwIP4jnMkpRVnu7/jkw31wHTwUnbgOOd8Zro45uJ1aoNYe65RdQ5vKCOm1Q/jh11SIWTWFDh7wdLSBgM9eNLTkoVuWS4CMseW2PdWcCDQaAdXhaU6JwK+v6dxLfLuADf8yg1wjNI3Ash2r4L9vBAKcnBAwYi/8Vu7A8t628qRWbTEqqhjv9/JlK62HYLffCmyNDYc1d1fQFi/PGYRbcwPg5OSBqI3pVY2yLtk1lKmMKC+4jM0z+sDf1RFOXuFYlj8BGxZFyF8QtOSjW5ZJgFfOgmVWnWpNBIhAQxBQ9HZVDekTdqJW088uVTGuiqFqTifO8Lb+6qryPndPMrMTnrATuxw+v6zeKKurDLe1KXg2nBOSsFTWFaZQnwTUtXV9lmdOsqlnbE6tSXUhAiZCoAk72pIzzg8LK4eqVY21v4N1FYPL3ROyBVz21gL9DbGJsCA1iQBHgF4V6TkgAkSg0Qi4N7XSOk+sqpjaIepG05wKJgJ1S4CMcd3yJGlEgAgYQIDz/VCvRlbYG2tv/WGARpSUCDQOARqmbhzuVCoRIAJEgAgQASUBMsb0MBABIkAEiAARaGQCZIwbuQGoeCJABIgAESACZIzpGSACRIAIEAEi0MgEyBg3cgNQ8USACBABIkAEyBjTM0AEiAARIAJEoJEJkDFu5Aag4okAEahrAlKcmReMDguT5F6bdIiX3vgGEzr7wMXZA/3X3Va6bdSRreZt6W94p117zD9b05lFzcR1ENPQ5dWByiRCMwEyxprZ0B0iQATMnoAUv65bivP9duF+biaOzPBXum18qqpLT2NuUAMa5qdSljIbAwE69MMYWoF0IAIWSMB2XTKK2FnTruwUrqxpITICirONeTweymZ1UlJx+c8V5DIvT02t+CicEVqHtCR4cD8HvgMD0aQOpZIoImAoAeoZG0qM0hMBIvDUBBSGmBOUzXwUV3edyPmvURpm5iSCM8Rc4Ix39bScM2Lx+XUYHeYFR2cfhESvxKnsqv5vpGkHEDc4FD5OdnDwCkXMqpMQleXih1fDMPOQGIkLu8I/cADir2bgyJIodPV3h6OdAzxDXkLcoXT50HXxboxxeR7r7pZV1F+KX+a0Qae4C9WGw4txYOZYbEpNwZdDAuHnF4TRmx+qddEIlOL66h7wGLEduUqVi3FqdhsEzDyJ4vIszfqotoIeuqllQG6CnvpZrisBZIzriiTJIQJEQG8CnFHlgrqjMLk4bfE17hWdQtzo5ciZcAh3s9NwfHYhdu1Mq5z7lV7C6phJOB4Sj3MZBcg4swye28bjrZ0lGPHfP7Cmvz16f3Aet1MOYU47Pmw7TMLGM3eQU5COk/McsPW1d7AnX++qsYQ2GLR2Kyb5BWLajylITb2Bba94afBjLECb4SMRdHI7fsqpsIxPfsX2vXwMebknk1ReB/owlTQx2CHS8JJgSH0pbV0QIGNcFxRJBhEgAgYTUBjV6sbVn/k25i59g/TsTuyRxGDBm2Fw4FvBo+9CzOpXOegsPfctNj+IxuK4F+Bjw0dT/2jETQ/GsYREFFYvhOeO50YOQWcvWwj4dggeOwejXJPwy5/S6inr7DPffxhGtj+F7fvlhrEo8XvsazIUo7ozj8t1pI9BDOqsZiTIEAI0Z2wILUpLBIhAnRGoOdwsF337tXayP6rf//2h3HTy2Xxyd8+mSj1KszKR690Vvspfs2Zo2cpNuRCr9ME9pOccxxthiWDmTR4kYliHifGo+jBteQHOb1yARV8cwVWRFHxBCQoyyjHycfWEyuKf/g9+Swwd1QnLftiPjPGjcGH7T3CM2YsuQia6jvTRxaAZc9hBoXEJkDFuXP5UOhGwaAJcr7i60VV8tmL+i1VDj+9vKD+q9qYFbh5wyRUhm418txFwSaTIEuWhrIU8ucDDG17Nx+Lr5HhEKK2xQtSjKmWUXI7H5PfuY+rhc9gf4gSrkguI7RwNkSyVNaytSyBVdpLLIM5/hDK7KiKUH5jHZm46W4/Ah+/gUei6+AfsveGCXw66Y/jhUJl/W+36qIrWrpt2BnqoSEnqnQANU9c7YiqACBABdQQUBnVPdGt1t3FxbLAsvmRWWJX74ulVV1MLu8cgqmw3Nh4WyeaJpbe2YMOhfKUdFIaPx3jH7YhdfhRphcw6lhYh8+ox/JRUc760/JEYhba+CPJjhphJEx3biJ03SuXlC9uhU9BNHD+RzpZdAZLb27DhYI56e8t3hqtjDm6nFqi/X63GPO9ojHrmPDa+9QkO+47AiPaytwpo1UdVhg7dDGFQTTX62EAEqGfcQKCpGCJABCoJqPZso1s7KBdsVZ8/5nLo9HlsG4llW2ZgyhsR6LzSCy4endGjXyukKoqz7oJFuzcBcxail+8w5Jc3g2fbXhi39HMMrNYowmdmYtXAcXizS2e4+7rCrUMv9Ayu+Jnk+2PSh2/jxORIhHzuBY9WfdC7jy9S1DWsoC1enjMIu+YGwGmaEJEfXcTeyT4aFnExATwPvDSqF2ZPOIj2H25CkNwWQ6s+quXq0s0ABuqqQ3H1T4DHthDoNZBS/6pQCUSACJgjAcWwszpDa471teQ6UVvXvvXNtmfMHRqgGuido3YPCXGsHbfquYhjdSL0mQgQAVUCZmuM1TVzZGSkumiK00AgMTFR7R3iqBaLxkhNHDVmoBtmR6AsdT2Gv7gSF6rvkBJ2wbtHd2KqHy3fMbtGN7BCFmWMTw1bayAeSq6OAHFUR4XiiIBmAny/qUi4OVVzArpj8QTodcziHwECQATqj8CRO+L6E06SiYAZETBbY8zNEateZtRmDVoV4lg3uC2NY15xKab8fBed3CsP56gbkiSFCJgnAbMepubmNqsMqc7pbJ6tWE+14s2pJ8EWJpaHP5Q1jkiYCXOfQ17zhwhRbLvSS/4O8LA1658YC3uSqbr1SYC+KfVJl2QTAQsi8Gf2E9wRS+DnYA0bAR+DAxwtqPZUVSLwdATIGD8dP8pNBCyegKS0HPtvF6CVgxBiSRlGBTlZPBMCQAQMJUDG2FBilJ4IEAElgXMZhcwIW+Nomhhr+zRHVw/bWtEplJbh23MZSPw7D3fzimUyWjjZILK1E8Z384St0GyXt9SKF2UyPwKWbYw//A0Q2ujfqtycs2tz5g39vv55KGWjErAKHI+NOz/EYD8rJMVGYkOvX/HWb53R59PUSn+36jQU9sCHyV+hfEIo5p+VO7avTCZEz39dxsaS8ei0MKmaY3l1wswvjvNHnFVUim+v5eLV9i74oq9vrSt57q4YS4/cwYMCuRFWCLqeWQju2n81G0v6t0K3Fva1LsM4MkpxZl5HTLb6FpdWdZc5gqBABBQELPd101BDzBGLZwtxTNEQC3vhkxtXsTq8kb7+jVa+EL1mLkW3o8Pg4+SO/utu4MLmhfjspIbD/el3QS8CoqIS7E7Jx1d/ZuNT1hvu7FH7FdOcIX5j180qhtijmRA+9pz/QHngjDSXhkvbqEF6GnOD2qt5OWtArYxBhwasriUVZbnG2JAesSFPhECAijPeDclFaeuFgDW8m7vg3vUUPJHJL8Wtg//Bjov6edKpF5VMWKi8N1yC/gm3MKqtE5b08Hqq2nBD01yPuPpRtSkFYE4Vqnpm4tJwabk8TxVKS2UelygQAWMjYLnGmLXE5B6+ai+ukdTdU9t4wt5Ye+syNi36F/b+dhF/nf8IfZjPVGHLQVi2JxnpeY9Q8DAZuxb2hrvsuGwe7LvOwLaLD5GXcx9X9izB/K+u40/FsJXNUHyX8z/MaKFoGiGei7+JS8u6KIe1NMrmN8c/Vh3CtYxc5OVm48GN/2HRM3YYtHYrJvkFYtqPKUhNvYFtr3hp9h7DNLT2i8aKPRdxP0+MgqxUnN04BrLT+nTpZmD5zUJexX8S/0a2WIzs26ew/rWOaMYhkjG9hH/Peg/7rokgLkhD4r8GoYX/UHzyvxTkPMrH7cOxiHDS4hGd54yR/72ItQPsEbnqPHNll8rqnorMR0+QOMtP6XheI8sqjV3ZZvm56biy911EuKqUrbbelT07tc+NiUVy3mRGHGAMCyQ4NyaIeVLSwl7PunFzxNWHprVl5dJyedQFSepeLBochuZO9nBw80P45O+QKvOneBIzAzpi0op5iO4RhuCu/8QJCYtOO4C4waFsxMQODl6hiFl1EiKukuVZOLIkCl393eFo5wDPkJcQdyidTWkU48DMsdiUmoIvhwTCzy8Iozc/lLlH1CiL3RWfX4fRYV5wdPZBSPRKnMrWwy9PLXRQx4TiTIuARRtjbU31uMSA92erthjY5Srm9GZf9rC5OFbeCfN3bULfK3PQzZN9oXvGIWP0t/hshDt4TSOwbNsiOH7VHy3cWuH5+CYYEtNKaRy06SS7J9Qs27rn21gz+G/M6egOJ2dPtP2/+dh3t1Djj4jasqy7MndzX+HFlFj08nGAk284Jn11GY/0+A0RGlJ+0+fw/s5/oe3hsQhydkab0QcRuHonlkdUDHlatcHQFwuw9FlvuHVajMwxG/G/b6KQ/CZzbefZC+usZuPDqW00j0KU5+KHVztj9hExTi7oCn8/P/YD2hav7yuqrLYWllVMjazNYuHyzQC0cG2JvmtsETO8ZaVBV1tvA54ftQ1hPJFb/8rFu6cf4Pt/+LHn2bZODDFXu5O38gyuJLfAq0aQnMeKoRNxNHA5TqcXIO/eWWya2BF2ikYsuY6DF9oj/iR7Wb74CV7gXcLqmEk4HhKPcxkFyDizDJ7bxuOtHZx/43LYdpiEjWfuIKcgHSfnOWDra+9gT76N+pdaqRZZRacQN3o5ciYcwt3sNByfXYhdO9O0r1WQVc5AHWoAoQhTJEDGWEOrNbMyYLC57CF+/PdW3JKtPymHsNt4vOK9F+8vO4b04jIU3d6LZf/+Cy8Mi4Rj+HAMtvoBH/wnGeKyEohOfIA1Rwo1aFEzWpvsphIJSuxbIrRja7gIS1Bw+yyS0w0b1hOGj8NY991YHLcfqcwRe9mTTFz+9TKy9DDG5QaULwwfiWG2O7Hi4zPILilBzm8fY/mOJhg2qgdkfcoyEXZ/sg7ncktQfHsXEs7a4fHxNdhyTYzSx1exc++fCOrU/qkWwWhjqbomWMi1mfUufPD5RRSwNss8vgqf/iwf+Ja1uAH1rtmixhuTWViCAbtvyQ7veLe7J+zqeEXzvfyqC7b0IaFYaa2aVnp2C7aKhrLv20vws+WB38QDHZ/tCDeFMeZ7Ycj0sQiQrdXkQXruW2x+EM2e8RfgY8NHU/9oxE0PxrGERBTy3PHcyCHo7MVeOvh2CB47B6Nck/DLn9U9PMg10CYr/+xO7JHEYMGbYXDgW8Gj70LM6tdEdzUN1EG3QEphCgQaaUWPcaDZ+Ns9jYpou1cjU1kORNmVRk/g7Qsfl7744mIk2IiYPFjbQ3KRDaG5e8A54zweKDtOhbh/L1uPt2W5GG2ym5z/AK+8vwxLVv+MdwPL8dfBL7Fo7gc4llVDY40RAk/WE31wCXcM/51EyTn9yxe4ecAl4xLuK3/jSnAv7SGcu7kzA8uGIhnTLCVTCZ48KUG2KKeCUzmKn0ggsLbWf0RBTY21sVT2qlg+TlfnB+dxT7mo+jHS7mQp20xjvR8Y9iKkRsVGi5p14j7eCHXFvyKaw9HGgBfTp9C4iRUfmcUCXJrVwSAppRkPkOXdCa00bYzgu8DdtbLfUfrgHtJzjuONsESwGSV5kIhhHSbGo7IC/LVpARZ9cQRXRVLwBeylNqMcIx+rfxvVJqtAlIlc767wVf7KNkPLVm66n9nyApzfqL8OBsGixEZLwKKNMTQdj8mtmlZ3j4tXG6p+UUszH+Dh/a14LXQOTimtsTyjsHcX5Hr6wpv9vt2UGeSm8GnuCv4thWAJJBIrCJVTjnzYO9qB/0h+X5tsLkXGhrcQxS6hW2dM3bgfX8f+hsDZxay/zroJekzzlWakI8vLHy3Zr9Q1lRFdeenadUN5Hs7pWX5pViZyPFvAhz2B12QcrODb0gu5GaIG2yqklSXb2qQIMl2d3cH9nsvbTAg3dyfw71ak0FTv6ccrX8aU0oz7j2NsxTLXIx7JDu5oyfYP2zIDWV+B20fMbV2yEfAgYs/8uTnyRVtBHyUj0EF9qVye6kHg6QO3h7eRxr5r7dQu7K764As8vOHVfCy+To5HhNIay6WWJC/FgPfuY+rhc9gf4gSrkguI7RwNUUWhPG6WWOXrrk2W9OQFuOSKwL1TtpG9z0iRJcpDWYvqNaj6ueRyPCYboIN2aXTXVAjU3zfNVAho0tOu9qcISc9+i2/zR2F57ItoyYbNIGgKj/Yv4B/d3VGStAt7S0fgnakhbE5LALfI+Zj9fyqDotJruHSjDfr28ZHNh1r7j8aUgS5KO6pNtnW7ARj5rB/smYGTFmQigw0DlpaVorwsF9n5LvD3c9Bpj6Vnv8N3WUOx9L2BaNmUB56NO0J6hsiH/HToJjSgfOnZHfixaDgWzu4OZ7YC3bn7bLw7ohi7d/zOfrIaJmhjqfrzLWVtto8/FJP/z13WqxEGjMOUAY5Klhrr3TDVqJNScp6U4rOLInjZCuHPjHAvn2b1aog5pbkDPZ5paY89bH73xj9DMeKbP9Et/jwcBFJkPlb/FHB5qgdh+BiMcduNJe8dRFoRm/UtFuHKmSsap1aE4eMx3nE7YpcfRRqbikFpETKvHsNPSSKUPRKj0NYXQX7MELOxD9Gxjdh5o2IYi+8MV8ccthiwcjW+NllW3WMQVbYbGw8zuUxp6a0t2HAoX9WWV6+K7HO5gTqoFUKRJkfAco0x2yqhNTxSs1BEawaVm5ILbEEJWyDSfhVO3ytgK5Jv4/RXb6K7C8NdmIi4savxeOox3GeLOk78U4I9u+5UDlOX3camdz5G2dxEXDn3K45+FIQrJ+5V3tcim+fQEa+sO4Hb2fnIe3gWcY7fYMqKU5CWXsf38QcQ8Mkt5OVlYt9kH81GWXIOy4dNwYkO/8JZtrgl735S5WIYHboZVD63uGXEQtyO2oFbeXm4tSMaqe+OQOxJ/efP9W0Ojem0sKySh2uzcetgv/QU/vj1BI583A7JP99RbpHRWG+NBRvXje038lDKvg9FJeVo59IEPbxla9rrPXAnaxVKyzFj902ZEb6dUzkPr65wbwcb2WlcNYJ1N8QmbECfP+chnC2YdGreXfuiQ+subJEiW2B5dSF6+Tqw1df+6DXxcyTllEH4zEysGngZb3bpjOf69seU/e7oGVwxgChoi5fnDMKtuQFwcvJA1MZ0lGuRBdtILNsyA+IlEej8bB/0f/saQvu10rzosKJiButQAwhFmCIBHtu/p8MqmWK15Drr9NqkcdhZQ53VDV1rSKp/NJ3mpD8rE02p8pwZk9em+4+kyJeUIoEd4DGmrTNaO1Ybs60j3Lw1F2WSymeH1ZCoOPRD188Qj22l+iKmjRmcwlUDgVlFaGtrs6poPVSG5ozrASqJJALGTIB7++Y8LF3OKpL1hmPD1fQ2G6gC3BGXnJFVdxymQgWuR2wex2E2EFQqxiQJWLYxNskme3ql+X5TsfPou+hS/VwK6QWsfHE41qeazipgc6rL07esbgnpbC62lDXv/F/SsX9wa83TFbpF1VkKziBvf6W97EAPbu+xYsuTOTuKKEtdj+EvrsSF6lPjwi549+hOTJWdskPBkgiQMW701uYOjw+GYZs5nk5p7odgWJv1TyfESHKbU13qE2kZ6w4/YVb41cNpWMPOkz7ADLExBc4r07Se3rLLEgL3Eplwc6olVJXqqCcBMsZ6gqJkRMBUCZQwS/zvS1l4zM51PjQ0AHw9triZal1JbyJgqgTIGJtqy5HeREAPAtxZ0mMO3sH/hgdCyKwwGWI9oFESItAIBGhiohGgU5FEoCEIRO35G5LScuyJ9pcdrEGGuCGoUxlEoHYELKtnbOhWptoxpVxEoFEJfHstR7ZK+pPezRHITqyiUelGbQ4qnAjoRcCijLG6fY56UaJEROApCCj2Xj6FCL2y3hVL2dywCFM7usl6ws3tqi+X10sMJSICRKARCFiUMW4EvlQkEWgQAivPZmBKR1eEezWrt8M76rMihWxxGbe1iXORqPDMZM5bm+qTJck2TQI0Z2ya7UZaEwEZgbMPC5lP3kJ4NxPKhqOHBTqaHBnuFK5Rm69iw2/pMscRhexUMO7i/ubiuHtcmoYLFdsNFyY1gNOShiyr4QhSSYYTIGNsODPKQQQanUBhSRl+TmMelopKkMWu1zq4wK2p6Q10KY7DfFBQ6bPTg71Y+NhXDrFz997YdbOBDbKeTSw9jblB7TH/rNK/pp4Z6zCZMehQh9WxVFFkjC215aneJkvgPOsxcgb4x1v5eMnfAQOYNy5TDNzQNHcMZvVzqVMKgL2T5e4UFfXi0nBpuTwUiIA5ErBIY5ySVwzBpxfBLawx5LL57BLusH2bFIhAYxAQS8rAuTpcdTZTVvy6530bQ406K5ObI1btEesSzKXl8tQIxbsxxuV5rLurMNRS/DKnDTrFXZAPM0tPYmbrEExYPBNRvXuhe/tg9Hh1Iy4rHYSVQ3x+HUaHecHR2Qch0StxKlvFf055Fo4siUJXf3c42jnAM+QlxB1KZ57UinFg5lhsSk3Bl0MC4ecXhNGbH8pcJErTDiBucCh8nOzg4BWKmFUnIZKJ1FFWjcpVRNRCB02iKN44CVikMW77zTVwxwMaGrg9m35fXa2ajfshsOczv78RWHNb3Vt7CZIWBkPIs0LLt040mK9eQ+tG6Y2bQF5xKdYyf8MJKXnY+ZIfWtrXj4elhqTAnUNtaOAWeNUqMDeih690xbqfTyMp+QhmPF6GsSuSIHu15tx5jl6OnAmHcJe5NT0+uxC7dqZVui1lBtS2wyRsPHMHOQXpODnPAVtfewd78m0waO1WTPILxLQfU5CaegPbXvECT3oJq2OYC9WQeDafX4CMM8vguW083tohQrnOsjTVzkAdNImheKMlYJHGuLohbsHmp77o64uv+7dEiGsTZWOJp4ci/82OEE0LQSa7fn85qGZD8l0Q2P0ZPBPeHl6VWWumoxgiUAsC3Asg52EpZv9tLGLelSaHuNZCinFmUTiEMEQ7xUprQ/LI0vI8EP36y2jFTUVbtcTI1wch/8cEXGJTvdKzO7FHEoMFb4bBgW8Fj74LMaufypeZ547nRg5BZy9bCPh2CB47B6Nck/DLn9W9PMi1kp77FpsfRGNx3AvwseGjqX804qYH41hCIvJ1laWpYgbqoEkMxRsvAdNb8VHHLLlTiY7FBKINOxyBC4MDHBHAer+5rCdi/+9k3aUJe+P942fwvu6UlIIIGESAe2nsuf0GO0GrNQ4OCTAorykmbmLFR2axAJdm1YPbFL4rPNwESix8Nw84s15wFhvMKs3KRK53V/gqfw2boWUrNyh7KuUFOL9xARZ9cQRXRVLwBSUoyCjHyMfqh9dKH9xDes5xvBGWCOX4hUQM6zAxCkQ6ytLUcAbqoEkMxRsvAYs3xgGONkpDzDWTs42A7dW0xeE7YtgxTzKCijMExWyrRfUetaxZuWFqtxhsk/RC/F8nMdufh+zEDzD5jY9x+DYfAQPAxX5KAAAgAElEQVRnY6Kr+i+t8T4WpFl9EigsLMR7u05gR4Y17gqcUc7jo53NEyzpE4AR7TxkRa8+lwlHa77sRdGJPZPmGLh9xNz2Je6AEpHECufmyBdtBX2UjEANa9K4PDWDNaytSyBVdlTLIM5/hDI7lZRlD3HnLlux3UX+kye5ewcZLl5wYxZXwAyzS64I2cwwt5GhliJLlIeyFvL8JZfjMfm9+5h6+Bz2hzjBquQCYjtHQ1QhnsfNEqt8xQUe3vBqPhZfJ8cjotpsgvTkBa1l1axb7XTQJIfijZeARQ5TqzbHHbEE9x9VDjdxnm0uiopkSZLHByPvjY6yq3BGJ71asTx7N2aOisWP1wrg3KkPOj35Dsu/voVSvXJTIksg8OKn+/DlQzsEZPyB8Te/wSvXv4LX379g6sGbmHTob7x2JA2vtnfBBHaZqyHm2jmytROeaWmPPRM74sY/QzHimz/RLf48HARSZDK/y+oCl6dGELZDp6CbOH4iXfY9k9zehg0Hc1TtIzOWBTgQ/xHO5LCX6tzf8cmH++A6eCg6Mdss7B6DqLLd2HhYJJsnlt7agg2H8pX5yx+JUWjriyA/ZohZCtGxjdh5o+IbzXeGq2MObqcWKNMLw8djvON2xC4/irRCZqVLi5B59Rh+ShLBSkdZNepWEWGoDprkULzxErD4njE3Jzdg9y2819MLtmyY7IOkTGQUyvcMtq6+WEuPdhT/vA37Msog8H8L2/63BpE2GfjqpUBM/klu4PUQQUnMnMAVgTeG3N6FJqVPlDUNKEhB88f3scdqLBZH+sHT1vy/muO7eWL6rgLM2H0TKVm6vx/eDjbg8tQIfH9M+vBtnJgciZDPveDRqg969/FFimpCq7YYFVWM93v54rcHQOvoFdgaGy4fRraNxLItMzDljQh0XukFF4/O6NGvFVIr8gufmYlVA8fhzS6d4e7rCrcOvdAzuKJ9BG3x8pxB2DU3AE7ThIj86CLbltUFi3ZvAuYsRC/fYcgvbwbPtr0wbunnGKijrBp1q7UOPnQmuSaYRhrPY/v3zHYMNTIyEqeGrVWiV5xN/bRnBVc547rKMPX/MHRvXwTNPgVe//VIOzQFHjwpfpvXHs99dBs+M37Grc/6gE4MNtJvQz2ppfq8RSTMhPUzUeCMr7rw0CcM4pAXcZwNT5tLUNRf3dnwikM/dP0M8Xg8fBHTBt1a2BuOhdvaFDwbzglJWMp1hSnUGwFtbV1vhZqJYIsfpm7n0gTvdPPAf9lK6i0DWiHuGa8qTcv9gKj7EVHf/nw4e3nChi0Kky3ikI1kPcH9+9kq2yTU56RYyyHg+/iuxsp6ZN3AmQfKDbAa05nLDc64ckaW6/VqCty9WhtiTUIpnggYGQGLfU3kVm5uGdASMYE156CW/f5Q1kycEVZ909OnR23/wigM8kjA93+uxZQpAgz3SML6hDw2n2Tx7z1G9ug3njpsOEpj4XYODnjCjrq0pMAZ5O2vtJcd6MHtPVZsebI0RxFlqesx/MWVuFB9ulzYBe8e3YmpfvQbYs7fC4s1xuOCndUa4qdtbB5bWf3Z90vx+I14HNkWj7yIVzF6WGt8sC31aUVTfjMhcNeupcZh6tI2PdDXXnUZsJlUWkc1bNnOhWk9vWVXnQe2/XDtrT/qXGxdC+T7TUXCzal1LZbkmQgBizXGx5kXGG6hVinrpQjYfFQz9mNQyvYuSVT2L3E9YZ3zzDZD8Z24DN+pNLhbn1jsvRarEhOP5aoJTOThIDXrh0CS17OyxVpN2Cpb1WDn2QIJpS2xrot8e1P9lE5SiQARMEYCFmuM/86XwGv9FZ1tomqQdSamBERADwLTurXAf63Hobf4IpwzrsHF1RVP/Lpgh8QX49u5YBBz/kCBCBAByyJgkcY4l+0bdv7isl4trf/iLb3EUSIigA97t0RkSyesueCMPXbdZQfL9GrWDF9EuJMhpueDCFgoAYs0xtxBCtqMrD/bX5xa4Z2p+qItPwfTP6DfQp91o6o25/qQuygQASJABDgCFmmMdTX97YntdSWh+0SACBABIkAE6owAGeM6Q0mCiAARqC2BQnYMLbe1iXORqPDMZGlbm2rLjvKZBwHauGYe7Ui1IAImS4A7hWvU5qvY8Fu6zHFEIXPKwl3c31wcd49Lo3+Q4sy8YHRYmAT5wbZackp/wzvt2mP+WZ0ptQjR55YBOukjjtKYHQGL6hlXn/81u9akChEBEyOg7jhMj2ZCsDN5kC6Wn37xoKAYb+y62bincElPY26HKRBuScbq8Eb62TQGHUzs+TIldRvpqWocRNoWbTWORlSqJRCgl0D1rcwNTS89cgfVz6VOKYDMixPnwUkRuDRcWu6kLu6AEApEwNwI0FNtbi1K9SECJkKAmyPmer36Bi4tl6dmKIf4/DqMDvOCo7MPQqJX4lR21SNHpWkHEDc4FD5OdnDwCkXMqpMQqTmVVH26YhyYORabUlPw5ZBA+PkFYfTmhzKXierTcxrq1qlmPbhsWTiyJApd/d3haOcAz5CXEHconZ1tr1kHtXIo0uQIkDE2uSYjhYmAeRDgzqE2NHALvGqEolOIG70cORMO4W52Go7PLsSunWmVzlmkl7A6ZhKOh8TjXEYBMs4sg+e28Xhrh6iqz2ON6Qrwj7VbMckvENN+TEFq6g1se8ULPI3pmVxdOtWohCKiHLYdJmHjmTvIKUjHyXkO2PraO9iTb4NB6nTQKIdumBoBMsam1mKkLxEwEwIKhxCGVEex0lo1j/TsTuyRxGDBm2Fw4FvBo+9CzOrXRJlEeu5bbH4QjcVxL8DHho+m/tGImx6MYwmJUPWPpW86hWBt6fN16KSxzjx3PDdyCDp72bLDYOwQPHYORrkm4Zc/q3uP0CiBbpgoAYuaMzbRNiK1iYBFEOA8qWUWC3BpVgeD6lualYlc767wVf6aNUPLVm5KP2kyd6Y5x/FGWCKUR/ZIxLAOE+ORylC19nRVXatyCmpLXyDSrpPGCpYX4PzGBVj0xRFcFUnBF5SgIKMcIx+rGVPXKIRumCIBizTGKXnFaPvNNaj4hNCr7awFPNyY0A6t6BQuvXhRIiKgjQC3j5jbvmTDvlciiRXOzQmVJQ/6KBmBGg4n4/JUDwI3D7jkipDNPE+2EXB3pcgS5aGshTylwMMbXs3H4uvkeERUP0CPbW1SBO3pToPHDWqr2ERt6aUnL2jVqXodFJ9LLsdj8nv3MfXwOewPcYJVyQXEdo6GqCJBdR00yaF40yNgkcPUtTHEXNNKSsvhx47KNOugdd8l7ZU067Zv4MpFtnbCMy3tsWdiR9nq6RHf/ClbQe0gkCLzsfphWS5P9SDsHoOost3YeFgkmyeW3tqCDYfylXZTGD4e4x23I3b5UaQVMmvKvGVlXj2Gn5KqzhlrTcd3hqtjDm6nFugl10qHTtXroPhc/kiMQltfBPkxQ8xqIzq2ETtvlMpvq9FBkxyKNz0CFmmMq/eIW9gL8UVfX3zdvyVCXCvnmsTTQ5H/ZkeIpoUgk12/vxxkei3MacztTwzS82ADgT+GxMViCDkyN822NiGtx3fzRKG0HDN235QZ4ds5T7Rq7+1gAy5PjWAbiWVbZkC8JAKdn+2D/m9fQ2i/VpB1krlg3QWLdm9C36sL0cvXAQ5u/ug18XMk5XCmWyVoSydoi5fnDMKtuQFwcvJA1MZ0lGtLr0unqiUrPwmfmYlVAy/jzS6d8Vzf/piy3x09gysGMNXpoEEORZseAR7bv2e2kxGRkZE4NWytslXU+SZmDnPwFxt6blMx/JVbXIoA1vvl/tcUtO5XLi1FqUBQ+UOgSUhDxtfZYQFcz7gjJlt9i0urutPB5nq2oeo+44iEmUhMTNQzp3kkU9Rf3fdG3aEf6mrNYz7Hv4hpg24t7NXdpjgjIaCtrY1ERaNVwyJ7xqqtEeBoozTEXLwz8+gUzlYycsGOHS7gyD5zF2e01QbpScwM6IhJK+YhukcYgrv+Eyck+u0/dHJpjpDBS7F6YtvKo/uKd2OMy/NYd1fx1i7FL3PaoFPcBeXRfhr3Npbdx08LB6CdpzOcnF3hHfQ8Vvz+SOMeSfX1UT0esJZ7JdUKpkgiUJMAZ1w5I8v1ejUF7h4ZYk10KN5cCFi8Mb4jluD+o8r5qcfsVKCLoiJZ+yaPD0Ye833MXYUzOmlu85LrOHihPeJPXsRfFz/BCzwt+xpl+w9XIH/iEdzNuoP/zXmCH3fdqdwTqbkU+R0texslZz7G7D2tEX9ZhLzcDFw/vBpRLWxrvz+x1nsldVWC7hOBSgKcQeZO1prSwwdB7rawtRbIrrYetrI47p459YjLUtdjWBs/dnhItavNMKxPrTZ0Tg+KxRCwyNXUqq3LLcoasPsW3uvpBVu2teKDpExkFMoPjW+t72ItvheGTB+LANnLPQ+K/YefyfY1sijZvsZ/I5Tta8z3PIk9JSPxzeuhsGevQvZ9FmB2/y/xnp6PnDbZRW9bw0p8A8mX/0Z4ZBBc/MMhW5+qfi2MzhIV+ze/ku3fBBxk+zfXY5nOnJSACBhGgDviclpPb9ll7oHvNxUJN6eaezWpfgYSsHhjzPG6kv0Ew/enGohOJTnfBe6ulYMMOvcfenaFt3J1iS2a+7oq90TqUkKb7CddF2Dz4jgsnd8PK1N4CB44DSs+WYAX3HRJVX9f1/5N9bkolggQASJABAwlYPHGuJ1LE0S1dkB79r8Vmxi+nluMg2z7wrkM1bN5dGGtOqGsa/+hc8Y9PGDrw+R7IouQfj8bZQGKMqxhbV0CqbI3WwZx/iOU2cnva5PNpfCc8hn2sUua9QfWT34Jry3vgZQ1NjX2SOqqEXdf1/5NfWRQGiJABIgAEdBNwGLnjLnTfna+5IerrwRj9XM+mNDeBWODnfE+G65OGh2EkyMC4da0du8q2vYrcvsPowU78OH6K+z0n1JkJa7GmsMqhl/YDp2CbuL4iXRw67klt7dhw8EcvfY2Sq4dwg+/pkLMRtmFDh7wZIvTBHwBeLXcn6hr/6bux4tSEAEiQASIgD4Eamdt9JFs5GnGMcMbE1jzAAGF2pHN7TC7sztif31geE0q9h9iDrevcRjyy5vBs20vjFv6OQZy+w+3zseUyS+g+WIrtHhuKsbHtMJmRSl8f0z68G2cmByJkM+94NGqD3r38UWK4r4W2S+UXcbmGa/jzVu5KBHYoVXkVGxYHQGhoFy2R3IXt0dymhCRH13E3sk+rLesI1TslZzyBtu/udILLh6d0YPt30zVkY1uEwF1BMiVpDoqFEcE5AQsdp9xa0dr/DoqCKVsm7WA7WFsxhaQlLLTQCTsknL/s4VdIw+kIknNcLW6/ZK1f6Bo727t2ZlGTtpnfNE0Goq0rDMCdfsbWWdqGbUgi+0Z/50vgRcbKqZABIhA/RKgH+b65UvSzYOARc4Z57J9w7UNj2fID7OvbX5jyEf7HI2hFUgHIkAEiEAlAYvsGTuxE7WM521diJ7/+gt/NuBTSfscGxA2FUUEiAAR0IOARfaM9eBCSYgAESACRIAINBgBMsYNhpoKIgJEgAgQASKgngAZY/VcKJYIEAEiQASIQIMRIGPcYKipICJABIgAESAC6gmQMVbPhWKJABEgAkSACDQYAYtcTZ2SV4y231wDO9vDoGAt4OHGhHZo5WBtUD5KTASIABEgAkRAGwGL7BnXxhBzELlTufz0dauojboR3ytJ+RavhnnD2ckd/dddw47Rzoj8NFW3v2Xpb3inXXvMPyt3P1m1itwpY8HosDAJ6u4q09aFDCNmS6oRASJABDQRsMiecfUecQt7Id7t7gnOecTH5zNlLhW5IJ4eynrP8qMxuU70bXZq1zPf39DEsu7ipacxt8MUCLckY3V4QzaRFKfXLsG5FxOQ/q+eaMpcVdwKWIW3vF10n2NdF7UX+GNIXCx4fhb5jlgXBEkGESACJkqgIX/pjRIR85qIYzGBaONkI9NvcIAjAljvN7e4FPb/TjZKnetPKQke3M+B78BANJEVIkDAwNeh9O5YfwXLJfM98eyYMfVdCsknAkSACBgdAYvvggQwN4MKQ8y1jjM7nSvcy1bWUHbMeYQj+8xdnNHWFCSpe7FocBiaO9nDwc0P4ZO/Q2oZS128G2Ncnse6u9wHLkjxy5w26BR3QT5cW3YfPy0cgHaeznBydoV30PNY8fsjHJg5FptSU/DlkED4+QVh9OaHMheKj6/8F69HtoarvT1c/SMw9evLeCwTexIzAzph+qfvIaqdO+wdWiJy3gHcvb0bc58PhIudI/z/bzlO5WmZJC/PxQ+vhmHmITESF3aFv58fK9sPHnZNqgxTS9MOIG5wKHyc7ODgFYqYVSchqiG2HOLz6zA6zAuOzj4IiV6JU9k1ElUwUfmvyjB1LWXUlEoxRIAIEAGjJ2DxxviOWIL7j6TKhnosLcNFUZHsc/L4YOSxc6y5q3BGJ/WNKTmPFUMn4mjgcpxOL0DevbPYNLEj7LQYb4Ug6ZmPMXtPa8RfFiEvNwPXD69GVAtbDFq7FZP8AjHtxxSkpt7Atle8wCv6BYuHz8P1/9uKG7m5uLltIFLmD0fsKbmuKLmJ3UcdsIS5fMy69D48vpuM5yfsQ+jnf0CUcRozStbgnfU3ZT6S1QaeM0b+9w+s6W+P3h+cx+3UVFb2dfwnqmllcuklrI6ZhOMh8TiXUYCMM8vguW083tohUvpbliUuOoW40cuRM+EQ7man4fjsQuzamaZ73llVsbqQobaiFEkEiAARMD4CFm+MuUVZA3bfwq6UPBxMLcA/fvwbGYXyZUat2XA15/6Ou5p8dklt60nPbsFW0VC8v+wl+NnywG/igY7PdoSbHsaYZ20NK3Eaki//jRypFRz8wxHqo75JpGd/QELhcCx6uydcrazg0uNtxI54goTtv7H+Ngt8dwydOwPdnK1g4x+DYeGP0KzvbIxrZw9Bs/YYHt0BNy5d1b6ASm0NKyOl577F5gfRWBz3Anxs+GjqH4246cE4lpCIQpW80rM7sUcSgwVvhsGBbwWPvgsxq5984FtHEcrbdSFD37IoHREgAkSgsQlY/Jwx1wDcgq3h+1Nr1RalGawn6t0JreRTzgbJsOq2AJsXx2Hp/H5YmcJD8MBpWPHJArzgVlNMaVYmcjw7oblQcc8Kvi29kHtOxAysJzPGLnBzVRhyazRpYgVXdxfIY3iwaWKNUonEsN5pNTVKH9xDes5xvBGWCOXmLokY1mFiPFIZheZ0zfXuCl/l09UMLVu5VehSs27qYupChjq5FEcEiAARMEYCFm+M27k0QVRrB7Rn/1uxieHrucWyHvK5DNW+nuamE3j6wO3hbaRJgHYqI7ryHNawti6BVDkKXgZx/iOU2VXI4zmh25TPsI9d0qw/sH7yS3hteQ+krLFhq5eZdVMxcAI3D7hk3EU667S3E3D5S3Av7SGcPd3RUI0o8PCGV/Ox+Do5HhHVt1qz+V5FkOmaK0I2mypvI9NViixRHspaKJPo/KMuZOgshBIQASJABIyEgPoxUSNRrj7V4LYx7XzJD1dfCcbq53wwob0LxgY74/2eXkgaHYSTIwLh1lS3mROGj8EYt91Y8t5BpBWVo7xYhCtnriCLM6TCdugUdBPHT6TL5molt7dhw8EcpY2VXjuEH35NhZgZWKGDBzzZYjIBXwAe3xmujjls3rZAmVYYPgJDmu7EqjVJyC0tRW7SGqzcYYOhI56BsrNcn8C46oSPx3jH7YhdfhRphayCpUXIvHoMPyVVnTMWdo9BVNlubDwskvXEpbe2YMOh/Krzyjp0rQsZOoqg20SACBABoyFgscZ4HDO8MYFOGhsisrkdZnd213hfecO6G2ITNqDPn/MQ7ukAp+bdMemry/JhW74/Jn34NvifRCKk27N48Z83ENLHVzlcW15wGZtn9IG/qyOcvMKxLH8CNiyKgFDQFi/PGYRbcwPg5OSBqI3pKG8agWU7VsF/3wgEODkhYMRe+K3cgeW95Su/dStaBymsu2DR7k3oe3Uhevk6sJXj/ug18XMk5ShWi1eUYRuJZVtmQLwkAp2f7YP+b19DaL9WbKOUAaEuZBhQHCUlAkSACDQmAV45C42pQH2WHRkZiVPD1iqLKJ8dJvubW5DV2tEav44KQimrvoDHQzO2jamUnQYiYZeU+58t7Bp5IBVJaoarFXLqU3eSbT4EuOdNESISZiIxMdF8Kkc1IQJEoE4I6B6HrZNijE/I3+w0La/1V4xPMdKICBABIkAELI6ARQ5T57J9w7UNj2eE1jarUeQrS12PYW3kB3pwh3oorzbDsF52Ukn9hsYuv35rR9KJABEgArUjYJE9Yyd2opalDjXz/aYi4ebU2j0tdZCrscuvgyqQCCJABIhAnROwyJ5xnVMkgUSACBABIkAEnoIAGeOngEdZiQARIAJEgAjUBQEyxnVBkWQQASJABIgAEXgKAmSMnwIeZSUCRIAIEAEiUBcEyBjXBUWSQQSIABEgAkTgKQiY9aEfT8GFshIBIkAEiAARaDACZtsz5rFTtVSvBiOqb0HMscI77dpj/lm5u0Z9s1E60yRg9M+jaWIlrYmA2RAwW2NsNi1EFSECRIAIEAGzJ2CRh35wrWq7LhlFJWVwZZ6ZsqaFyBpacYYw14spm9VJ2fgu/7mC3CclaMo8PRWa+AlcZv9EUwWJABEgAiZIwCJ7xgpDzLVXdlGJ0ggr2o/znaE0zOyQf84Qc4Ez3qqH/jMfgri+ugc8RmxHrtLdRjFOzW6DgJknUVyehSNLotDV3x2Odg7wDHkJcYfSZW4Fq4Ti3Rjj8jzW3VXckeKXOW3QKe4C81osD9K0A4gbHAofJzs4eIUiZtVJiMzWxUd1QPSZCBABImDeBMzWGHMGVfVSbUbOqHJB3ZGYXJy2+Kr3BGgzfCSCTm7HTzkVlvHJr9i+l48hL/eEDfPga9thEjaeuYOcgnScnOeAra+9gz35Bj5U0ktYHTMJx0PicS6jABlnlsFz23i8taOqH2EDpVLyBiSg7XlsQDWoKCJABIyUgNkaY44350KR68kqLtU2UBjV6obX/+tr4C59A99/GEa2P4Xt++WGsSjxe+xrMhSjuluzcW93PDdyCDp72ULAt0Pw2DkY5ZqEX/6U6itelk567ltsfhCNxXEvwMeGj6b+0YibHoxjCYkoNEgSJW4MAqrPIPdMUiACRIAIVCdgsXPGVYebK7Hcfq2d7EP1+78/lJs9PptP7u7ZtDIDvyWGjuqEZT/sR8b4Ubiw/Sc4xuxFFyFLUl6A8xsXYNEXR3BVJAVfUIKCDOYn+bFh48ulD+4hPec43ghLBDPx8iARwzpMjEdMVDNepTr0FxEgAkSACJgeAYs1xlxTcb3i6kZX8dmKX9XC9fj+hrJ1q/am+fAdPApdF/+AvTdc8MtBdww/HAoObMnleEx+7z6mHj6H/SFOsCq5gNjO0RDVeE6sYW1dAqmyw1wGcf4jlNnJEwo8vOHVfCy+To5HhNIa1xBCEUSACBABImCiBMx6mFpbmygM6p7o1mqTXRwbLIsvmRVW5b54ek1/xjzvaIx65jw2vvUJDvuOwIj2Alme8kdiFNr6IsiPGWK2bEt0bCN23iitWZ6wHToF3cTxE+lsSRggub0NGw7msBlneRCGj8d4x+2IXX4UaYUstrQImVeP4ackmjOuCZNiiAARIAKmR8Aie8aqPdvo1g7KBVvV54+55hSwDrK6+CpNzfPAS6N6YfaEg2j/4SYEyW0xhM/MxKqB4/Bml85w93WFW4de6BmsBjnfH5M+fBsnJkci5HMveLTqg959fJGiKMS6Cxbt3gTMWYhevsOQX94Mnm17YdzSzzHQ9J450pgIEAEiQASqETDr4zC5xTKnhq1VVlmnUaXHgwjUAwHVqZCIhJlITEysh1JIJBEgAqZMwGKHqU250Uh3IkAEiAARMC8CZIzNqz2pNkSACBABImCCBMgYm2CjkcpEgAgQASJgXgTIGJtXe1JtiAARIAJEwAQJkDE2wUYjlYkAESACRMC8CJAxNq/2pNoQASJABIiACRIgY2yCjUYqEwEiQASIgHkRIGNsXu1JtSECRIAIEAETJKDmOCgTrIWBKktKyzFu6zX8nV2kd84DkzvC054OhtYbGCUkAkSACBABvQlYpDEWPymRGeJTMzpXASU7C5r5QVYExV+cp6amQj7O3ROjm699VbjS3/BO6ETwvknG6vCnxSnFmXkdMdnqW1xa1V3mbEJjqNNyNZbCbhigkzYxdI8IEAEiQAQ0ErDIYeqyChxNmIHljKzismV/21oLlFcz9jd3cff3X83GmztvYsNvD6rCFPhjSFwshvgZKUrpacwNao/5Z0s0PgR0gwgQASJABBqXgNbOV+OqZjylc4b4/SN3UMZ6zXfziqsqxvfEs2PGGI+ypAkRIAJEgAiYHAEj7c7VM8fKkWidBaka4gHBLlg6wK9qHm64uF1Fz7PsPn5aOADtPJ3h5OwK76DnseJ3pZNiNWWVQ3x+HUaHecHR2Qch0StxKruqctK0A4gbHAofJzs4eIUiZtVJiNTorz5dMQ7MHItNqSn4ckgg/PyCMHrzQ5lrRvXpORV166SmIhRFBIgAESACT0HAMo2xCrDHkjLZXLC6UN0Qz3jOV10yZZz0zMeYvac14i+LkJebgeuHVyOqRYU/RXU5i04hbvRy5Ew4hLvZaTg+uxC7dqYxz8cVQXoJq2Mm4XhIPM5lFCDjzDJ4bhuPt3ZU82OsMV0B/rF2Kyb5BWLajylITb2Bba94gacxPZOrSyd19aA4IkAEiAAReCoCFm2MubVaM3ffxFsJKTj1d34VkKqGeCDrES/s1wqFklJkPdbc0+VZW8NKnIbky38jR2oFB/9whPpoRiw9uxN7JDFY8GYYHPhW8Oi7ELP6NVHqIT33LTY/iMbiuBfgY8Pmtv2jETc9GMcSElGooq2+6RRZtK1nu8gAABfUSURBVKXP16HTUz1tlJkIEAEiQATUErD4OWNugZa0tAzv7P8b/4pqjef8HWWLtRRzxPKhaX+UlJVj5OY/sZ9tcdIUrLotwObFcVg6vx9WpvAQPHAaVnyyAC94qzfIpVmZyPXuCl9lKzRDy1ZuUKQufXAP6TnH8UZYIpSbqiRiWIeJ8UhlqFp7Oq8a6mpLXyDSrlMNYRRBBIgAESACT03Aoo0x27GEj6ID8PbeWziTmo95+/5GTKgbfrgoki3W4gzx+wP8wWfpZBOtLHB/agw8J3Sb8hn2sUua9QfWT34Jry3vgZR/9600piqZBW4ecMkVIZuNS7eRjWZLkSXKQ1kLeSKBhze8mo/F18nxiKi+xZnNVSuC9nSnmc5MeRXjrS299OQFrTpprDvdIAJEgAgQgVoTUN9lq7U408iouv7JWsDDx8wg9/RzlPWQv/8js6YhZtUqV7VmGqopvXYIP/yaCjHbRSR08ICnow0EfIFGAy7sHoOost3YeJgZfyZTemsLNhzKV5YkDB+P8Y7bEbv8KNIKmdalRci8egw/JVWdM9aaju8MV8cc3E4t0EuulQ6dNFSdookAESACROApCFikMa7OS9Ugc/eq9IgrEisMONeb1hTKCy5j84w+8Hd1hJNXOJblT8CGRREQaspgG4llW2ZAvCQCnZ/tg/5vX0Mom5tWLvmy7oJFuzeh79WF6OXrAAc3f/Sa+DmScpRLvOSStaUTtMXLcwbh1twAODl5IGpjOsq1pdelk6a6UDwRIAJEgAjUmgCvnIVa5zbyjJGRkTg1bK1Sy/LZYbK/Mx9J8Y8NyTg7u6t8CLoiBXdM5g8XMzGmi2eVeO52kbQMEev+wE9TQuFhp9G8GjkRUq8xCPDWXFQWG5EwE4mJiY2hBpVJBIiAEROwyDljRedWwoalVaaDZc0UE+qO4pKyykFp9q7CY93h1JwnsvvaesZG3M6kGhEgAkSACBgxAYs0xvZNBLCzESDisz8qjCtP9j9nmGX/s39kf1d85tqP6xk7NbWCo41hyMpS12P4iytxofqOKGEXvHt0J6Ya6zGaRvzQkmpEgAgQAXMjYJhlMZPaN7Hi4/gbnVgPWP0Ivaber7WAX2P4WhcSvt9UJNycqisZ3ScCRIAIEAELJmCRxphrb7knJi2rsSz4oaCqEwEiQASIQMMSoNXUDcubSiMCRIAIEAEiUIMAGeMaSCiCCBABIkAEiEDDEiBj/P/t3Q9QVdW+B/DvOYc/hnhARf6FeiglUiRQ1Gsqt2fmvJ5BFqUZg73E8GqGf8rSq2RdTac7TTROk1PiazJ9jhNC9rT883QumENPkJeadPPPE7EwOIhyUEwOcN5eB84Rzv9j4Imzv2uGmVh77bXX+qxtP/aftdfd9ebRKEABClCAAlYCDMZWJMygAAUoQAEK3F0B2b7A1Zm5SZq29HlZDYr/7xouXbtl3DQ42B/J9wUjIykMAb78m+XunpY8GgUoQAF5Ccg+GJddasTbBy7isq49CJuG/6faJogfsYLTmmlDkTS4Xy8/M/QoWT4K83w+x4kNYyH7ge/lo8nmU4AC3iUg60s+EYgX7DrbJRCH9vVFZL/bn7sUQVqUEWU9mvRHsSxmBN44Jq1C4an0R2iDp/rO41KAAhToQQHZBmNxa1pcEVt+mvucDvhqXnwXclFGlBX7/K7U2orW31UBd6YABShAAW8UkG0wFs+ILW9NOxpgUVbsYys1V36FVU8m4N7gftLKShqMm/efqDSuiViE7PtHIfOd5Uj9UwJix7yGfzRL2VV7kfNkPCKDA6EOj0fahiJoxcfADHU4sCYFY6IHIShQjbC4J5Czr1paXvEW9manY0vlOXw8Yxg0mhjM3vqr8fvZduuStjYe/xCzE8IR1D8ScanrceSK7S+OdenTHbTBlgnzKEABClDAdQHZBuOi89dcV+ooKV7wskrNx/HOU3NxcNg6HK3W4drPx7Bl7igEmj7u1fITvikfgdyi7/HP79/Ho4oTeDctE4fjclFWo0NNyVqE7cjAK1+INYoNCBiZibySi6jXVaNouRrbX3wduxv8MX3jdmRqhmH+l+dQWXkGO+aEQ6F3UNfNI8iZvQ71L+zDpStVOLykCbvyq4zrJjtObrbBcWXcSgEKUIACLgjINhj/3ND1hS0XrMxvWncuqz+2Ddu1T+Fva5+AJkABZZ9QjHp4FEJMwVgZjhkvp+N+f7GXAvqyz7H1cirezHkUkf5K3BOdipyXY3GooBhNikGYNHMGEsMDoFIGIjZ9KWYNLMW3py1XmWhvgaO6Go7lY3dzGlYsTIBa6YPQKSuxeGof5910sw3OK2QJClCAAhRwJsCXajuExOIRtbdUOLF4pDOzLttbay6jLuIhDDUGWxtJOQCDBt7+m6f18s+orj+MBQnF8DMVb26EX0Ijrrfp8M8tK7Bq0wFUaPVQqlqgqzFg5g3bt5cd1aXT1uJqxBhEmUe4L4YMDYHTv74MOhzPc70NNnrMLApQgAIUcFNAtsFYzCMWU5f8VQpom31QtrT9pa2Y905imNq2otjHMqnCIhHy6wVUSc+CH7zHcqv4vetiFKrQCITfm45PT+Zisjkat+/XcvJt/OtbvyBrfxn2xAXDp6UcqxNToe2oViGeEneKy47q0heVY8BVLa5I96WHq0QFetRpr6FtsK023s5rOZWLeW60wXFt3EoBClCAAq4IOL1QcqWS3lhGfNBj/JB+2C093z3zWjye/ew0knKPQ63So/aG7dvCYh/L5DvueTwfUog1b32DqpvSU99bWvxQ8gPqbF/MwndcBjKCdmL1uoOoapIKtd5EbcUhfF2qRdv1RjQFRCFGIwVi6emu9lAe8s90vH+t7I+BQfW4UKkzx2NHdfmMTUNKWyHy9kv1So3Wn9+GzfsaOsdyy64Yfze42QablTCTAhSgAAXcEpBtMBZf1mrSG7Co8KwxCF+o/80hXITa3/g1Lqvkl4TVBZvxyOnlGBemRvC9Y5H5H6dw3U4wht9orCrcgikVKzExSi29fR2NiXM/Qml9G3zHZ2PD46ewcHQiJk2Zhpf2DMKE2I6bF6oH8NzS6Ti/7H4EB4ciJa8aBgd1ISAZa7ctQuOayUh8+BFMe/VHxE8dCuNFsoPkdhsc1MVNFKAABSjgmoBCmkNrL2y4VsMfuFRycjKOPL3R3ELDkoQurTV99MMZgUKhwKa04V7wFa4/8GB5cdMUH3xv7t3kgmwUFxd7cW/ZNQpQ4E4EZHtlLLDEJy5FkBVXvfaS2MZAbE+H+RSgAAUo0B0Csn2By4QnAvLOOSOMH/QQc49NU568eaGItspP8Mxj61Fu+WjcdzT+ejAfWRpZ/43WHf+uWAcFKEABtwRkH4yFlliVaf6ECOOPHJJSk4WCs1ly6Cr7SAEKUKBXCPASqFcMExtJAQpQgALeLMBg7M2jy75RgAIUoECvEGAw7hXDxEZSgAIUoIA3CzAYe/Posm8UoAAFKNArBBiMe8UwsZEUoAAFKODNAnybWhrdJn2bcWqTWCLx0rX21Zy8eWqTN5/Q7BsFKECB3igg+ytj8RWuWVsrsPm7auPCEU3NrcYf8d8iT2wTZe5e0qNkeSxGrixFS48f9G4eq8c7wwNQgAIU6LUCsg7Gps9hXtbdXts4tK8vIvv5mgdUbFuw6+xdDsgunk/6o1gWMwJvHOv5sG23RX+ENthtHDdQgAIU6B0Csg3G4tb02wcuwvK71Od0wFfz2pdTNA2hKCPKin2YKEABClCAAt0tINtgLJ4Rd74idgYryop9rNKtQjw/4F/w4SVToNbj26XD8VBOefttZn0Rsu+LwwtvZiPlzxMxdkQs/vTveTjVZKrJgMbjH2J2QjiC+kciLnU9jlzptHaHoQ4H1qRgTPQgBAWqERb3BHL2VUvLIt7C3ux0bKk8h49nDINGE4PZW381LpGor9qLnCfjERkcCHV4PNI2FEFrrNLJsaw615FxB22wVxXzKUABClDAWkC2wVh8h9rdJF7wuqPU+hP2/zAGH/73UZSePIBFN9Yi/Z1SNIvKbh5Bzux1qH9hHy5dqcLhJU3YlV9lXIO4PRkQMDITeSUXUa+rRtFyNba/+Dp2N/hj+sbtyNQMw/wvz6Gy8gx2zAmHQn8C76Zl4nBcLspqdKgpWYuwHRl45QstDE6PZa93brbBXjXMpwAFKEABmwKyDcamBSFsqtjJNL1pbWez/WxFKFL/8hyGikfRPkMw8y/T0fBlAU5Ij3r1x/KxuzkNKxYmQK30QeiUlVg8tc/tuhSDMGnmDCSGB0ClDERs+lLMGliKb09brvLQvou+7HNsvZyKN3MeRaS/EvdEpyLn5VgcKihGg7Nj2euBm22wVw3zKUABClDAtgCnNnW49PFRovaWCicWj7Qt9XtylQMRGqIy16AMCUV/6Sq4Trr8ba2rxdWIMYgyj0RfDBkaAvNfSQYdjuetwKpNB1Ch1UOpaoGuxoCZN2wvQ916+WdU1x/GgoRi+JmO2NwIv4RG6LROjmWvj262wV41zKcABShAAdsCsg3GYh6xmL7kr1JA2+yDsqXtL23FvHcSw9S2scQ+1skPfn4t0JsvVNvQ2HAdbYGdSrb9iouXpDe2R7dzN1+6iJoB4QiRIq5KCswDrmpxRQrMw43xWo867TW0DW7fv+VULua99Quy9pdhT1wwfFrKsToxFdqO6hXiKXGnuKwKjUD4ven49GQuJpujcXthfVG5w2NZ9+3O2mCvHuZTgAIUoIBtAdnepk6+Lxjjh/TD7rmjcOa1eDz72Wkk5R6HWqVH7Q3bt4DFPlbJ90E8FHMWh/9RjVZpY/OFHdj8TX3n+CgFSx325r6HkvpWtF39H7z/9//CwCefwkNSbPYdm4aUtkLk7dcanxPrz2/D5n0N5v0N1xvRFBCFGI0UiKUS2kN5yD8jjiQlZX8MDKrHhUqdubzvuAxkBO3E6nUHUdUkRenWm6itOISvS7XwcXIsq751ZLjbBnv1MJ8CFKAABWwLyDYYZySFSVOVDFhUeNYYhC/U/2ZbqCM3Qu0PsY9VUkYj8++vQvl+MuKSHsZjr51B3CNRt28zix18HsCslFv428QoDIyegULNO9i+elz7beSAZKzdtgiNayYj8eFHMO3VHxE/dShMN7V9x2djw+OnsHB0IiZNmYaX9gzChNiOGxqqB/Dc0uk4v+x+BAeHIiWvGga/0VhVuAVTKlZiYpQa6pBoTJz7EUrrpVDv5FhWfevIcLsN9ipiPgUoQAEK2BRQSHNobT98tFm8d2UmJyfjyNMbzY02LEno0gHTRz+cESgUCmxKG46kwf3cBxBTm2KXoH9BKd4Wl8JMshNQfPC9uc+TC7JRXFwsOwN2mAIUcCwg2ytjwSKCqwiy4qrXXhLb7jgQ26uU+RSgAAUoQIFOArK/VBMBeeecEcYPeoi5x6YpT3JbKKKt8hM889h6lFs+Lvcdjb8ezEeWRtZ/t/F/GhSgAAV6VED2wVjoBvgqMX9ChPGn25Pvn7Hx/P92e7XdXaFSk4WCs1ndXS3rowAFKEABFwR4ueMCEotQgAIUoAAFelKAwbgndVk3BShAAQpQwAUBBmMXkFiEAhSgAAUo0JMCDMY9qcu6KUABClCAAi4IMBi7gMQiFKAABShAgZ4U4NvUkm6Tvs04tUkskWhamUluU5t68iRj3RSgAAUo4FhA9lfG4itcs7ZWYPN31caFI5qaW40/4r9Fntgmyrie9ChZHouRK0shrZDoOOm/w+sPjsAbx5yWdFyP061utMlpXSxAAQpQgALdLSDrYGz6HOZlnbSiUkcK7euLyH5i4eH2JLYt2HXWzYDczcOkP4plMXcjaDto9x+hDQ6ax00UoAAFerOAbIOxuDX99oGLsPwu9Tkd8NW89uUUTQMryoiyYh8mClCAAhSgQHcLyDYYi2fEna+IncGKsmIf62RA4/EPMTshHEH9IxGXuh5HrnRde0NftRc5T8YjMjgQ6vB4pG0ogtbG8hy2y93C3ux0bKk8h49nDINGE4PZW381Lplou7xoofM2WfdD7FaHA2tSMCZ6EIIC1QiLewI5+6qlhRvtt8FmPcykAAUoQAG3BGQbjMV3qN1N4gUvq3TzCHJmr0P9C/tw6UoVDi9pwq78KuPaxMakP4F30zJxOC4XZTU61JSsRdiODLzyhbbrmsd2y+nwbxu3I1MzDPO/PIfKyjPYMSccCrvlpXqdtcmqE6YMAwJGZiKv5CLqddUoWq7G9hdfx+4Gf0y31Qa79XADBShAAQq4IyDbYGxaEMIdLNOb1p330R/Lx+7mNKxYmAC10gehU1Zi8dQ+5iL6ss+x9XIq3sx5FJH+StwTnYqcl2NxqKAYTZ0qcrWcaRdH5RuctMlunxWDMGnmDCSGB0ClDERs+lLMGliKb09brh5htwZuoAAFKECBOxDg1KYOtD4+StTeUuHE4pFuMbbW1eJqxBhEmSX7YsjQEJj+ymm9/DOq6w9jQUIx/Ew1NzfCL6ER1zvdqnZcLtyqTY7K67SO22RVmSnDoMPxvBVYtekAKrR6KFUt0NUYMPOGjXvqdivhBgpQgAIUcFdAtsFYzCMW05f8VQpom31QtrT9pa2Y905imNo2o9jHMqlCQjHgqhZXpPvSw1Viqx512mtoG9xeUhUagfB70/HpyVxMNkfjjlqkqU2m5LjcUSjETe1OMdFReX1RucM2WfbB9HvLqVzMe+sXZO0vw564YPi0lGN1Yiq0HQUs22CvHuZTgAIUoIB7ArK9TZ18XzDGD+mH3XNH4cxr8Xj2s9NIyj0OtUqP2hu2b8uKfSyT79g0pLQVIm+/1vicWH9+GzbvazDHTd9xGcgI2onV6w6iqkmKpq03UVtxCF+Xdn1m7LCcsj8GBtXjQqXOpXp9nLTJsg+m3w3XG9EUEIUYjRSIpd5oD+Uh/0xr+2YbbbBXD/MpQAEKUMA9AdkG44ykMGmqkgGLCs8ag/CF+t8cykWo/SH2sUoByVi7bREa10xG4sOPYNqrPyJ+6lAYL5JF8huNVYVbMKViJSZGqaEOicbEuR+htN5impSjcqoH8NzS6Ti/7H4EB4ciJa8aBkflnbXJqhPtGb7js7Hh8VNYODoRk6ZMw0t7BmFCbMfNE1ttsFMPsylAAQpQwD0BhTSH1msfCCYnJ+PI0xvNIoYlCV10TB/9cEagUCiwKW04kgb3c0+XpSkgCSg++N7sMLkgG8XFxXShAAUo0EVAtlfGQkEEVxFkxVWvvSS2MRDb02E+BShAAQp0h4BsX+Ay4YmAvHPOCOMHPcTcY9OUJ29dKKKt8hM889h6lFs+Fvcdjb8ezEeWRtZ/n3XHvynWQQEKUMBtAdkHYyEW4KvE/AkRxh9vT0pNFgrOZnl7N9k/ClCAAr1KgJdBvWq42FgKUIACFPBGAQZjbxxV9okCFKAABXqVgFe/TW05Ep3farXcxt+tBSzfPjeVoKO1laMce46O9uE2ClBAXgJe+8xYTEfqnJxNX5LXsLveWzq6buWoJB0d6XAbBSjA29Q8ByhAAQpQgAIeFvDa29S2rkTER0CYXBcQH6ego+te9krac7RXnvkUoID8BGQVjOU3vL+/x7aC8e+vVX410FF+Y84eU8AdAa8Nxu4gsCwFKEABClDAkwJ8ZuxJfR6bAhSgAAUoIAkwGPM0oAAFKEABCnhYgMHYwwPAw1OAAhSgAAUYjHkOUIACFKAABTwswGDs4QHg4SlAAQpQgAIMxjwHKEABClCAAh4WYDD28ADw8BSgAAUoQAEGY54DFKAABShAAQ8LMBh7eAB4eApQgAIUoACDMc8BClCAAhSggIcFGIw9PAA8PAUoQAEKUIDBmOcABShAAQpQwMMCDMYeHgAengIUoAAFKMBgzHOAAhSgAAUo4GEBBmMPDwAPTwEKUIACFGAw5jlAAQpQgAIU8LAAg7GHB4CHpwAFKEABCjAY8xygAAUoQAEKeFiAwdjDA8DDU4ACFKAABRiMeQ5QgAIUoAAFPCzAYOzhAeDhKUABClCAAgzGPAcoQAEKUIACHhZgMPbwAPDwFKAABShAAQZjngMUoAAFKEABDwswGHt4AHh4ClCAAhSgAIMxzwEKUIACFKCAhwUYjD08ADw8BShAAQpQgMGY5wAFKEABClDAwwL/Dz/WECRl0Zx6AAAAAElFTkSuQmCC;" vertex="1" parent="1">
          <mxGeometry x="-230" y="350" width="483" height="516" as="geometry" />
        </mxCell>
        <mxCell id="BVL4bL25nlAPJT_1eoTr-2" value="&lt;h1 style=&quot;margin-top: 0px;&quot;&gt;Categories&lt;/h1&gt;&lt;p&gt;Lorem ipsum dolor sit amet, consectetur adipisicing elit, sed do eiusmod tempor incididunt ut labore et dolore magna aliqua.&lt;/p&gt;" style="text;html=1;whiteSpace=wrap;overflow=hidden;rounded=0;" vertex="1" parent="1">
          <mxGeometry x="-1030" y="380" width="180" height="120" as="geometry" />
        </mxCell>
        <mxCell id="BVL4bL25nlAPJT_1eoTr-3" value="&lt;h1 style=&quot;margin-top: 0px;&quot;&gt;Custom fields&lt;/h1&gt;&lt;p&gt;Lorem ipsum dolor sit amet, consectetur adipisicing elit, sed do eiusmod tempor incididunt ut labore et dolore magna aliqua.&lt;/p&gt;" style="text;html=1;whiteSpace=wrap;overflow=hidden;rounded=0;" vertex="1" parent="1">
          <mxGeometry x="-200" y="230" width="180" height="120" as="geometry" />
        </mxCell>
        <mxCell id="BVL4bL25nlAPJT_1eoTr-4" value="" style="shape=image;verticalLabelPosition=bottom;labelBackgroundColor=default;verticalAlign=top;aspect=fixed;imageAspect=0;image=data:image/png,iVBORw0KGgoAAAANSUhEUgAAAsEAAAM0CAYAAABamf9qAAAABHNCSVQICAgIfAhkiAAAIABJREFUeF7s3QdYU1f/B/BvEgKI7L1EEAcuxL3qqLW+driKo64O19thrdba1gptreu1S/+2b/u+jg7raOuqq45W36pttYLWbd2ICkLYIAghyf/eABEhg2CY+d7nicq9557xOQF/OZx7jkQjHOBBAQpQgAIUoAAFKEABKxKQWlFb2VQKUIACFKAABShAAQpoBWzoQAEKVE5AsvRE5W7kXRSoZgHN9IhqLpHFUYACFKj9AhwJrv19xBpSgAIUoAAFKEABClhYgCPBFgZldlYoMKO9FTaaTa4TAkv+qhPVZCUpQAEK1IQAR4JrQp1lUoACFKAABShAAQrUqACD4BrlZ+EUoAAFKEABClCAAjUhwCC4JtRZJgUoQAEKUIACFKBAjQowCK5RfhZOAQpQgAIUoAAFKFATAnwwribUWWb9F/jgCCC3q3g7xYfrPAKA1FsVv4cpa62ATdPxWLnxAwwJtkFMVG+s6PkHXjnSHn3/Lw5qY7WWd8MHp76E5tlwvHm0sExKObp/eBorC8ej3ewYlL1qLFteowAFKECB8gIcCS5vwjMUeDABcwNgsTTxKX5LBcDynvjk4jks7mLln3FrzEGOntPmotPPT8Hf1QsDPruI46tn49MDaeD2nA/2rcW7KUABClhSwMr/l7QkJfOiQLGAOSPA9Q1NJoNMpYKqvrXLrPbYwi/AHTd3XcZd7X0qXNn1H1wxKw8mpgAFKECBqhbgSHBVCzN/qxSY1C0Q+l4ihqHz+qBsgwdjwdYTuJWRjayUOBxdOQbB4netxBMD5m7HsWsKZOZkIenMDswb6A8p7PDEsrWYGNwU//zxMuLiLmL9M76QCLfIg57AvK2nkJCRg6zbp7Bpdh94iReEq86dp+G7k7eRkXYLZ7a+ize+vICzizrrtpRs2OY5/OfgVaRmZyP12iEsf74tGoq3yvtg2ZXTWDXnQ2w7cgJ/H/sYY9/8HUkbR8Ndm7d42KH3/13GpaW9hX8ZPgy21W4Y1qX9D1Mblfy4kuOhJZdwcl6HovpJA/D4ot04n5SOjPRUJF78H+Z0dTToYLwtJ/HvV9/D9vMKZGfF4+CHT6BRyDB88r/LSMvJxLU9UejlqmtY+cZI3DDy6xNYNtAJvRcdw7W4OKEP4pCccxcHXw0W+qfoMNwXpbOUwKnjVKw/cRuZ6Qk4s+1t9PIoVbbedsvL14lnKEABClBArwCDYL0sPEmBqhO4U1jBcVLbjpiz5Us8ejkKPf2d4RrYBRO/PI0c7e/UJcg9uwqTujeGu7M/+nyYhbFfCXNQXfKxc9pYrIq7jP8ObYrg4OYYvfo2NPJ2eHPTKvQ7MwOdfJzh0z0aSaO/xacjvCBx6I15696C44pH0cgzCH0/lGHQsCBdwIYGD+H9jR+ixZ6xaO7mhmajd6Hp4o2Y36tBEZJNCzzW4Rxm9IlAWMQMrFm/Fqd7jcagoggbaNAbY4YUYNO6w8g3xGq0rYZuKjov7z4TS4dcxYy2XnB180GLf7yJ7Tdy9TuYbEszDHs0C3N7+MGz3TtIHrMS//tmEE691B5ePj3xmc10fDClGWSGqqRJxw/Ptcf0vdk48FZHhAQHC33QAi9sz7t3h7G+KJ1vg16Ytz4K7t8MRCOPIPRb6oDI4ff6RX+7K/jeMlR/nqcABShgRQIMgq2os9nU2iHQ0MZgCHVfBeVdxmGs1xa8E70DcbkaqO8m4/Qfp5EiBsEaBX774Uf8dTsXKnUO/l67BN+ndsZDrfWPBMo7jcczftvw/rx9SMhXI+/aNsz799945KnecOkcicHSDfhg+Wlkq1VI+e0jLNubq6uLvMtIPOWwEQs+PozUwkKkHfkY8zfY46lR3aAtTX0bP/57La5oI1yhnjc2Y21MFzw9xE87Au34yBg8mbEB648r72tf6S+MttXgXUUXNAUFKHQKQnjbJnCXFyLr2lGcStD/+Jnptiiw5ZPPEJteiPxrm7D5qCPu7F+KNeezobpzDhu3nUXzdq10I+Qmqqb3srG+cCh1h7zLcAyx3YR/fX4CWepCJO9fhP/7pWiChZjMnHbrrQhPUoACFLByAc4JtvI3AJtfNQIrj9w0mLGxa6VvkvkIo5GJJ3Fd3/CpxBkdJ/0LC14cgFZecqhVNnD2keCHhvp/VS/zC4S/ez98caI3CkoKsXVCwQknOHv5wC05Fom6QcQ8JCak6VYxkHl6wz3pJG7pYthC3Iy/DbdOXkIwmCQEwWlQpJYKOjVJ2LbmEBZMHoZGX65B5zEDcev7fjhjZDkDo201KFl0oTD2X3jm/Xl4d/EveLupBn/v+i/mvPYv7Espf2NF2pKia0sB7t4tRKqixEKD/LsFkNna3hslL1+EyTPG+sKxVPeJdXVLPIabOrc7iL+eousXg+1O1P8BwGTFmIACFKCAlQkwCLayDmdzq0lAXPJM3yGuAqHvmni+zKFKSkCKbwiCbIHzpX6bLiazaTsDK98LwPJ/dMKTZzJQaNMB8//aBq/iPDTiGGypgEqVnIjbt9bi+fAZOKSLgosSy/t0QLp3IPyEAepL2kC4Afz83SG9WnRdlZKMNJ9G8Bd+WpzXXrdBYJAv0pMUxct0lV3zQIPUn9bgl49ex4iOmejxyCV8F3XB6MNyxtoKIWwvKLCBXDfILYWTiyOkOSWNzUDsilcwSHjJPdtjysod+CrqCJpOzxfGpcs4mGxLcZ5V+JexvoCwRFrJoXV384KH8Pu6on6Rw9PLFdIbJtr98v57H3SqsB3MmgIUoEBdF+B0iLreg6x/3RNwdK1QnZVH12FdyjDMfe8xBDWQQGLnhTbd28BTjOscneCQexMX44QAWBiX9HpkEoY3L55moU5HaqY7QoKddXGw8ui3+DZzFOZHPYogByEDWQN4t3oEj3f2QmHMFuzQjMCsyW3gKJHB86HXMW3AvV/MK49uwI95wzF7eme4Cas/uHWejrdH5GPLhj9hcIJD1s9Ys7OREJDORp/T67ExzvjopLG2QnkeJy82Q7++/tq5uLYhozH5MXdd2+QtB2Jkj2A4CUG6MisZSZn5whQRFTR6HSrRlgr1VsUTGeuL0uP4yphN2C4dhkn/8NKOPMtDx2HyQBfT7a54VZiSAhSggFULMAi26u5n46tEQFN2ZLRMKTkZFSu2IBbzn5qMX1t/iKNJWci4FYNVE9oKgaoQ7P25DLN3tcXnx//Cb/v3YsWTChz+u/j35qoL+G7JToR+cgUZGcnYPskfkoLjWDBsIva3WoTfb2YJK01cw+9fvoTO7sKPgNxfETX2Q+S9sB+3UuPx6xsq7Nx6E0phqTPtkXcI0SNm49qgDbiSkYErGwYj7u0RiDpwb95w+Qbl4sCaH2HTMgh/rtuCm8ZjYGGw13Bbob6GVW98DPVrB3Em9g/8/FFznPn1pm5agMS5LZ757FdcS81Exu2jiHb5BpMXHBLqr8ehUm0p37oHOmOsL0pnnHsQ0eM+g9PcQ/jrj1+x9+OWOPXLdd2IusF2P1DleDMFKEAB6xGQaITDeprLllLAcgKSpSeKMqvg9AajJevLw+gNVXnRBU9vvIJ/HmiPRz69YXyHMyPVkIbOxMHDPfB5y+FYl8ofM0aoqu5S8TQbzfSIqiuDOVOAAhSoowKcE1xHO47VruUCtSqoNWUlRWCPAfC9sh/HhOfcfPvPwWt9L2JjVEKlA2DACd1ffA6Ntr+F7QyATXUAr1OAAhSgQA0IMAiuAXQWSYHaJSBBw9YT8PXGtfC3l6Iw9S98P+15LPu7cmvOStzG4PuL/8HDiZswbfBuZBc3Vho8BRt/fhsdyq7ipjyOhY8Ox3IT84Zrk1l9akttcmVdKEABClSnAKdDVKc2y6pXAkanQ9SrlrIxdVaA0yHqbNex4hSgQNUL8MG4qjdmCRSgAAUoQAEKUIACtUyAQXAt6xBWhwIUoAAFKEABClCg6gUYBFe9MUugAAUoQAEKUIACFKhlAnwwrpZ1CKtTBwX07PZWB1vBKlOAAhSgAAWsSoBBsFV1NxtbFQJcg7UqVJmnJQR0D29aIjPmQQEKUKCeCXA6RD3rUDaHAhSgAAUoQAEKUMC0AINg00ZMQQEKUIACFKAABShQzwQYBNezDmVzKEABClCAAhSgAAVMCzAINm3EFBSgAAUoQAEKUIAC9UyAD8bVsw5lc2pW4HJGPlp8cx5qjXn1sJVJcPHZlmjsbGvejUxNAQpQgAIUoEClBDgSXCk23kQB/QKVCYDFnApUGgR/ee7+TPO3YIyTFBK7Xlh6Ta2nwELEzA6DXGKDoFd+hVJPCp6iAAUoQAEKUEC/AEeC9bvwLAUqJVB2BLiRkxxvd/aBvY0UHx9LxpnUu9p8s18OF0aLNdrgVxw0vpZZgK7fXby/TKk7mnbuiq7KVvC1r1R1eBMFKEABClCAAgYEGAQbgOFpCjyogFQC7ItsimaudtqshoS6IFQY7U3PV8Hp36dMZy/vg/f3H8b7plMyBQUoQAEKUIACZgpwOoSZYExOgYoKhLrY6QJg8R43Oxm6+Dpob3eUS+EifC2+xGBZ71FuOoQGqQcXYVhrTzg4eKNt5Af4LdXMycd6C+JJClCAAhSggPUJcCTY+vqcLa4mgevZBbiVo0SAo1xb4h2lGicUedp/nxofhpDih+DyhSkR9p+eNFkrTeoWTBsVhR+TZPDvOhTt7q7D/K+uQGXyTiagAAUoQAEKUKCsAIPgsiL8mgIWEhDn+w7ccgXvdfeFgzAn+F8xyUjKLdTm3qTsQ3AVKDP7l/XYnqSGLOQVrP/fUvS2S8KXTzbFpJ+KAusKZMEkFKAABShAAQoUCzAI5luBAlUoID4IN3xHnAVKUCP9dhLyhdkPNk1bI0ycZixxR6tWvpD+dM0C+TMLClCAAhSggHUJMAi2rv5ma6tRoKW7PQY1cUYr4W8bYeLvhfR8zPvztq4GmukR2n9Llp6oQK2kcPP1gZ0wfzgv8SYShDkQ3jZ3cetWKvQtnlaBDJmEAhSgAAUoYNUCDIKtuvvZ+KoQEJdDWzMwCJFNXctlXxIEiwFwSfBb+t/lbih1wumRUXjCezO+O7sMkyfLMNw7Bss3ZwhLrPH5VmNuvEYBClCAAhTQJ8D/PfWp8BwFHkBgXJib3gD4AbLU3irxjMSn383FoOZSnF6/BCuPN8Xop5pA9qAZ834KUIACFKCAFQpwJNgKO51NrlqB/TeytQ/AqYTNMGQSCRoKy6GphF00CkrtpCGOApucDmE3DOuy1VhXqrqefaOw7XxUqTNLML90gqptGnOnAAUoQAEK1BsBBsH1pivZkNoicFXY/c13+RmT1SkdCJtMzAQUoAAFKEABClhUgNMhLMrJzKxdIP3FthUmKBkJrvANTEgBClCAAhSggMUEOBJsMUpmRAHAVdgBzlhwGyKsDxyXVaClKrsqRHDx5hl0pAAFKEABClCg6gUYBFe9MUuggE7g2oRW1KAABShAAQpQoBYIcDpELegEVoECFKAABShAAQpQoHoFGARXrzdLowAFKEABClCAAhSoBQKcDlELOoFVqNsCZef21u3WsPYUoAAFKEAB6xBgEGwd/cxWVqGAsQfhqrBYZk0BkwL8gGaSiAkoQAErFuB0CCvufDadAhSgAAUoQAEKWKsAg2Br7Xm2mwIUoAAFKEABClixAINgK+58Np0CFKAABShAAQpYqwCDYGvtebabAhSgAAUoQAEKWLEAH4yz4s5n0y0vcDkjHy2+OQ+1xry8bWUSXHy2JRpz1zjz4JiaAhSgAAUoUEkBjgRXEo63UUCfQGUCYDGfApUGwcKWylZ7KI/gjZat8ObRQj0EShyeFYbWs2Og76qeG3iKAhSgAAUoYFKAI8EmiZiAAhUXKDsC3MhJjrc7+8DeRoqPjyXjTOpdbWbZL4cLo8UabfArDhpfyyxA1+8uVrwgYymVv+O11pMhX3MKi7vUkW9xWQiGRkdBEszP5ca6ltcoQAEKUMByAnXkf0jLNZg5UaC6BKQSYF9kUzRztdMWOSTUBaHCaG96vgpO/z5VXdWo3nJUKqhkMsjMLVXqgx5jxph7F9NTgAIUoAAFKi3AYZdK0/FGChgXCHWx0wXAYko3Oxm6+Dpob3KUS+EifC2+xGDZ0FEQtw1zhkQgwNUJzp7B6DJpHeLUQmpNCva+OwgdQ7zg4ugMnzZPInp3AtTIx85pY7Eq7jL+O7QpgoObY/Tq29rRZmX8TkQPCYe/qyOcfcMRuegAFNq5yxpkxSzD0+184eoegDZD5uKDCS3um35w58zXeKF3E3g4OcEjpBemfHUad8RblQcwLbQtJi6YhcHdIhDWcSbWLu4Jn+HrkaabF52Pg68KHwamHxRqZ+C4bzqEBtnHPsPoCF+4uPmjzeCFOJRq5iRrA8XwNAUoQAEKUKBEgEEw3wsUqCKB69kFuJWj1OV+R6nGCUWe9utT48OQ8WJb7St3ajv9NSg4hgXDJuDnpvPxe0IWMm4exaoJbeGoDZo1cGg9ESsPX0daVgIOzHLG2uffwNZMOzyxbC0mBjfFP3+8jLi4i1j/jC8kypNYHDkR+9ssQWxSFpIOz4PP+vF4ZYMCmtyDiB7zL+RM/hk3UuLx6ywVtm+JFwLq4iPvN7wzfBYu/GMtLqan49L6x3D5zeGIOlTUFhRewK7jrbDkwAn8fWIJxo0ei7aH1mN7UYQN5B3Euq22iBzTHUVj4vqbqzubdwjRo+cj7dnduJEaj/3Tc7FpY6n6mLidlylAAQpQgAIVEWAQXBElpqFAJQTE+b4Dt1zBpssZ2BWXhcd/vIqk3KJHu5oI0yLELW3Fl/2nJ/Xmrjy6BmsVw/D+vCcR7CCB1N4bbXu0hacYBEu88NDIoWgvjCzLpI4IGzsDozxi8NvZe0F36UyVsd9ideJgvBP9CPztpGgQMhjRL4dh3+aDyIzZhG3qEXhjSls4SWXwfOh1TBtQNGIt5qE8+gM25w7HnJnd4WFjA/duMxE14i42f38E2tKkvhj68liEaiNcoZ6NnsLYzkfx3dZE7Qh0zr512OE6AqM7yEtXyeC/lUc3YmtBJN56KQLOUht495uNV/vbG0zPCxSgAAUoQIHKCHBOcGXUeA8FKiggPgg3fEdcBVPfn0yVlIgUv3ZorG/4VJOFYyvfwpwv9uKcQgmprBBZSRqMvKN/2oAq8SYS0vbjxYiDsC0ppiAbthHZyFIkId27E/x0E3kbwM/fHSWfkFUpyUjzaYcAXQxrg8AgX6THKoTVGnyEINgdXh6lPk9LfDB4XC/MWbEFNyaMQ8y63QgYtR9tKvjTRiwv3a8jAnXpGyKosaeuPpXC5E0UoAAFKECBMgIV/G+JbhSggLkCLd3tMaiJM1oJf9sIE38vpOdrR4Rjk3IrlJXMxx+et68hvgBo2eD+WwpPL8Gk925hyp5Y7GjjCpvC44hqPxiK4mQScQy2VDws8/aDb8BYfHVqCXrpouCixMoDx+GWfBOJKqCZNhDOQ2JCGtRNiq7LPL3hnnQDCcIgdkvt9ULcjL8NNx8vFP0AKTupWQKPx8eh/+sfYcMxF/yxrxment+iwg/LactLVyBVmI9RVB8lUhQZUDe634BfUYACFKAABR5EgNMhHkSP91JAj4C4HNrGJ4Nx7pkwLH7IH8+2csfYMDe8390XMaOb48CIpvBsYPrzp7zLGIzx3IJ339uF+DxhKbV8Bc4cPoMUMb7NyUauQyCaBwsBsDB7V7FvJTZeFKJY8ZC6wcMlDdeEgLskDpZ3GY/xLt8jav7PiM8VzqrykHxuH36KUcCm8zA8KdmAD1ecQY5GhZTfPsKyvfcCdXmXERjaYCMWLY1BurD6Q3rMUizcYIdhI7rC4AQH50cx7okbWD5pEQ60HY3hZix9Ju8ciUHqLVi5R6Gdl6y8sgYrdmeWjun1qPMUBShAAQpQwDwBBsHmeTE1BUwKjBMC3simrgbT9Q5wxPT2Xgav6y7YdkLU5hXoe3YWuvg4wzWgMyZ+eVoIVAF512lY9NhpvNShPR7qNwCTd3ihe1hxYC1rgadnPIErr4XC1dUbg1YmQGPbAXO2rEK/c7PRM9BZWGkiBD0nfI6YNCHMdOiL+WtnocF/+iHAIwh9P5DhiSGBkAtLnWmPBr0wb8MihGwfgVBXV4SO2IbghRswv8+9ecPlG+OAPuOGovB8PLqOGYZAc37SOPTGvDVTkf1uL7Tv0RcDZp5HeP/GFR5JLl8XnqEABShAAQqUF5BohKP8aZ6hAAVMCYgPtYmHZnqELql4romLLf4Y1Rwq4VtLJpGgobAcmkrYRaNAeCnFv4UH5kbujEOMnmkRpfMyVX7VXc/Ed8ND8d8+f2HfK40qPRdXfeVj9O7+B146vxFjPMpOmai62jPnewL63qP0oQAFKECBIgHTv5OlFAUoYJbAVWH3N9/lZ8y6p2YTq3Hzj724HdoPHYXn3G7/sgCf/Nocw+f7VzoAFvbEw+EvvsaNQf/CIAbANdu9LJ0CFKAABfQKmPNLSr0Z8CQFKHBPIF1Y97eyx52p4ZW99QHv0+DO2S/xXHs/eLj7oN2Lsei67CtMCzN73zdtPTTp6zDSKwBD93bCv6IHwqm4duq45XiqWbCwgUeZV7OnsFy7AwgPClCAAhSgQPUJcDpE9VmzpHomwF8117MOrYfN4Xu0HnYqm0QBClhMgCPBFqNkRhSgAAUoQAEKUIACdUWAQXBd6SnWkwIUoAAFKEABClDAYgIMgi1GyYwoQAEKUIACFKAABeqKAIPgutJTrCcFKEABClCAAhSggMUEGARbjJIZUYACFKAABShAAQrUFQGuE1xXeor1rBMClzPy0eKb8xD2xDDrsJVJcPHZlmjsbGvWfUxMAQpQgAIUoEDlBDgSXDk33kUBvQKVCYDFjMRd5IK/PKc3z/pysvDyt3guwg9url4Y8Nl5bBjtht7/FweTKwQrj+CNlq3w5tFCPRRKHJ4VhtazY6Dvqu4GS+Shp3SeogAFKECBuivAkeC623eseS0UKDsC3MhJjrc7+8DeRoqPjyXjTOpdba2zXw4XRouLtlAWB42vCbvMdf3uYtW3SPk7Xms9GfI1p7C4S3V++yvx+7J3EfvoZiR82B0NoMKV0EV4xc8d1bKhsiwEQ6OjIAnm5/6qf5OxBApQgAJ1Q6A6/xesGyKsJQUsJCAVort9kU3RzNVOm+OQUBeECqO96fkqOP37lIVKqSvZFCDxVhoCH2sKe22VZQh97AWEVlf1pT7oMWZMdZXGcihAAQpQoA4IcFikDnQSq1g3BUJd7HQBsNgCNzsZuvg6aBvjKJfCRfhafInBsqGjIG4b5gyJQICrE5w9g9Fl0jpodxjO34Ix7g/jsxslkwmU+G1GM7SLPl40LUB9Cz/NHoiWPm5wdfOAX/OHseDPHOycNhar4i7jv0ObCtsXN8fo1bchjkTfOfM1XujdBB5OTvAI6YUpX53GHbFSygOYFtoOL//fexjU0gtOzkHoPWsnblzbgtcebgp3RxeE/GM+DmUYmQStSccPz0Vg2u5sHJzdESHF2yZ7O9rfNx1CGb8T0UPC4e/qCGffcEQuOgBFuWw1yD72GUZH+MLFzR9tBi/EodRyicpz3jcdopJ5lM+VZyhAAQpQoA4LMAiuw53HqtdugevZBbiVo9RV8o5SjROKPO3Xp8aHIePFttpX7tR2+htScAwLhk3Az03n4/eELGTcPIpVE9rC0UjQXJKR8vDHmL61CZacViAjPQkX9izGoEYOeGLZWkwMbop//ngZcXEXsf4ZX0jyfsM7w2fhwj/W4mJ6Oi6tfwyX3xyOqENFdUXhJWz52Rnv/pGIlJPvw3vdJDz87HaEf/4XFEm/Y2rhUryx/JIwwcHAIXHDyK//wtIBTujzr2O4FhcnlH0B/xnU4N4NypNYHDkR+9ssQWxSFpIOz4PP+vF4ZYNCG6TrjrxDiB49H2nP7saN1Hjsn56LTRvjTc8rtnQeBprK0xSgAAUoUHcEGATXnb5iTeuYgPiw28AtV7DpcgZ2xWXh8R+vIim36PGtJsK0CMnSE9qX/acn9bZMeXQN1iqG4f15TyLYQQKpvTfa9mgLzwoEwRJbW9hkx+PU6atIU9rAOaQLwv31f7srj/6AzbnDMWdmd3jY2MC920xEjbiLzd8fgTaEl3ph2GtT0cnNBnYhkXiqSw4a9puOcS2dIGvYCsMHt8bFk+eMP5imt4X3Tipjv8XqxMF4J/oR+NtJ0SBkMKJfDsO+zQeRW+pe5dGN2FoQibdeioCz1Abe/Wbj1f5FEyxMFKG7bIk8KloW01GAAhSgQO0V4Jzg2ts3rFk9EBAfhBu+I65SLVElCSOvfu3QuGhKsVl52HR6C6vficbcN/tj4WUJwh77JxZ88hYe8SyfjSolGWk+7RAgL7lmg8AgX6THKoTA1kcIgt3h6VESQNvC3t4GHl7uKDojgZ29LVQFBeaNxpaphirxJhLS9uPFiIPQLRJXkA3biGzklBoKFuua7tcRgbqfXA0R1NizuC7l26bvjCXy0Jcvz1GAAhSgQN0SYBBct/qLta1DAi3d7TGoiTNaCX/bCBN/L6Tna0eEY5NKj20abpDMxx+et68hvgBoWWrmQNEdtrC1LYRSN9tCjezMHKgdi/OTuKLT5E+xXXgpU/7C8klP4vn53XB5qZ2wGoMQVZYKLGWe3nBPuoEEYZC6pUy8vxA342/DzccL1fUDQubtB9+Asfjq1BL0KrtUsjCft+TQ1jVdgVRhKnQzbV2VSFFkQN1Il8TkPyyRh8lCmIACFKAABWq9gP7fj9b6arOCFKi9AuJyaBufDMa5Z8Kw+CF/PNvKHWPD3PB+d1/EjG6OAyOawrOB6fBS3mUMxnhuwbvv7UJ8ngaafAXOHD6DFDGAlbdEu+aXsP/XBO1c3IJr67FiV5outlWe340f/ohDthDYyp294SM8pCeTyiCRusHDJU2Yl5ulSyvvMgJDG2xnRveWAAAgAElEQVTEoqUxSFepkB6zFAs32GHYiK7QDQ5XMbe8y3iMd/keUfN/Rnyu0EBVHpLP7cNPMffPCZZ3jsQg9Ras3KPQjjwrr6zBit2Z988bNlFXS+RhoghepgAFKECBOiDAILgOdBKrWLcExgkBb2RTV4OV7h3giOntvQxe112w7YSozSvQ9+wsdPFxhmtAZ0z88nTR9ABpCCZ+MBPST3qjTaceePT1i2jTN1A3LUCTdRqrp/ZFiIcLXH27YF7ms1gxpxfkshZ4esYTuPJaKFxdvTFoZQI0DXph3oZFCNk+AqGurggdsQ3BCzdgfp+ilSxMV9QCKWw7YM6WVeh3bjZ6BjoLK2GEoOeEzxGTVmYrDYfemLdmKrLf7YX2PfpiwMzzCO/fWFhwzYzDEnmYURyTUoACFKBA7RSQaISjdlaNtaJA7RYQH2oTD830CF1FxXNNXGzxx6jmUAnfWjKJBA2F5dBUwi4aBcJLKf4tPDA3cmccYvRMiyidV+1uPWtXFwT0vUfrQr1ZRwpQgALVIWD6d7LVUQuWQYF6JHBV2P3Nd/mZetQiNoUCFKAABShQ/wQ4HaL+9SlbVIMC6cK6v5U97kwNr+ytteI+ddxyPNUsWNiEo8yr2VNYrt3ho2qPmi6/alvH3ClAAQpQwNICnA5haVHmZzUC/FWz1XR1nW0o36N1tutYcQpQoBoEOBJcDcgsggIUoAAFKEABClCgdgkwCK5d/cHaUIACFKAABShAAQpUgwCD4GpAZhEUoAAFKEABClCAArVLgEFw7eoP1oYCFKAABShAAQpQoBoEGARXAzKLoAAFKEABClCAAhSoXQJcJ7h29QdrU88EcpVqfBubhINXM3AjI1/bukaudujdxBXjO/nAQdhIgwcFKEABClCAAtUvwCC4+s1ZopUIxN7Ixty915GYVRT8ljT7QnIuxNeOc6l4d0BjdGrkVMdFlDg8qy0m2XyLk4s6gz9U6nh3svoUoAAFrESAw1BW0tFsZvUKiAHwi5su3RcAezeUw99JrquIGByLacS0NXoof8drzVvhzaOFNVeN2lCHmms9S6YABShAgRoQYBBcA+gssn4LiFMgxBFgjUZzX0MvZwHbJt2/K5yYRkwr3vNAh0oF1QNlwJspQAEKUIAC1iXAINi6+putrQYBcQ5w2SkQxooV04r36DsK4rZhzpAIBLg6wdkzGF0mrYN2B2LlAUwLbYuJC2ZhcLcIhHV8Hb8WCKfjdyJ6SDj8XR3h7BuOyEUHoBBjcU0K9r47CB1DvODi6AyfNk8iencC1MjHzmljsSruMv47tKmw5XFzjF59G+ItBvMSrmYf+wyjI3zh4uaPNoMX4lDq/QG/vrZUpg568+FJClCAAhSggAUEGARbAJFZUKC0wIErGWaDiA/OlTsKjmHBsAn4uel8/J6QhYybR7FqQls4SopTFl7AruOtsOTACfx94hM8IjmJxZETsb/NEsQmZSHp8Dz4rB+PVzYohLBVA4fWE7Hy8HWkZSXgwCxnrH3+DWzNtMMTy9ZiYnBT/PPHy4iLu4j1z/hCojSSV94hRI+ej7Rnd+NGajz2T8/Fpo3xQkBt6jCzDqay43UKUIACFKDAAwgwCH4APN5KAX0CNzPvfxBOX5qy50pWjih9Xnl0DdYqhuH9eU8i2EECqb032vZoC8+SIFjqi6Evj0WonXiXBMrYb7E6cTDeiX4E/nZSNAgZjOiXw7Bv80HkSrzw0MihaO/rAJnUEWFjZ2CURwx+O6ssWxXt18byyjy6EVsLIvHWSxFwltrAu99svNrfXm8+9500sw6mM2QKClCAAhSgQOUF+CB35e14JwUqJGBvI0VyvgwnX21dofQliVRJiUjxa4fG2iBXzyF1h5fHvc+xqsSbSEjbjxcjDsK2JHlBNmwjspGjzsLfq97CnC/24pxCCamsEFlJGoy8o38ag7G8shTJSPfriEDdT4+GCGrsCZOfqDVZOLay4nXQ02KeogAFKEABClhMgEGwxSiZEQWKBMR1gMUl0OxkEigKbBA7o+hhuOYfnUJTZ/1K4j1lD5mPPzxvX0O8MNe3ZYOyV8WvS4aEi67JvP3gGzAWX51agl66KLjoWuGpuRj43i1M2ROLHW1cYVN4HFHtB0NRnK1EnAVcKh42lpfywHG4pyuQKsx/aCYTM1AiRZEBdSN9dbx3rvD0Ekwyow7Gc+NVClCAAhSgwIMJmBy8ebDseTcFrE9A3Aija5ATtgrzdy++Ho4R35xFpyXH4CxTIvmO/ukH4j1lD3mXMRjjuQXvvrcL8XnCrN58Bc4cPoMU/YO3kHcZj/Eu3yNq/s+IzxUSqfKQfG4ffopRQJ2TjVyHQDQPFgJgYfauYt9KbLxYvJ6E1A0eLmm4Fpeli4ON5WXTORKD1Fuwco+Qr1Bp5ZU1WLE7s3QMXbYp2q81ZtZBbyY8SQEKUIACFLCQAINgC0EyGwqUCIg7weUqNZi65ZI2+L2Wdtcojp+znXb3uHKHbSdEbV6BvmdnoYuPM1wDOmPil6eRYyAIhm0HzNmyCv3OzUbPQGdhNYkQ9JzwOWLS1JB3nYZFj53GSx3a46F+AzB5hxe6hxX/IkjWAk/PeAJXXguFq6s3Bq1MgMZIXnDojXlrpiL73V5o36MvBsw8j/D+jaEdFDZymF0HI3nxEgUoQAEKUOBBBSTCOqWG/kt90Lx5PwXqtYBk6Qlt+zTTI8q1s2SzDFPfXhKJBF9ENqsHu8aVI+CJWiBg7D1aC6rHKlCAAhSoUQGOBNcoPwuvrwLiVshicCuO8ho6xGsMgA3p8DwFKEABClCgagX4YFzV+jJ3KxYQA+Hvn2ml3QhDXDu4ZOk08SE4cQ6wOAXCQV6/Poeq45Zj+KMLcbzs1Gd5B7z980ZMCa5f7bXitzebTgEKUKDOC3A6RJ3vQjagpgT4q+aakme5FRXge7SiUkxHAQpYowCHZayx19lmClCAAhSgAAUoYOUCDIKt/A3A5lOAAhSgAAUoQAFrFGAQbI29zjZTgAIUoAAFKEABKxdgEGzlbwA2nwIUoAAFKEABClijAINga+x1tpkCFKAABShAAQpYuQCXSLPyNwCbX7UCuUq1dom0g1czcCMjX1tYfV4irWo1mTsFKEABClDAcgIcCbacJXOiwH0C4q5xo1afw4ojCbiQnIvcApX2Jf5bPCdeE9NU36HE4VlhaD07BoVVXmh1llXljWEBFKAABShQDwUYBNfDTmWTal6gZNvkxKyi0V+xRt4N5fB3kusqJ157cdOlag6EK2ij/B2vNW+FN49WfbhssEa1oQ4GK8cLFKAABShQ1wUYBNf1HmT9a52AOAVi7t7r0Gg099XtchawbVL4fefENGJa8R4eFKAABShAAQpUnwCD4OqzZklWIiDOAS49Amyq2WJa8Z5yR/4WjHF/GJ/dKAmQlfhtRjO0iz5eNJ1BeQDTmrTBs+9Mw6A+PdG5VRi6PbcSp3NLctIg+9hnGB3hCxc3f7QZvBCHUksF5poU7H13EDqGeMHF0Rk+bZ5E9O4EqJGPndPGYlXcZfx3aFMEBzfH6NW3Id6pjN+J6CHh8Hd1hLNvOCIXHYBCm6WJsso1rvhEJepgKCuepwAFKEABCpgjwCDYHC2mpUAFBA5cyahAqvuTiA/OVepQXcCeMx3x2S+/I+bUXky9Mw9jF8SgQMws7xCiR89H2rO7cSM1Hvun52LTxnghyC05NHBoPRErD19HWlYCDsxyxtrn38DWTDs8sWwtJgY3xT9/vIy4uItY/4wvJMqTWBw5EfvbLEFsUhaSDs+Dz/rxeGWDAhqTZRlqnZl1MJQNz1OAAhSgAAXMFGAQbCYYk1PAlMDNzHvzgE2lLblesnJERdPr0km8MfiFp9FYnGpsE4SRLzyBzB8346QwlVd5dCO2FkTirZci4Cy1gXe/2Xi1v/29IiReeGjkULT3dYBM6oiwsTMwyiMGv51V6q2GMvZbrE4cjHeiH4G/nRQNQgYj+uUw7Nt8EJmmytKbo3DSzDoYyobnKUABClCAAuYKcIk0c8WYngJmCtjbSJGcL8PJV1ubeWcFkks94O0p0yWUenrDTRj1TRGGe1UpyUj364hA3Xd5QwQ19oTuk68mC8dWvoU5X+zFOYUSUlkhspI0GHnn/rnMJZmrEm8iIW0/Xow4CNuSkwXZsI3IRpbCRFmGmmJmHQxlw/MUoAAFKEABcwUYBJsrxvQUMCEgrgMsLoNmJ5NAUWCD2BlFD8M1/+gUmjrrv1m8p/xhC1vbQih1A7NqZGfmQO1YKqX6Nq7fEEaeOxR9KxfcuI4kd194CpGuTAiI3dMVSBUC4mbaOFmJFEUG1I2K7i88vQST3ruFKXtisaONK2wKjyOq/WAoirOXiLOAS8XDMm8/+AaMxVenlqCXLgouSqw8cNxoWeXbVrk6GMqH5ylAAQpQgALmCnA6hLliTE8BEwK9m7iia5ATtk5oi4uvh2PEN2fRackxOMuUSL6jf6qBeE+5Q94S7Zpfwv5fE6ASLhZcW48Vu9JKx6VCkJqFnUs+wuE0FdTpf+KTD7bDY8gwtBNiYnnnSAxSb8HKPQrtPGDllTVYsTtTd78mJxu5DoFoHiwEwEIKxb6V2HhRLEk4pG7wcEnDtbgsXXp5l/EY7/I9oub/jPhcITpW5SH53D78FKOAjYmyyrWt+IS5dTCUD89TgAIUoAAFzBVgEGyuGNNTwITA+E4+wpJnGkzdckkb/F5Lu2v0Dj9nO4j3lDukIZj4wUxIP+mNNp164NHXL6JN38B70xnEG2xaYNSgfLzfMxAeIUOxJXgB1kZ1KZqu4NAb89ZMRfa7vdC+R18MmHke4f0bo2TyhLzrNCx67DRe6tAeD/UbgMk7vNA9rPiXQ7IWeHrGE7jyWihcXb0xaGUCNLYdMGfLKvQ7Nxs9A53h7BmCnhM+R0yaEGKbKKtc24pPmF0HQxnxPAUoQAEKUMBMAYmwTqn+CYBmZsTkFLA2AcnSE9oma6ZHlGt6yWYZpr69JBIJvohshk6NnMrlYfKEuERa2HS4bY7BXHHolwcFyggYe48SiwIUoIC1C3Ak2NrfAWx/lQiIQa0Y3IqjvIYO8VqlA2BDmfI8BShAAQpQgAIVEuDwUYWYmIgC5guIgfD3z7TSboQhrh1csnSa+BCcOAdYnALhIK//n0PVccsx/NGFOF52OrS8A97+eSOmBNd/A/PfPbyDAhSgAAWqWoDTIapamPnXWwH+qrnedm29aRjfo/WmK9kQClCgCgQ4BFMFqMySAhSgAAUoQAEKUKB2CzAIrt39w9pRgAIUoAAFKEABClSBAIPgKkBllhSgAAUoQAEKUIACtVuAQXDt7h/WjgIUoAAFKEABClCgCgQYBFcBKrOkAAUoQAEKUIACFKjdAlwirXb3D2tXxwVylWrtEmkHr2bgRka+tjXWtkRaHe9CVp8CFKAABeqpAEeC62nHslk1LyDuGjdq9TmsOJKAC8m5yC1QaV/iv8Vz4jUxTcUPJQ7PCkPr2TEoNHWT8gjeaNkKbx41mdJUTiaum1EnEznxMgUoQAEKUKA6BRgEV6c2y7IagZJtkxOzikZ/xYZ7N5TD30muMxCvvbjpkpmBsIUJlb/jtebVESwbqXdtqIOR6vESBShAAQrUTwEGwfWzX9mqGhQQp0DM3XsdGo3mvlpczgK2TQq/75yYRkwr3sODAhSgAAUoQIHqE2AQXH3WLMlKBMQ5wKVHgE01W0wr3lP+0CD72GcYHeELFzd/tBm8EIdS7w+slfE7ET0kHP6ujnD2DUfkogNQ3J9Em63+dPnYOW0sVsVdxn+HNkVwcHOMXn0b4u3604s5ma5T+XaIt6Vg77uD0DHECy6OzvBp8ySidydADcN10JsPT1KAAhSgAAUsJMAg2EKQzIYCJQIHrmSYjSE+OFfuyDuE6NHzkfbsbtxIjcf+6bnYtDFeCByLD+VJLI6ciP1tliA2KQtJh+fBZ/14vLJBoQ1kdYfBdFl4fNlaTAxuin/+eBlxcRex/hlfSAymF/I1VadyjSg5oYFD64lYefg60rIScGCWM9Y+/wa2ZtrhCX11MJgPL1CAAhSgAAUsI8Ag2DKOzIUCOoGbmffmAVeUpWTliNLplUc3YmtBJN56KQLOUht495uNV/vb65IoY7/F6sTBeCf6EfjbSdEgZDCiXw7Dvs0HkVsqo4qmK7nFWPpME3Uy2F6JFx4aORTtfR0gkzoibOwMjPKIwW9nlQZv4QUKUIACFKBAVQpwibSq1GXeFBAE7G2kSM6X4eSrrc3yUKUkI92vIwJ136UNEdTYEyWfXFWJN5GQth8vRhyEbUnOBdmwjchGTqmhYOPpfMvVyVj6LIXxOpXLrOSEJgvHVr6FOV/sxTmFElJZIbKSNBh5R8/cDYOZ8AIFKEABClDAcgIMgi1nyZwooBUQ1wEWl0Gzk0mgKLBB7Iyih+Gaf3QKTZ31I4n3lD1knt5wT1cgVZj/0EwmXlUiRZEBdaOilDJvP/gGjMVXp5agly4KLs5FWCKt5DCe7ndIxMkTpWJRY+mVB44brVPZNpR8XXh6CSa9dwtT9sRiRxtX2BQeR1T7wVAUJyhbB0P58DwFKEABClDAUgKcDmEpSeZDgWKB3k1c0TXICVsntMXF18Mx4puz6LTkGJxlSiTf0f/rf/Gesoe8cyQGqbdg5R6Fdh6w8soarNidqYtX5V3GY7zL94ia/zPic4UoVpWH5HP78FPM/XOCjaaTusHDJQ3X4rIqlK+NiTqVbUPJ15qcbOQ6BKJ5sBAAC61R7FuJjRdVRZf11MFQPjxPAQpQgAIUsJQAg2BLSTIfChQLjO/kIyx5psHULZe0we+1tLtGbfyc7SDeU+5w6I15a6Yi+91eaN+jLwbMPI/w/o2hHRQWD9sOmLNlFfqdm42egc5w9gxBzwmfIyatzHJrxtLJWuDpGU/gymuhcHX1xqCVCdAYS2+qTuUaUXRC3nUaFj12Gi91aI+H+g3A5B1e6B5W/IsofXUwkA9PU4ACFKAABSwlIBHWKeWkPEtpMh+rEpAsPaFtr2Z6RLl2l2yWYerbSyKR4IvIZujUyKlcHjxBgQcVMPYefdC8eT8FKECBui7AkeC63oOsf60UEINaMbgVR3kNHeI1BsCGdHieAhSgAAUoULUCfDCuan2ZuxULiIHw98+00m6EIa4dXLJ0mvgQnDgHWJwC4SCvP59D1XHLMfzRhThedtqzvAPe/nkjpgTXn7Za8duaTacABShQbwQ4HaLedCUbUt0C/FVzdYuzPHMF+B41V4zpKUABaxLg0Iw19TbbSgEKUIACFKAABSigFWAQzDcCBShAAQpQgAIUoIDVCTAItrouZ4MpQAEKUIACFKAABRgE8z1AAQpQgAIUoAAFKGB1AgyCra7L2WAKUIACFKAABShAAS6RxvcABSwoUKDSYNza87iamlfhXHdOagsfJ9sKp2dCClCAAhSgAAUeXIBB8IMbMgcK6ASy7xZqA+BDU9vfp6LdlrHU5owl2zRKhR3jGghrBcfezEanwDK7ximP4I3wCZB8cwqLu9Tyb1WL1lWJw7PaYpLNtzi5qDNqecv57qcABShAgToqwP9f6mjHsdq1U0BdXC17IbCVVLCKO86l4v291zG5m5/2pTtkIRgaHQVJXdhkoi7VtYL9wmQUoAAFKFC/BRgE1+/+ZetquUBJAKwWRolvZOTfX1upD3qMGWOZFqhUUMlkkFkmt/K5GKtrVZddvjY8QwEKUIACFDApwAfjTBIxAQXMECiZ51CBW0oHwAPD3DF3YPD9d4lTDFq2wptHCwH1Lfw0eyBa+rjB1c0Dfs0fxoI/y+5PXOp25QFMC22LiQtmYXC3CIR1fB2/FgDK+J2IHhIOf1dHOPuGI3LRASiK5mog+9hnGB3hC1f3ALQZMheLJ7RA69kxEEoH8rdgjPvD+OxGyVi3Er/NaIZ20ceLrpeu6wOU7eLmjzaDF+JQqhmQFbBmEgpQgAIUoEBZAQbBZUX4NQUsJHCnQK2d66vvKBsAT30oUF8y3Tnl4Y8xfWsTLDmtQEZ6Ei7sWYxBjUyM6xZewK7jrbDkwAn8feITPCI5icWRE7G/zRLEJmUh6fA8+Kwfj1c2KKDJO4To0QuQOWEvbqRcx/9m3MWPm66jJOQ1Wjl9F80uez7Snt2NG6nx2D89F5s2xle+bH314TkKUIACFKBAGQEGwXxLUKAKBMRn4KZtuYRXNl/GoauZ95VQOgB+TBgBnt2/MXILVEi5Y3hkV2JrC5vseJw6fRVpShs4h3RBuL+Jb1+pL4a+PBahdmLxEihjv8XqxMF4J/oR+NtJ0SBkMKJfDsO+zQeReXQjthaOxFsvhMNJagOvvm9h+gCHysuYW3ZBJN56KQLOQtne/Wbj1f72lS+bd1KAAhSgAAUqIGDif9EK5MAkFKCAXoGGtjIoVWq8seMqfrtWFAiXHQGeOzAEcqkEI1efhUpteAqATae3sPqdEBx6sz+aeDVGt9ELsS/RxDit1B1eHve+xVWJN5GQ9iNejAhDWJj4aomHF5+FbUE2shTJSPcJhJ9ucNkBAYEeld9X3dyy/YIRqHtCoSGCGntWvmy9vcGTFKAABShAgfsF+GAc3xEUqAIBYeUzfDQ4FDO3XcHhuEzM2n4VkeGe+OGEAuJDcOIc4PeFAFiIf4Wl04oqYHQ1CYkrOk3+FNuFlzLlLyyf9CSen98Nl//dD4ZXGL4/R5m3H3wDxuKrU0vQq8xNygPH4ZZ0E4kqoJk2EM5Dwq1UqENLcGxha1sIpW6wWo3szByoHQ3hmVe2e7oCqUJMX1S2EimKDKgbGcqb5ylAAQpQgAIPLsCR4Ac3ZA4U0AmUHsu1lUnwsRAIdw920Y4If/dXcvkAWLhTUxIFG3FUnt+NH/6IQ7bwlJrc2Rs+LnaQSWUVXoZNzFreZTzGu3yPqPk/Iz5XqKkqD8nn9uGnGAVsOkdisGwDPlh+BjkaYWrGwcVYuif3Xo3kLdGu+SXs/zUBQpyMgmvrsWJXWgVqXpSFqbIHqbdg5R7hA4KQXHllDVbszqxw3kbYeIkCFKAABShgUIBBsEEaXqDAgwuUDoTF3O4bAS7OviRwFkePDR2arNNYPbUvQjxc4OrbBfMyn8WKOb0gN3SDvvO2HTBnyyr0OzcbPQOd4ewZgp4TPkdMmhB6OvTGvLVvouHyRxDgEYS+H9liSGTje1MSpCGY+MFMSD/pjTadeuDR1y+iTd/Aik9ZMFX2mqnIfrcX2vfoiwEzzyNcmCdt4rE/fS3kOQpQgAIUoECFBSQa4ahwaiakAAV0ApKlJ7T/1kyP0J1LzlHi8RWncHR6x6KpDsVXxO2UfziRjDEdfO47L17OU6rR67O/8NPkcHg7mhXW6sq1/D+4a5vlTas/R33v0eqvBUukAAUoUDsFOCe4dvYLa1VHBUoGcwuE6Q+lpvtqWxMZ7oX8QvW9X/MLnz8lwvBvXNpd7XVjI8F1lIPVpgAFKEABCtRaAQbBtbZrWLG6KOBkL4OjnQy9Pv2rOKiVaP8WA2Lt38If2n8Xfy22URwJdm1gAxc7874d1XHLMfzRhThedmU1eQe8/fNGTKkL2y3XxU5mnSlAAQpQoF4IcDpEvehGNqImBAz9qllc/SG/UP8sI0OjvbYyablpEjXRJpZZvwQMvUfrVyvZGgpQgAKVEzBv6KlyZfAuCliVgFSIdBvIjTzlZlUabCwFKEABClCgdgpwdYja2S+sFQUoQAEKUIACFKBAFQowCK5CXGZNAQpQgAIUoAAFKFA7BRgE185+Ya0oQAEKUIACFKAABapQgEFwFeIyawpQgAIUoAAFKECB2inAILh29gtrRQEKUIACFKAABShQhQIMgqsQl1lTwLIC4i5uYWg9OwaFYsbKI3ijZSu8eVT7VeUOS+RRuZIrcFeZ9lbgDibRL5Cbm4s3vv0JIR/9ApslxyBb+hfafHEYG84n67+BZylAAQpYgQCXSLOCTmYTq1eg7NqsJxR5aL/2gq4Sf41tgQivBihJJxOXVLORIEfYNKP0Fswmay0LwdDoKEi4KYZJKmtOYK+6i16fbMNlO390Tv4Tfe/cEPb61uCGYxCm5KkRk3QXH/QNsmYitp0CFLBSAQbBVtrxbHbVCIiB7bOt3PHNuTRdAWIAnP5iW7gKO8mVBMRisFsS8BaqNbgj7hr3xWnzKiX1QY8xY8y7p7amVqmgkskgs1T9LJ2fpepVA/kEZ1/DZYcADL22CWJAXHKEZl1GwJ1b+Eo+Fr0bu+LJEOcaqB2LpAAFKFBzApwOUXP2LLkeClyb0ApfD7h/VE0MdsUAWDyCnW3LtVrcW04MgMuPAmuQfewzjI7whYubP9oMXohDqaV2ois9lUF9Cz/NHoiWPm5wdfOAX/OHseBPYT9l5QFMa9IGz74zDYP69ETnVmHo9txKnM4tVw1hdDAFe98dhI4hXnBxdIZPmycRvTsBaqhw6aOe8Bm+Hmm64vNx8NWmaDb9IPL1ZFVy6s6Zr/FC7ybwcHKCR0gvTPnqNO6IF8V6hbbFxAWzMLhbBMI6vo5fC0y0V7wtfieih4TD39URzr7hiFx0AAqxTnrzM1IxK7qUbueOzoo/7wuAS5pvr8pDz7RYfHKc0yKs6C3BplKAAsUCHAnmW4ECFhTQF+SWzt5NCHbf7earOyWOHHvY22BJn4Dytcg7hOjR85H24m7ceLUN7v46B4OGxkP9cvmkysMfY/rWJlh2egcGegNZ144jrjjwhuoC9pyZhT9/WYbGknisGd0LYxe0Q+yCzrg/JNfAofVErDz8PcK91bj07RQ8/vwb6PD3GgwZORZtP1yP7Yqn8ay3sBte3kGs22qLyB+6w658dYrO5P2Gd4bPwoXx23Bxf2dIYj/A8MHDEdX0BJZ0E5IUXsCu46/h0IEPEWonRLJCe6cba6/yJBZHTsT+AWsR+xmHtkIAACAASURBVMPDcEvYjplDxuOV0GNYP0xPfobqZWXnkxr4YKA4BcLA4ZVyEXsSexq4Wn9Pl0xHqr8tZMvKCpQfaCibgl9bmwBHgq2tx9neGhHIyFdp5wC/2t4L75UKgsUfyikvtMGMA7cwXXiVPpRHN2JrQSTeeikCzlIbePebjVf72+utv8TWFjbZ8Th1+irSlDZwDumCcP/ib2+JNwa/8DQay4VbbYIw8oUnkPnjZpws+zydxAsPjRyK9r4OkEkdETZ2BkZ5xOC3s0pIGz2FsZ2P4rutiRAHXnP2rcMO1xEY3UHMVP+hPPoDNucOx5yZ3eFhYwP3bjMRNeIuNn9/BMIYNSD1xdCXxwoBsPiFBKbaq4z9FqsTB+Od6EfgbydFg5DBiH45DPs2H4R2YLtMfvprZX1npRo1JMIcYEOHo7Mz7haqDV3meQpQgAL1VoAjwfW2a9mw2iJQMg94yyDhQbZQF73VEoNhMUheWmpEWJWSjHS/jgjUfZc2RFBjT+j75GrT6S2sficac9/sj4WXJQh77J9Y8MlbeMRTKE7qAW/Pe7NtpZ7ecEuNR4oY9wiDurpDk4VjK9/CnC/24pxCCHxlhchK0mDkHSGAkvhg8LhemLNiC25MGIeYdbsRMGo/2hj5CSLWP82nHQJ0cbINAoN8kR6rEFa38BHq5Q4vj3utMdVeVeJNJKTtx4sRB++NYBdkwzYiGzkaoaFl8tMLbYUnnZTZ2ofgxDnA+o67oV3Rz8VR3yWrOKfJnGEV7bTmRkpcllhz89l2IwL6/j81kpyXKEABcwXEB+PEFSFKB8AlI8MleYmBctlDJgSr7ukKpOoG6ZRIUWQIc3T1HBJXdJr8KbbHxkNx+UeMz/s3np//KwrEpOrbuH7j3szdghvXkeTuA88y3/2Fp5dg0nu3MGR1LK4KaeIub8dLTaXakV8xWvZ4fBz6X/gOG45tx7p9zfD0qBZGH2TT1j/pBhJ0I86FuBl/G24+XiiKnUtH4ICp9sq8/eAbMBbfnPobf/9d/Lp6C7c2PwcfbVb356dHySpP5dk0wDG/nrgra1Cu/YWu/vixsBFebid+WuJBAQpQwLoEGARbV3+ztVUsIE5pKJlrKP5dEtyKgbD4dclLfFBOXEWi5OuSQLl09eSdIzFIvQUr9yi0ga/yyhqs2J1ZHJTe3xDl+d344Y84ZAsBp9zZGz4udsKUBllRWCiM8O5c8hEOp6mgTv8Tn3ywHR5DhqFdmVFcTU42ch0C0TzYVQhS1VDsW4mNF1X3CnJ+FOOeuIHlkxbhQNvRGG5iaTZ5lxEY2mAjFi2NQbqwWkN6zFIs3GCHYSO6Qt8kClPtlXcZj/Eu3yNq/s+IzxVCc+GhruRz+/BTjEKvSRV3dZ3JvkBqi8kdA7Gr5TikNe4Mjb0j3AIao0HPYfi5WSQGh7pi6V+KOtMeVpQCFKCApQSM/DLTUkUwHwpYj4A4naH0lAax5YYexhBXkRDnB++Ky8KL4XpG4hx6Y96aqZj8Yi+0X+gLd+/26Na/MeL0cGqyTmP11Bfw0pV0FMoc0bj3FKxY3EsINg8J84BbYNSgfLzfMxBHEoEmgxdgbVSXMg/FCcFz12lY9Ng4vNShPbwCPeDZuie6h5X+EeGAPuOGovDLVeg6fRgCTX2EbtAL8zYswoyXRiB0firgEY6nFm7A/D4OQkSvpxGm2mvbAXO2rAJmzEbPwKeQqWkInxY9MW7u53hMT3Y8dU/ggz5B6B0kBLvH3bDVsbPwAUmCng0b4oteXnhCWBotu0CNeX/exqAmLto1rHlQgAIUsAYB4XkJI09MWIMA20iBSgqUjPgaCnIrma1lbxOXDgubDrfNMZhbdui3EiWpr3yM3t3/wEvnN2KMB6cfVIKwWm8x5z36680ctPawx/m0u+gdUP/nCOtsOCe4Wt+TNVFYyZzgWv2zuiZgWGbx1DxCUIACFDApkI3DX3yNG4P+hUEMgE1q1bUEfQMdcSE9H+svZKCzj4Owi6Gpof661sLqra+DywfI0zvxR389xAf0rgkPsYaohd+a1PVDlYU3vvgbkmGdsTiAH5brenfW5/rzp1x97l22jQIWEtCkr8NIL2HXsb2d8K/ogXAqzlcdtxxPNQtGcHCZV7OnsDxO7yN8FqoRs6kKgRZudviiXyCe/uk6fkvQbmvCoxIC5gbAYhHiaKXFAmBVJl779CjevGV4abxKNKvit0jtMbRPYwx1ZQBccTSmrAkBzgmuCXWWSYHqEpD3wbIrfz1waRK3MfhBUX6LZmnwFGy+NOWB82cGtUtg9T+CoMgrRPQfiZjXw692Va4O1MacEeA60BzzqihsA68SHsbs0VZYBpEHBWq5AIPgWt5BrB4FKECB6hZwEVYvkUok6C1MkTiSeEf7sJw9p0eY1Q2TugXqTb/yyE3ouyae13cUZKRg7q44fH09D9lSOcLCQvDDIB8ES5TY+7+/MftkFi7nqmHv6oopA5pjblM5du06j1UZ+ZB89ye+l0nQ/eH2WNfOFoWZqXj/p6tYdf0ucmzs8WjXZvhPL1d4CQVn3bqJKdvisTtLIqzn7YdnHJLxTcOWONnfSTtv8k7ybczcGYcNicJTrQ6OiOzTHEvaN0RDVQamfXYJd9q7Q3ExHRcLXfHvid7Y89970yGUhsrV5OOnfRcw868sJKokaCA8rDl1WDvMCeQIsr73As9ZXoBBsOVNmSMFKECBOi/gZCvFo0FO2p0MxQA4TJgqwUDYMt16p1CFhjb3NrAxmKsqGwu+u4CfQ8Lw+3APBEkKcFYIQh2LY0QHYe3slZNaIbwhcOnkBTz+41V0mNoSwx5riYnXLkD+VKk5uaocLP7+AvaHtkTsCDe4Zadg5nfn8Yp7J6xvfgfRm+KR060dbnR2QP6NOAxbdxfqTsU1U2binR+u4EJ4W1x81gmShHgMX38WUcK9S8RYX52LXYmNcOi5UISKUYUwJ3hPSaOMlLva6QamX7DHspfaYqDQhqz0bMTZMAA2+H7gBYsLcE6wxUmZIQUoQIH6IyAu+XdHqcYoYZ4wD8sIVCgAFopS3krC2lxPvN/PA8HC4tpSG1u0bdQQRQsqyvFQa0+0d5RBJpEhLLwRRjlk4zeF/nnAyoQkrM7xwDt93OAvBKoN3DwRLQS8+85nIPOWAts03nijY0M4Cb8B8AxqhGmh94J05a1kbFZ6YU4PZ3gIy+u5BzZCVCs1Np/NKlrtUGKLoV28iwLgMkTGys2TSWGTn49TSXlIE0aCnd2cEV7ywIFlqJkLBYwKcCTYKA8vUsC0QMlSS6ZTMgUF6qZAT/+G+EaYJyzOEX6utTtChc1YeBgXMDS9QbzL2LXSuapyCpDiKKz7rXfQuBDHjl3FnNh0nBO2NpdKNcjKEbY5L9AfBKty8pGQl44X/5N5b41wYRMbW18VsnKVSG/oBD/dIKwMfk42ui3aVcL1tIaOCNANmwlTJlxskZ5QIGyBbis81SeHVwP9I7jGyr0bEITVfa5h7i8nsTBN2O69qR8W/KMxHmEgbPzNxasWE6jXQbBE+ERb+rCmJZGtue1in1t7+y32E4IZUaBYQNzlsLsQDLvYyhCblItOwjJqPAwLiEue6TvEVSD0XStZy7b0PTJHW3jm5CFe2LixZdltzpOEucW/FmDK+I7Y4W0DG3U2ov5zBiV7/2n/9ysVD8sa2sLXyQdfvdgUvcoE1cq4bLjdyUeikL6ZtgIqJArbT6rdimojc5DD/c5dJAgLvhTVQ4ObmQVwE+pnKogwVq6Yu0/HZtguvJS5OVi+7TSeP+iMy0+4ldvMp6gm/JMClhUw9f61bGm1ILfevXvXglpUbRUOHjyotwBraLvYcEPt14vyACe58PoD4PHWOinweLAzjiXnYt2FdLT1bAA74aErHuYLpEiFKQ1q00vQyQN8MMbhFN791Qst+7qjkfAw3NnEAvgKUyJcClTIlduhuasQAAtVUFxNxMZUDfqI1ZHYwMOuECcyCqEJlGu3TxfzGm9/GlEHPfDtQ24IkqmRnJqJ2AJHPBbghScl5/DhMT906OKAu/E3hFVlhMi7eE6wPMAbQ23OYNER4XoPYSOVxJtYeE4ibIHuJKyEnG0UwFi5/W2z8eNdB6F8ezjZyeFjJxGmdkiKtns3misvUsAyAlYXBB96apll5OpgLtbc9jrYXawyBWqlQEdvB4ivvhsv43NhTeFW7va1sp41WSlTD9tUJADW1l/mhKhRLVCw6wq6fHQWeTJxdYgm+D5QCKIDArCo2Xm89N9YeDnL4enlgu6exR9KpA54urs7Nu35E647hFU+BnTCtg5OmDMqDNhzFT0/yRW2HZfBx9MF4/o2w2NyV8x/KgiTt51AwP+kaCSsDjEuzA7rShoid8G8kU0wY+dZhB4sWh3iqUdaY36wMKQsxMpGD6ENhsp9RHMHq3+6iJfSClEolaFxYz+seNTVjC1GjJbMixQwKVCvt03W9ytxa5i/KY5QWmvbxXe8ofab/G5gAgpQoMIC6fkq3MpRYldcFmZ19K7wfbUlYVVvm6xveoOxtuubImEsfdVeK8R3P/yJ/zbuhH1d7XRzg6u2zKrLndsmV51tXc+5Xo8EW9Mc4LJvRGtuu2hh7e0v+37g1xSwtICbMEe4UNgYQRwVPiysJdzF10H7q2weRQK1K6g13Ss3b6ThtpsrOgqzHW5fvY5P4hpgeD/bOh8Am245U1izQL0OgsWOFefB3jcNYEb7et/fEv3PY9T7dpc0UIJ7O6T12jyt2uYIWw0wG0qBYgGvBjbo18gRz+yJF1YHsEGQky1sOU+4Dr4/NMJmGMLKHz+cR0KhBjYNHDHqsTBMK5leUQdbxCpToCIC9T4IrggC01CAAhSgQOUFxG2Wt13NxKKYJKx6NKjyGfHOGhKQoEXH1jjTsYaKZ7EUqCEBU/P3a6haLJYCFKAABeqSwKAmLviodwCihLWEE+8ID0/xoAAFKFDLBRgE1/IOYvUoQAEK1AUBcTawOE+4nVcD2Ai7ip1NvVsXqs06UoACVizA6RD6Ov+DI8KiimbsiCTOM/YIAFJv6cut7p6Td8MHp76E5tlwvHm00HLtqKp8LVdD5kQBClRSYEQzV/wSn43/3czBu119OUe4ko68jQIUqHoBBsFljc0NgMX7lwgPYlnBA3dlqfg1BShAAX0C/YOchAfmnNBl/UX8ODgEgY5yfclqxTlzlzKrFZVmJShAAYsIMAguy2jOCHDZe2vqa5kMMmEPeFNrlldL9WpTXaqlwSyEAhTQJyDMiMDuYU1wRdhed7ewlvCkNh76ktX4Oe78WONdUOUVsIb9AaocsZ4WwDnBejp2UrdA6HuJSQ2dL5eNxBMD5m7HsWsKZOZkIenMDswb6F+05qK8D5ZdPYNv3l+G7Qd+R8y5v3Hk60lo61CcS0WuXzmNVXM+xLYjJ/D3sY/Q1xZo2OY5/OfgVaRmZyP12iEsf74tGkKGFm8eQfKGUXDTLeFph15LL+HKsj6wM1bPco3Sc0Ksa9m6OA3DurT/YWoj3XZDeGjJJZyc10HvPvPyoCcwb+spJGTkIOv2KWya3QdeYl2lAXh80W6cT0pHRnoqEi/+D3O61t4RJT06PEUBqxbwFJZN83GwQQs3exy9nQuNVWuw8RSgQG0TYBBsZo/cKazoeKsEuWdXYVL3xnB39kefD7Mw9qsPMMSluMD/Z+884KI6tj/+212KIr0tTaWpqIjYUGNAo74kJoIKliiaYostlvg0GiHGHvOS4DNdTTN2DfZEY/SvqM9E1NhiLwg2pAkoCEv5z1x2l2XZAgiysGc+n+uyc+fOnPnOevfsueeckbTAS/4nMal3N3QKeBFfNIrG2jmdwHTZkqLvvEkL9Gl/AdO6B8Iv8F3slzyP+Vv+gxZ7I9Hczg7Nhv4G36VbsDDYDFe3bMKV7kPwir1cC27wHIaEFWHbhmPIY7u065SzInzUZcmvyEXyNqZt8d4v36Hn+WnoKLWGtGs0kof+jM8HOcGs63Qs63cD09o4wdZOihYvvYedSRXlXwkZqCkRIAI1RsDT2gzd3BphMUufdp9ljeAbbFAhAkSACBgCAVKCK7kKjUzYXukVKcUpOLJpG/5m1o/Coke4tDYGG9M64fnWcktm8QPs+GYDbvFMQgWJ2PTNbtj0D0dbhYOKvvNF97Hty7W4nseFKYZp0GCEW2zBok+PIa2gAOl/foqFmxsgfEgXSG7GYtOFYAzp68RUXqBhyGsIfbIVG+OZtqpPzorMVU2WilyiaGPacQRed92B+Qv2425eEXJv7sCCLy+hV3gIGubno8CqCQLaeMPetABZN4/j7N2iynRPbYkAETAAAtw1YluoF/beyhZSqFEhAkSACBgCAfIJ1rAKq/68raG2pErXuTIXiazRYfRHWDT+RbRyMkVRoQmspSJsaiS3xhal4UFqqVWzKPUBMhyawJH/LOGGEr3n05GSVqoQShydYZ98BneU6TkLcDvxPuw6OsGk6BC2bjyD6MF9If15I9oPeQWZv4ThFG+rT06tJFROFJWVpSKXKNpIXD3gZt8TX58OgdKAbGaF/NNWaHDyI7w+fwHmLv0D7/sW49Jv32LOux9h/z1ShCvDmNoSAUMhMNzPDg/zCvH+0XuY2dEZtiylGhUiQASIQG0RICVYE3ltmR60ZYHg9WrFpM00rPrQHSte6oi+5x+iwKQ9Fv69A06KdmIXNG3M0rCdKkk9Zta4KaTp95HK9TvBH1bPeTXvukKmRKdLG8ONrehFQbc2gUcTF2Qkp6AARbi9fSNOzh+MsObpeL5PCra8dJbVs1b65FSfmMb36o8385GfbwJTpfuuGFY2lhA/Kn9xIduq8/6dtXgrYBoOa3CjSF75DkLZYerYDmNX7cIPUX/Cd+KBUoW5fJdUQwSIgIES4PmDHZifcCuHBnhSUIQEphBzdwlDKdce5qHFTxdRWY8NvlX0lTdaoqkBzcVQmJIcRMCQCZA7RGVXx9K2QleILK1gkXMbVxKYAszC4Zx6jcbA5ipWD2aBfXXav9HVXgKxXWe8OzMUadu34owiHa++82pSyI5vxrbcgZg9tRPsWIYGu05T8f6gPGzd/Be4wbf43g5s/KsDRn/+Ll66vRmbL5RYofXKWaHZqgtzEWeuNEPPHm4sLA8w8xqKMX3sBd1evciO/4yfM4dgYdS/0MSCtZA0hHOrXnilE/MJbvkyBj/nCSum2MuyHiA5M4+5lhRScI06RHpPBOoQAX4f4Bbhw3cfY8PlDBQWq/+Irr3JVEUB5tLmFxbD8/sLZQXP24phVmKIzIOx7Kamp1cFiJ/tB1ORCZq8c1C4T1MhAkTg2RIgS7A6b3035EcP1a/Q+F7213LM/m0Nvjr1N1JupyH1n6M4dkllw4mCy9i40xwfHL2NLq7AjR1zELnweKmFU9959VFzDyN60GzEfLUZ16NYKqK0s4h9fxCiDuWUtGQ+xrs2HsWyn/rgwsxRuCL3xNArp/o4FXlfdBPfzfwUPVbF4fyE+3hw6yAOHbwNX03X5p/CogGjWK7lJTh6OxY2osdIvnwUa+ZOwH5xG7z+xTf4yscOJoWPcCtuBca8d5i+LDRxpDoiUMcI8E01uPLYfu0VHBrkaxCuEeoW4MZWpni/kxQNTMT49OQDnJfvgpc9MYBZi4sF+bkKf5Olgeu84UrZFRDbw7dTZ3SWtYJLgzq2OCQuETASAqJiVurzXENCQnA4fHnpFLW5OqhC0ODeoJNRRfpU7YCnFbu0DBnhnTBXafpVaaDvvE5h6KSweYm8BMdORlxcHEEhAkTAQAk8yCkQlMu0JwXgivGzKorcsap5glXzyfJgvkvMxaGZbcnuoRnMdcOHWXv5q7ZSuZzD3BLsj+c+ugbXSX/g+uc9QAkgtZF9unpNa/10PdLV9YUAWYI1rWRllVpNfVAdESACRIAI6CXgzPIIO+ZIYGkqxonkHJYqUZEwXe+lNdrAx8ZcqQDzgexYEF+Qi4WQ4YLLKuFaMivZ+YWafYi5O4RjBNbnd0PMpUOY6iVCWtxHGD3+U+y9KYZPn6kY6VCvbVA1uj7UORGoDgKkBFcHxXreh9hzLLbsex/t1c0UslNY/K+BWJGgyd+tnkOh6REBIlBtBAIcGyKXBcr133kTG17xFFwjNMUQVNuAFejoVnY+7jySwV2+5fNjWRFOp+QKV54d4QcveRBcHnOJaPD5Gb09FqdtxeQhUdiWLIFb5/5o+2QdFv5w3TB2+tQrPTUgAvWTACnBtbGuskOY7NNO+8j6zmu/skbOFCWsQHizFTXSN3VKBIgAEeAEGjK/270DfPAJ873l9tEZHZxrFQz3931563V82NUFFky2j+JZcC5z3eDFWz0IrgKSZv+xHjuTiyDxegfr/28ZQsyT8X1fX4z+tUSxrkAX1IQIEIFqJkBKcDUDpe6IABEgAkSg6gQmtnUEt7pGs001ZgdJBQW0tgr3VR64K6Eahi9Cxv1k5DHt3sS3Nfy4m7HIHq1auUD8681q6J+6IAJEoCoESAmuCjW6hggQASJABGqEALcI87y7XswnNy23EI8kReB+w8+6tLRvgFBva7Rirzy/8eWMPCz4675SDEUQnGownXYZxbBzkcKc+Xjk3ruNuyy2ztnkCe7cSWNZ3KkQASJQWwSe/Z2ltmZK4xIBIkAEiECdICARiTCytT2+PpsKnr9oXIAj5HFoNS4/T4e25uUmiPAtn6lCoQRzBVg140BFFGGrXkPwqnMsNvyzHGPGSDDQOR4rYh8y14/as3TXOEwagAgYOAHjU4Irm/7MwBeQxCMCRIAI1FcC45nym8lSknVafxlHBzcT8vXWdOEbeWhSgJ92XBHLFPH5hnl4PD4Gv6+PwcPgNzE03BsfrU942q7peiJABKpIwOiU4MrlcawiVbqsVglUxCpTqwLS4ESACFSYgA3LFLGznzf2JT5CI5aarGdjywpfW5WGB5KyhQA4vpMdt0jzMQvZLhr5Kjtp8HuMXncI8wFYl12EdSpCOPaIwo6LUSo1MVio2qAqAtM1RIAIVJmA0SnBVSZFFxIBIkAEiECtEHBrZIobDfJhxRTSs6m54CnVaqrcYLu/uaw4r7d7VUVYb2NqQASIgEESqPlnSwY5bRKKCBABIkAE6hKB590aoSnLzTvt0B3w3Lw1UTLGt6lwt/RUscKoqCERMFgCZAk22KUhwYgAESACRECVAN9EY3+EL6JY+jRftp3xm63sqxUQ71+XcuvF8gMnZOULY6q7XXnKN8+oVoGoMyJABGqUACnBNYqXOicCRIAIEIHqJjCdbaTB/XTns5RlsztJYfqMUkfcHNmquqdC/REBIlCLBIxWCb72MA8tfrqoec93HQvC81deeaOl8FiOChEgAkSACDx7AnbMYvuEbbPsynyFb7OtjR0bmMDKjLz7nv1K0IhEoG4TMNq7RlUUYL7UfCtNT/UtM/O2YpiVGCLzYCy7qSn1eQHiZ/vBVGSCJu8chKxuf2ZIeiJABIhArRPg6dLG+Dvg54vp2H0zU9hqmQoRIAJEoDIEjNYSrJLtRuDV2MoU77PHavzG+inbu55vl8lL9sQAZi1m6XGY8stvsjdZ5HDnDVfKMhbbw7dTZ3SWtYJLg7Kn6B0RIAJEgAjUHIEPOrvg7mMZnt94FYdZLuHKekao+/bWnKTUMxEgAoZGwGiVYNWF4DdNHmzRjAVa8NLPxwY+zNqbwZK0W315Vv+amXbH/APHMF9/S2pBBIgAESAC1UyAp1Db8Iontlx9CG8bM3SUWlR4BF2BcBXuhBoaNAH6oWPQy1OrwhmtO4QqdR+2R71CAeb13N8syKXkJmrJ8lLyZO380GphKOcOUYy0uCUY0NoRFhbOaBPxMY6k0cO6Wv2k0+BEgAjUawL8aZ4Fu19bmUmUT/Lq9YRpckSACDw1AbIEM4S3svNxhwVXuFuaCkAfy4pwOiVX+PvsCD94yYPgeG7KBp+f0Qu9OG0rJg+JwrZkCdw690fbJ+uw8IfrKNR7JTUgAkSACBCBqhLo62UtBMq99Xsi9gzwFnZ8o0IEiAAR0EaAlGBGhvv7vrz1Oj7s6gIL5hP8UfwDYdtMXrzVg+C0kVSpz/5jPXYmF0Hi9Q7W/98yhJgn4/u+vhj9a4liXYEuqAkRIAJEgAhUgYAHM2bsC/fBxP+7jT6e1uCKMRUiQASIgCYCpATLqfBAuIG7EjQxqmRdETLuJyOPeT+Y+LaGH3czFtmjVSsXiH+9Wcm+qDkRIAJEgAhUhUBUkBQmzIftPyzQ+d8srzDZhKtCka4hAvWbACnBbH1b2jdAqLc1WrFXftO8nJGHBSwJu6IoAicq5lwvhp2LFObsjpt77zbuMh8IZ5MnuHMnDZqSp9XvjxfNjggQASJQOwR4DuGHLLiZx3XwrD7cQszzvFMhAkSACCgIGLUSzNOhrXm5CSJ8bct9IhRKMFeAFcqv6t/lLlCpsOo1BK86x2LDP8sxZowEA53jsSL2IUuxRnGIurjROSJABIhAdRLg2yCPD3DE5IN38IqnFV5m7hFUiAARIAIKAkatlQ33s9OoAD/tx0PkGIHPN8xDaHMxzq2PwapTvhgazoI0nrZjup4IEAEiQAQqTWB5D3eWOs0cr2y7Uelr6QIiQATqLwGjtgQfSMoWAuAK2WYYPIq4EXtsxvejz1fZSYNbgfW6Q5gPwLrsIqxT+Zw49ojCjotRKjUxWKjaoP5+pmhmRIAIEAGDI9Dczhxf9fQQdpjr7NJIq3wWX5xFLtuS2aGhCVLf9hfaKZ4Gitj3RNGUtspr7b85j4wnBWjInirmTArQ2iedIAJEwDAJGLUl+AbzE3NZcR7uK/8RXvnGGLZfn4Pzt+fLrFbFfIENc4FJKiJABIgAESgh4MnSXXKDB4/90FQUCjA/l5ZboFR+FW2LmcFEqRAzAwlXgHnhSnO57wnZIUz2aYNRi2ZiQHAQAVo/5AAAIABJREFU2vp6o13kCpwv2YwUKE7F73ND0cHLCTaW1pD690X0nrslsSPCtW0x8b8fIrSlE6ysmyBkxm4k3dyKd1/whb2lDbxeWojDD0vzz8sSdyO6XwDcbC1h7RKAiCWHkELp6TUtM9URASUBo1WCM8a3qfDHgHYUqjAqakgEiAARMGgCw5gbXF6h5jBlrszyoumez+t01Ws6h4LL2HehPf574DjOXPgNw5OiMGtdMosPEUaBRetRWHXsFtKz7uLQDGusfWsmtmfK8RVcxdZ91pj7v3tIPTMfzutG44U3diLgq7+RknwUkwqWYeaKqyX552VnsDRiFA74x+BEchaSjy2AdP0IvLM5RT6WQS8JCUcEao2A0bpD8IAJjTct+VJ4sfzACVn5wjv1X/jcmkCFCBABIkAE6iYBnhFIW1F8L/BX1Xu/1w8XtV2ivV7cGOHjItBE2IfJB71fcMfXZy6jAFKYipzw/OD+ymv9IqdhyH+G48g/MgzoxKrFThjw7iR0tGNf03YRCA96B1fbTsXwllYsvqQVBoa1xuLjF1hfzVF04mesvheGz6N7wY2n5fQKQ/TELxEQG4ecwRHQ7vyhXXQ6QwSMgYDRKsH6FvfmyFb6mtB5IkAEiAARqGcE1I0eiundfKul8Kf6+b/u5wj1YuZm0UnasCwNsTVsrBWuFyKYmpkgPz+/xDpbnIWTq2Zhzte/40KKDGJJAbKSizH4sdyHQWwPRwfFw1ozNGhgAgcne3mOIRHMG5ihkPXFbdfFPB1n+gGMD4yD0kSTnw2zwGw8Yt010uz9UVZWekcEjJAAKcFGuOg0ZSJABIgAEdBOQN0KzFsqlF91f+IuG64oO9L1dFF9tIJzMRj94R2M3XsCu/xtYVJwClHtwpCi3rAC7yXOrnBxj8QPZ2MQTA8qK0CMmhCBEgJG6xNMHwAiQASIABEgAuoEFIrs9jBv9VPC+9ORfsJrwZTAMuezJ1YuO0Txo2zkWHiguSdTgJk9N2X/Kmy5wnZXqkIxDRqBETYbEbVwHxJzmOm3MBcPLuzHr/HkE1wFnHSJEREwOkuw+qMsI1prmioRIAJEgAjoIKBqyQ1ju4iq+gerX8Y3n6uM5Vf9etPOk7Gkz3BMaN8OTh4OcGzdDV39qviVbNYec7Z+B0ybjW4e4cgsbgRpi24YPu8r9FEfmN4TASKgJCBiKV/qdRKVkJAQHA5frpzw09y06HNTNwio/tAJjp2MuLi4uiE4SUkEiMAzI6C4T9B3wjNDXmsD0VrXGnqDH5jcIQx+iUhAIkAEiAARIAJEgAgQgeomQEpwdROl/ogAESACRIAIEAEiQAQMngApwQa/RCQgESACRIAIEAEiQASIQHUTICW4uolSf0SACBABIkAEiAARIAIGT4CUYINfIhKQCBABIkAEiAARIAJEoLoJkBJc3UTrZH8yHJvhh9az49kWnFSIABEgAkSACBABIlD/CVQxKWH9AKOeNuV0Si7arb2snNzfkS0Q6NRQuVOQhG2L2dBEhEeyoorlh5Qdxbutx8B0zVksDTJq1PXjA0OzIAJEgAgQASJABOoNAaPVzLgC/EYre/x0IV25mFwBzhjfBrbmEigUYp5DUpFHsqCoGI+ZAmz79bm6+wEoLEShRAJJdc2guvurLrmoHyJABIgAESACRIAI6CBgtO4QN0e2wo8vNimDhiu7XAHmxdO6/AbsfFcRrgCXS65edAe/zn4ZLaV2sLVzgGvzF7Dor0fYPTkS3yVcw7f9feHp2RxDV98H70OWuBvR/QLgZmsJa5cARCw5hBThxCFM9vbHGx9MRmj3bujUyg9d3lyFczk6VlB+6vH5HzEuxBsOVlZw8ArG2B/O4TE/x/v0aYNRi2YgrEsg/Dr8Gwfzi5F98gsMDXSBjZ0b/MMW43Ba2T1TdMpYrj/98lELIkAEiAARIAJEgAgYEgGjVYI1KbmqC2PHlN25XVyUVdxy7LriH8R0dy+3frJjn2Lqdm/EnEvBw4xkXN67FKGNLfDq8rUY5emLt7ddQ0LCFax/3QUi2RksjRiFA/4xOJGcheRjCyBdPwLvbJbv8V54GXvPd8AXfxxF/NnfMenxAkQuikd+uVFVKnKP4IOBM3D5pbW4kpGBq+v74Np7AxF1OLekUcFl/HaqFWIOncal05+hV+FhRA9diPQ39iApLREHpubgly2JbPd6edEno3p/5X8v6JKWzhEBIkAEjJBALcReyP7EzJat8N7xKkZ7PO31RrjKNOW6RcBolWBty/Qwr1DwAZ7SzgkfqijB3PqbOs4f0w7dwVR2qBaRmRlMshNx9twNpMtMYO0VhAA3zWhlJ37G6nth+CC6F9zMxWjoFYboiX7YHxsHweArckbYuNfQ1JT9bdIEg8e9isxtsTij4x4mO74JsTkDMWd6VziYmMC+y3REDXqC2I1/Qsb7FLug/8RI+JgLA0B2fAu250dg1oRAWItN4NxzNqb0bqCckl4Z1fpTXkh/EAEiQASIgOEQkHihf3QU+ntq/j4qIyiPYWmupjBX5nrDmTVJQgQqTMBofYI1EVL4AW8NZTcOHxtNTQRXCK4kL1OxCJt0nIXVH0Rj3nu9sfiaCH593saiz2ahl2P5Lgrv3cbd9AMYHxgHpQE1Pxtmgdl4VMwuEDvA2bHUY1fs6Aw7Zq1NVZppNfSZ+gDp0rZw54qzUEzg0cQFGSdSWLYHKevTHk4OpTfBQtY+w7UDPJSr3whNmjpC0UK/jGX7Ky8R1RABIkAE6iYBiy/OIregCA4NTZD6tr8wCUUQtYgFRxdNaaucmP0355HxpIAFTIuRMynAsCYsxGtI8dywYVWXS/yU11d9ZLqSCDwTAhX4efhM5DCIQXhgHM8IoaoAKyzDCgG5olyuiGzRcczn2HkiESnXtmFE7pd4a+FBwYVBxL2AVdxtJc6ucHGPxE9nL+HSJflx4w7uxL4JqYhdUHQft5LylEPkJ91Csr0UjjpWSsIUZfvkJNxVWosLcDvxPuykTkwd5oV3XFqE9hkpSCv1f0BqykOlO4ReGdX6K9M5vSECRIAI1FECCgWYi5+WW6BUfhXTKS4uLlWImTGEK8C8cKVZoSiXTv0pYi80xpkIz/WQn7ADc/oFwt3WCtaOnggavQ4J/F6uKf7jsYo7hM6YkzzNMSxq7hD6Y09mYkBwENr6eqNd5Aqcf1JKg/4iAoZIQIdqZYjiVp9M3KVB+eue3cwUyi1XhHm94uCBcjyLhOK9QlFWlUR2cQ82/S8B2ex+aGrtDKmNOSRiCURiOzjYpONmQpZSDzYNGoERNhsRtXAfEnOYdlyYiwcX9uPXeLlPcHEWdsd8gmPphSjK+AuffbwTDv0GoK0Om71p0CD0b7gFS5bFI4P9+s+IX4bFm80xYFBnKI3DKgKbdopAaNFWrNqbIii+sutrsHJPZsVlrL5loJ6IABEgAgZDgCuzvJQLfpbX6aovdy636rEX+RrjTNgTwvyTWDRgJPb5LsTRu1l4ePs4vhvZBpYKO4e+eA2tMSfmmmNYVFemArEn+y60x38PHMeZC79heFIUZq1LVrUBGcw6kyBEQEHAaJVg7s7Ab1qKg+cDVn2v+JuD4lkkeDaJr3p6CG14W9VSnHUOqyf1gJeDDWxdgrAg8w2snBMMU0kLvDbtVVx/1we2ts4IXXUXxWbtMWfrd+h5YTa6eVizX/Je6DbyK8Sny82yJi0wJDQP87t5sCwP/bHVcxHWRgWVuk5o+uw2DMaCzUvgtXMQfGxt4TNoBzwXb8bC7haaWgMWIViwZhKy5waj3XM98OL0iwjo3bQ0bZo+GTX3SrVEgAgQgTpPQKHMqiu1Xj9cBD8qWp4m9iJXS5yJ7PgarE0ZgPkL+sLTQgRxA2e0ea4NHBVKsL54jSrEnCjmqz/2pDHCx0WgCbe8mPmg9wvuuHTmMm3AVNEPDLWrFQI67Iu1Io/BDsqzSYwP0ODky/+/d56BXadmaJTde9j3OMkO1WLSuA/mbmGH+hWyS6xGDOfe8/H19MXqZ3W+twwYhZVH2KHeyrQ7ll//W61WBOugKdh4copKfQyWqLzTKiPzMS7fn/qg9J4IEAEiUDcJlHdrKJnHzbdaCn+on//rfkkOSzHzF+4kLTWQPE3sxZMOmuNMuiXfQ6prWzQVgpw1FLX4j3ItdMWclPWaK3cpn4/u2BNr2FgrOhHB1MwE+fn5ZAkuR5IqDIkAKcGGtBokCxEgAkSACNQ6AW4FVld2Fe9NxGW1xS4brijlVbUeq8ZeNBNinWUlsReNS5orYi9+OBuDYA1pJqU8zoQdstS/sWJ0XxZn0gUXh7rB8f5NJLKAk5ZlH0jKZdCjySpiTtqXfPWXxJy4lMScMO889RgW1YVQjT1pKcxHPfZEtTX9TQTqBgGjdYeoG8tTKmVRwgqEN/Nkm26oHc3CsUKIiqBCBIgAESACT0tAochuD/PW2NXpSD+hvmBKYJnz2RPLZod4mtiLfC1xJmZBwzDMcSvmfvgbEnOLUZyXgvPHziO17F5HGuUWKnXFnGiIYVHtqLKxJ9qFoDNEwHAIkCXYcNaCRdVpcl0oEVDsORaxV8cakrQkCxEgAkSgXhFQteSGeVsrA+TU/YP5pCXM6KqpXglEHnsxZjyLvVjsAnvndujCYi8SFA3ksReYxuNDwpFZ3AjSFt0wfN5X6FXE40zGYcL1DBRILNE0ZCxWLmVxJmZiRMWuRP47MxAkHYxcMwf4DViCjZ39odlZT215VGJO/rwHeIepxJzIY1h+4TEsb5si5JPT2PGGyvXy2JNpE1jsycI0wCEA4YrYk5LEFfXqs0CTMQ4CIpbypaK/IeskkZCQEBwOX66UXedNq07OkIRWJ6D6GDM4djLi4uLUm9B7IkAEjJyA4j5hNN8JPEWa31TYxcZjnq50Q/Xwc2F0a10P17CmpkTuEDVFlvolAkSACBABIkAEiAARMFgCpAQb7NKQYESACBABIkAEiAARIAI1RYB8gmuKLPVLBIgAESACRMBQCOiIOTEUEUkOIvCsCZAl+FkTp/GIABEgAkSACBABIkAEap0AKcG1vgQkABEgAkSACBABIkAEiMCzJkBK8LMmbozjyf7EzJat8N7xAmOcPc2ZCBABIkAEiAARMEACpAQb4KKQSESACBABIkAEiAARIAI1S8CoA+MsvjiL3IIiODQ0Qerb/gJpRT5BEdsHvmhKWyV9+2/OI+NJARqaiJEzqezOQDW7RGq9FxaiUCKBsGtlTZbKjFOZtjUpM/VNBIgAESACRIAIEIEKEjBaS7BCAeac0nILyu0Tz/cQUSrEy04LCjAvXGlW31Mexan4fW4oOng5wcbSGlL/vojecxfCZsY8Qbm3P974YDJCu3dDp1Z+6PLmKpzLka9QRc77tMGoRTMQ1iUQfh3+jYNs3/jH53/EuBBvOFhZwcErGGN/OIfHKMTlpV3gPGgjMpRboOTh8NRm8Jl8CHlcnMTdiO4XADdbS1i7BCBiySGk8LZcDg3jyKUs+6KlrWaZyvegVYbyTamGCBABIkAEiAARIAI1QsBolWCuzPKiabcgXqervvy5Yli0HoVVx24hPesuDs2wxtq3ZmJ7pnzNCi9j7/kO+OKPo4g/+zsmPV6AyEXxYLpsSdF3vuAyfjvVCjGHTuPS6c/Qq/AIPhg4A5dfWosrGRm4ur4Prr03EFGH89Fs4GA0P7QRv6bLteAn/8PGHWL0f60rzGVnsDRiFA74x+BEchaSjy2AdP0IvLM5BUJr9XHMFAJqeFVvq1Wm3LIX65NBw1BURQSIABEwXgIyHJvhh9az40FRFcb7KaCZ1wwBo1WCOU6FMquu1Hr9cBH8qHAROeH5wf3RzsUCErEl/CKnYYhDPI78I99QXeSMsHGvoakp69GkCQaPexWZ22JxRnFH03de7IL+EyPhY84lEkF2fBNicwZizvSucDAxgX2X6Yga9ASxG/9EoVc4Brc6jI27ShTb3LgN2NlgAIZ0MoPsxM9YfS8MH0T3gpu5GA29whA90Q/7Y+MgGKbVxtE5/0rIpLqtvF4ZdA5KJ4kAESACRIAIEAEiUD0EjNonuJxbg5zpzbdaCn+pn//rfokPg5j5C3eSNixdgeIsnFw1C3O+/h0XUmQQSwqQlVyMwY/l1lixA5wdS714xY7OsEtLRCo3RovYofe8PZwcSn+vFKY+QLq0Ldy5Ui0UE3g0cUHGiRQUiLtjwJC2WLBpF5JHDMGpjb/CJmIH2rO2Bfdu4276AYwPjIPSyJufDbPAbDwqdmRylB1H0bvGV7W2OmVCE2UXhTplABpxHlSIABEgArVEoE7GitQSKxqWCNR1AkZtCeaLp24F5nVc+eWHibisRtZlwxXwI2j95TLrXnAuBqM/vIN+q0/gRtItJFzbiQm+4hIXA96y6D5uJXGP3JKSz9ok20vhqKCv77ygKZcWCVOi7ZOTcFf5bKwAtxPvw07qxNRhMTz6DUEHZi3ecWUfNvzmhIGDA1g9IHF2hYt7JH46ewmXLsmPG3dwJ/ZNSIUhKqOBVkYmFdn1ylBmqvSGCBABIvDMCFRrrAiTOj9hB+b0C4S7rRWsHT0RNHodEko88bTEdfCpFiP75BcYGugCGzs3+IctxuE0ZZCHwILiKp7ZR4IGqucEjFoJVijA28O8NS7z6Ug/ob5gSmCZ89kTy2aHKH6UjRwLDzT3tGXKZhFS9q/CliuFpdcwS/HumE9wLL0QRRl/4bOPd8Kh3wC0Vdjh9Z1Xk840aBD6N9yCJcvikcEyM2TEL8PizeYYMKgzuHFY5BqGIZ1PYtU7n2GvxyAMalVihTYNGoERNhsRtXAfEnPYTbUwFw8u7Mev8XKfYI0UKlapTyZFLzUpQ8UkpVZEgAgQAc0EqjVWJP8kFg0YiX2+C3H0bhYe3j6O70a2gSW3H+Rqi+tgMRS5hxE9dCHS39iDJPbE8MDUHPyyJbEk0JqLTXEVmhePaolAFQgYrRKsagEO87Yu4x+sCIxr7SA44ULCblqKOv5qaVoWm2nnyVjS5xwmtG+H53u+iDG7nNDVT8XTxKQFhoTmYX43D5bJoT+2ei7C2qigUpcEfefVF7ZhMBZsXgKvnYPgY2sLn0E74Ll4MxZ2tyhpyXyM+w7phsv7/4L34IForvDEMGuPOVu/Q88Ls9HNw5pZJrzQbeRXiE+XmybUx6nMe30yKfqqSRkqIy+1JQJEgAhoIFBdsSKy42uwNmUA5i/oC08LEcQNnNHmuTZwZN8nuuI6co5vwfb8CMyaEAhrsQmce87GlN4NlJJSXIWGRaMqIlBFAkbtE1xFZuUvkzRB+PI4hJc5M6/knRAVJoZz7/n4evri8tcKNTrOm3bH8ut/l7vOMmAUVh5hR7kzvEIEpxHbkDmi/EmTxn0wdws7yp2SahynXDNeUVmZTLvg44sXlF1pl0HjaFRJBIgAEXhmBNRjQRQDVzZWpDD5HlJd26JpiS2ljPy6YijyWMxHhmsHeCi/nRuhSVNH9i1RUiiu4pl9FGggIyBASrARLDJNkQgQASJABCpOgFuD1ZVhxXtNsSKKnlWfMEqkbnC8fxOJLBdmS5U4at5WNa6jpfCkrjSuw5zHfGSkII09oGsmnJMhNeUhihqXjKKI7fjhbAyCdaWxVAhFr0SACGglYLTuEFqJ0AmBQFHCCoQ384Snp9rRLBwrFJEdxIoIEAEiUM8IVFesiGnQMAxz3Iq5H/6GxNxiFOel4Pyx80hl4Ri6YigsOkUgtGgrVu1NEfyAZdfXYOWeTGWgNcVV1LMPHE2nVgmQJbim8WtxHVAOq+98TcunpX+x51jEXh2r5SxVEwEiQATqHwFdsSLqs1XEiqjXK9+bdURU7ErkvzMDQdLByDVzgN+AJdjY2R+O8hiKaRNYXMfCNMAhAOHKuI4QLFgzCWPGB6PdYhfYO7dDl95NkaDoWB5XgWk8tiMcmcWNIG3RDcPnfYU+WoWhE0SACGgiIGLbA5fNvaKpVR2uCwkJweHw5coZqN7k6vC0SHQdBFQfYwbHTkZcXJyO1nSKCBABYySguE/Qd0L9X31a6/q/xlWdIblDVJUcXUcEiAARIAJEgAgQASJQZwmQElxnl44EJwJEgAgQASJABIgAEagqAVKCq0qOriMCRIAIEAEiQASIABGoswRICa6zS0eCEwEiQASIABEgAkSACFSVgNFmh7j2MA8tfrqIokqGBZqxkOArb7REU2tK0FjVDx1dRwSIABEgAkSACBCB2iZgtJbgqijAfLHyC4vh+X3p7me1vYDPfHzZn5jZshXeO16gYWgZjs3wQ+vZ8Sz1OxUiQASIABEgAkSACBguAaO1BKtbgBtbmeL9TlI0MBHj05MPcD7tibBq2RMDmLW4WFB+udH4ZmY+Om+4Uj0rKjuKd1uPgemas1gaVEeWQuKF/tFREHka7e+n6ll76oUIEAEiQASIABGoVQJ1RPOqWUZiEbA/whfNbEs2ee/nYwMfZu3NyCuE1Zdna3bw2uq9sBCFEgmEXTkrU8RSPDdsWGWuoLZEgAgQASJABIgAETA4AmTOY0viY2OuVID5CtmZSxDkYiEslqWpGDbsPT+4sqyt5CfswJx+gXC3tYK1oyeCRq+DsLtwcSp+nxuKDl5OsLG0htS/L6L33GXbYeZh9+RIfJdwDd/292XbEzfH0NX3BWuzLHE3ovsFwM3WEtYuAYhYcggpgu9yMbLil+O1ti6wtXeHf795+HhkizLuB4/P/4hxId5wsLKCg1cwxv5wDo/5pbJDmOzTBqMWzUBYl0D4dZiOtUu7QTpwPdKVftF5iJvCfgxMjWPSaSll3CGKkX3yCwwNdIGNnRv8wxbjcFolnay1DEPVRIAIEIFnTYDHikj+exp8c4XKHOafn8GtrPxnLS6NRwSIwFMSICWYAbyVnY87j2RKlI9lRTidkiu8PzvCDw/HtxGOnEltNePOP4lFA0Zin+9CHL2bhYe3j+O7kW1gKSjNxbBoPQqrjt1CetZdHJphjbVvzcT2THO8unwtRnn64u1t15CQcAXrX3eBSHYGSyNG4YB/DE4kZyH52AJI14/AO5tTUJwTh+hhH+HRmH1ISk3EwRmF2Lk1UdhfXii5R/DBwBm4/NJaXMnIwNX1fXDtvYGIOlwyFxRcxm+nWiHm0GlcOh2D4UMj0ebweuws0bDZ9XFYt90MEcO6osQmruhYy2vuYUQPXYj0N/YgKS0RB6bm4JctKvJouYyqiQARIAKGSIBiRdiqUNyHIX40SaYaIkBKMAPL/X1f3nodv1x7iN8SsvDKthtIzikJ7fJmbhEKi0AD9mtfU5EdX4O1KQMwf0FfeFqIIG7gjDbPtYEjV4JFTnh+cH+0Y5ZlidgSfpHTMMQhHkf+KVW6VfuUnfgZq++F4YPoXnAzF6OhVxiiJ/phf2wcMuN/wY6iQZg5tg2sxBI4Pv9vTH6xxGLN+5Ad34TYnIGYM70rHExMYN9lOqIGPUHsxj8hjCZ2Qf+JkfARNFwmZ+NwRHY6jg3b7wkW6Ef712GX7SAMbW+qKpLWv2XHt2B7fgRmTQiEtdgEzj1nY0rvBlrb0wkiQASIgCET0BQr8nVPD/zwYhP4O5Te23isSOaENkh52x8P2PHXa80NeVrsy4HFnzTXFtCsJro87qM/xX0Y9pqSdNVCgHyC5Rh5INzAXQlVglqYfA+prm3RVJP5tDgLJ1fNwpyvf8eFFBnEkgJkJRdj8GPNbgOF927jbvoBjA+MgzIJW342zAKzkZWSjAznjnBVOvI2hKubPRS/ZApTHyBd2hbuSh3WBB5NXJBxIoVla5AyJdgeTg4qv3tEUoQND8aclVuRNHI44tftgfuQA/Cv4KeCj5fh2gEeyvaN0KSpo1KeKsGki4gAESACBkDAoGJFqhrDURWOFPdRFWp0TR0lQJZgtnAt7RtgZkdn/Mh+7a95uSmiO7ugo7TUwqpvbSVSNzjev4lEDS5hBediMPrDO+i3+gRuJN1CwrWdmOArFiyvvIj4Xyr6sMTZFS7ukfjp7CVcuiQ/btzBndg34eokhd2D27hXqJAoF/fupivdISSOzrBPTsJdZX6yAtxOvA87qRNK9FR1p2YRHF4Zjt6XN2DzyZ1Yt78ZXhvSosLBcsJ4GSlIU/pjyJCa8rDUPUMfODpPBIgAETBQAk8dK8LjMLz98cYHkxHavRs6tfJDlzdX4VyOfMJa40XY+XIxHP/GQfb9ojVeRNl+JgYEB6GtrzfaRa7AeSHJkfb4E43oKe5DIxaqrJ8EjFoJ5unQtvT1xIXX/bD0eTe80coekX52mN/VBfFDm+PQIF84NtRvFjUNGoZhjlsx98PfkJjLUqnlpeD8sfNI5frto2zkWHiguactU0SLkLJ/FbZckWuxYjs42KTjJnPBUOjBpkEjMMJmI6IW7kNiDqstzMWDC/vxa3wKTDoNQF/RZvxn5Xk8Ki5E6pFPsPx3xR0VMA0ahP4Nt2DJsnhkMMtBRvwyLN5sjgGDOkOrg4P1vzD81SSsGL0Eh9oMxcBKPAIz7RSB0KKtWLU3RVB8ZdfXYOWeTFWdvn7+r6FZEQEiUO8JPHWsCCdUeBl7z3fAF38cRfzZ3zHp8QJELopHib1EW7yIHG2ZGI7P0EukI16EX8La77vQHv89cBxnLvyG4UlRmLUumd2PtcSfVGQFKe6jIpSoTR0mYNRK8HCm8Eb42mpdvhB3S0xt56T1vPKEWUdExa5Ej39mIEhqDVv3Thj1/TmmqDLFtPNkLOlzDhPat8PzPV/EmF1O6OonV6wlLfDatFdx/V0f2No6I3TVXRSbtcecrd+h54XZ6OZhzTJNeKHbyK8Qn87UTIseWLh2Bhp+0xPuDk3Q42MJXu3nAVOW6kwoDYOxYPMSeO0cBB9bW/gM2gHPxZuxsLsuq7YFug/vj4KLieg8bAA8KvOJsAjBgjWTkD03GO2e64EXp19EQO+mFba4R8u3AAAgAElEQVQk6wdLLYgAESACtUPgaWNFBKlFzggb9xqaciuESRMMHvcqMrfF4gx/WqcvXkQthkNXvIhgChE3Rvi4CDThY5n5oPcL7rh05vJTbVxEcR/CKlKpxwT0mznr8eQPJGULAXCFbDMMiUiERiwdWiGLjMhnh4y/soC57dczK0TAzKs/PtrFjnKtmyB8eRzCy9TPU77zHvY9TrJDtZg07oO5W9hRri/ApvM0bDo3TX4mExsGfg4H5u6g0F0tA0Zh5RF2qF9r2h3Lr/+tXiu8N3VrDFe7FxHZT8rcM/QU0y74+GLpjnnWQVOw8eQUlYtisERPF3SaCBABIlAdBPLYPdqUOe/y1GbeNmb4v9uP0J0ZL1ZfTAc3ciw6nozZQVK8/UcSvunVWAiA/m2AD1r+dLFCwz9NrIgwgNgBzo6l2djFzIXMjmXSSRXSZ+qJF1GL4dAVL/Ko2JGNZQ0ba8UdXARTMxPk5+c/1ZM5ivuo0MeEGtVhApWx+9XhaWoW/Qbb/c1lxXm4r/xHeOUbY9h+fQ7O35bUebHMEPHJpe4Gmnt5lrVFuP2/PSx1Gr+x5ePeH4vw2cHm6PMvt6cIRsvGsa9/RFLoSIQ66FWBn+VkaSwiQASMhMBNeY7dA0mPhBl/90+a8Br1v5LMNa/vZakX2ZO1kM1XBaNFk+/+QQGrcPjmHLsXFiN8102Wx12E//6dwp6MiYQUl9zdjed3t2Cv/X1tBCPHf3t4CLnfeepLfeVpY0WE/ovu41ZSadb1fBYXkmwvhSP75tUXL8IjRlSLrngRaQVu3erxJ/rmz89T3EdFKFGbukzAaJXgDJb3t6rl8aSAql76lNcV4/E/3+PNdq5wYDfStuNPoPPyHzDZr9L7vglyFGesw2And/T/vSM+in4ZVnLpihJWILyZJ9vAQ+1oFo4Vwg4gVIgAESACpQTuPy5J+fjnPWFrHqy/nCG8LonnPqnA2/uTBCX2xdjrghLb7MeLghJruvyM8NSN1/P3vD0//+e9HKE9V2R5ebGplbBZ0ZJubsJTuz9ZSjITVvGIpSrj788zpZaf39XPW1Adv3jBQ7ju3x2chVeF21t754bCe74hkrZSXbEiQv/M2rs75hMcSy9EUcZf+OzjnXDoNwBt2TNYnfEiGoTTFS+iiCnRcFlJlYb4E61tVU5Q3EdFKFGbukzAaN0hbNlNsHhqYB1bOwlajNmE82OqR2yR3TBsSim/BbLYcyxir46tnkGoFyJABAyewEO2RTy3mp5LzUVrlg/315vZeNnTCt+eS8MYfwfBIssDht9gFtkfX2LxCJuv4f8G+oI/LbsxshWe33QNZ4a3wBzWbidTRP9IzEZ/tv28wq3sOddGgnL7PnNN4GVfuA/Lmy6CbHLJBkRX32yprOd/rOzdWHgfJW/PXRt46ebWSHh1a6Q11Fc4/zSlorEinIneYtICQ0LzML+bB1PsAe+wRVgbFVSS/lKIFxkuxIs4eTjAsXW30ngRTR3L40UwjceLhCOzuBGkLbph+Lyv0EdTe9U6efzJLzz+5G1ThHxyGjtGu+l3f5PHfYwZz+I+FrvA3rkdurC4jwR949F5IlBHCIiKWakjslZJzJCQEBwOX668tu4pvlWatlFfxDc3UZTg2MmIi4szah40+fpPgMcvcDcApW8scyvggb1rL2XgtRa2WHriAWYwq+g7B29jWXd3hO9MwGaWGSdo/RVmVW2GLhuuCq+Ddicgtq8Xph66g8+Z68B/Tj7ArE7OWMf6GdHSHoeYz23PxpbCOM3tGiCvsAgN5dbaukZZcZ9Q/U7gddy3+H9DmuuMFRnMOGlylSvz/cLTlvlNhV1sPOZx0y+VWiOgaa1rTRga2KAI0P9Mg1oOEoYIEAFjJpCULYNrIxNBwWrn1BA7brAdLL2s8e3ZVIxiFtkP/7wvWEe5e8GX7JF/6I6b2BbqheBNV3F4cDOMYQFgG/o0ZYFhGQhk11/LzGOKajFcLEwEtwTuFmDGLLAxTBHmvrEnWCpIKzMJFJbYAxG+An6eM50Xbv3lZTQbmxfulsCLH8utzktdVYAF4bUURayIltNUTQSIQD0iYLQ+wfVoDWkqRIAIGAiB1NwCwbeVB2blFhRh180sZOUX4humxKY9KRDcCrj/LHcr4Apvz1+ugQeFcR/Zq8y6OmLvLdx+JMOXZ3j7Qpx6kIMcWRHMmbWVK7E9PCwFP9nZnaSwb2CCnWFeTGk2FVwS3C1NcZC5KLiw96uZywLPcb7oOVdw169xAY6C0vsqU6j59W0cGwhZFbgLBPelpVJCoG7GilR+9Sjuo/LM6Ir6SYAswfVzXWlWRIAIVIFAdn4RLExFuJqRh6bW7LE4C/Tq6GyB7Tcy0cfTGqvOp+F15hbAA7imM/eCd5nbwEdso50Re27he2Y9nfR/t/EtS8XF3QgWMgU0jrkPcIsut8byQC9uneXW0/EBDnBoKGHKalNImZVWYYnlSiwvfOdKXnjfvExqy1JgscL9bHlR7GjJFV4q1UegWmNFdKSlrD6Jq9YTxX1UjRtdVf8IkCW4/q0pzYgIGC0BboXlB7eyPmYW1L/u5yCdWVS3XsvEPWaB5RbWBGZ5ff/oPVxhii5PvcVzwfZiFtlTD3LRb+cNnEl5goUsvyx/LL43IRspzLrL+3hSUAy+lS63oL7Wgu322ECCT0Pc4cmU5Ti2u6Q/CyjjSmwLO3OsZUqsF6v/ONhNsNBOYZvuODHL7MBmtoL1tQsLFOOpuzzYOd4fFSJABIgAEXj2BEgJfvbMaUQiQAT0EOAuA0+YO8HfTDHlmQt+ZVuL8zpuieVK7IK/7uNS+hNMOHBbcD3geWKPMavti2wzBO5P+96Ru4J7wcYrGXiQI1P6xnJLnzkLIPtXEyvBXWAO86/lyuq2UG8EMBcB7hPL02hxSyzPksCVWF9bc2HnyMZWphjc3BbOzHL7PMtSYM18aXkQFe9PkcpLz7ToNBEgAkSACBgQAXKHqJHFkOHYjDYYbfIzzizphGcCWfYnZgaMhOins1gaVIURn/b6GuFIndZVAplMceXZCm4zi6w9s5heTM8TLKZ/3n+Mto4NsedWluDfuv7yQ4SzjQy+OJ0qBF8tPH4f09s742e249fYNo4sMCwTQ5jieZFZa5tamQnWU+5W0M3NUrCoTgp0hDtzCVjBXBD4e0VgV1dmaeUlkOXB5kURyMVl4IX70fLCZaNCBIgAESACxkmgCtqScYIy+FlLvNA/OgoizwoY92VH8W7rMTBdo6IwV+Z6g4dBAj4tAe5KYMaUWO5WwB/7X2BWV65AcvcCHlT1R+IjdHVlvrJsW/HezKrKU2jxXblWsLyykSyn6+YrD/Fma3uWbzYLg5gLAPet5VZY3i9/+t+cWVd5YBdXcLmFdenzrrBm5/ewLW25c4AiC0Gwe4kyq/CB5dZZXrgFlheFMvu086XriQARIAJEwPgIGLUSbPHFWSGC24E9Fk19219YfUU+QRHbhahoSkkid15v/815ZLDobh7UklNrO8Zp+YAWFqJQIsVzw8pvfKHlivLV4qe8vnyPBlOTk5ODD385iM3JZkiS2KFYJEZL8yeY28MHg1qW7ChlMMJWkyDcWsp9YzO4RZZpnXeZK4G1mZjld80XUnCdYS4EzZjv6pE7j9njfwv8xtwNuGV2A3MfCPWyESywYd42guW2V2MrYRMF3mc2y3TAg8e4Qsytsq+ytm6sv5kdpbBjynI3ZoHlrgH8Wl74tbxwH1heuALNC3cx4IX7xFIhAkSACBABIlAbBCpgNqwNsWp+TIUCzEdKY4Evqhss8Dq+h4hSIWYJ1LkCzAtXmtXbstbIPvkFhga6wMbODf5hi3E4reweJLLE3YjuFwA3W0tYuwQgYskhpPAmRXfw6+yX0VJqB1s7B7g2fwGL/irZgjQ/YQfm9AuEu60VrB1ZYvvR6yDsWsyTsPu0wahFMxDWJRB+Hf6Ng4+ZO0TLVnjvOJOTn/f2xxsfTEZo927o1MoPXd5chXM5fAZ52D05Et8lXMO3/X3Z1sjNMXT1fRRzdwjF9azV4/M/YlyINxysrODgFYyxP5yDsCGqcuyZGBAchLa+3mgXuQLnn/CThln+9d+d+Pa+JXyS/8aIqz/h9cvfw+XGEYz97SpmHkw0TKHlUvGgrEfMesotsdwnlm9WwH1df7n2UAjk4jt68brFLJCLp+N6N+4ONrAta0ftS0Qsa/MJy1LAfWW5RfYmC/S6xfxpc9hn2JL5s1qalgRocYV2TBsHIeMA3yCBp9H6gWU6GMAsu0tZdgJuleWZEPhuXXzDBJ7h4CVWxxVZ7j/LMxRway5PwUW+sQb9cSLhiAARIAJEQIWA0VqCuTLLC9/hR12pVez6o62+3Cco9zCihy5E+vg9SJrijycH5yC0fyKKJspbys5gacQoHHhxLU5segF2d3dier8ReMfnJFa7f4qp272x/NwuvMyMklk3TyGBPRZG/kksGjAS+3r+iKPrX0UTcQr+OZUMS0UgecFl/HbqXRw+9B/4mDNtWvYX9qoKVngZe8/PwF9/LEdTUSLWDA1G5KK2OLGoE15dvhaj9qu5Q8gSSq/OPYIPBs7A5RE7cOVAJ4hOfIyBYQMR5XsaMV1YMzb2vgtzcOTAx2hSfBmf9g7GrHX9sHOkVP82nOXg1XzFeYkr+t/8BQ0KSzV1n6xrcH98Bz+YRiKkqS36MsWvJgp//M+3i+XBXWL2dOFBTgGzoIqQyNwMuOWUp+KSMkvqP8znlSuj8czdoCXbiODQnUeChTYxOx+t2ftkdh1XOh/mlfwY408k+EeBK6SOLNXWIOZWwN0N+Pa0jZgyyrMX8KJ45YotL909amKW1CcRIAL6CajFilRHHEZ19KFf8Cq2qIXYmCpKSpcZLwGjVYL5kiuUXXVF2OuHi5X6RMiOb8H2/Ah8PyEQ1sy2bt1zNqb0XoEF8l5kJ37G6nth+Dy6F9z4U2CvMERP/BIBsXHInW4Gk+wrOHvuBoJCmsPeKwgBrInsyBqsTRmALxb0hacF78gZbZ5TeXQvdkH/iZFMAebnNKRYEjkjbNxraCo8bW6CweNexZzJsTgzrxM68SodRXZ8E2JzBmLl9K5w4J+QLtMRNehbvLXxT3zchU1Q3Bjh4yLQROjbB71fcMfXZy6jAFIY4sPtTil/lVGAFVNvUJiLbukn8NkpO61KMP+xxJVXbpHlO23dZ5kGuAJ6h21owC2fXJm1MRcLVlbu48q3k+WpsC5nPBH8Vbny2py5HfCnDZ7Mj5W7EvCUWYq8sbzOjimvHpZmQn9cieW+uMOYXy0VIkAEnj0B9S12efaRdmsvKwX5O7KF8ONT0U7C7g8N2Q9b/sSmzLbJ+kSnOAx9hOg8EahxAkatBKtbehW0b77VUvhT/TwPCuKFK0WdpA2Vi1OY+gAZrh3goaTZCE2aOkLha1J47zbuph/A+MA4lITzsEvzs2EWmI0nHWZh9QfRmPdebyy+JoJfn7ex6LNZ6JZ8D6mubdG0xHVSOZbyD7E9nBx0eLOIHeDsWBr5LnZ0hl1aIlK5AVyDzqw6AJ9PurQt3JUarQk8mrgg40SKoOhCbA0ba0UnIpiamSA/P1/Y0coQi8fjJK1iOaQwi/rd54TALnP2RXbvMbfUitmuXflCCixuweUWVh7Mxd8z/VTYZtZEntuVb3TALa9c4eXX8WAxriQ3kNiSa4BW6nSCCBgmAX7Pf6OVPX66kK4UkCvAfCc5fh9QKMRc2VUovNz3nj/xsf36XOUmVZ/iMIS4FHZ/rBwB7a2ruz/tI9EZIyegQ4syDjKafrnzGyE/FIqOgkSXDVfAj6D1pVYBfk7CFEz7jBSklXhYsBoZUlMeQvFW4uwKF/dI/HT2Ei5dkh837uBO7JuQim3Rcczn2HkiESnXtmFE7pd4a+FBFErd4Hj/JhLzta2DHk226D5uJeUpL85PuoVkeykc5Ssu4iqrFq1VmE9yEu6WPHlnfRTgduJ92Emdnk26N21TrmK9iLkjaCvmltbIZ7t5tWWWHe52wNN1veJphRnMB3Yc85P9sIuLkCN2cqAT3mRfjtwnlu/axd0neCAZ95PlVqFW7FruzsCVYf5lSb6x2ohTPREwXAI32fbTPzJ/eNXCvyP4/2le+P9x9cLvLlwBLv9doidWRDUOQ1tsiM74DjVJilPx+9xQdPBygg27r0n9+yJ6z132PVSIq590g3TgeqQrb4V5iJvii2ZT41iUiPaiPzZEJS4lX8982TBaY2M0xblo/e7TLi+dIQKVJWDUSrDiprU9zFsjt9ORfkJ9wZTAMuezJ3KHhdJi2ikCoUVbsWpviqD4yq6vwco9mUod0zRoBEbYbETUwn1IzGF3IfYY/sGF/fg1PgX5F/dg0/8SkM0UTlNrZ0jZjlQSsQRmQcMwzHEr5n74GxJzi1Gcl4Lzx84jVbs+V0YmFGdhd8wnOJZeiKKMv/DZxzvh0G8A2nJrtZjtdmWTjpssI4Cm7kyDBqF/wy1YsiweGewXeUb8MizebI4BgzobpLtD2YmXf5dkWfZLTbWFiV9X9GxsKWyMwHPJujEllgd6CdZcdlAhAkTAeAhoUnJVZ2/HlN257IexonBjieuKfxDTvSQfdRlSiliRN1isCHsKd2BqDn7ZwmJFNOCUHSuJDYk5l4KHGcm4vHcpQhvL7apCfEcHfPHHUcSf/R2THi9g8R3xKK8jFsOi9SisOnYL6Vl3cWiGNda+NRPbMyXwGRyJNofXY6cQjc1KbhzWbTdDxLCu0PawEYrYkJfWst0VM3B1fR9ce4/FhhzOLelDiEtphZhDp3Hp9GfoVSiPjdE2X0VsjH8MTiRnIfnYAkjXs9iYzSkl30Pq/ZX/vaGBHFURgacjUO+/5ePi4oRf6KqPrzgy1V/tYd7WZfyDFW1bO5TcHvgjcNU+uO9mmWIRggVrJiF7bjDaPdcDL06/iIDeTUsfDZm1x5yt36Hnhdno5mHNMj14odvIrxCfznzIss5h9aQe8HKwga1LEBZkvoGVc4KZi0FHRMWuRI9/ZiBIag1b904Y9f05PNKktWr6DJi0wJDQPMzv5sGyO/THVs9FWBsVVOKOIWmB16a9iuvv+sDW1hmhq+6WVYYbBmPB5iXw2jkIPra28Bm0A56LN2Nhd8E52eCL6lrx9f/jPzPw7bfflpPbUtoYOwub4F22OQMVIkAEiIA2Atwtiiu8fPtr/nRIUfi9JnWcP6YduoOp7FAtiliRWUKsiAmchViRkhSB6uOIzHhsSKIQG5IuM4E1jw1xUzy2U4nvMCmJ78jcxuI7lE/q5L2JnPD84P5o52LBDCmW8IuchiEO8Tjyj4yFcYQjstNxbNh+T7jXP9q/DrtsB2Foe+1RHIrYkDlCbIgJ7IXYkCeIZbEhQv4itbgUffNVxMZ8IMTGiNFQiI3xw34WGyM4GuqLc1GHRu+JQDUQqNc+wTzXr2rhac9qpohgHTQFG09OUek+BktU3pk07oO5W9hRToAZ2HVqRrlaXmHGlNePdrFD/ay4O5Zf/7tsrWkXfHzxQkldyR0Kzr3n4+vpi9WvZu/Zdq/DvsdJdpQWt9LrWaVlwCisPMIO9atN1ceWoNWceCSqt6vl95rWPr1pJ9glX4S9gwOeeLbH5nwPwb1BkTmhlkWm4YkAETBAAgo/4K2hbEMi5gqlqXBlmCvJy1QswvpiRVT7MemoOTaklyNrVdH4Dvb07+SqWZjz9e+4kMIUX0kBspKLMfgx+94TSRE2PBhzVm5F0sjhiF+3B+5DDsBfhwagPzakbFyKvvnqio15VMwmqi/ORRN4qiMCT0mg3luCn5IPXV6PCGS0eAE/+ryO/9r3xflGzfB1ryZY9JxrPZohTYUIEIHqJsAD43hGCFUFWGEZVozFFWX1oi9WpEx7kebYEMHlQU98h6KfgnMxGP3hHfRbfQI3WAxIwrWdmOArlj/lE8HhleHofXkDNp/ciXX7m+G1IS10BrLpjw0pa2TSN1+dsTFCV3riXNQB03siUA0ESAmuBojURd0g8EeED/Int0Uu2/GP/00W4LqxbiQlEXhWBLhLgyIrEH9VKLdcEVYETPNXHijHs0go6hSKsqqc+mJFVNvKtMSGCGqhrvgOlU6KH2Ujx8IDzT1tWQBzEVL2r8KWK4WlLaz/heGvJmHF6CU41GYoBnrq/vqvbGyIvvnqio2pqWe0z+pzQ+PUXQI6HobU3UkZveTlXBaMnggBIAJEgAjoJcDdGVRdGvgFqvEjqh3wLBLcP5hvOT4+gPstqBV5rMiY8SxWZLEL7J3boQuLFUlQb8fHEGJDxmHC9QwUSCzRNGQsVi5lsSE4DKjEd/x5D/AOU4nvUOnLtPNkLOkzHBPat4OThwMcW3dDVz/Vr3gLdB/eHwXff4fOUwfAQ7cODMhjQ6ZNYLEhC9MAhwCEK2JDSjY1LTsTffOVx8ZgGo+NCUdmcSNIW3TD8HlfoY8GJlRFBJ4FAZY9qsYcZZ+F/DQGESACRIAIEIFKE1BYfLUpuZXusCYu4KnD/KbCLjYe84TUPk9Xiq5/ipCu/8OEi1swzMF43A/qxFo/3dLS1VUk8PT/q6o48LO6LCQkBIfDlyuHM+gb3rOCUs/HUdzw+DSDYyeDZ4igQgSIABEwbgLZOPb1j0gK/QihRqQAG/ea0+z1Eaj3SrA+AHSeCBABIkAEiEB9JlCcsQ5Dmo/D/7lGYPmOl2Eln2xRwgoM/NdinFJ3bzBtj/f3bcFYPX7D9ZkZzc04CJASbBzrTLMkAkSACBCBukagmuI7RHbDsCllWLnZiz3HIvbq2HL1VEEEjIWAPtd4Y+FA8yQCRIAIEAEiQASIABEwIgJGawnOLyzG8LUXcSOtfH5Hbeu/e3QbSK1oL0dtfKieCBABIkAEiAARIAJ1hYDRKsHZTwoEBfjwpHZl1krIV6iSMEORv1DMdp9ryLZLPnE7Gx09FB5V8ktlf2JmwEiIfjqLpUEGjrRaZZXh2Iw2GG3yM84s6cRyU1IhAkSACBABIkAEiEDdIGC0ekuRfH0aMMW2oolidl1Iw/zfb2FMF1fhUBYJ204zOgqiuhBEUJdkrRv/h0hKIkAEiAARIAJEoA4SMFoluLJrpVCAi5iVOOlhXtnLxVI8N6x80EFlxxDaFxaiUCLRuZ1llfpVXKRL1poe+6kEp4uJABEgAkSACBABIlB9BIw3MK4S+zSqKsAv+9lj3sueZVeAuxi0bIX3jhewfd7v4NfZL6Ol1A62dg5wbf4CFv2lnn9G5XKeDN2nDUYtmoGwLoHw6/BvHGQbxssSdyO6XwDcbC1h7RKAiCWHkFLiq4Hsk19gaKALbO3d4d9vHpaObIHWs+PBRgfytmKY/Qv4Iklh65bhyLRmaBt9quS8qqxPMbaNnRv8wxbjcFolQFbf55Z6IgJEgAhUOwEeKzJ49QV0jDlZ4SM5m92wqRABIlAnCZAlmC3b4/wiXHzwuLyvLzunrgBPet5D50LLjn2Kqdu9sfzcLrzsDGTdPIUEts+8zlJwGb+deheHD/0HPuZMqZSdwcKIUTjw4lqc2PQC7O7uxPR+I/COz0msD72I6KGLkDnpdyRNaoUncdEI63cLRRN0jqD9ZKXHXoj08XuQNMUfTw7OQWj/RBRN1N49nSECRIAI1BUChhsrUon4i2qN+9C1cpWQSVc3dI4I1CIB47UEy6HzGLjJW6/indhrOHwjs8xSqCrAfZgFeDbb9z0nvxCpj7VbdkVmZjDJTsTZczeQLjOBtVcQAtz0YBa7oP/ESKYA8+FFkJ34GavvheGD6F5wMxejoVcYoif6YX9sHDKPb8H2gsGYNS4AVmITOPWYhakvWlT9I1TZsfMjMGtCIKzZ2M49Z2NK7wZVH5uuJAJEgAgYEAHVWBEeCK04LNjfFmYS5dGI/c0Pfp5/T0zYchUr/7xXdiby+Iv+hhorIjuKd5vLn2Aa0BqQKETgWRLQo509S1Fqbyx+M5MVFmHmrhs4crNEEVa3AM972QumYhF7VPYPCou0uwCYdJyF1R944fB7veHt1BRdhi7G/nuKW6uWOYrt4eRQuhSF927jbvo2jA/0g58fP1rihaX/wCw/G1kpD5Ah9YCr0rhsAXcPB1R5ISs7tqsnPJTPDxqhSVPHqo+tBQdVEwEiQATqAoGKxIp0da7y3bkuICAZiUCdJmD0/ztZ5jN8EuaDrp42giI8Y+cNfHIwScgCwYPguA/wfKYAM/2XpU4rWWud2SREtug45nPsPJGIlGvbMCL3S7y18CB0e42V7VHi7AoX90j8dPYSLl2SHzfu4E7sm3B1coZd8m3cK1R87nJx904aStVsM5iZFUCmNFYXITvzkcp59c9r5ca2z0hBmnIwGVJTHuroW30sek8EiAARMGAC2u0b5YQubyjxLNvmaWJF2JeNIvZDW/yF9rgRNTE0xpfkYffkSHyXcA3f9veFp2dzDF19X/iK096vfpnKQaIKImDgBIxWCVa915lJRPhURRHe8PeD8gowW8hihRasY1FlF/dg0/8SkM2i1EytnSG1MYdELKlwGjbetWnQCIyw2YiohfuQmMMkLczFgwv78Wt8Ckw6RSBMshkfrziPR8XMNSNuKZbtzSmVyLQl2ja/igMH74Lryfk312Plb+kVkLykC31jhxZtxaq9KYLiK7u+Biv3ZFa4bx3Y6BQRIAJEwKAI8FgRnhdeU1FXgCsaKxJzLgUPM5Jxee9ShDbWESuSe5jFfrD4izdY/EVaIg5MzcEvW1j8hUIYFjeylMeN+MfgRHIWko8tgHQ9ixvZnFL2fqy1XRZeWb4Wozx98fa2a0hIuIL1r7tApLU961efTJpAUR0RMHACRqsEq6+LqiLMz5WxAMsbKxRnbj3WVoqzzmH1pB7wcrCBrUsQFmS+gZVzgmGq7QJN9WbtMWfrd+h5YTa6eVjD2tEL3UZ+hfh0dgu0CMGCtRrEuBoAACAASURBVO+h0YpecHdogh6fmKFfRNNSlwSxF0Z9PB3iz0Lg3/E5/OvfV+Dfw6PiLgv6xl4zCdlzg9HuuR54cfpFBDA/aR23ck2zozoiQASIgEETqO1YERmP/dARf6ErbkTFJKIzvkS1nWIxdPUrxKPokMmgF5SEIwJaCBh9dgh+s1MotQpFeNPpBxjWXlriAqECrnQjOTUt2LQLPr54Qd5yBnadmqEFt4Zq0+5Yfv3vcidMGvfB3C3sKHcGsA6ago1np8jP8Ajd9VitbCeCdZcZ2H5eVYbFmK84X0bWKo59UjE27zQGSzTISFVEgAgQgbpMQDVW5D+h3njey6ZctiAeK1LAYkR4rMiu0W20TrckViQa81isyOJrIvj1eRuLPpuFXq6a7VCFqSz2w7WD1viLkriRAyxuJA5milFZzIhZYDZ7Qlgqhu52LuXk1dVeiEfRIVO5zqiCCNQBAkarBCvU2HzmB6zi7issWUSAE/IKikofKzHtV8Q05YT0J8J5XZbgOrDmJCIRIAJEgAjoIKCIFZm+4zqOJWQKsSIRAY7YdJq5gj1NrAiLF5Gl/o0Vo/uyWJEuuPZlz1IlVkUeiaMzFPEXzYRHbfL4i8YljRRxIz+cjUGwUguWd8B8kRVFd7uj7LuPacwqSrOu9rJDp3TKpAMnnSICBkvAaJVgqwYSWLL8vcGf/y1XakXCK1eIhVf2j/C3/D1fwVxZEWwbmsDGvHLYihJWYOC/FuOUemY10/Z4f98WjDXUFDoG+7ElwYgAESAC1U9AU6yIQhHmsSK8qLvKVTRWZGuGH/oEecKqArEipiz2I7RoNIu/mIGgvk4oVMRfjCmZc0nsRl8WN/IKfp7VG03Mn+DB5f/hxOMA9Aks5aKzXXs7ONik43RCFoo72wvfdTrb65Gp+leDeiQCNU+gctpczcvzzEZoYCLGgfFtmcVX9bZXOrw2a6+ZRFzOTUKf0GLPsYi9OlZfsyqeN0XX/1zCP1W8mi4jAkSACBABzQQULnIKRVhdAeZXVTxWZBwmXM9AgcQSTUPGYuVSHbEiPPaDxV+MGc/iLxa7wN65Hbqw+IsEhZjy2A1M43Ej4cgsbgRpi24YPu8r9FGdiq52khZ4bdqr+OVdH9i+bYqQT05jx+iSeBSN/eqTSTNCqiUCBk1AVMyKQUv4lMKFhITgcPhyZS/FU1V+Jj9l33S5YRIQLTutFCw4djLi4uIMU1CSiggQgVojoLhPqH4nPHgkwysrz+L41A5ljB18O2VtsSL8CWHwF3/j1zEBcLasVAh0rc3d2AbWtNbGxoDmq5mA0VqCNeOgWiJABIgAETBWAhQrYqwrT/M2VgKkBBvrytO8iQARIAJEoAwBihWhDwQRMC4CpAQb13rTbIkAESACREALgfoTK6JlglRNBIhAGQKkBNMHgggQASJABIiAnICYRUU3NFU4RhAWIkAE6jMBo1WCeaDD8LUXcSMtt8Lru5slQ5daqSdlrPDl1JAIEAEiQASIABEgAkTAQAgYrRKc/aRAUIAPT2pXZimEVBkqCTMUqTNKrANiYS/5jh5WZZePJSefGTASop/OYmlQLSI1FDkM5MNNYhABIkAEiAARIAJEQBsBzXs2amtdj+qL5HNpYCpmj75KDwv2t4WZRHnwrTP5wdvsupCGCVuuYuWf98qSkHihf3QU+j/LTS9kR/Fu81Z473hBqSy1IUc9+kzQVIgAESACRIAIEAHjIVCLZsu6BZkrwPN/vyVsmZn0MK+s8GIpnhs2rPYnZChy1D4JkoAIEAEiQASIABEgAjoJGK0lWHW/dJ2E2ElVBZjvGDTvZc+yl3A3hJZyq2zRHfw6+2W0lNrB1s4Brs1fwKK/1PdLVrm8OBW/zw1FBy8n2FhaQ+rfF9F77kJhqc5P2IE5/QLhbmsFa0dPBI1eh4SiPOyeHInvEq7h2/6+8PRsjqGr76NYKUceLi/tAudBG5Gh3AolD4enNoPP5EPgKrwscTei+wXAzdYS1i4BiFhyCCn1etsUfatM54kAESACZQnksI0wvj12D5EsfiTky9PCwf/mdfwcFSJABOo2AeNVglXW7XF+keDrq6moK8CTnvfQ1ExZJzv2KaZu90bMuRQ8zEjG5b1LEdpYouOaYli0HoVVx24hPesuDs2wxtq3ZmJ7Jrsk/yQWDRiJfb4LcfRuFh7ePo7vRraBpcgcry5fi1Gevnh727X/Z+9M4Jussr//S9IFSmlLd0qBFgqUrZStoggyyDgiUsAKyKajbCMgi4rCQFUEYXAc8Y/byKKvCCLKIgKKOjBQVJQCw74vpUChCy1toaVN07z3pk1I0yRd6JI0v/v5PDS56znf+5Cc3Oece5GQcAZrnw7Unf1elFRo9eQwtN69Dt+nF1u2d37Duu+UGPzU/XBVH8bimLHY2WEJ9idnIXnvfASsHYMXvkmtyG8DKzqxiARIgATsm8D+y9kYvuqEcH9LwumUHOTka3SXfC3zZJmsY/9Jjb0zw9F+djyMnOvsXy1qQALlIODwRrCMgZu66Sxe2HgOey5Iy/NuMjaA+4sV4Nni7Hb5IZh22/LKrsLFBU7ZiThy9ALS1U7wCI1CRJAVzAo/PDhsMDoHukGldEf4qBkY7hOPX46rod63GmtSh+DN+Y8jxE0BZT1/dHygI3zLsXuPMvQJDGu3B+u2Fhm2uXFfYUu9IRje3QXq/V9g1bVovBb7MIJchT90aDRiJ4djx8Y45JTjpmEVEiABEqjLBKRx+/yGs7iWddf1zb+BM4Ia3j0WWZbJOrVuCJuLD6npybEFGWpaZ45XJwhYsc7qhH7lUkIGvqk1hXhl6wX8crHIEDZdAZ73aCiclQoMW3UcmkLLfgNO3WZh1Wuh2PNqP7Twa44eIxZixzUrj820WTiwfBIe7RKGZk2bIyRsMD45n43bt7XQJF9DWuMWaO5aLjVKVlI2w5DhnbD3661ILryN/677Hp4xw9FFfIZrrl1BUvq3eD4yHOHh8mqLPy0+Dpf8bNyyrFolhGATEiABErAvAtLNYZ6I/9Aa7RIkNTiXBXw3LqKEMrKOrHvPrhEaDTT2hYnSkkCdIODwRrDYFx3vRLfE/SGeOkN45pYLeGfXZUMQnPQBflMYwML+FVunFc251YVYhRe6jX8fW/YnIvXctxiT+yGeXbAL+RZul4KjSzDujasYtGo/Lly+hIRzWzApTKkbShUQBN/rF5FoobFC1rJotCoRPGg4uu77Gt+d+Rlf/eCHJ4dFQEZCqvwbI7DJKHx+5BROnSq+LlzF1Y1/RYBV5SwowWwSIAESqCMEvtifXGIFuCy15IqwbGMumY/pEDXVuzG1ZUeMfWsmontEIrzry9glPuctxmpYjB2xEB8ih7AY96FF9oEPMCIyEJ6NgtAheiH23LD4RXJXrUrIYI4J80jAlgg4rBFs/F/eRaXAv4wM4a/+l6LbBaKEASxmTWvZ4jTMqfrkdnz9WwKyhXOVs4c/AjxdhZuDyshft+T0a29lI8ctGK1DvISBWojUHSuw/kzRmoBz1EiM9N2E19/4AYm5YvS8VBzbewxpUnhlI/h4puNiQpZFqRSNozH8vgNY8cK7+DF4KIa2K/JNdo4agzGe6zB3wc9IzBGdaXKRcmIHvo+nT7At/eekLCRAAjVPYPf5mxUeNO6CmTYWYzqKuy84jR8OtsOS3Ydw6tC7eFhhLVbDUuyIhfgQa3EfuXsQO2IB0p/Zjss3ErFzeg42rE80BGNbVr6CMljuiCUkYDMEHNYINp0BY0NYlpkawDJPbzjL1WNLSZt1FKum9EGojye8AqMwP/MZLJ/TC3c9yUq2dL5vKhb1P4pJXTrjwb6PYPxWP9wfXrxznUs3zN24HH2Oz0RUgAe8mnTH2E+PFrksqNrgqRkDcP7FlvDy8sfAFUmljWGFPx4f3hOnd/yBFsOeRGt9fJ5LF8zZtBJ9T8xGz2APsetEKHo+9xHi0624bVhSmPkkQAIkUIcIXMk02QKzHLqV2jZTtCkzpkMZiMGTR6Glzt1NYT1Ww0rsiDnxrMV9ZO5bj835MZg1KRIeSif4952Naf3qmeumZF4FZSi7Q9Yggdon4PD7BEu3L71RqzeEvz6UgpFdAopcIIzm6K6LmIkV7NwDb588UVxzJrYenFn+mVU1wxNL4/BEiRbzDO9cQgfjH1vFVapHFVqM/BQHxHU3BRnJIXMV8BvzLTLHlGoMp6b98fp6cZUuYg4JkAAJkEAxgXpOSqTkqXB4WvsKMSmK6ehkOaZD6Q0/n7vrUEWxGjtFrEYcXPQjiTgNl0gRq1GYhVMrZ2HOxz/hRKoaSlUBspK1GCZiR8wla31lpaYgo3FXBBu+/RugWXNflLkiJuNXVpRfBnNyMY8EbI2AwxrBejM2X/gBG7n76uYnJsIPeQWFd1dWhfWrEJZyQvodXbm1lWBbm2DKQwIkQAIkUH4CTb1cdduguQo3udR8J+yfURQM1/qdIwjzMN+PbGOajGM62tY3LZXvSy6m6GM1PjuyBL0MVnBRu4Ij8/CoiB2Z8ON+bO0gXOcKDmJu52ikFndrGh9irS/17oPwzkjFDfHgr5Xu6aAaaak3UdjUnIx38/TxK+WVwXpvLCUB2yDgsEZww3oquLuq0Ov9/xUbtQrdX/mxpPsr/tG9Ln4vpytXRA171XeCp2vFsBUmLMOTf16Ig6Y7qzl3wd9/Xo8JNXncsm3cd5SCBEiABGySQO8WXvAS3w/z/hIKX3dnDP38OC6KBRAPYTCm3DYvsmxjmopiOsTTtjeGoO0bj6KpMg3HDyYjsEcH+JpWFu+LYjUeF7Eaj+GLWf3QzPUOUk7/hv23I9BPbT525CHZT3F8yCEZH3Kft+47y1pf/bvHYGDhOKz4UbjZPe4HzfnVWL49E9rxZoQyyrIUv2JJBuu9sZQEbINAxaw525C5SqSQj7h2Pt9JrPiaf5xkabXXRaUs5SZRlkDKkAnYeHZCWdVYTgIkQAIkUMsExnQLwOQNWZgi9o8/l5ZbpjSNPVwh25RKxTEd+S/ImI5hyHXxQfiQRVh3n3kjGMWxGpghYzWeQKa2AQLa9MToeR+hfz8ZOzJaFzviF+wD3/Y978aOFMeHbJDxIROd0fudQ2Irt6K4D7N9ufXG/NVTMP75Xui8MBDe/p3RQ+yBn1BKgZIZRfErFZEhyGStu4wBWEwCtUBAIfY5NG8F1oIw1TFk7969seeJpYautdMjq2MY9mlDBBTvHTJI02vjVMTFxdmQdBSFBEjAFgjoPyfMfSfoD8so6+tRPjH8OKYVujVtaAsqUQYLBKzNtYUmzHYQAmX6wjsIB6pJAiRAAiRAAjoC0qiVxq1c5bWUZBkNYEt0mE8C9kHAYd0h7GN6KCUJkAAJkEBtEJCG8Lqn2+kOwpB7B+u3TpNBcNIHWLpAuDnXrXUkxq/Uxp3GMWuTAI3g2qTPsUmABEiABGyWgDRyJ97fWHc5QmL8iiPMMnU0JlC3fsZybkmABEiABEiABEiABEigHAQcdiU4X6PF6DUnceFG2dG/eo7bxnVEQEOTDRzLAZlVSIAESIAESIAESIAEbIuAwxrB2XcKdAbwnimdS8yIbqsMow0z9FtnKEUUcH3xaGz/lWx0CzaJBFb/jlcinoPi8yNYHHWvSNXYO7Mjxjl9gcOLusNqb1U6rrUbswIyWeuGZSRAAiRAAiRAAiRgIwQc1h1CHJajS/WEYSuNW/0lfcDcXFSGq4F4LS9ZvvXEDUxafxbLf79WcvpUoRgcOxeDbfXQC/WveLF1O7y6r8BGbjuKQQIkQAIkQAIkQAK1S8DqQmPtimZbo0sD+M2fLqFQrBJfvplXUjhlAB4YOdK2BKY0JEACJEACJEACJEACFgk47EowKnBEiLEB/Gi4N+Y9GlISqHRLaFu80lp4Fd/PfhRtAxrBq5EPGrf+E976w/S8ZOPmWmQf+AAjIgPh2SgIHaIXYs+NksKpE7chdlAEgrzc4REYgZhFu5FqRn7z9fKwbeoorEw4h08GhyEkpDVGrLquU998fSlb2TJZvKNYQAIkQAJ1hECOuhCf7L2GUSJ+pPeHh3SXfC3zZBkTCZCAfRNwXCPYaN5u5xfqfH3NJVMDeMqDweaqGfLUe/+F6ZtbYMnRVNzMSMbpHxdjYFNx6LyllLsHsSMWIP2Z7bh8IxE7p+dgw/pEGD5e1YexOGYsdnZYgv3JWUjeOx8Ba8fghW9SS9rxFutl4bGlazA2JAwTvz2HhIQzWPt0IBQW64t+y5LJki7MJwESIIE6QkCeGjd81Qnh/paE0yk5yMnX6C75WubJMlmn5pKMzQhH+9nxqH7Htpocq+YIciQSMCXg8EawjIGbKs6If2HjOey5kFmCj7EB3F+sAM8W56vLD8G025ZXdhUuLnDKTsSRoxeQrnaCR2gUIoIsY1bvW4/N+TGYNSkSHkon+PedjWn96hnkUO//AquuReO12IcR5Cp8l0OjETs5HDs2xiHHSNry1tM3sVY/swyZTG8ivicBEiCBukRAf2zytay7rm/+DZwR1NDZoKYse37D2Ro2hMtJ2RbiQGxBhnLiYjXHJWDZOnMgJjLwTa0pxCtbL+CXi0WGsOkK8LxHQ+GsVGDYquPQFJrxRSjm5dRtFla9Foo9r/ZDC7/m6DFiIXZcs/zYTJOWgozGIQg2eGc3QLPmvtBPjObaFSSlf4vnI8MRHi6vtvjT4uNwyc/GLSMxyltPP63W6melWpfJgW4NqkoCJOBgBKSbwzwR/6E12iVIIjiXBXw3LqIEDVlH1qVrhIPdJFS3zhBweCNY7HyGd6Jb4v4QT50hPHPLBbyz67IhCE76AL8pDGBh/0pXWV2SLy0mhRe6jX8fW/YnIvXctxiT+yGeXbAL+RYaqHz94Z2Riht3/R+QlnrT4A6h8m+MwCaj8PmRUzh1qvi6cBVXN/4VAUaClFVPIYU3Mpqt1W/sZ10mC6owmwRIgATsnoA8Jtl4BbgshWRd2aZUytuEkd5/wgeX9R/uavwyoxU6xR4scmdQ78bUFh3wzGtTMfChnujeLhw9/roCRw2P+MqIzdCm4afXB6JrqB883T0Q0OFxxG5PEt8dNRgHUgkZSnFiBgnUIgGHNYKN13JdVAr8y8gQ/up/KbpdIEoYwGKStOWIplOf3I6vf0tAtnDacvbwR4CnK1RKlUXD2bl7DAYWbsKKH1N1hq/6/Gos355pGMk5agzGeK7D3AU/IzFHSK3JRcqJHfg+vqRPsNV6ykbw8UzHxYSscvXrVIZMtXi/cmgSIAESqFYCu8/frHD/cRcq3kY3iOY0fjzWFR/851fEH/kJU27Px6i34osWTcqMzdDCrf1YrNh7CelZSdg90wNrnn0FmzNdMaDG4kAqKEOFybIBCVQvAYc1gk2xGhvCsszUAJZ5esNZrh5bStqso1g1pQ9CfTzhFRiF+ZnPYPmcXrjrSWbS0q035q+eguzXe6HzA33wyEsnESF8jw2hdC5dMGfTSvQ9MRs9gz3g4RuKns99hPh0ExcLa/VUbfDUjAE4/2JLeHn5Y+CKJGit1S9LJkvKM58ESIAE7JzAlUyTLTDLoU+pbTPL0UZXReGP6L89hebyC8KpGYb9bQAyv92Iw2IRpax4ESj88OCwwegc6CYWWtwRPmoGhvvE45fj5mNWqiUOpIIylBcL65FATRFw+H2CpduX3qjVG8JfH0rByC4BRS4QRjNx10XMxAp27oG3T54orjkTWw/OrMD8KeARNQ3rDkwzarMEi4zeOTXtj9fXi6tUrwFG44rPUIv1gBYjP8UBcRkna/XLkqmUKMwgARIggTpIoJ6TEil5Khye1r7qtVP6wN/37u5BSuEe10jsEpQm1jiK4kW6WowXgTYLB1bMwpyPf8KJVDWUqgJkJWsx7Lbxc867IhfFgewU8SVxcNFni9gSl8hsFMWBWBnLkuYVlMFSN8wngdoi4LBGsN6MzRd+wEbuvrp5iInwQ15B4V3nB2H9KoSlnJB+R1dubSW4tiaS45IACZAACdw7gaZerrpt0FyFm1xqvhP2zygKhmv9zhGEeZjvX7YpnVzg4lIAtWFhthDZmbdQ6G5Us/A6Ll0WK89dir6K8y9fQrJ3IHzFM1rjeJFWOjtZXRQv0rSofcHRJRj3xlVM+HE/tnbwglPBQcztHI3U4u4txYF8dmQJehms4KLK6t0HDbEp5sYqrVvlZLDUD/NJoLYIOKwR3LCeCu6uKvR6/3/FRq1C91caxLq/4h/d6+L3coJyRdSwV30neLpWDFthwjI8+eeFOGj6lMq5C/7+83pMsNXjlmvrruS4JEACJFBLBHq38IKX+H6Y95dQ+Lo7Y+jnx3FRLIB4CEM05bZ5oWSbUsm5LTq1Poudu5JEAFwwNBfXYvkP6dCOM6opVlK3LXkHe3vNxX2K/Xj37S3wGfQ9OomvmKJ4kXEiXmQmoh73g0YfLzK+qL32VjZy3ILROkQYwCKiJHXHCqw/o8FDsrg4DuSQjAO5z1v3PVYUN/K4iC95DF/M6odmrneQcvo37L8dgf66OBDLY5XSrTijojJY6of5JFBbBCpmzdWWlNUwrnzEtfP5TmLF1/yjI0urvS4qZSk3ibLEU4ZMwMazE8qqxnISIAESIIFaJjCmWwAmb8jCFLF//Lm03DKlaezhCtmmVFKGYuzbL2HXuN7o8FEg/Jv3wUN9gnHOuKJTGwwfmIc3ewbj92vCbS36LayZG1XkrlAcmzH+eREvsjAQ3v6d0UPEiyQUt3e+byoW9R+NSV06wy/YB77te+L+8OKv9OI4kA0yDmSiM3q/c0hs71YUX4IZMr7kCWRqGyCgTU+MnvcR+pcxVindKi1DkMUgcUtjMJ8EqpOAQuxzaN4KrM5Ra7Dv3r17Y88TSw0jaqdH1uDoHKo2CCjeO2QYttfGqYiLi6sNMTgmCZCADRPQf06Y+07QH5ZR1tejfGL4cUwrdGvasOKayi3Swqej0cZ4zJNLv0zVRsDaXFfboOzYLghwdwi7mCYKSQIkQAIkUFMEpFErjVu5ymspybJKG8CWOmU+CZBAjRLgz88axc3BSIAESIAE7IGANITXPd1OdxCG3DtYv3WaDIKTPsDSBcLNue6vIzGmxR7uVspYWQI0gitLju1IgARIgATqNAFp5E68v7HuqvLk/BCWnv9flXdb1R0ypqWqibI/WyJQ93/G2hJtykICJEACJEACJEACJGATBLgSXDwNOWL7M/nYSx5/qT/9x9Eee9nEHUkhSIAESIAESIAESKAGCNAIFpBlJPC8ny7hWlbJ4zLlhuny2nriBl5/pHnlIoBrYBLLP4Qae2d2xDinL3B4UXextyQTCZAACZAACZAACTgmAYd3h9BvhWNsAPs3cEZQQ3mYe1GSZc9vOKszlms1qX/Fi63b4dV94mD52kq2IENt6c5xSYAESIAESIAE6gwBhzaCpQuEXAE23QvyXBbExuJFR2XqZ1rWkXVlm3tKGg0099QBG5MACZAACZAACZAACdwrAYc2gqUPsKkLhDWgsq5sYy7lJ3yHOYMi0cSrITx8QxA17kskSHtZbojesiPGvjUT0T0iEd71ZezKF9mJ2xA7KAJBXu7wCIxAzKLdSJXHlmjT8NPrA9E11A+e7h4I6PA4YrcniUMx87Bt6iisTDiHTwaHISSkNUasug7ZxGJfojT7wAcYERkIz0ZB6BC9EHtulONslErIYI4J80iABEjAngnIRY9P9l7DqDUn0fvDQ7pLvpZ597wgYs9gKDsJ1BECDm0Ey70fK5pk4FyplH8Abw15Dj+HLcCvSVm4eWUfVj7XEe7ywHaZCk7jh4PtsGT3IZw69C4eVhzG4pix2NlhCfYnZyF573wErB2DF75JFWarFm7tx2LF3ktIz0rC7pkeWPPsK9ic6YoBS9dgbEgYJn57DgkJZ7D26UAo1Fb6yt2D2BELkP7Mdly+kYid03OwYX2iMKjLShWUoazuWE4CJEACdkZAur8NX3UCy39P0sWG5ORrdJd8LfNkWcVc5GRMRjjaz45HmQ5t6t/xStuacH2rgEx2Nn8UlwTKQ8ChjWD95uflAaWvo985wriNet9qrEkdgjfnP44QNwWU9fzR8YGO8NUbwcpADJ48Ci11hw8poN7/BVZdi8ZrsQ8jyFWJ+qHRiJ0cjh0b45Cj8MODwwajc6AbVEp3hI+ageE+8fjluNqsmNb6yty3HpvzYzBrUiQ8lE7w7zsb0/rVM9tPicwKylB2h6xBAiRAAvZDwG5iRWwhRsMWZLCfW4uS2hgBbhBgNCH1nJRIyVPh8LT2FZomTfI1pDXuhOaWTthUesPP5+7vDc21K0hK34nnI+Pgoh8pPxsukdm4VZiFUytnYc7HP+FEqhpKVQGykrUYdtu8G4O1vrJSU5DRuCuCDbPcAM2a+6LMXz7aLBxYUX4ZKgSLlUmABEjAhglYixU583IEui05YJBeHysiT5ZzhNPjbHjaKBoJVIpAmfZQpXq1k0ZyH2CZXFUKZGmc8csLnSE/5Dr933E8tuyIWS30bYwLVQFB8L1+EYnC19d80i8JF5Wq/BsjsMkofH7kFE6dKr4uXMXVjX+Fz7ElGPfGVQxatR8XLl9CwrktmBSm1Pn+yqSQr4zsYWt9Nfbzh3dGKm4Y/B/USEu9WaY7RMHRislgXmfmkgAJkID9Eai6WJGyYzIsx3OU5Ga+HuNE7O/uosS2RsChjWB5/vt9zRpis/Dflcbv0M+P637le6jUSLlt3v1AtjFNzlEjMdJ3E15/4wck5gqv3rxUHNt7DGnmF2/hHDUGYzzXYe6Cn5GYIyppcpFyYge+j09F4a1s5LgFo3WIl9jHtxCpO1Zg/Zni/SSUjeDjmY6LCVkGO9haX07dYzCwcBNW/Cj6FUKrz6/G8u2Zxja0qSq699oKymC2E2aSAAmQgB0SqLJYkbJiMqzFcxhzs1gvC48xmAs4aAAAIABJREFUTsQO7zCKbEsEHNoIHtMtQET4ajFl01md8Xsx/Y7VuWns4QrZplRy6Ya5G5ejz/GZiArwgFeT7hj76VHcsmAEw6UL5mxaib4nZqNnsIfYTSIUPZ/7CPHphXC+byoW9T+KSV0648G+j2D8Vj/cH17sz6Bqg6dmDMD5F1vCy8sfA1ckQWulL7j1xvzVU5D9ei90fqAPHnnpJCL6NYeqlAIlMyosQxn9sZgESIAE7IVA1cWKWI/JsBbPkWMEq7z19E2s1WeciL3chZSzpgg4tE+w9OGa3DNIdxBGWUmhUOhOjbPk9+USOhj/2Cou046UD2Hp+f+Z5sKpaX+8vl5cpUqAJ5bG4YkS+fMM71qM/BQHxGWcrPXlETUN6w5MM6q+BIvMjFkiS9WswjKU1SXLSYAESMAeCVQ6ViTNekyGtXgO4wUU6/UCSyG1Vp9xIqVwMcPBCTi0ESznvlvThvg4ppXZY5P194ZcAa4bxyY7+N1O9UmABEigDAIy7kNugyZjRVLznbB/RtHBSa3fOYIwD/ONzcaK+N6NyWile/xWHJPRtKgPfTzHZ0eWoJchQrq4f7FFmj5Zr/erxTgRc/2qdx80xImYk8m8dmKXz+I4kQk/7sfWDsJVr+Ag5naORmpxA9NYFUv9MJ8EbI2AwxvBckKkISyje2VAhPQH0z8Okx9s0gdYukBYWgG2tQktrzyFCcvw5J8X4qCp67NzF/z95/WYEOLQnjLlxWh39RTvHbI7mSmw/RLQTo+0O+HlZ75XPRXm/SUUvu7OulgR6SrnIQzZlNvm1TEbK6KLyRgnYjKEm9zjftDoYzLGF/VRFM/xuIgNeQxfzOqHZq53kHL6N+y/HYH+Rtis1utSFCdySMaJ3OctDGIUx5xY6LcMmcxrZzlO5CHZoDhWxVgGS/0wnwRsjQCN4OIZkUbuxPsb6y5HSMqQCdh4doIjqEodSYAESKDcBOSix+QNWbpYkXNpuWW2sxgrUhyTMf55EZOxMBDe/p3RQ8RkJOh7LI7nwAwZG/IEMrUNENCmJ0bP+wj9jUe1Vq84TmSDjBOZ6Ize7xzCd+OKYk7M9luWTBa0LYoTGa2LVfEL9oFv+56lYlVKyhCkM8iZSMDWCSjEPoeWwrdsXfZyyde7d2/seWKpoa49rkyUS1FWMhAwXu3stXEq4uLiSKeYgIHNjM5kQgLVR2BJURyELX/e6v8vmJNRf1hGWV+PMlZEutPJp4lMtkvA2lzbrtSUrCYI8Jl3TVDmGCRAAiRAAnZDQB8rIld5LSVZRgPYEh3mk4B9EKA7hH3ME6UkARIgARKoIgJpuQVl9uRosSKMEynzlmCFOkiARnAdnFSqRAIkQAIkYJlAbkH5vAAdKVaEcSKW7xeW1F0CdIeou3NLzUiABEiABEwIpOQUYNj3CeRCAiRAAuJkXiYdgRx1oW6LtLgLN3H5Zp4ury5vkcZpJwG7IPC22C/V2bJfZikdZMCfTxPgxtVSRcwgAXWhFtsuZuGXYWFw+r/DBEICJODgBLgSLG4AGQk8fNUJLP89SbdJek6+RnfJ1zJPlsk6NZfU2DszHO1nx6Nsz7V7laomx7pXWdneoQhU1ACWcOSuBPZoADv3xLtnTmBxFNclqvMez7ijQUJWPlRiVwcmEiABEnD4T1xzW+H4N3CGk/h5kJRddJLEtaw83dHKNhkJrP4VL7YfD+fVR2rvC9QWZOD/5bpHoCIrwBXRXqWCSqOBpiJtWNfuCVy/rcbsX6/h00ealdCFB8jY/dRSARKoNAGHXgmWLhDzfroE070gz2VBbDhedFSmnqysI+vKNkwkQAI1Q2Bcj2CYu+TolvJLSeb8EJaeP4qVc/6J734/hFMH3kEfcUytc7MBmL/5CJJu3kLW9SPYMPsh+OkWCBVo2HUK1h66jpvpV3Fs8+t49dPTOL6oe5H/mOsQfJn+X0xpqv/4dMaDS87i8PwuBv8yi30rm+CxRdtxMjkDNzNu4NqZ/2LOfe4YsHQNxoaEYeK355CQcAZrnw6Ewmxd51LqMaN8BBo4q/Bs+6JT1crXgrVIgATqOgGHXgmWPsBylbe8SdaVbUqdKpe3CSMbL8UDh3cUfzGq8cuMdpjsvg4H5BejejemtpmMzNF9kb77AK6n3oAq6mUs/2gcOrrJ0bXIPvAhJoxdgO8vKdG010Q87SuilwOKJdOm4ac3nsXsVb/jXGoe6oX0xoR3lmHeoz74YeoorExIgmJwGNa5uOD+N+PwpfgCLUjchjdfmI2Vuy/gVr0W+PO09/HvWfJLvoyxLMGohAx84GgJJvOrgsDtAg0aOImzbMuTnNqgf5d30euhmTifJ+5M506Yu2El+v40Ct2G/RcZQQPxr81f4P3zXTFiS1vMXzsHnh88gqYfnEC93vPx3ebmUH5UnoFEHdH3qxb6fvrqS3hv0AVM7fg4tqcAHqFdEJKXgyPy//HDy6EeHYFX9xU5QTn3fNdMXa5fl3MWSlS7KFwgRohguN+fam3IN3dIRmX6ZhsSIAH7JeDQK8G7z9+s8MzJwLlKJc1p/HisKz74z6+IP/ITptyej1FvxSNfdpa7B7EjFiD9me24fCMRO6fnYMP6RNxdc9bCrf1YrNh7CelZSdg90wNrnn0FmzNdza8gqQ9jccxY7OywBPuTs5C8dz4C1o7BC9+kQlvmWJa0q6AMlrphPglUEYFyG8ByvMLr+PbDNcIAlm+0cO42Bk83/g5vzt+BpLxC5F78DvM/PIWHn+gNz6gnMcjpa/zj30eQXViA1F3/wHs/5ZRbamt918/PR0HDZojo2ALezgXIurgPR5LMP13SVqBuuYVzwIoiFg5yX+D/xIQ5oPZUmQRIwBoBh14JvpJZ/lVgPUT9zhHWoJotU/gj+m9PobnuaWYzDPvbAMyZuhGH53VH5L712Jwfg08nRcJD/Czx6Dsb0/otw3x9Rwo/PDhssKHb8FEzMPyfo/HLcTWGdC89mnr/F1h1LRrvxz6MIBlYHxqN2MkfImJjHDIDdlsfq3R3RTkVlMFSN8wngYoQWPH7FYvVrZWValSYjtQbd41NVeNgBHn3xceHehf9EJUNXBoi/1BDePj5o1HyAVwzLLrm4OqVG0Y/Skv1XiLDWt/1DvwDT785H68v/g/+HqbFqR8+wZwX/4EdaaX7LNhvoe4180Zz6R6YIwnIQLj3/peKNY82JxASIAESKEHAoY1g03uhnoiGS8lT4fC09qZF9/5e6QN/37uPbpW+4otWrPqmie8zTVoKMhp3RbBhNhqgWXNfGJbptVk4sGIW5nz8E06kqqFUiRWkZC2G3Ta/4bvm2hUkpe/E85FxEK6PRSk/Gy6R2chKLWMsS5pWUAZL3TCfBCpEQG55Zi7JXSDMlcl8s6nk/xVNyjVcv7oGz0bMwB7d45i7yfmhLsgICEZj8d/1rM4Qro+gJj5QntfXyUd+vhOcDe65SjT0dIfyVlG5tb5ljeTlL2CguJx9O2PCiq34bO7vCJueJ9anhZuGsQ+R9ib2m6s7eeddw91Ibr4sTeBmngbfnL1JA7g0GuaQAAkIAg7tDiH3AZbJVaVAlsYZv7zQGWdejkCn/zuOx5YdMXuD6NuULHSBi0sB1EWbSYiiQmRn3iq5ciQex166fHflOf/yJSR7B8BXzIBKGMTeGam4u1ClRlrqTUP7gqNLMO6Nqxi0aj8uiHYJ57ZgUphSfGkWJYV8ZfQdr/JvjMAmo/D5kVM4dar4unAVVzf+FY3FKpe1scwqLTIrKoOlfphPAlVGwN2r0l2p932BLzKHY8HcP6OZm7A8VfXh3+5hPNbdDwXxG/CdZihemdAB7goVfHu/iul/0TnvFyX1SRw+0wp9+wRB/qx1CR2B8f3vBlxZ69ul7aMY9kAIGoofvOqsFCSLp1GaQg20hRm4kemN0BAPgx3sbKlupbV2vIZ5Gi3863Otx/FmnhqTQPkIOLQR3LuFF+5r1hCbn+uoM36Hfn4c3ZYcgIdKjRSxnY65JNuUSs5t0an1WezclaTbdin/4los/yHd2C4VRmoWti15B3vTNSjM+APvvr0FPoOGoJP4fHbuHoOBhZuw4sdUneGrPr8ay7dnGtprb2Ujxy0YrUO8RPR5IVJ3rMD6M8XPapWN4OOZjosJWYb6zlFjMMZzHeYu+BmJOcI61uQi5cQOfB+fCqcyxiqlW3FGRWWw1A/zSaDcBMSOLFbTrUr658tO8w/irSHCb77dIvx6JQtZaRfx66eT0N1bfCTmxCF21GLcnrADV8XTml0v52Pzhkt3f9QWXsTKV/6FwhfjcGz/b/j5ndY4tuvK3XIrfSs8OuLpD3bh4o1M3Ly+D7Gen2P8W3ugFjEDXy3ZhpbvnsfNmynYMi4ISkt1rUJhoZ7A8Rt3MOW/V3Q7QjCRAAmQgDkCCrH1VxnfNOaa2U9e7969seeJpQaBjSOC5XZnk8X+v7lqDc6l5ZapVGMPV6x7uh3kefIlkxZZv7+DMeM+xpl6gfBv3gcPuazDt2Hf4KB+d4jwqVBPGoCEFZ/h92tAi+g38OnHE9GpgexJtN+3FOOf/xinXAPh7d8ZPeptxXehX+Kw3JZJk4iNM0Zj9vZs+AX7wLd9TzSK+xQu75zHJ39W4cKX4zF05iacu+2M3u8cEtu7BUFz+Qe8NSMWK3aeRqa2AQLa9MToeR/htb/4I9vaWJYoVEKG2todwnjfz14bpyIuLs6SVg6Xb2BjzpXAFmlYdG+wIGy16OWM+/95FCsKxqBTjRxgY0E3e8ounrfa2oFBfqkli4WMrPxCtG5UgRMH7YkxZSUBErhnAg5tBEt65g7LMEdVIU4YqvRhGXKLtPDpaLQxHvPk0i9TtRKgEWwZr90ZwZZVqcESGsEVhl3LRvCh1Fz8XRyM8f3gFhUWnQ1IgAQch4DpkqbjaF6sabemDXXGrVzltZRkWaUNYEudMp8ESIAESKDKCdwST/iu3lJj6yAawFUOlx2SQB0jwGVJMaHSEJZuDvIgDLl3sH7rNBkEJ32Ax3QLMOMCUcfuBKFOYcIyPPnnhTho6g7t3AV//3k9JoQ4/G+mujfp1KgcBNTYOzMc1bBnTDnGZpWKEriSnY/45BwMCPWoaFPWJwEScDACNIKLJ1z6+cqT4EqdBlcVN4Tu2FZLWzdVxQBV04cyZAI2np1QNZ2xFxIgARKoYQJnb+Zh9akMLHigcQ2PzOFIgATskQCX9uxx1igzCZAACZBAKQKeLir0CXYvlc8MEiABEjBHgEawOSrMIwESIAESsCsCu67c0m2J1k9se8lEAiRAAuUhQHeI8lBiHRKoawQquvVYXdOf+tQpAncKChHs7oyP+gbXKb2oDAmQQPUSoBFcvXzZOwnYJIHa2r/VJmFQqConYLxNYZV3bqbDAym5+PxEOpb1a2qmlFkkQAIkYJ4A3SHMc2EuCZAACZCAHRBIFLtBJGTl0wC2g7miiCRgawS4Elw8I/L0OLlFWtyFm7gsIoxlcrQt0mzt5qQ8JEACJFAWAfnZranbB5+WhYDlJEAClSTAlWABTp4aN3zVCSz/PQmnU3KQk6/RXfK1zJNlsk75U/G+ouU5YlX9O15p2w6v7isof/eVqlkBmSrVPxuRAAmQQM0S2C2C4T49no6n23rX7MAcjQRIoE4QcHgjWH9s8rWsotVfOav+DZwR1NDZMMGy7PkNZytoCFfx/aH+FS+2rglj2YrctiCDFfFYRAIk4DgE1IVatPeph6fb0QB2nFmnpiRQtQQc2h1CPkab99MlaE0epZ3LAs68HIFuSw4YaMs6sq48WU4erMFEAnWFwDnh/tPm85MQNkWFkotKgTPPtEVzD5cKtWNlEqgKAj8kZGHD2Ux8/pdmVdEd+yABEnBAAg5tzUkfYOMV4LLmX9aVbUonLbIPfIARkYHwbBSEDtELsedGSYtCnbgNsYMiEOTlDo/ACMQs2o1UM0aH+Xp52DZ1FFYmnMMng8MQEtIaI1Zdh2xuvr6UsGyZSushm6Xhp9cHomuoHzzdPRDQ4XHEbk9CISzLYLYfZtoNgcoYwFK5fI0WIZ+eKKln3iaMbKiEwrUX3rtYaIZBAeJnh8NZ4YRmL+yC6QndZhowiwRKEUjOKUBTdxcGw5UiwwwSIIGKEHBoI3j3+ZsVYaWrKwPnSqXcPYgdsQDpz2zH5RuJ2Dk9BxvWJwrDsTipD2NxzFjs7LAE+5OzkLx3PgLWjsEL36TqDFlDslgvC48tXYOxIWGY+O05JCScwdqnA6GwWF/0W5ZMpZTQZ2jh1n4sVuy9hPSsJOye6YE1z76CzZmuGGBOBov9sMBeCJiuADcVrkAfi/1WP3ukGTqIx836lD05ApmTOiJ1YgekiOuPp1qXVlHpjbDu9+G+qHYIvNu0dD3mkMA9EDiZfgc/XsqCq3gawUQCJEAClSXg0O4QVzLv+gGXF6B+5wjj+up967E5PwafToqEh/hZ4dF3Nqb1W4b5xZXU+7/AqmvReD/2YQS5iszQaMRO/hARG+OQM6SJoSvr9QJLiWitfmbAbqsylepMn6Hww4PDBhuKw0fNwPB/jsYvx9UY0t1iKxbUEQJKYVPsiAlDKy95owKDWnqipVjtzcjToOGHR8rW0vkhvLlzL94suyZrkEClCPxxPQcXMvMxq3tApdqzEQmQAAnoCTi0EWx6G9RzUiIlT4XD09qbFll9r0lLQUbjrgg20GyAZs19oV9m11y7gqT0nXg+Mg4G78n8bLhEZuOW0VKw9XqljWBr9bNSrctkUSFtFg6smIU5H/+EE6lqKFUFyErWYthtM74bFjthgb0SaOnpajCApQ6NXFWICnQTq27ZcBe+8CppJYuULXZPMV1B1hVIdwjfGKzN74klp3ZjeqgCN+L+gXHP/ws/XlSiZf/peM6H95KOFVOlCPjVd0II/dArxY6NSIAEShJwaCNY7gMst0GTj9RS852wf0aEjk7rd44gzMP8rSLbmCaVrz+8M1JxQ/g/tFLJUjXSUm+isPjwIpV/YwQ2GYXPjixBL9MYIrFFmj5Zr/crFNJ5wsh+sFZfvfugVZlMddC/Lzi6BOPeuIoJP+7H1g5ecCo4iLmdo5FaXMFUBkv9MN8+CVwSBw9cvaVGE3EErUy3RfDoodRc3esjY8IRWmx85Al/4HrvHy5TSe2NTZg6fC6+TVYh6L7B6HTnSyz47Dw0ZbZkBRIoTWDt6QwcTbuDhT0bly5kDgmQAAlUkIBD+wT3buGF+5o1xObnOup2gxj6+XHdjhAeKjVSbpsP2ZFtTJNz9xgMLNyEFT+m6vyA1edXY/n2TIO96hw1BmM812Hugp+RmCOsWE0uUk7swPfxJX2CrdZTNoKPZzouiohovR1srb5TGTKZ6qB/r72VjRy3YLQOEQaw0CZ1xwqsP1NsspiRwVI/zLdPAjLY7dFN57Hh3E3I6PvHvr0AGYQkUwvhFiGPw5VXeQxg2Sb7P2uxJbkQqtBJWPvfr7F66w7885H69gmHUtcqgSzx9KGf+LyeEulbq3JwcBIggbpDwKGN4DHdApCj1mLKprM64/eiCLawlhp7uEK2KZXcemP+6inIfr0XOj/QB4+8dBIR/ZpDtygsk0sXzNm0En1PzEbPYA94+Iai53MfIT7dJHreWj1VGzw1YwDOv9gSXl7+GLgiCVpr9cuSqZQSRRnO903Fov5HMalLZzzY9xGM3+qH+8OLHxiYk8FCP8y2XwLHbtzBk1sTdAZw3NVb96BIITKuJyNP/GpzCmuPcPkQReGNdu0CDa5C99A5mzoYAemS8/b+FASJfdyZSIAESKAqCCjE/rd12kGvd+/e2PPEUgMr7fTIEtz0h2WUhUGhUODjmFbo1rRhVXBnH9VIQK5U6lOvjVMRFxdXjaPZV9d6Nsb/D4x5tfWuh4EtPNBO/HUS/r+nM/Iw/4/rBiX17YzblPg/ZeIT/Ny+4QgesR65HV5D/MF5iHTKxoaRzTF0bRaCp/wH59/vA5o09nUPlUdac/dZedpZqiN/mGXc0eDBJg2EWxgTCZAACVQNAYf2CZYIpVErjVt5EIalPYPlCvDrjzSnAVw19xx7sUECMih09aPNEBNW2t1HbwRLY9fYuDE2hC2p1PDh4RjgvxFfHV+K8eNVeNI/Hss23hQuPQ79EMoSLuZbIJB+pwDXbxfQALbAh9kkQAKVI8BvIsFNGsLyJLjxPYLQ2s8Nbi4q3dXG302XJ8vq0gpwYcIyPNEqRBy6YXK1egLLEswdcFC5m4ut7IfA6PBGZg3ge9VAIXaKeP+reRjYWomja5dgxcEwjHiixV1XoXsdgO3rPIGvz9zEGfFEYljr0j/Q6rzyVJAESKBaCTj8SrCerjwKeeL9jXVXXU/KkAnYeHZCXVeT+lWAwM7L2boAOI3wjlIJ158G4v+DRuyBlm+0D5pc+TXnDlFiGNch+DK7EF8aZfr2mYvvTs41ylmCBcYVKiAnqzoWARmoKV0gMsU+1UwkQAIkUNUEaARXNVH2RwJ2SEAePhC47FiZkhsbwmVWZgUSuEcCy47dEL7ABYi9r/Q+6ffYNZuTAAmQAB3zeA+QgKMTyHi+Y7kRmAaWlrshK5JABQkkij2rnwjzxEtd/SvYktVJgARIoHwE6vxKsOnOAOUJ5ikfOtutZclQcQTd5ayU0H86d4Yo6071EqfCWbpnZNtQsT9wQla+rhvTe4gnd5VFl+WVJbDn6m3cFG4QkztxX+DKMmQ7EiAB6wTqtBEstzUzTmVtg2YdlX2VOrLucqYcXf+qvFsvPteuKrtjXyRQJgG5J3BgAyeMEgGbTCRAAiRQXQTqtBFcXdDYLwmQAAmQQPURaOiipK9e9eFlzyRAAsUEHM4Ilocn1PlkwQXAIXSXk2tB/zo/71SQBOoAAXkqnF99Jzzb3rsOaEMVSIAEbJlAnT4xzpEfiTuy7vI/nKPrb+lDx9Sn11I95pNAVRCw5mturv90cSqc3KZPnmPq7+ZwazTmkDCPBEigGgnU6U8ZR/IBNr1HHFl3ycLR9Te9H0zfV9Q4MW3P9yRgjUBlf2wtO5qm26P6hUg/a92zjARIgASqhECdNoKrhBA7IQESIAESqHYCB1Jy8GQrL7TwdK32sTgACZAACUgCPDaZ9wEJkAAJkECtEziZnofT4nhkZclNfWpdLgpAAiRQdwnQCK67c0vNSIAESMAuCCw7ekMXDDcg1MMu5KWQJEACdYMA3SHqxjxSCxIgARKwSwIFhVp0D3CDpzi0hYkESIAEapIAV4JrkjbHIgESIAESKEFg5p4knEy/I3yBXUiGBEiABGqUAI3gGsXNwUjAAQmof8crbdvh1X0F5pUvq9x8K+bWAQIXMvMxJyoAg8M864A2VIEESMDeCNAItrcZo7wkYMsE1L/ixdYmBq8qFINj52JwiPi4MVduy/pQtmolsPpUOnZduQU3J34VVStodk4CJGCWAH2CzWJhJgk4FgG3D44gt6AQPiI4KW1iB53y+r1e5cEjhdM6GYB4//sYMu4UoL4wXHKmRJQNShmAB0aOLKqnLrs6azgGgS0XsjCkpRc6+tZzDIWpJQmQgM0R4M9vm5sSCkQCNUtAbwDLUW/kFhiMX70U8uARg0H83iGdASyTNJpLHoqQh21TR2Flwjl8MjgMISGtMWLVdWgN7g63zZebqKtO3IbYQREI8nKHR2AEYhbtRqo4QYypbhHIEfdPoTwajokESIAEaokAjeBaAs9hScBWCEhjViZzp8jJPGv5JctcMWDpGowNCcPEb88hIeEM1j4diLvbvpZVLoRQH8bimLHY2WEJ9idnIXnvfASsHYMXvkkFzSVbuWPuXY5ZvyShkdgNopNf/XvvjD2QAAmQQCUJ0AiuJDg2I4G6REBvzJoavKGfnYS8aiqp93+BVdei8VrswwhyVaJ+aDRiJ4djx8Y45NSUEBynWglk5mkwroMPuge6Ves47JwESIAEyiJAn+CyCLGcBByAQEm3hrsKX3y2re6Nafkf14tMUqXwF+4eUHWreZprV5CUvhPPR8bBsGFWfjZcIrNxSywFN+BpYnZ/N86Iu4rBLT0R3YI7Qtj9ZFIBErBzAjSC7XwCKT4JVBUBuQpsauzq3zuZnGXb46szhmFNV48V0nHBiu+CtXKVf2MENhmFz44sQS9uG1tVU1tr/eTk5OCNDbvwTbILLqsaoVChRBuXXDzahMFwtTYpHJgESMBAgO4QvBlIgAQMfr+bo1uYpXFoVLguv2BaZIny7Mkmu0MoG8HHMx0XE7LM28FllDtHjcEYz3WYu+BnJOYIS1qTi5QTO/B9PH2CzU6MDWfW09zBn/9vCz657o6Wyf/DmLOf45nTn6LJxV8xcftZvLIr0Yalp2gkQAKOQIBGsCPMMnUkASsEjFdyo1t4GAxifVCc/Nvex1XXg0q4IxjnuzubfISo2uCpGQNw/sWW8PLyx8AVSSWN4bLKXbpgzqaV6HtiNnoGe8DDNxQ9n/sI8elFwXtW1GCRjREIyb6IY6rGGHxxA1pmnYOLJg8uhfm619HnvsFnR5Ox9WKWjUlNcUiABByJgEJsf2TlwaUjoaCuJFD3CejdG0xdGOq+5tSwJgnI+ywgNxkd0o/ojF5zKTkoElkd/oydMWHmiplHAiRAAtVOgCvB1Y6YA5AACZCA4xFIrh+A4NuXLSrul3YGe69xzw+LgFhAAiRQ7QRoBFc7Yg5AAiRAAo5HQKkVh6lYedDo7uGBO8V7VDseHWpMAiRgCwRoBNvCLFAGEiABEqhjBBqqs3HZvZlFrTSteqBvU3eL5SwgARIggeomQCO4ugmzfxIgARJwQAK5TvURH/gA7qhK7yPtHtAUWzTN8GIXfwckQ5VJgARshQD3CbaVmaAcJEACJFCHCOQrXdAzyBPbXEbhT9mH0Sj5JLx9fHAnpAu+yQ/GmLbeGBDqUYc0piokQAL2RoBGsL3NGOUlARIgATshsHMUEI9dAAAgAElEQVRYG902aO8d9MZm9+5QiUNXejZogI97+dEAtpM5pJgkUJcJ0Aiuy7NL3UiABEiglgk8LlZ75cVEAiRAArZGgD7BtjYjlIcESIAESIAESIAESKDaCdAIrnbEHIAESIAESIAESIAESMDWCNAItrUZoTwkUKcIqLF3Zjjaz45HQU3ppf4dr7Rth1f3VXLEe21fU3pyHBIgARIggXsiQCP4nvCxMQmQgM0RUIVicOxcDA4px8eb+le82NrEYK5Ie5tTngKRAAmQAAmUlwAD48pLivVIoA4TcPvgCHLF6V0+9Z2QNrGDTlPFe4eK/ioUKJzWyaC997+PIeNOAeo7KZEzJcK2qGg00KgC8MDIkZWXS3mP7Ss/MluSAAmQAAnUIIFyLJXUoDQcigRIoMYJ6A1gOfCN3AKD8asXRCuOvjUYxMIwlgawTNJo1uffFVqL7AMfYERkIDwbBaFD9ELsuaEtoZM6cRtiB0UgyMsdHoERiFm0G6mySuFVfD/7UbQNaASvRj5o3PpPeOsPta5tfsJ3mDMoEk28GsLDNwRR475EQqEoUO/G1JYdMfatmYjuEYnwri9j120jdwhZ3qIDnnltKgY+1BPd24Wjx19X4GiO7DUP26aOwsqEc/hkcBhCQlpjxKrr0Jq4Q9w+9v/wt94t4NOwIXxCe2HCZ0dxWzY3jP0KhvSKQqewFug8ahmO3dGJzEQCJEACJGDjBGgE2/gEUTwSqG4C0piVSTs9stRQMs9afqmy3D2IHbEA6c9sx+Ubidg5PQcb1ieiaATRvfowFseMxc4OS7A/OQvJe+cjYO0YvPBNKvL3/gvTN7fAkqOpuJmRjNM/LsbApiphAR/AW0Oew89hC/BrUhZuXtmHlc91hLuiWNyC0/jhYDss2X0Ipw69i4ddTNTQnMaPx7rig//8ivgjP2HK7fkY9VY88uGKAUvXYGxIGCZ+ew4JCWew9ulA6LvV9ZL7C157ciZO/2UNzmRk4Oza/jj36pOYuye3aBAx9s8nuuD/du7D4RM/YPTluZj1ZTJKmv2lsDKDBEiABEjABgjQCLaBSaAIJFDbBPTGrKlRG/rZScirvEm9bz0258dg1qRIeCid4N93Nqb1q2dort7/BVZdi8ZrsQ8jyFWJ+qHRiJ0cjh0b45Dr4gKn7EQcOXoB6WoneIRGISJICfW+1ViTOgRvzn8cIW4KKOv5o+MDHeGrt1aVgRg8eRRausphSpiwReMq/BH9t6fQ3Fm8dWqGYX8bgMxvN+JwOeLm1Pu+xsacJzHnpfvh4+QE7x4vYe7QO9i47nfo1qiVTfHE32LQTPbt0hL9/tQEpw6frrkgQANZviABEiABEqgoAfoEV5QY65NAHSRQ2q2hSMmLz7bVvTAt/+O6zp8ASuEv3D2gvoGIJi0FGY27ItjwydIAzZr7Qv9rW3PtCpLSd+L5yDgYFmzzs+ESmY07XWdh1WuxmPdqPyw8p0B4/4l4691Z6Jl8DWmNO6G5zsg1k5Te8POx8nte6QN/X7GiXJyUvv5oJFap0+TytBmb2XgEqU96QCc0kUauLjkhuFkgMvanCkM3QADwgKeHvhMFnF2ckJ+fz5VgY4h8TQIkQAI2SoBGsI1ODMUigZomIFeBTY1d/Xsncdytcerx1RnDW+PVY5UwML0zUnFDGJitdHanGmmpN1HYtKi6yr8xApuMwmdHlqCXqduCqBIw/n1sEZc67X9YNu5xPLugB06OCILv9YtIzAfa3rW3jcQpw5ItvI5Ll/OALkUfd/mXLyHZOxC+0m4WfgsK+Y8F/wWdPsmXkSRWjdvq9CnAlcTraBTgJ8xhJhIgARIgAXsmYGX5xJ7VouwkQAIVIaA3ZDdHtzDb7NCocF1+wbSSfsPZk0vuDuHcPQYDCzdhxY+pOj9g9fnVWL4902BjOkeNwRjPdZi74Gck5gjLU5OLlBM78H288Ak+uR1f/5aAbGFwOnv4I8DTFSqlCi5RIzHSdxNef+MHJOZqoc1LxbG9x5BmwXAtpYA2C9uWvIO96RoUZvyBd9/eAp9BQ9BJWrHKRvDxTMfFhCyzdrBz1FAMrr8ei96LR4bYeSIj/j0s/MYVQ4beB8PicKkBmUECJEACJGAPBGgE28MsUUYSqEYCxiu50S08DIFwMl9/tfcp8kVQiUVX43x3Z5OPELfemL96CrJf74XOD/TBIy+dRES/5jA4I7h0wZxNK9H3xGz0DPYQOz2EoudzHyE+vRDarKNYNaUPQn084RUYhfmZz2D5nF7CxaAb5m5cjj7HZyIqwANeTbpj7KdHcau8RrBTGwwfmIc3ewaL3R0GY1PIW1gzN6rIHUPVBk/NGIDzL7aEl5c/Bq5IKmkM1++F+d8sQuiWoWjp5YWWQ79DyMJvsOAht2qcEXZNAiRAAiRQEwQUYvuj8n6V1IQ8HIMESKAaCejdG0wD4KpxyNrtWm5jFj4djTbGY55u6ZepJgg43H1WE1A5BgmQQJUT4EpwlSNlhyRAAiRAAiRAAiRAArZOgEawrc8Q5SMBEiABEiABEiABEqhyAnw+WOVI2SEJkIDNEHB+CEvP/89mxKEgJEACJEACtkOAK8G2MxeUhARIgARIgARIgARIoIYI0AiuIdAchgRIgARIgARIgARIwHYI0Ai2nbmgJCRAAiRAAiRAAiRAAjVEgEZwDYHmMCRAAiRAAiRAAiRAArZDgEaw7cwFJSEBEiABEiABEiABEqghAjSCawg0hyEBEiABEiABEiABErAdAjSCbWcuKAkJkAAJkAAJkAAJkEANEaARXEOgOQwJODQB9a94sXU7vLqvoHwYKlq/fL2yFgmQAAmQAAkYCPCwDN4MJEACcPvgCHILCuFT3wlpEzvoiCjeO1T0V6FA4bROBkre/z6GjDsFqO+kRM6UCNIjARIgARIgAbskwJVgu5w2Ck0CVUdAbwDLHm/kFhiMX/0IWq32rkEsDGNpAMskjWa9oWyQpvAqvp/9KNoGNIJXIx80bv0nvPXHLWybOgorE87hk8FhCAlpjRGrrkOrTcNPrw9E11A/eLp7IKDD44jdnoRC5Jmvn7cJI73/hA8uFxYPp8YvM1qhU+xB6CQyO7baIBpfkAAJkAAJkIAxAa4E834gAQcnII1ZmbTTI0sZtTJPJlNjV59vik6991+YvrkFlh7dikf9gayLB5Hg6oaIpWswdsd4OK8+gsVRxR872lS4tR+LFXvXIcK/EGe/mIDHnn0FXU6txhBz9fNMRyv53vzYKuuNWEoCJEACJOCwBLgS7LBTT8VJ4C4BvVFratyGfnYS8ipvUri4wCk7EUeOXkC62gkeoVGICLLwMaPww4PDBqNzoBtUSneEj5qB4T7x+OV45VZvKzR2eRViPRIgARIggTpLwMK3U53Vl4qRAAmYISBXevWXcfHFZ9tCXqbpj+s5kFd8cm6JIqdus7DqtVDsebUfWvg1R48RC7Hjmt59waQXbRYOLJ+ER7uEoVnT5ggJG4xPzmfj9m2t6XDlel+hscvVIyuRAAmQAAnUZQI0guvy7FI3EqgAAdNVYNlUbxg7KRUleurx1RnIK2rt6ZIjKLzQbfz72LI/EannvsWY3A/x7IJdyJd9QRi3RvZtwdElGPfGVQxatR8XLl9CwrktmBSmNFQxrQ+4wMWlAGrDQnEhsjNvCR/i4mRl7ApgYFUSIAESIAEHIUAj2EEmmmqSgDUCegN4c3QLs9UOjQrX5RdMK/IR1lfKnlxydwj1ye34+rcEZItINWcPfwR4ugpXBxUUykbw8UzHxYQsg5GrvZWNHLdgtA7xgpMwZVN3rMD6M5qirs3Uh3NbdGp9Fjt3JUHWyr+4Fst/SDf0Z3FssxoxkwRIgARIwNEJMDDO0e8A6u/wBIxXgKNbeOgC5GQytzKsEgvC5vL1ELVZR7Fqyt8w6XwGClTuaN57ApYv7gVnlRZPzRiADS+2hNdEZ/R+5xC+e3YqFvUfjUldOsMv2Ae+7Xvi/vDijyRVm9L1x4Vi7NsvYde43ujwUSD8m/fBQ32Cca54cItjO/wMEwAJkAAJkIA5Agqx/VHlHPDM9cY8EiABmyag3+XBmiFr0wpQOLsgwPvMLqaJQpKAwxOgO4TD3wIEQAIkQAIkQAIkQAKOR4BGsOPNOTUmARIgARIgARIgAYcnQCPY4W8BAiABEiABEiABEiABxyNAI9jx5pwakwAJkAAJkAAJkIDDE6AR7PC3AAGQAAmQAAmQAAmQgOMRoBHseHNOjUmABEiABEiABEjA4QnQCHb4W4AASIAESIAESIAESMDxCNAIdrw5p8YkQAIkQAIkQAIk4PAEeGKcw98CBODoBM7dzEObz0+isILH5riI4+POPNMWzT1cHB0h9ScBEiABErBDAlwJtsNJo8gkUJUEKmMAy/HzNVqEfHqiKkW5977Uv+OVtu3w6r4CM32psXdmONrPjoe5UjMNmEUCJEACJFCHCXAluA5PLlUjgfIQMF0BbtrQGX/vHoB6Tkr860AKjt24o+sme3KEWC3W6oxfuWh8MTMf9311pjxD1FwdVSgGx86FIoS/72sOOkciARIgAfskQCPYPueNUpNAtRBQKoAdMWFo5eWq639QS0+0FKu9GXkaNPzwSLWMWeFONRpoVCqozDVUBuCBkSPNlTCPBEiABEiABEoQ4HIJbwgSIAEDgZaergYDWGY2clUhKtBNV+7urISneC8vaSybTXmbMNL7T/jgcmFxsRq/zGiFTrEHi1wQCq/i+9mPom1AI3g18kHj1n/CW3+odXXVidsQOygCQV7u8AiMQMyi3UiVS87q3ZjasiPGvjUT0T0iEd71ZezKNzu6qGvsDqFF9oEPMCIyEJ6NgtAheiH23Kig47OFYZhNAiRAAiRg/wRoBNv/HFIDEqgyApey83H1VpFRKju9rS7EodRcXf9HxoTj5vMddVfOlE6VGlO991+YvrkFlhxNxc2MZJz+cTEGNhVruurDWBwzFjs7LMH+5Cwk752PgLVj8MI3qTrXCxScxg8H22HJ7kM4dehdPFyeWLzcPYgdsQDpz2zH5RuJ2Dk9BxvWJ0JvnldKATYiARIgARKoMwToDlFnppKKkMC9E5D+vo9uOo837g+Em/AJ/kd8CpJzisLIWlRBEJzCxQVO2Wdw5OgFRPVuDe/QKEQIsdV7v8Cqa9F4P/ZhBElPjNBoxE7+EBEb45AzxBdQBmLw5FFoqfPSsLQMXVJ/9b712Jwfg08nRcJD/Nz36Dsb0/otw/x7x8QeSIAESIAE6gABGsF1YBKpAglUJQEZCPfk1oSq7NLQl1O3WVj1WizmvdoPC88pEN5/It56dxZ6XruCpPSdeD4yDoZF3vxsuERm45ZWGsHe8POp2IMrTVoKMhp3RbDhU64BmjX3RcV6qRYM7JQESIAESMAGCNAItoFJoAgkYCsE2nrXw8AWHmgn/joJx9/TGXn4ISFLuCjklFNEF7i4FEBt8KgoRHbmLRS6FzdXeKHb+PexRVzqtP9h2bjH8eyCHjg5ojECm4zCZ0eWoJepq4PwCS7v6q+xkCpff3hnpOKG8H9opYuiUyMt9SYKm5ZTFVYjARIgARKo0wS4KFKnp5fKkUD5CMjt0NY/HoITT4dj8YNBeKadN0aFN8Kbwi0ifkRr7B4aBt/65fjN7NwWnVqfxc5dSdCIofMvrsXyH9KL/HrFe/XJ7fj6twRkCw8LZw9/BIhAPJVSBZeoMRjjuQ5zF/yMxBzhBazJRcqJHfg+vtgnuHxqlKjl3D0GAws3YcWPqTo/YPX51Vi+PdMgSyW6ZBMSIAESIIE6RIBGcB2aTKpCApUlMFoYvDFhXhab927ijumd/SyWGwqUoRj79ktQvtsbHbo9gD+/fAYd+gQbXBC0WUexakofhPp4wiswCvMzn8HyOb3g7NIFczatRN8Ts9Ez2AMevqHo+dxHiE+/hzA2t96Yv3oKsl/vhc4P9MEjL51ERL/m5rdWK1sz1iABEiABEqhjBBRakeqYTlSHBEjAAgHFe4d0JdrpkYYaMq+Fpwt+G94aGvFxoFIo0EBsh6YRp2jki0st/4qAuWHbEhBvxi3CuC8LwzLbwQiYu88cDAHVJQESsAMC5Xi+aQdaUEQSIIF7InBBnP4WuOzYPfXBxiRAAiRAAiRgTwToDmFPs0VZSaAaCGSIfX8rm25PkRuc1WwqTFiGJ1qFICTE5Gr1BJYl3IP7RM2qwdFIgARIgARqmQBXgmt5Ajg8CdQ2AS9xApw9uTQoQyZg49kJtY2N45MACZAACdg5Aa4E2/kEUnwSIAESIAESIAESIIGKE6ARXHFmbEECJEACJEACJEACJGDnBGgE2/kEUnwSIAESIAESIAESIIGKE6ARXHFmbEECJEACJEACJEACJGDnBGgE2/kEUnwSIAESIAESIAESIIGKE+DuEBVnxhYkUKcInLuZhzafn4Q4E6NCyUWlwJln2qK5h0uF2rEyCZAACZAACdgCAa4E28IsUAYSqEUClTGApbjyFLmQT0/UouS1PLT6d7zSth1e3VdgRhA19s4MR/vZ8TBXaqYBs0iABEiABGqYAFeCaxg4hyMBWyNgugLctKEz/t49APWclPjXgRQcu3FHJ3L25AixWlx0hLJcNL4oTpm776szVaOO+le82H48nFcfweIoO/lYUoVicOxcKEK4llA1NwF7IQESIIGaJWAn3zY1C4WjkYCjElAqgB0xYWjl5apDMKilJ1qK1d6MPA0afnikbmLRaKBRqaCqqHbKADwwcmRFW7E+CZAACZCAjRDgEoaNTATFIAFbINDS09VgAEt5GonT5KIC3XSiuTsr4Sney0say5ZSfsJ3mDMoEk28GsLDNwRR476E7jRjbRp+en0guob6wdPdAwEdHkfs9iQUIg/bpo7CyoRz+GRwmDgOuTVGrLoOudqsTtyG2EERCPJyh0dgBGIW7UaqzndZi6z4pXiqUyC8vJugw6B5ePu5NiXcD24f+3/4W+8W8GnYED6hvTDhs6O4LZuqd2Nqy44Y+9ZMRPeIRHjXl7BmcU8EPLkW6Qa/6DzETRM/BqbHCekspBLuEFpkH/gAIyID4dkoCB2iF2LPjQo6WVsYhtkkQAIkQALVQ4BGcPVwZa8kYJcELmXn4+ottUH22+pCHErN1b0/MiYcN5/vqLtypnQyr1/+Abw15Dn8HLYAvyZl4eaVfVj5XEe464xmLdzaj8WKvZeQnpWE3TM9sObZV7A50xUDlq7B2JAwTPz2HBISzmDt04FQqA9jccxY7OywBPuTs5C8dz4C1o7BC9+kQpsTh9iR/8Ct8T/jcloids3UYMumRGFQF6fcX/DakzNx+i9rcCYjA2fX9se5V5/E3D1FuqDgNH442A5Ldh/CqUNLMHrEKHTcsxZbiixsIDcOX252QczI+1G0Jm5eXUNu7h7EjliA9Ge24/KNROycnoMN643kKaM5i0mABEiABGqeAI3gmmfOEUnAZgnIYLdHN53HhnM38UNCFh779gKSc4pCu1oItwjFe4d0V733D5vVQb1vNdakDsGb8x9HiJsCynr+6PhAR/hKI1jhhweHDUZnsbKsUrojfNQMDPeJxy/H7xrdxp2q93+BVdei8VrswwhyVaJ+aDRiJ4djx8Y4ZMZvwHeFQ/HKhI5oqFTB98GXMfWRohVr2Yd639fYmPMk5rx0P3ycnODd4yXMHXoHG9f9Dt1oykAMnjwKLXUWrpCz6RMY1X0fvtp8TbcCfWvHl9jqNRQjujgbi2TxtXrfemzOj8GsSZHwUDrBv+9sTOtXz2J9FpAACZAACdQ+AfoE1/4cUAISsCkCMhDuya0JlZJJk3wNaY07obm55VNtFg6smIU5H/+EE6lqKFUFyErWYtht824DmmtXkJS+E89HxsGwCVt+Nlwis5GVmowM/25obHDkrY/GQd7Q/6rXpKUgPaATmhhsWCcENwtExv5UsVtDgDCCveHnY7QGoAhA9OhemLN8Ey4/NxrxX25Hk+E70aGcn5ByvIzGXRFsqN8AzZr7GuSpFEw2IgESIAESqFYC5fyIr1YZ2DkJkICNEGjrXQ8DW3ignfjrJBx/T2fk6VaE9yfnlEtCVUAQfK9fRGI+0LZ+ySYFR5dg3BtXMeHH/djawQtOBQcxt3M0UourKeQarJE9rPJvjMAmo/DZkSXoZbIVsXr3QTRKuYJrGqCVzhDOxbWkdBS2KOpM5esP7+TLSBKL2G115QW4kngdjQL8UPShZ+rUrIDPY6PR7+V38M0BT/y2oxWeWtCm3MFyuvEyUnFD+GMUyaNGWupNFDYtFzZWIgESIAESqAUCdIeoBegckgRsjYDcDm394yE48XQ4Fj8YhGfaeWNUeCO8eX8g4ke0xu6hYfCtX/ZvZueokRjpuwmvv/EDEnO10Oal4tjeY0iT9u2tbOS4BaN1iDCAhfdu6o4VWH9GWLEyKRvBxzMdF4XBrbeDnaPGYIznOsxd8DMSc0SuJhcpJ3bg+/hUOHUfgscV3+Cfy4/hllaDtF/ewdKf7hrqzlFDMbj+eix6Lx4ZYveHjPj3sPAbVwwZeh8sOjh4/BmjB1zGsnGLsLvjCDxZga3PnLvHYGDhJqz4MVXnl6w+vxrLt2ca2/S2NuWUhwRIgAQcngCNYIe/BQiABIDRwuCNCfOyiKJ3E3dM7+xnsdxQ4NINczcuR5/jMxEV4AGvJt0x9tOjwlAFnO+bikX9j2JSl854sO8jGL/VD/eHFxvWqjZ4asYAnH+xJby8/DFwRRK0Ll0wZ9NK9D0xGz2DPcROE6Ho+dxHiE8XZqZbHyxYMxP1/90XTXyaoc/bKgwYFAxnsdWZLtXvhfnfLELolqFo6eWFlkO/Q8jCb7Dgobt+w6WVccNDowej4GQi7hs5BMEV+XR06435q6cg+/Ve6PxAHzzy0klE9Gte7pXk0rIwhwRIgARIoLoJKLQiVfcg7J8ESMA2CMigNpm00yMNAsm8Fp4u+G14a2jEx4FKoUADsR2aRpyikS8utfwrAuaGbUtAvBm3COO+ak/L/8/encBFWe794//MAijqsC8iKigaKiJuZJqmZp06BupBKyXzJGaL5pqlKVq5PfZ0wtPjv55cTueY5ilNsrJcHv2HZpaguXfcEsFQHGRVTAZmfvc1MCMMswACM4Of+/Wi4Lqv5Xu973mNXy6uue8C/Ht0R3z00C/Y80rbOu/F1V74GwY98CNe/nULxvmYbpmw3+ycbWRzrzNnmwPjpQAFmr6A7b9vNn0DzpAC97zAb9LT3wJXn3QiBy0u/7gLVzsORW/pc25X/28p3vu+M0YvCapzAiw9Ew8HP/wnMmP+CzFMgJ3otcBQKUABCtRNoDZ/8KvbCGxFAQo4tECedN/fuh43p0bWteldttPh5ql/4K89W8PHOwA9XkrD/e9/jGnhtX7umz4OXd6neNKvDUbu6oP/SnwMrSqi06avxl86hUgP8DD56vQXrNY/AYQHBShAAQo4qwC3QzjrlWPcFKiDAP9MXQc0Nqm1AF9ntSZjAwpQwA4CXAm2AzqHpAAFKEABClCAAhSwrwCTYPv6c3QKUIACFKAABShAATsIMAm2AzqHpAAFKEABClCAAhSwrwCTYPv6c3QKUIACFKAABShAATsIMAm2AzqHpAAFKEABClCAAhSwrwCTYPv6c3QKUIACFKAABShAATsIMAm2AzqHpAAFKEABClCAAhSwrwCfGGdff45OAYcQML2v61H1LfTceMYY2y/x9yHKrzkM9cSjlZsrZbih0VZ5BLNDTMZaEJoDmNXtebhsOI4V0XV8+6uPPqzFyHMUoAAFKNAoAnX8V6BRYuMgFKBAIwiIxHZCV2/863SucTSRAIsnyXm6KWBIiHUzoowJb6lWemKblAB7fnii4SIsK0OZQoEqz4AzV9ZwEbBnClCAAhRowgLcDtGELy6nRoGaCFyc2BX/fLRdlaoi4RUJsDhCVK7VutFJJSIBFvVMj5L0rzB/RBTaeLaCyjcE0ZM+hf4Jw7eTMc57CFZlGh43rMEPMzuhR+IRlIpONCmY1rE7EpbOQWy/KIT3fhXf3zRTViJVzdiOxBGRCPJsCVVgJOKWp0AtgjL28RpGDYxGj7AO6Bm/Gif/EAPcxvZp8ViXfh4fjQyTHoXcGWPXX4VoZvbQ/o5v5z2GLgFe8PTyQevOQ7D05xsW+7AaU4cITFg4DTEPDUDfruHo99e1OFFsdlQWUoACFKBAIwkwCW4kaA5DAUcVMJfkVo7VS0p2F/ULNBaJlePWq08h6aE21adUchhLR03E7rAlOJBViPzLh7BuYne0lFWvarak9Ay+O9IVSSlH8Z+j7+FhkX+blsmOYUVcAvZGJCEtuxDZBxcjYNN4vLJZXZ7QSvV3n+6Fv+89hGOnv8MzmQsw99Ns6Zwbhr+/EQkhYXjhy/NITz+LTc8GwlJomoN/w4xtHZB0Qo38vGyc2bkCMW3dzfehsRFT2RnsPNkbq/7vAFKP78LUm4sRvzQVUj7PgwIUoAAF7CTAJNhO8ByWAo4ukH+7TL8HeHpPP7xZKQkWq785L0ZgZsrvmCF9VT40hzZgo3oU3l78BELcZZA380f3/t3haynTNEWQB2LklHh0dBMnKhqZlGnSPsH6K7FYmPgwgtzkaB4ai8Qp4dizdR/0i6vytvjLi3Fo5yJ979oRw4a0wX+OnSlfbTYdz8rPMldXKIsycPzEb8jVKKEKjUZkkPm3TJsxyfwR++LTaC9iUrbDky8OR8GXW3FMvwTOgwIUoAAF7CHAPcH2UOeYFHBwAcM+4OSYUIzs6GE2WpEMiyR5ZaUV4bLsK8hp3QPt9UlsHQ65N/x8TBJNk7KyK5eRlbsXL0Xtg3GjRkkRXKOKcEPnKyXBKnioDFm3DC6uSpSUlFje9mAhTGWfuVi/MBFvvT4My87LEP74C1j63lw8LA1hetiOyQf+vnd2N8t9/eF1Pb0fCSoAACAASURBVAM5hp0hph3yZwpQgAIUaHABJsENTswBKOB8AuKDcYY7QhiiFyvDYmuEYR+wSJRND0VAEHyvXkSG9Hf+Ls1Nz7rC1bUUGo2hXIuighvQtqxcz9yScdUyhX9rBLaJx8fHkzDQdLuytCfY1iET6bDFjcCVWss80ef5/8HX0pcm5xesnvQEnlvSD+dXuklr1FX7sBmT9iouZd4GepW/5ZZkXkK2dyB8zS8s25oCz1OAAhSgQD0I8C24HhDZBQWcWUBsaTDc+kz835DcikRY/Gz4Eh+UE3eRMPxsSJQrz90lehzG+SZj0ZvfIeOWDrrbapw8eBI5Iul06YIenc9h7/dZKJN+LLm4CWu+y61RPlp1jPEY7/EZFizZjYxiqeOyW7h2eg++Ta3YE2ztYsi94OORi4vphTbH1fy6A5//mI4iacuCi8ofAR5uUMgVkJnpwyXaRky6QmxPehcHc8ugzfsZ773zNXxGjEIPLkNYu1o8RwEKUKBBBZgENygvO6eA4wuI7QyG25+J/4v7AVf+2fC9mIm4i4S4m8QHQ4P1dUTdKodrHyzYugaDT81BdIAKnm36IuEfJ6RtClIteSgS3pkN+XuDENGnPx559SwiBgej1m9Crr0wP3kdhp6ehwHBKukOFKEYMPEDpObWYG+B4j48PXM4LszqCE9Pf8SszbKYDOsKT2D91MEI9fGAZ2A0FhdMwJr5A+Firg9bMSnvw1Mxt/H2gGD4hI5EcshSbFwQfWc7h+O/TBghBShAgSYnINNJR5ObFSdEAQqYFTCs+Bq2NJitxML6FRC3bQufAa+tqXjrHln65eusfl9C7I0CFGgYgVovwjRMGOyVAhSgAAUoQAEKUIACjSfAHWmNZ82RKEABBxPQpq/G6EeW4Yjxw3oVAbr0whu7t2ByCNcJHOySMRwKUIAC9SbAJLjeKNkRBSjgbALykMnYem5yw4bt8hDev/BLw47B3ilAAQpQoNYCXOaoNRkbUIACFKAABShAAQo4uwCTYGe/goyfAhSgAAUoQAEKUKDWAkyCa03GBhSgAAUoQAEKUIACzi7AJNjZryDjpwAFKEABClCAAhSotQCT4FqTsQEFKEABClCAAhSggLMLMAl29ivI+ClAAQpQgAIUoAAFai3AJLjWZGxAAQrUp4Dm7L8woWcQvL388eiqi6jBw4/rc3jn7Us8ia5jTyw6Vuq8c2DkFKAABewowPsE2xGfQ1OAAhr8uOotHB72BX7/7wfQnCAUoAAFKECBRhJgEtxI0ByGAo4s4L7qOG6VauHTXImcFyL0ocpWHi3/v0wG7fQexvC9//ck8v4oRXOlHMVTI61Pq6wMZQoFFBZrleDK77kIfjwMzSzWsXDCZt8W2rG4ugAtq5uwhAIUaPIC3A7R5C8xJ0gB6wKGBFjUun6r1Jj8GlrpdLo7CbGUGIsEWBwiaTYkysYR9H+i746EpXMQ2y8K4b1fxfclgCZjOxJHRCLIsyVUgZGIW54CtTYPn/81CtN2FGHfvN4IDXsMSb+Wma+rk0aoTd9V6r+GUQOj0SOsA3rGr8bJP4zRoiT9K8wfEYU2nq2g8g1B9KRPkV6xH8NszKJfS4cxPgvj3U7GOO8hWJVp2PChwQ8zO6FH4hHoRfXte2DK399ETBc/tFK1w6A525F5MRmzhoTBu6UHQv+0BPvzKwehRfbuhXi8S2t4ebZB37+uxYniOwFanIMFS0tTYzkFKECBpijAJLgpXlXOiQK1EBDJrDh0M6KqtRJl1srNnUPpGXx3pCuSUo7iP0ffw8OyY1gRl4C9EUlIyy5E9sHFCNg0Hq9sKcWYf/6ClY+2wkP/dRgXz+/AzLCT5utuVkOf+tW070r1d5/uhb/vPYRjp7/DM5kLMPfT7PK+Sg5j6aiJ2B22BAeyCpF/+RDWTeyOljJpHI2FmA39VpOqKJDisziepTaVy0vPIXm3Cot+vIKcY2/D/9NJGDLha0R+8AvU2QcwtXQlXlt9DmWGNtJ4m7c3x6IDl3FdSpZHXXoD45amQvq9w/YcTC1daxIg61CAAhRoOgJMgpvOteRMKFBnAUMya5rUhn78K8RXrQ55IEZOiUdHN9FKBk3aJ1h/JRYLEx9GkJsczUNjkTglHHu27kOlRUv9EDbr1rZveVv85cU4tHOROnftiGFD2uA/x87oV141hzZgo3oU3l78BELcZZA380f3/t3hKyXBNuOwBGJlPEtNqpTL/TBq1lT08VLCLTQOf4m+gRZDZ+CZLq2gaNEVo2O74eyx0+Urx6KhzBMxs2ejn7cCcq9ozHwtFrnJWyE+K2dzDiaWNYqPlShAAQo0IQHuCW5CF5NToUBdBapta6jo6OJzXfTfmZ7/+Wp5+iqX9gv3DTD5OJvcG34+d36/LrtyGVm5e/FS1D4YFxtLiuAaVYQbJtsLrNf1BWrVt6ivgodKLO3qZwEXVyVKSkr0K8HabGm1tXUPtNcn61UP63EALQxdmja0Mp5pVbM/S/PzNdq5olkzJXz8vFGuKYNbM1eUSfEb76Ah90dw0J0lXJegYPjlZiBHqmB9DtUtzcbDQgpQgAJNWIBJcBO+uJwaBWojIFaBTZNdw89KedWsr9+/zxq7Nl09Fslm5UPh3xqBbeLx8fEkDKz2J/cbNa8r7WOtVd/6+pYPRUAQfK9eRIa0d6CLSR5vPWbLfVo/4wpX11JoNIZaWhQV3IC2pfVWVs9qr+FyljSBXuVv5Zqsy1B7B8BXypqtzsGMpdVxeJICFKBAExTgdogmeFE5JQrUVsCQyG6L7WC26dH4cH156fSq+4aLpti4O4TUxiV6PMZ7fIYFS3Yjo1hagy27hWun9+Db1Ip9vpVGrE1d0ay29StPziV6HMb5JmPRm98h45YOuttqnDx4EjlSiHfTb+Uxqnzv0gU9Op/D3u+z9Ht6Sy5uwprvcsv3J1tsZOOELh/fJK3EoTwttPlp+Pt/fwWvEaPQQ8qJG2QONsLhaQpQgALOJMAk2JmuFmOlQAMIVF7Jje2gMn4QTpQbvrr5lO8ZUEiLvJXLW7rU4C3EtRfmJ6/D0NPzMCBYJd2FIRQDJn6A1Fwzj8WoTV1hUdv6lf1c+2DB1jUYfGoOogNU8GzTFwn/OFG+ReNu+rV0jeShSHhnNuTvDUJEn/545NWziBgcXLHVwVIjG+XK+zD68RtY1L8NfEJisDl4MTYuiC7fdtIQc7ARDk9TgAIUcCYBmXT7I2s3/XGmuTBWClDAhoBhe0P1LQw2GvI0BWohwNdZLbBYlQIUsJtADZZx7BYbB6YABShAAQpQgAIUoECDCPCDcQ3Cyk4pQIGmKKBNX43RjyzDEeOH2ypm6dILb+zegskhXFdoitedc6IABZqmAJPgpnldOSsKUKABBOQhk7H13OQG6JldUoACFKBAYwtw2aKxxTkeBShAAQpQgAIUoIDdBZgE2/0SMAAKUIACFKAABShAgcYWYBLc2OIcjwIUoAAFKEABClDA7gJMgu1+CRgABShAAQpQgAIUoEBjCzAJbmxxjkcBClCAAhSgAAUoYHcB3h3C7peAAVDAsQSKNVp8kpaNfb/lIzP/tj64tp5uGNTBE+P7BMC9Jk+Jc6wpMRoKUIACFKBANQGuBFcjYQEF7l2BtMwiPLX+NNb8lIUz14pRXFKm/xLfizJxTtSp+aHBwTnh6DYvFaU1b3SXNe0x5l2GzOYUoAAFKNDoAkyCG52cA1LAMQVEcvvSF+dwpbB89VdE6d/CBUGtXIwBi3OiTu0SYcecrz4qzQHM6twVrx9qvBTdgTUYGgUoQIF7SoBJ8D11uTlZCpgXEFsg3tp1CTqdrkqF84XAV5Miq5SJOqKuaMODAhSgAAUo4KwCTIKd9coxbgrUo4DYA1x5BdhW16KuaFP90KHo8CqMjQqEh1cQImKXYf/1Son17WSM8x6CVZmGBFqDH2Z2Qo/EI8btEpqM7UgcEYkgz5ZQBUYibnkK1FVzc5NhbYypy8GuRTHoHeoHj5YqBEQ8gcQdWdDiNrZPi8e69PP4aGQYQkI6Y+z6qxBD1T6G6hIsoQAFKEABxxZgEuzY14fRUaBRBFIu5Nd6HPHBuWrHrf1IHLsEuRN2IPN6BvbOKMYXWzKkhLOGh+YYVsQlYG9EEtKyC5F9cDECNo3HK5vV+uTU7GFzTB3cuyVg7cFLyC3MQsocFTY+9xq2Fbhh+PsbkRAShhe+PI/09LPY9GwgZHWJwWxgLKQABShAAUcWYBLsyFeHsVGgkQQuF9zZB1zTIQ13jqhcX3NoC7aVxGHuy1FQyZXwHzoP04c1q2mX0KR9gvVXYrEw8WEEucnRPDQWiVPCsWfrPhRb6MXmmDI/PPjkSPQMdIdC3hLh8TPxlE8qfjilMdtjXWIw2xELKUABClDAoQV4izSHvjwMjgL2EWimlOPabQWOTe9WqwDKcq4hr3VvBBvfWVqgXXtf1PS37bIrl5GVuxcvRe2Dq2HkkiK4RhXhhrQU3EJWPRybY+oKcXjtXMz/cBdOqzWQK0pRmK3DkzfNry3XJYbqUbGEAhSgAAUcXYBJsKNfIcZHgUYQEPcBFrdBc1PIoC5RIm1m+YfhOr97HGEq8wGINqaHwtcf3nlqXJf2P3RSiLMa5KjzoW1rqOkKV9dSaIyLsFoUFdyAtmX5eYV/awS2icfHx5Mw0JgFm45S9WdbY5aeSMKkN3/H5J1p+CbCE8rSI1jQMxbqim5kYqNFpXy4LjFYj5BnKUABClDAEQVqukDjiLEzJgpQoJ4ExIMw7m/XCtsmdsfZVyMx5l+n0CfpMFQKDa7dNL9tQLQxPVz6xiFGm4y1O9X6fcCaCxuwZkfBnRzTpQt6dD6Hvd9noUw6X3JxE9Z8l2s87xI9HuM9PsOCJbuRUSxlpmW3cO30HnybanlPsK0xdTeKUOwejM4hUgIsRaXesxZbzorRpUPuBR+PXFxML7yrGEwd+DMFKEABCji+AJNgx79GjJACDS4gngRXrNFhavI5ffJ7MfcPq2O2Vrnpnx5X7XAfhMUbpqJo0UD07D8Yj87+FZHD2kO/KCwOeSgS3pkN+XuDENGnPx559SwiBgff2S7h2gvzk9dh6Ol5GBCsgso3FAMmfoDUXCsfrbMxpsv907D88RN4uVdPPDj0UTz/jR8eCK/4I5jiPjw9czguzOoIT09/xKzNgq4uMVSDYAEFKEABCji6gEy656f5jXGOHjnjowAFai0gW3lU30Y3I6paW8PDMmy9JchkMnwY1wl92raq1gcLKCAErL3OKEQBClDAUQS4EuwoV4JxUMDOAiKpFcmtWOW1dIhzTIAt6bCcAhSgAAWcSYAfjHOmq8VYKdDAAiIR/uzZrvoHYYh7BxtunSY+BCf2AIstEO4ujf+7szZ9NUY/sgxHTLcnu/TCG7u3YHJI48fUwJeC3VOAAhSgQAMLcDtEAwOzewo4kgD/TO1IV6PpxsLXWdO9tpwZBZqSAJdPmtLV5FwoQAEKUIACFKAABWokwCS4RkysRAEKUIACFKAABSjQlASYBDelq8m5UIACFKAABShAAQrUSIBJcI2YWIkCFKAABShAAQpQoCkJMAluSleTc6EABShAAQpQgAIUqJEAb5FWIyZWosC9I1Cs0epvkbbvt3xk5t/WT9zet0i7d/Q5UwpQgAIUaCwBrgQ3ljTHoYATCIinxj21/jTW/JSFM9eKUVxSpv8S34sycU7UqfdDk4JpHXti0bHS+ula8xNe69IVrx+qp/6qRaXBwTnh6DYvFQ01QrUhWUABClCAAvUqwCS4XjnZGQWcV8Dw2OQrheWrv2Im/i1cENTKxTgpce6lL841TCJcn3SKUIxMXICR4iEamgOY1dkkITZXVp/j16QvR4ihJnGyDgUoQIEmKsAkuIleWE6LArUREFsg3tp1CTqdrkqz84XAV5Miq5SJOqKuaOOwhzwA/ceNwwP+fItz2GvEwChAAQrYWYD/Qtj5AnB4CjiCgNgDXHkF2FZMoq5oU+3Q/o5v5z2GLgFe8PTyQevOQ7D0Z+lZx7eTMc57CFZlGhJnDX6Y2Qk9Eo9U2k6gRfbuhXi8S2t4ebZB37+uxYniihH02yV6YMrf30RMFz+0UrXDoDnbkXkxGbOGhMG7pQdC/7QE+/Mrknjjdoib2D4tHuvSz+OjkWEICemMsesz8E21sqsQLTUZ25E4IhJBni2hCoxE3PIUqPVd6lB0eBXGRgXCwysIEbHLsP961V8Yqlnom+Vg16IY9A71g0dLFQIinkDijixocdtMXOUxmO2HhRSgAAUoUO8CTILrnZQdUsD5BFIu5Nc6aPHBOdNDc/BvmLGtA5JOqJGfl40zO1cgpq3CtJr5n0vPYPP25lh04DKuS8ntqEtvYNzSVJQYapeeQ/JuFRb9eAU5x96G/6eTMGTC14j84Beosw9gaulKvLb6HMqq9O6G4e9vREJIGF748jzS089i07Pt8ES1skDINMewIi4BeyOSkJZdiOyDixGwaTxe2ayG7tZ+JI5dgtwJO5B5PQN7ZxTjiy0ZUjJr69DBvVsC1h68hNzCLKTMUWHjc69hW4G5uKQYbHXH8xSgAAUoUG8CTILrjZIdUcB5BS4X3NkHXNNZGO4cUbm+zNUVyqIMHD/xG3I1SqhCoxEZVMO3GZknYmbPRj9vBeRe0Zj5Wixyk7fC+Fk5uR9GzZqKPl5KuIXG4S/RN9Bi6Aw806UVFC26YnRsN5w9drrOH1TTpH2C9VdisTDxYQS5ydE8NBaJU8KxZ+s+FBzagm0lcZj7chRUciX8h87D9GHNbFPJ/PDgkyPRM9AdCnlLhMfPxFM+qfjhlLQ6zoMCFKAABewqUMN/newaIwenAAUaWaCZUo7CMhccm96tViMr+8zF+oWh2P/6MHTwa49+Y5dhzxXb66X6QeT+CA5yNY7nEhQMv9xs5Biay73h62N4y3JFs2ZK+Ph5o7xEBrdmrigrKanB6qz5KZVduYys3C/xUlQ4wsPFVxcMWXEKriVFKFRfQ17rEAQbbyrZAu3a+1aMbb4/famuEIfXvIzHeoWhXdv2CAkbiY8uFOHmzRpspbDSLU9RgAIUoMDdC/A+wXdvyB4o4PQC4j7A4jZobgoZ1CVKpM0s/zBc53ePI0xlfnqiTbVDWs3t8/z/4GvpS5PzC1ZPegLPLemH8++5wtW1FBrjAqgWRQU3oG1ZqQftNVzOkjY/9Cp/W9JkXYbaOwC+Isu9y5xRJjow6cO0TOHfGoFt4vHx8SQMvJOL6wPUpByBd54a16WEvJN+d4cGOep8aNtWE6hSUHoiCZPe/B2Td6bhmwhPKEuPYEHPWKgrapnGYL03nqUABShAgfoU4EpwfWqyLwo4qcCgDp64v10rbJvYHWdfjcSYf51Cn6TDUCk0uHbT/J/uRRvTQ/PrDnz+YzqKpJvnuqj8EeDhJm0DUEDm0gU9Op/D3u+z9Ht2Sy5uwprvcqvmpbp8fJO0EofytNDmp+Hv//0VvEaMQo+7/VVd7gUfj1xcTC+8M56ZMpfo8Rjv8RkWLNmNjGIpYy67hWun9+DbVDWUfeMQo03G2p1q/Uqz5sIGrNlRYJpXm3JAd6MIxe7B6BwiJcBSS/WetdhytmLXspkYqnXAAgpQgAIUaDABJsENRsuOKeA8AuP7BEi3PNNhavI5ffJ7MfcPq8G3VrlBtDE9dIUnsH7qYIT6eMAzMBqLCyZgzfyBcJGHIuGd2ZC/NwgRffrjkVfPImJwcNXtBMr7MPrxG1jUvw18QmKwOXgxNi6IhsmirOmQtn9W3IenZw7HhVkd4enpj5i1WdCZK3PthfnJ6zD09DwMCFZB5RuKARM/QGqulPa6D8LiDVNRtGggevYfjEdn/4rIYe1h6yN/LvdPw/LHT+DlXj3x4NBH8fw3fnggvCKrNxeD7dmwBgUoQAEK1JOATLrn513+obGeImE3FKBAgwvIVh7Vj6GbEVVtLMPDMmy9JchkMnwY1wl92raq1gcLKCAErL3OKEQBClDAUQS4EuwoV4JxUMDOAiKpFcmtWOW1dIhzTIAt6bCcAhSgAAWcSeBud9s501wZKwUoYENAJMKfPdtV/yAMce9gw63TxIfgxB5gsQXC3YW/O1dm1KavxuhHluGI6dZpl154Y/cWTBaPbuZBAQpQgAIOJ8DtEA53SRgQBRpOgH+mbjhb9nxHgK8zvhooQAFnEOAShTNcJcZIAQpQgAIUoAAFKFCvAkyC65WTnVGAAhSgAAUoQAEKOIMAk2BnuEqMkQIUoAAFKEABClCgXgWYBNcrJzujAAUoQAEKUIACFHAGASbBznCVGCMFKEABClCAAhSgQL0K8BZp9crJzijg/ALFGq3+Fmn7fstHZv5t/YR4izTnv66cAQUoQAEKVBXgSjBfERSggFFAPDXuqfWnseanLJy5VozikjL9l/helIlzoo7DH5qf8FqXrnj9UGkDh6rBwTnh6DYvFQ09UgNPhN1TgAIUuOcEmATfc5ecE6aAeQHDY5OvFJav/opa/i1cENTKxdhAnHvpi3POkQibn2bVUs0BzOrcGMmylWAcIQYr4fEUBShAgaYqwCS4qV5ZzosCtRAQWyDe2nUJOp2uSqvzhcBXkyKrlIk6oq5ow4MCFKAABSjgrAJMgp31yjFuCtSjgNgDXHkF2FbXoq5oY+4oSf8K80dEoY1nK6h8QxA96VOkV+TLN0/+Ey8O6gCfVq3gEzoQkz8+gZuiE00KpnXsgSl/fxMxXfzQStUOg+ZsR+bFZMwaEgbvlh4I/dMS7M+vSNJF/Q4RmLBwGmIeGoC+XcPR769rcaLYXERS9xnbkTgiEkGeLaEKjETc8hSodbexfVo81qWfx0cjwxAS0hlj11+FGMF8fdG3DkWHV2FsVCA8vIIQEbsM+69X/cXBbAS6HOxaFIPeoX7waKlCQMQTSNyRBS0sx2C2HxZSgAIUoEC9CTAJrjdKdkQB5xVIuZBf6+DFB+eqHSWHsXTUROwOW4IDWYXIv3wI6yZ2R0uZVPPWD1g4eg7O/Gkjzubl4dymx3H+9dFYsP9WeTel55C8W4VFP15BzrG34f/pJAyZ8DUiP/gF6uwDmFq6Eq+tPocyw6BlZ7DzZG+s+r8DSD2+C1NvLkb80lSUmAalOYYVcQnYG5GEtOxCZB9cjIBN4/HK5kL8+f2NSAgJwwtfnkd6+llsejYQMov11dDd2o/EsUuQO2EHMq9nYO+MYnyxJUNKZm0dOrh3S8Dag5eQW5iFlDkqbHzuNWwrcMNwczHY6o7nKUABClDgrgWYBN81ITuggPMLXC64sw+4prMx3Dmicn3NoQ3YqB6Ftxc/gRB3GeTN/NG9f3f4Skmw5tDn2Fo8GvNnPwAfpRLe/WZjwZg/sPWzn6ARncj9MGrWVPTxUsItNA5/ib6BFkNn4JkuraBo0RWjY7vh7LHTdz6AJvNH7ItPo73YsqxshydfHI6CL7fimMkn1DRpn2D9lVgsTHwYQW5yNA+NReKUcOzZug/mFo6t1S84tAXbSuIw9+UoqORK+A+dh+nDmtkmk/nhwSdHomegOxTylgiPn4mnfFLxwyn9zHlQgAIUoIAdBHiLNDugc0gKOLpAM6Uc124rcGx6t1qFWpYtreK27oH2btWbleVcQ25AD7Qxfs5OieB2gchLU0uJbYCUBHvD18fwe7krmjVTwsfPG+UlMrg1c0VZScmdVVe5D/x9FcaB5L7+8JJWZ3PEsqxYea44yq5cRlbuXrwUtQ+uhsKSIrhGFeGGLrBaoNbqF6qvIa91bwQb3zlboF1734oYq3V1p0BXiMNr52L+h7twWq2BXFGKwmwdnrxZg60UVrrlKQpQgAIUqLsAk+C627ElBZqMgLgPsLgNmptCBnWJEmkzyz8M1/nd4whTmZ+maGN6KAKC4Hv1IjKkPQldmlc9q5CSVO/sTGRJK7Vd9LlrKS5nXIVXgB/q9EakvYpLmdIKdq/y1iWZl5DtHQhfkTVXyi0V/q0R2CYeHx9PwkBjFlwRm3RnBpmoXMP6mpQj8M5T47qUaHfSz0GDHHU+tG1NJar+XHoiCZPe/B2Td6bhmwhPKEuPYEHPWKgrqpnGYL03nqUABShAgfoQ4HaI+lBkHxRwcoFBHTxxf7tW2Cbt3z37aiTG/OsU+iQdhkqhwbWb5v9kL9qYHi7R4zDONxmL3vwOGbd00N1W4+TBk8iRkkyX6DEY2XwLlq9MRV5ZGfJSV2LZZjeMGnM/7tyEzbRHKz9Lq6vbk97FwdwyaPN+xnvvfA2fEaPQwySjdokej/Een2HBkt3IKJYCKbuFa6f34NtUaY+v3As+Hrm4mF5ozIOt1Vf2jUOMNhlrd6r1K9KaCxuwZkdB5RzabMC6G0Uodg9G5xApAZZaqvesxZazFbubzcRgthMWUoACFKBAvQowCa5XTnZGAecUGN8nQLrlmQ5Tk8/pk9+LuX9YnUhrlRtEm2qHax8s2LoGg0/NQXSACp5t+iLhHyekbQdSzeYDsXjzcoR+PQYdPT3RccxXCFm2GUsecq/WTY0KlPfhqZjbeHtAsHSniZFIDlmKjQui72x5MHTi2gvzk9dh6Ol5GBCsku5YEYoBEz9Aaq6Uxiruw9Mzh+PCrI7w9PRHzNos6KzVdx+ExRumomjRQPTsPxiPzv4VkcPa486mDPORu9w/DcsfP4GXe/XEg0MfxfPf+OGB8Ips3VwM5rthKQUoQAEK1KOATLrnJzel1SMou6KAIwvIVh7Vh6ebEVUtTMPDMmy9JchkMnwY1wl92raq1kejFYhbpIXPgNfWVLxluvTbaEFwIEsC1l5nltqwnAIUoEBjC3AluLHFOR4FHFRAJLUiuRWrvJYOcc7uCbCl4FhOAQpQgAIUqIVAnT6PUov+WZUCFHAiAZEIf/ZsV/2DMMS9gw23ThMfghN7gMUWCHcX/u5s7pJq01dj9CPLcMR0C7VLL7yx+0G43QAAIABJREFUewsmh9DNnBvLKEABCthLgNsh7CXPcSlgBwH+mdoO6PfgkHyd3YMXnVOmgBMKcGnCCS8aQ6YABShAAQpQgAIUuDsBJsF358fWFKAABShAAQpQgAJOKMAk2AkvGkOmAAUoQAEKUIACFLg7ASbBd+fH1hSgAAUoQAEKUIACTijAJNgJLxpDpgAFKEABClCAAhS4OwHeIu3u/NiaAk4vUFKmwzMbf8Vv12/VeC7bJ3VHQCvXGtdnRQpQgAIUoICjCTAJdrQrwngo0MgCRX+U6hPg/VN7VhlZ/yjJSg+UNDxaUi49Ma65dK/gtMtF6BNs8tQ4zU94LXIiZP86jhXRd/v2osHBOd0xSfkJji3vC6u91eu41i5ALWKy1g3PUYACFKCA3QW4HcLul4ABUMC+AtqK4ZtJia1Ibg1f4qEY7q4K41cL6XvxJc5/c/o6Xt5yDmt+ulI1eEUoRiYuwEhHfTCE5gBmde6K1w+V2hedo1OAAhSggN0FrC6u2D06BkABCjicgEiA3951CVpplTgz/3bV+OQB6D9unMPFzIAoQAEKUIACpgJcCTYV4c8UuNcEDPscajDvygnwY+HeeOuxkKqtxLaELhUrrdrf8e28x9AlwAueXj5o3XkIlv5s+kzhys11KDq8CmOjAuHhFYSI2GXYf71qcJqM7UgcEYkgz5ZQBUYibnkK1GbiN1/vNrZPi8e69PP4aGQYQkI6Y+z6qxDNzdcXsdmOqQZsrEIBClCAAg4owCTYAS8KQ6KAvQRulmj1e33NHaYJ8NQHg81VM5ZpDv4NM7Z1QNIJNfLzsnFm5wrEtFVYbnNrPxLHLkHuhB3IvJ6BvTOK8cWWDBi2a0BzDCviErA3Iglp2YXIPrgYAZvG45XNan0ie2dgS/UK8ef3NyIhJAwvfHke6elnsenZQMis9WsrJsuz4RkKUIACFHBwASbBDn6BGB4FGktAfAZuWvI5vLL1PPb/VlBl2MoJ8OPSCvC8Ye1RXFKGnJuWV3Zlrq5QFmXg+InfkKtRQhUajcggy285mkNbsK0kDnNfjoJKroT/0HmYPqyZMQ5N2idYfyUWCxMfRpCbtHc5NBaJU8KxZ+s+FFeKtqb1DE2s1S+wEVNjXRuOQwEKUIAC9S/APcH1b8oeKeC0AuKDb5oyLV775jf8d0wHPBjqof8QnGEPcPkWiFCUanV4cv0pfCPdKs3SoewzF+sXJuKt14dh2XkZwh9/AUvfm4uHW5tPhMtyriGvdW8EG9+VWqBde18YapdduYys3L14KWofjDdnKymCa1QRblRaCrZeL7BauNbqF6qtx1StMxZQgAIUoIDTCDAJdppLxUAp0LAC0p3P8G5sR8z+6gIOphdgzte/IS7SF58fVes/BCcS4LcfC4VcqmfYfyC+tXjIPNHn+f/B19KXJucXrJ70BJ5b0g/n/7+hd5LYSo0Vvv7wzlPjurT/oZN+14QGOep8aNuWV1L4t0Zgm3h8fDwJA01vUSztRTYc1usdgEwEXylptlZfk3LEakwW584TFKAABSjg8ALml2QcPmwGSAEK1JdA5f20rgoZ/iYlwg+EeOhXhP/9y7XqCbA0sK7qLlyzoWh+3YHPf0xHkXQ3MheVPwI83KCQK6Qk1Pzh0jcOMdpkrN0pJd1SFc2FDVizo8A4kkv0eIz3+AwLluxGRrEUddktXDu9B9+mVt0TbLWe3As+Hrm4mF5Yo36VNmIyPxOWUoACFKCAMwgwCXaGq8QYKdCIApUTYTFslRXgijgMibNYPbZ06ApPYP3UwQj18YBnYDQWF0zAmvkD4WKpgfsgLN4wFUWLBqJn/8F4dPaviJT2Hhs/SufaC/OT12Ho6XkYEKyCyjcUAyZ+gNRc40fnynu2Vk9xH56eORwXZnWEp6c/YtZmQWetvq2YLM2F5RSgAAUo4PACMp10OHyUDJACFKgXAdnKo/p+dDOijP1du6HBn9ccx6EZvcu3OlScEY9T/vzoNYzrFVClXJy+pdFi4Kpf8O3zkfBvaTGtrZeY2YnzCZh7nTnfLBgxBSjQ1AW4J7ipX2HOjwI2BAyLuSXS9odK2331reIi/XC7VHtn84P0O7NMWv5Nz/1Df97aSrCNYXmaAhSgAAUoYFcBJsF25efgFLC/QKtmCrR0U2Dg//xSkdTK9P8XCbH+/9J/9N9X/CwiFivBns2V8HCr3VuINn01Rj+yDEdM76zm0gtv7N6CyY76uGX7XyZGQAEKUIAC9SxQu3/B6nlwdkcBCthfoJlSjr0v9ZBWfM3vjLK02uuqkFfbJmFrNvKQydh6brKtajxPAQpQgAIUaHABJsENTswBKOD4AnIp023uYuVTbo4/BUZIAQpQgAIUqJUA7w5RKy5WpgAFKEABClCAAhRoCgJMgpvCVeQcKEABClCAAhSgAAVqJcAkuFZcrEwBClCAAhSgAAUo0BQEmAQ3havIOVCAAhSgAAUoQAEK1EqAH4yrFRcrU6DpCxRLtz/7JC0b+37LR2b+bf2E23q6YVAHT4zvEwB3F/7u3PRfBZwhBShAgaYvwCS46V9jzpACNRZIyyzCW7su4UphefJraHjmWjHE1zenr2PRo+3Rp22rGvfpmBU1ODinOyYpP8Gx5X3BN0LHvEqMigIUoEBDCnBJpyF12TcFnEhAJMAvfXGuSgLs38IFQa3uPBZZJMeijqhr10NzALM6d8Xrh0rtF4YjxGC/2XNkClCAAk4vwCTY6S8hJ0CBuxcQWyDECrBOeixy5eN8IfDVpMgqZaKOqCva3NVRVoayu+qAjSlAAQpQgAJ1F2ASXHc7tqRAkxEQe4BNt0BYm5yoK9qYO0rSv8L8EVFo49kKKt8QRE/6FOkiX9akYFrH7khYOgex/aIQ3vtVfF8iFWdsR+KISAR5toQqMBJxy1OgFrm4Lge7FsWgd6gfPFqqEBDxBBJ3ZEGL29g+LR7r0s/jo5FhCAnpjLHrr0I0sdiXdLbo8CqMjQqEh1cQImKXYf9180/IqzKnOsRgzoRlFKAABSjgeAJMgh3vmjAiCjS6QMqF/FqPKT44V+0oOYyloyZid9gSHMgqRP7lQ1g3sTtaGh5GV3oG3x3piqSUo/jP0ffwsOwYVsQlYG9EEtKyC5F9cDECNo3HK5vVUtqqg3u3BKw9eAm5hVlImaPCxudew7YCNwx/fyMSQsLwwpfnkZ5+FpueDYRMY6WvW/uROHYJcifsQOb1DOydUYwvtmRICbWto5Yx2OqO5ylAAQpQwGEEmAQ7zKVgIBSwn8DlgqofhKtJJIY7R1Suqzm0ARvVo/D24icQ4i6DvJk/uvfvDl9DEiwPxMgp8ejoJlrJoEn7BOuvxGJh4sMIcpOjeWgsEqeEY8/WfSiW+eHBJ0eiZ6A7FPKWCI+fiad8UvHDKY3Z8Kz1VXBoC7aVxGHuy1FQyZXwHzoP04c1M9tPlcJaxmC7Q9agAAUoQAFHEeCHoh3lSjAOCjiQQDOlHNduK3BserdaRVWWfQU5rXugvT7JNXPIveHnc+d377Irl5GVuxcvRe2Dq6F6SRFco4pwQ1uI/6ybi/kf7sJptQZyRSkKs3V48qb5bQzW+ipUX0Ne694INr7jtUC79r6wuQqgK8ThtTWPwcyMWUQBClCAAg4qwCTYQS8Mw6JAYwqI+wCLW6C5KWRQlyiRNrP8w3Cd3z2OMJX5SEQb00MREATfqxeRIe317dLc9Kz42bAkXH5O4d8agW3i8fHxJAw0ZsHl50qPv4XH3vwdk3em4ZsITyhLj2BBz1ioK7qViV3AlfJha31pUo7AO0+N69L+h04K0YEGOep8aNuai/FOWemJJEyqRQzWe+NZClCAAhRwJAGbCyGOFCxjoQAFGkZAPAjj/natsE3av3v21UiM+dcp9Ek6DJVCg2s3zW8/EG1MD5focRjnm4xFb36HjFvSrt7bapw8eBI55hdv4RI9HuM9PsOCJbuRUSxVKruFa6f34NtUNbQ3ilDsHozOIVICLO3eVe9Ziy1nK+4nIfeCj0cuLqYXGvNga30p+8YhRpuMtTulfqWgNRc2YM2Ogso5tOlU9D/rahmD2U5YSAEKUIACDinAJNghLwuDokDjCognwRVrdJiafE6f/F7M/cNqAK1Vbvqnx1U7XPtgwdY1GHxqDqIDVPBs0xcJ/ziBGxaSYLj2wvzkdRh6eh4GBKuku0mEYsDED5Caq4XL/dOw/PETeLlXTzw49FE8/40fHgiv+OOV4j48PXM4LszqCE9Pf8SszYLOSl9wH4TFG6aiaNFA9Ow/GI/O/hWRw9pDvyhs5ah1DFb64ikKUIACFHAsAZl0z09L/zw5VqSMhgIUuGsB2cqj+j50M6Kq9WV4WIattwSZTIYP4zo1gafGVSNgQT0JWHud1dMQ7IYCFKDAXQtwJfiuCdkBBZqGgHgUskhuxSqvpUOcYwJsSYflFKAABSjgTAL8YJwzXS3GSoEGFhCJ8GfPdtU/CEPcO9hw6zTxITixB1hsgXB3aVq/O2vTV2P0I8twxHTrs0svvLF7CyaHNK35NvBLiN1TgAIUcBoBbodwmkvFQClw9wL8M/XdG7IH2wJ8ndk2Yg0KUMD+AlzisP81YAQUoAAFKEABClCAAo0swCS4kcE5HAUoQAEKUIACFKCA/QWYBNv/GjACClCAAhSgAAUoQIFGFmAS3MjgHI4CFKAABShAAQpQwP4CTILtfw0YAQUoQAEKUIACFKBAIwvwFmmNDM7hKODoAsUarf4Waft+y0dm/m19uE35FmmOfj0YHwUoQAEKNIwAV4IbxpW9UsApBcRT455afxprfsrCmWvFKC4p03+J70WZOCfqNN6hwcE54eg2LxWlDT5oY47V4JPhABSgAAUoYEOASbANIJ6mwL0iYHhs8pXC8tVfMW//Fi4IauViJBDnXvriXCMnwjW8ApoDmNW5K14/1PDpssWIHCEGi8HxBAUoQAEKVBZgEszXAwUoALEF4q1dl6DT6aponC8EvpoUWaVM1BF1RRseFKAABShAAWcVYBLsrFeOcVOgHgXEHuDKK8C2uhZ1RZtqx+1kjPMeglWZhgRZgx9mdkKPxCPl2xk0KZjWIQITFk5DzEMD0LdrOPr9dS1OFBt60qHo8CqMjQqEh1cQImKXYf/1Som5Lge7FsWgd6gfPFqqEBDxBBJ3ZEGL29g+LR7r0s/jo5FhCAnpjLHrr0K01GRsR+KISAR5toQqMBJxy1Og1ndpY6xqk6soqEMMlrpiOQUoQAEK2E+ASbD97DkyBRxGIOVCfq1jER+cq9NRdgY7T/bGqv87gNTjuzD15mLEL01Fiejs1n4kjl2C3Ak7kHk9A3tnFOOLLRlSkms4dHDvloC1By8htzALKXNU2Pjca9hW4Ibh729EQkgYXvjyPNLTz2LTs4GQaY5hRVwC9kYkIS27ENkHFyNg03i8slkNnc2xLM2uljFY6oblFKAABShgVwEmwXbl5+AUcAyBywV39gHXNCLDnSNqWt9YT+aP2BefRnux1VjZDk++OBwFX27FMWkrr+bQFmwricPcl6OgkivhP3Qepg9rdmcImR8efHIkega6QyFvifD4mXjKJxU/nNKYDUOT9gnWX4nFwsSHEeQmR/PQWCROCceerftQYGsssz1KhbWMwVI3LKcABShAAfsK8BZp9vXn6BRwSIFmSjmu3Vbg2PRu9R+f3Af+vgpjv3Jff3hJq7450nJvWc415LXujWDjO1MLtGvvC+Nv67pCHF47F/M/3IXTag3kilIUZuvw5M2qe5kNnZdduYys3L14KWofXA2FJUVwjSpCodrGWJZmXssYLHXDcgpQgAIUsK8Ak2D7+nN0CjiEgLgPsLgNmptCBnWJEmkzyz8M1/nd4whTmQ9RtKl+uMLVtRQa48KsFkUFN6BtWamm9iouZUorz73K335KMi8h2zsQvlKmq5ASYu88Na5LCXEnfZ6sQY46H9q25e1LTyRh0pu/Y/LONHwT4Qll6REs6BkLdUX3MrELuFI+rPBvjcA28fj4eBIGGrPg8sqalCNWx6o+t7rFYKkfllOAAhSggH0FuB3Cvv4cnQIOITCogyfub9cK2yZ2x9lXIzHmX6fQJ+kwVAoNrt00v9VAtKl2uHRBj87nsPf7LJRJJ0subsKa73Ir56VSklqI7Unv4mBuGbR5P+O9d76Gz4hR6CHlxC594xCjTcbanWr9PmDNhQ1Ys6PA2F53owjF7sHoHCIlwFIN9Z612HJWjCQdci/4eOTiYnqhsb5L9HiM9/gMC5bsRkaxlB2X3cK103vwbaoaShtjVZtbRUFtY7DUD8spQAEKUMC+AkyC7evP0SngEALj+wRItzzTYWryOX3yezH3D6txtVa5QbSpdshDkfDObMjfG4SIPv3xyKtnETE4+M52BtFAeR+eirmNtwcEwyd0JJJDlmLjgujy7Qrug7B4w1QULRqInv0H49HZvyJyWHsYNk+43D8Nyx8/gZd79cSDQx/F89/44YHwij9oKe7D0zOH48KsjvD09EfM2izoXHthfvI6DD09DwOCVVD5hmLAxA+Qmiul2DbGqja3ioJax2CpI5ZTgAIUoIBdBWTSPT/Nb6aza1gcnAIUaAgB2cqj+m51M6KqdW94WIattwSZTIYP4zqhT9tW1fqwWSBukRY+A15bU/GWWPrl0SQFrL3OmuSEOSkKUMApBbgS7JSXjUFToP4FRFIrkluxymvpEOfqnABb6pTlFKAABShAATsIcCnGDugckgKOKiAS4c+e7ap/EIa4d7Dh1mniQ3BiD7DYAuHu0vR/d9amr8boR5bhiOl2aJdeeGP3FkwOafoGjvoaZVwUoAAF6kuA2yHqS5L9UMAJBPhnaie4SE0gRL7OmsBF5BQocA8IcDnjHrjInCIFKEABClCAAhSgQFUBJsF8RVCAAhSgAAUoQAEK3HMCTILvuUvOCVOAAhSgAAUoQAEKMAnma4ACFKAABShAAQpQ4J4TYBJ8z11yTpgCFKAABShAAQpQgLdI42uAAhSoIlCs0epvkbbvt3xk5t/Wn7vXbpHGlwQFKEABCjR9Aa4EN/1rzBlSoMYC4qlxT60/jTU/ZeHMtWIUl5Tpv8T3okycE3VqfmhwcE44us1LRamtRpqf8FqXrnj9kM2atnqycb4WMdnoiacpQAEKUMB5BZgEO++1Y+QUqFcBw2OTrxSWr/6Kzv1buCColYtxHHHupS/O1TIRrtcwAc0BzOrcGMmylbgdIQYr4fEUBShAAQrYFmASbNuINSjQ5AXEFoi3dl2CTqerMtfzhcBXkyKrlIk6oq5ow4MCFKAABSjgrAJMgp31yjFuCtSjgNgDXHkF2FbXoq5oU/3QoejwKoyNCoSHVxAiYpdh//WqibUmYzsSR0QiyLMlVIGRiFueAnXVKvpuzde7je3T4rEu/Tw+GhmGkJDOGLv+KkRz8/VFT7Zjqj4P0SwHuxbFoHeoHzxaqhAQ8QQSd2RBC8sxmO2HhRSgAAUo4JACTIId8rIwKAo0rkDKhfxaDyg+OFftuLUfiWOXIHfCDmRez8DeGcX4YkuGlDhWHJpjWBGXgL0RSUjLLkT2wcUI2DQer2xW6xNZ42GxXiH+/P5GJISE4YUvzyM9/Sw2PRsImcX6Ur+2Yqo2CUOBDu7dErD24CXkFmYhZY4KG597DdsK3DDcXAwW++EJClCAAhRwRAEmwY54VRgTBRpZ4HLBnX3ANR3acOeIyvU1h7ZgW0kc5r4cBZVcCf+h8zB9WDNjFU3aJ1h/JRYLEx9GkJsczUNjkTglHHu27kNxpY5qWs/QxFr9AhsxWZyvzA8PPjkSPQPdoZC3RHj8TDzlk4ofTmksNuEJClCAAhRwHgHeIs15rhUjpUCjCTRTynHttgLHpner1ZhlOdeQ17o3go3vLC3Qrr0vDL9tl125jKzcvXgpah9cDT2XFME1qgg3Ki0FW68XWC0ma/UL1dZjqtaZoUBXiMNr52L+h7twWq2BXFGKwmwdnrxpZu+GxU54ggIUoAAFHFWASbCjXhnGRYFGFBD3ARa3QXNTyKAuUSJtZvmH4Tq/exxhKvOBiDamh8LXH955alyX9j90UoizGuSo86FtW15T4d8agW3i8fHxJAw0ZsEVvUi3SDMc1usdgExsnqiUi1qrr0k5YjUm0zkYfi49kYRJb/6OyTvT8E2EJ5SlR7CgZyzUFRVMY7DUD8spQAEKUMAxBbgdwjGvC6OiQKMKDOrgifvbtcK2id1x9tVIjPnXKfRJOgyVQoNrN83/+V+0MT1c+sYhRpuMtTvV+n3AmgsbsGZHgTFfdYkej/Een2HBkt3IKJay2LJbuHZ6D75Nrbon2Go9uRd8PHJxMb2wRv0qbcRkOgfDz7obRSh2D0bnECkBlmaj3rMWW86WlZ82E4OlflhOAQpQgAKOKcAk2DGvC6OiQKMKjO8TIN3yTIepyef0ye/F3D+sjt9a5QbRptrhPgiLN0xF0aKB6Nl/MB6d/Ssih7WHflFYHK69MD95HYaenocBwSqofEMxYOIHSM01ud2atXqK+/D0zOG4MKsjPD39EbM2Czpr9W3FVG0S5QUu90/D8sdP4OVePfHg0Efx/Dd+eCC84o9n5mKw0A+LKUABClDAMQVk0j0/ucHNMa8No6JAvQvIVh7V96mbEVWtb8PDMmy9JchkMnwY1wl92raq1gcLKCAErL3OKEQBClDAUQS4EuwoV4JxUMDOAiKpFcmtWOW1dIhzTIAt6bCcAhSgAAWcSYAfjHOmq8VYKdDAAiIR/uzZrvoHYYh7BxtunSY+BCf2AIstEO4uTed3Z236aox+ZBmOmG57dumFN3ZvweSQpjPXBn7psHsKUIACTifA7RBOd8kYMAXqLsA/U9fdji1rLsDXWc2tWJMCFLCfAJc57GfPkSlAAQpQgAIUoAAF7CTAJNhO8ByWAhSgAAUoQAEKUMB+AkyC7WfPkSlAAQpQgAIUoAAF7CTAJNhO8ByWAhSgAAUoQAEKUMB+AkyC7WfPkSlAAQpQgAIUoAAF7CTAJNhO8ByWAhSgAAUoQAEKUMB+AkyC7WfPkSlAgXtGQIODc8LRbV4qSu+ZOXOiFKAABRxbgEmwY18fRkcBCtS3gOYAZnXuitcPMR2tb1r2RwEKUMCZBPjEOGe6WoyVAg0k4L7qOG6VauHTXImcFyL0oxgeeCCTyaCd3sM4svf/nkTeH6VorpSjeGqk9YjKylCmUEBhvRbPUoACFKAABRpdgCvBjU7OASngWAKGBFhEdf1WqTH5NUSp0+nuJMQrj+oTYHGIpNmQKBtnpEnBtI7dkbB0DmL7RSG896v4vgTQZGxH4ohIBHm2hCowEnHLU6DWiVY6FB1ehbFRgfD0boOIEW9hxcT77mwbuJ2Mcd5DsCpTWzGEBj/M7IQeiUeM2wos9q39Hd/OewxdArzg6eWD1p2HYOnPN7B9WjzWpZ/HRyPDEBLSGWPXX5WisHyUpH+F+SOi0MazFVS+IYie9CnSK8K5efKfeHFQB/i0agWf0IGY/PEJ3NR3dWdeHl5BiIhdhv3Xq45iMW7LofAMBShAAQrUowCT4HrEZFcUcEYBkcyKQzcjqlr4osxaublzKD2D7450RVLKUfzn6Ht4WHYMK+ISsDciCWnZhcg+uBgBm8bjlc1q6G7tR+LYpSiYuAuZOZfw/8/8A19+cQmGlLdaQKYFGst9lxz8G2Zs64CkE2rk52XjzM4ViGnrjuHvb0RCSBhe+PI80tPPYtOzgZCZ9mv4ueQwlo6aiN1hS3AgqxD5lw9h3cTuaCka3PoBC0fPwZk/bcTZvDyc2/Q4zr8+Ggv235LOiXktQe6EHci8noG9M4rxxZaMO/OyEre1hNxSmCynAAUoQIHaCzAJrr0ZW1CgyQkYklnTpDb0418hvmp1yAMxcko8OrqJVjJo0j7B+iuxWJj4MILc5GgeGovEKeHYs3UfCg5twbbSJzH3xUi0kivhN3guZjzqXuPhrPV9y9UVyqIMHD/xG3I1SqhCoxEZVLu3PM2hDdioHoW3Fz+BEHcZ5M380b1/d/hKSbDm0OfYWjwa82c/AB+lEt79ZmPBmD+w9bOfUCzmVRKHuS9HQSXNy3/oPEwf1sw4L2txF9d49qxIAQpQgAJ3I8A9wXejx7YUaCIC1bY1VMzr4nNd9N+Znv/5anmqJpf2C/cNaF5VQe4NP587yWbZlcvIyt2Ll6L2wdVQs6QIrlFFKFRfQ15Ab7Q2bhp2R5tgH9Q0VbXW9x+952L9wkS89fowLDsvQ/jjL2Dpe3PxsG/NL1pZ9hXktO6B9vqEvupRlnMNuQE90MbFUK5EcLtA5KWpcVs6l9e6N4KN77At0K69r3Fe1uK+IS0Ft7C4NG0aBX+mAAUoQIG6CjAJrqsc21GgiQmIVWDTZNfws1JeNSvr9++zxtmbrh6L1d/Kh8K/NQLbxOPj40kYaMyCy2toUo7AK/syrpQBnfSJ8C1k/X4d2o6GHlzh6loKjcbwsxZFBTegbVn+s7W+RY2A5/8HX0tfmpxfsHrSE3huST+cX+kmRShlmjXYd6AICILv1YvIkPY1dzHJ9RW+/vDOzkSWtEW6iz72UlzOuAqvAD+4iXN5alyX9nWUz0uDHHU+tG1rFrdhtvw/BShAAQo0nEBNF1waLgL2TAEK2F3AkMhui+1gNpaj8eH68tLpVfcNF02xcXcIqY1L9HiM9/gMC5bsRkaxlHmW3cK103vwbaoayr5xiFVsxjurT+KGrgw5+1Zg5c5KGwJcuqBH53PY+30WpDwZJRc3Yc13ucb81VrfJb/uwOc/pqNISlJdVP4I8HCDQq6ATO4FH49cXEwvtJkHu0SPwzjfZCx68ztk3NJBd1uNkwdPIkeahkv0GIxsvgXLV6YiT7oLRl7qSizb7IZRY+6HuzSvGG0y1u5U6/cBay5swJodBTWKuwa5udlrxEIKUIDCPjPSAAAXLElEQVQCFKidAJPg2nmxNgWanEDlldzYDirjB+FEueGrm0/5fgCFtMhbubylSw3eQlx7YX7yOgw9PQ8DglXSHRZCMWDiB0jNldJD90FYvPF1tFj9MNr4tMPgd10xIq79ne0Q8lAkvDMb8vcGIaJPfzzy6llEDA6+c95K37rCE1g/dTBCfTzgGRiNxQUTsGb+QLgo7sPTM4fjwqyO8PT0R8zaLMvJsGsfLNi6BoNPzUF0gAqebfoi4R8npIRdehk0H4jFm5cj9Osx6OjpiY5jvkLIss1Y8pC0p1nMa8NUFC0aiJ79B+PR2b8iclj7O7eKsxJ3k3uBcUIUoAAFHFRAJt3+iAsPDnpxGBYF6lvAsL2h+haG+h6prv2JJ6t1xyTlJzi2vC+4X6uujvZt5/ivM/v6cHQKUMAxBGqwjOMYgTIKClCAAhSgAAUoQAEK1JcAF1rqS5L9UIACTimgTV+N0Y8swxHjh+8qpuHSC2/s3oLJIVwrcMoLy6ApQAEK2BBgEmwDiKcpQIHGFHDBA//9H5xqxCHlIZOx9dzkRhyRQ1GAAhSggCMIcInDEa4CY6AABShAAQpQgAIUaFQBJsGNys3BKEABClCAAhSgAAUcQYBJsCNcBcZAAQpQgAIUoAAFKNCoAkyCG5Wbg1GAAhSgAAUoQAEKOIIAk2BHuAqMgQIUoAAFKEABClCgUQWYBDcqNwejAAUoQAEKUIACFHAEASbBjnAVGAMF7mUBzU94rUtXvH6otPYKd9O29qOxBQUoQAEKNCEBJsFN6GJyKhRwSgFFKEYmLsDIujyUonJbzQHM6lzHZNop4Rg0BShAAQrcjQAflnE3emxLgSYi4L7qOG6VauHTXImcFyL0s5KtPFr+f5kM2uk9jDP1/t+TyPujFM2VchRPjbw7gbIylCkC0H/cuNr3Y9rW9Ilvte+RLShAAQpQ4B4S4ErwPXSxOVUKmBMwJMDi3PVbpcbk11BXp9PdSYilxFgkwOIQSbMhUTb2q0nBtA4RmLBwGmIeGoC+XcPR769rcaK4ooY437E7EpbOQWy/KIT3fhXf36y6HeLmyX/ixUEd4NOqFXxCB2LyxydwUzS32vYmtk+Lx7r08/hoZBhCQjpj7PrfcfbdAQgYvQm5OkOEt7Fvehg6zdiH28ag+Q0FKEABCtyLAkyC78WrzjlToJKASGbFoZsRVc1FlFkrN3cOZWew82RvrPq/A0g9vgtTby5G/NJUlBh6Lz2D7450RVLKUfzn6Ht42LVyMD9g4eg5OPOnjTibl4dzmx7H+ddHY8H+W+WVLLZ1w/D3NyIhJAwvfHke6elnsenZNgh7Mh7d92/C1+qKLPjWPny6zRVx4x6AW7XZsoACFKAABe4lASbB99LV5lwpYEHAkMyaJrWhH/8K8VWrQ+aP2BefRnsXqZWyHZ58cTgKvtyKY4bPvckDMXJKPDrqs1BZla41hz7H1uLRmD/7AfgolfDuNxsLxvyBrZ/9BP1uByttzcUob/sXxPc9hH9vuwKRBt/Y8ym+8RyDsb1EcDwoQAEKUOBeFuCe4Hv56nPuFKgQqLatoaL84nNd9N+Znv/5avn+Brm0X7hvQPOqjnIf+PsqjGVyX394Xc9AjlhwFjmv3Bt+PuZ//y7LuYbcgB5oY8xRlQhuF4i8NDVKEWC1bdUgKn6SBSD2mYGYvyYZmROfQeqnO9Dmqb2I4DufWS4WUoACFLiXBPhPwb10tTlXClgREKvApsmu4WelvOqKbb9/nzX2ZLp6DO1VXMqUdtz2Kn97Kcm8hGzvQPiKvFe/K6FqX5VDUkgJs3d2JrKkVeMu+jy6FJczrsIrwA/lvVluW96zNIBx/295ic+fn8GwV9/F5sMe+HFPJzy95D7cSdErj87vKUABClDgXhIwvxxzLwlwrhSggHHf77bYDmY1jsaH68tLp1fdN1w0xczdIXSF2J70Lg7mlkGb9zPee+dr+IwYhR41+JXbJXoMRjbfguUrU5En3f0hL3Ullm12w6gx98PmBga5F3w8cnExvbBqHqx6BM8Mz8TqScuR0n0sRtflVmxmVVhIAQpQgALOLFCDf5aceXqMnQIUsCVQeSU3toPKmBBXW+GVOlJIC7HmyquMobwPT8XcxtsDgvHTFaBD7FJsXBCNyp9/sxhT84FYvHk5Zr48Bh2XXAd8IvGXZZux5CF36e4QFluVn1Dch6dnDscXszrC8wUXDHr3KL6aFCStO7vjoWdGovQf63D/jFEI5q/+NiB5mgIUoMC9ISCTbn9U5Y+H98a0OUsK3JsChu0NNhPZuvKI25iFz4DX1lS8VZOl37qOU8t22gt/w6AHfsTLv27BOB/rWypq2TWrmxFo8NeZmTFZRAEKUKC2AlwTqa0Y61OAAk4mUISDH/4TmTETEcME2MmuHcOlAAUo0HACTIIbzpY9U4ACdhbQ5X2KJ/3aYOSuPvivxMfQys7xcHgKUIACFHAcAe4JdpxrwUgo4PwCLg/h/Qu/OMw8ZF7j8Lm6Do9kdpgZMBAKUIACFGgoAa4EN5Qs+6UABShAAQpQgAIUcFgBJsEOe2kYGAUoQAEKUIACFKBAQwkwCW4oWfZLAQpQgAIUoAAFKOCwAkyCHfbSMDAKUIACFKAABShAgYYSYBLcULLslwIUoAAFKEABClDAYQWYBDvspWFgFKAABShAAQpQgAINJcAkuKFk2S8FKFB3Ac1PeK1LV7x+qLTufTRISw0OzglHt3mpsBqZeHJex55YdMxqrVpEWMNxa9Ejq1KAAhS41wV4n+B7/RXA+VNAEjB9zO1R9S303HjGaPNL/H2I8mturKeQydBcKcMNjRZ3/QhmzQHM6vY8XDYcx4roirckRShGJi6ALKSef083N9a99gqgwb12xTlfClDAggCTYAswLKbAvSIgEuAJXb3xr9O5ximLBDjvpe7wdFPAkBCLZNeQ8JZqdbgpJcCeH55oGCZ5APqP40MuGgaXvVKAAhSggBCo52UWolKAAs4mcHFiV/zz0XZVwhbJrkiAxRGicq02JZ1UIhJgc6vAmoztSBwRiSDPllAFRiJueQrUooH2d3w77zF0CfCCp5cPWncegqU/38D2afFYl34eH40MQ0hIZ4xdfxW6ytsh9FsLemDK399ETBc/tFK1w6A525F5MRmzhoTBu6UHQv+0BPvzxSDSocvBrkUx6B3qB4+WKgREPIHEHVnQ4rb5saQmFmOGDkWHV2FsVCA8vIIQEbsM+69XjFNNxbRAi+zdC/F4l9bw8myDvn9dixPFFXVuJ2Oc9xCsytRWFGjww8xO6JF4pGKbha1xdShMfR9P9wiEp3cbRIx4C+9MvK/KNg3zc7JsYBo9f6YABSjQ1AWYBDf1K8z5UcCGgLkkt3ITLynZXdQv0FgkVo5brz6FpIfaVO9Zcwwr4hKwNyIJadmFyD64GAGbxuOVzWqUHPwbZmzrgKQTauTnZePMzhWIaeuO4e9vREJIGF748jzS089i07OBkJn2XHoOybtVWPTjFeQcexv+n07CkAlfI/KDX6DOPoCppSvx2upzKNO308G9WwLWHryE3MIspMxRYeNzr2FbgZv5sazErLu1H4ljlyB3wg5kXs/A3hnF+GJLhpRQ1+AoPYPN25tj0YHLuC4l7KMuvYFxS1NRUoOmsDVu8T4kjvsv3Hh+NzJzMvD9nDJ8nVwpLotzKsSfa+JdkxhZhwIUoICTCzAJdvILyPAp0FAC+bfL9HuAp/f0w5uVkmCx+pvzYgRmpvyOGdJX5UOT9gnWX4nFwsSHEeQmR/PQWCROCceerftwy9UVyqIMHD/xG3I1SqhCoxEZVMO3ILkfRs2aij5eSriFxuEv0TfQYugMPNOlFRQtumJ0bDecPXa6fBVV5ocHnxyJnoHuUMhbIjx+Jp76f+3dC1RT9x0H8G8SEpRpQBJBAR+Izw0EUamPaqmvM6egVmtbwLNVrV3Vap2P6dTaTqybdWq7HtuJ1h3nq/XB0bpqdXCUOT0TtT6x1TodMqiGohIUTUiyewOXR0hiULTm8r3ncEj+997/4/OPOT///PKPLhuHz5udUrnr8+1j27HLNBpzJ8dAq/RB0IB5mD6okdN6ahUqApAwcyZ6BaqgbBaHGXMSUZS+E558Vs78gHbN2Tuw2/oi5kyKQlOlCvpnZ2HaEL/KLrgbk7QYXau/LKAABSjQwASYE9zAJpzDpYAnAlIecHqC8AG1CH+nt4jBsBgkr6q2ImwpyEN+USbeiMlCZRKFyQhNjBH3us/FhrcX4t3fDsJ73ynQeejrWLJiLgbqnVZfs1AZCL1OCpg1aNTIB7rmgRX5XAr4NtLAYjKVr9DainFi7VzM/3g/cgxmKFVlKL5uw9g7ztMY3PW52HADN1t2R1jlO+VP0LqN3rM8MmUQwkKqUknUIWFoXpSLQg+WkS2F7tu1FF7HzaAeaFmesSJYNUbLEMkDcDemElvVqr4H8ryEAhSggGwFGATLdmo5MAo8vID4wThpRwipFnFlWEyNkPKAxUDZ8VAFtUSL0GSsP7MS/WqnEiP4tT/jC+HHXPg11kwcjldTe+G7Vb5C+oMQoDqPUR2beODzsrMrMfGd/2HSV8exJzIAPmUnsaBbIgwVdzq25a7P5kMnEXjTgB+EwLWDPeA0o9BwC9ZWD+yGkAN9A3n5QvJDbPnbrDk/D4bAYOjFWN6igUZTBnPl4rQVxtslsDYpr1elD3LbrkofjGY38lAg5H+U96sUBflFsLaruN/dPAi7QzgaeDAaXkIBClBAdgIe/i1SduPmgChAgQoBMaVB2iJN/C0Ft2IgLD6XfsQPyom7SEjPpUC5OqQ6bhzG+X+GBakHkHtXiGotpbiRk4Evs4Wc4Av78PmRqzAKW+eqtUEI9vcV0hVUUCibQedfhCtXi+slDraVGHHXLwwd2woBsLA2bMhYi+0Xy7OFhbyEWm2567NPz9FIsKZj7VcG+yqz+fJGpO277Vk/bbewZ+UqHLtphfXWcXzw/m40GzEK0WJMrO6C6I6XkHkw357HbLqyBWl7iyrrVT+gXXXPURiu2Ib3086hxGZB4eHl+HB/VaKDuzHZnBjwHwMFKECBhijAILghzjrHTIFqAmI6g7T9mfhb3A+4+nPpsXiLuIuEuJvE6gFh9mvEa2scmljMT1+HATnz0DdMC60+HH3Hr0Z2kbCfcPFZbJgaj3CdPwJaxGHx7V8ibX4/qFWd8PKMYbj8mwgEBAQhYW2+Z0Gmi1lUPzMNS4eexeTYbnh2wBC8tqc5eneW9h920pabPsOvPxZvnArjon7o1iceQ2ZeQNdBbVCZheCiD/Zin04YM7QEi/qEQtc2AdvCFmPTgrjyNBFlOCYsmwnliv6I7NEHg2ddRGR8WFWaxYPa9YtH6qbZaPzJAITqWiN+mQrDRoQJlhU9czemevZ2R8BzFKAABZ5mAYVNOJ7mDrJvFKBA/QlIK75SSkP91cyaflyB29g6JgJ/ee5rZLzZyrOc5cfYYb7OHiMuq6YABepNgCvB9UbJiihAAQo8KQEr8o7sE7ahMwmr5iYU/GMJVhzsiKGDQ370APhJCbAdClCAAo8qwA/GPaog76cABRqkgPXqGowZ/B5OOu68po7F7w5sx6T6/srnGsrCN/ad/xS/GpOM/HtW+Oi64aUP12NaZ48SNRrkfHHQFKAABRwFmA7hKMLnFJCxAP9MLePJfYqGxtfZUzQZ7AoFKOBSgOkQLml4ggIUoAAFKEABClBArgIMguU6sxwXBShAAQpQgAIUoIBLAQbBLml4ggIUoAAFKEABClBArgIMguU6sxwXBShAAQpQgAIUoIBLAQbBLml4ggIUoAAFKEABClBArgIMguU6sxwXBShAAQpQgAIUoIBLAQbBLml4ggIUoAAFKEABClBArgIMguU6sxwXBShAAQpQgAIUoIBLAX5jnEsanqBAwxHw++gMSsus0DX2QeHrkfaBS194oFAoYJ0eXYkR+Mk53LxXhsY+Styd2vXxIVkssKhUqPEdaM7KHl8PWDMFKEABCshYgCvBMp5cDo0CnghIAbB47Q+lZZXBr3SvzWarCohXnbIHwOIhBs1SoFy9HdPV3Zg/IgahAU2h1bdF3MTNuGoVrrifjqTA5/HRNfGJeJhxeEYHRC88CXuN5kOYFhGFCUtmI7FXDDp3n4WDd5yUmYRLc/+OhSO6IiSgCbQtumL00kMw2KrXMQej+sUhun07dEteg3P3KpoUfjnvnwWXlvdF8JgtKBLrsR/3kTW9PTq8lSU84kEBClCAAnITYBAstxnleChQRwExmBUP21sxte4Uy9yV1zpnOoElo8bjQPtU/Cu/GLfyjmHd+Cg0UdSq2nlB2bfYe/KnWHnoFL45tQIDNcJljmWK0/jj6AnIjFyJ49eLcf3oYgRvGYc3txlgj1+F6w/kxOKDzGM4nbMXKdcWYO7m6+XnXPZPhYixyYj65xZ8YY+mhaM0C5t3aTA6qTd8nfeWpRSgAAUo4MUCDIK9ePLYdQrUl4AUzDoGteHrL0D88fQwH9uITYZR+P3i4Wjrp4CyURCi+kRB72kQrGyBkVOSEWGPOitucigzH/8bNhQk4u2FAxHiq0Tj8EQsnNIZGTuzcFe8TdkKL/x6NFqrhceaCAx6PhTfnP7Wvtrsrn/KVi8guecxbN1VYA+YSzI2Y0/Ai3glVqyIBwUoQAEKyE2AOcFym1GOhwIPIeAsrUGs5sqrXey1OZ7/9/f2cBNKIV+4Z3Bj+2PxsFwvQGHLaLR52KVTZSCa6xz+b+5QZinIQ35RJt6IyYK4UGw/TEZoYowosemFTmnhr5WibgXUGh+YTCZ7YGt11z9FMBJT+mF+WjqujU9B9uZ9CH0pE5F8l5SU+ZsCFKCArAT49i6r6eRgKPDwAuIqsGOwKz33UdZcyu219WJlQ9VXj1XBIdB/fwW5Qt5ul6rYuOJaDTSaMpjN0q1WGG+XwNqkep+dLRnXLFMFtUSL0GSsP7MS/Sqj4Io6hLxid4f7/img+0UKBs1ajm0n/HEkowNeTu1U84N57irnOQpQgAIU8CoBpkN41XSxsxR4PAJSILsrsZ3TBk4ld7aXl02vmTdsnFJzdwh1XBKS9OlY9M5e5JbaYLtvwLmj51AoLsOquyC64yVkHsyHRXhqurIFaXuLynN1nbbqvFAdNw7j/D/DgtQDyL0rVGwpxY2cDHyZXZET7Pw2e6nb/okXaAcjZdg1rJm4FIeiXsGYtnyLdMPJUxSgAAW8WoDv8F49few8BR5doPpKbmI7beUH4cRy6ednuvL8BpWwKFu9vIna4S1E0wMLdqYh/vxsxAVrERDaExM+PSukKQj9VIZjwrKZUK7oj8gefTB41kVExoehzm9CmljMT1+HATnz0DdMK+xAEY6+41cju0jadcKNibv+2W/zw3MpI1F2IRfPJI1CWJ0756ZtnqIABShAgadKQCFsf1S5IdBT1TN2hgIUqHcBKb3B8QNw9d6QF1dovfwn9O99BJMvbEeSzll6hhcP7gl1na+zJwTNZihAgUcS4DrHI/HxZgpQQF4CRhz9+K+4ljAeCQyA5TW1HA0FKEABBwEGwXxJUIACFBAEbDc3Y2zzUIzc3wN/WPhzNKUKBShAAQrIWoC7Q8h6ejk4ClDAUwFFsyR8bkjy9HJeRwEKUIACXi7AlWAvn0B2nwIUoAAFKEABClCg7gIMgutuxjsoQAEKUIACFKAABbxcgEGwl08gu08BClCAAhSgAAUoUHcB5gTX3Yx3UMDrBRy/Gc7rB8QBUIACFKAABeoowJXgOoLxcgpQgAIUoAAFKEAB7xdQ7Nixg1+W4f3zyBFQgAIUoAAFKEABCtRBQPHf/1xiEFwHMF5KAQrUFrApFCi5UwqjsQQWi6X2BSyhgIwFFMLrv5GvBgHapvDxUcl4pBwaBeQl8H+bbAYhIIrVRAAAAABJRU5ErkJggg==;" vertex="1" parent="1">
          <mxGeometry x="-1020" y="500" width="705" height="820" as="geometry" />
        </mxCell>
        <mxCell id="BVL4bL25nlAPJT_1eoTr-5" value="&lt;h1 style=&quot;margin-top: 0px;&quot;&gt;POST /api/categories&lt;/h1&gt;&lt;p&gt;Create category + custom field&lt;/p&gt;" style="text;html=1;whiteSpace=wrap;overflow=hidden;rounded=0;" vertex="1" parent="1">
          <mxGeometry x="160" y="990" width="180" height="120" as="geometry" />
        </mxCell>
      </root>
    </mxGraphModel>
  </diagram>
</mxfile>
